<svg width="24" height="24" viewBox="0 0 24 24" fill="none" xmlns="http://www.w3.org/2000/svg">
<path d="M21.8 6.1C21.6 5.7 21.3 5.4 20.9 5.2C20.5 5 19.9 5 18.8 5H5.2C4.1 5 3.5 5 3.1 5.2C2.7 5.4 2.4 5.7 2.2 6.1C2 6.5 2 7.1 2 8.2V15.8C2 16.9 2 17.5 2.2 17.9C2.4 18.3 2.7 18.6 3.1 18.8C3.5 19 4.1 19 5.2 19H18.8C19.9 19 20.5 19 20.9 18.8C21.3 18.6 21.6 18.3 21.8 17.9C22 17.5 22 16.9 22 15.8V8.2C22 7.1 22 6.5 21.8 6.1ZM6 13.5C5.2 13.5 4.5 12.8 4.5 12C4.5 11.2 5.2 10.5 6 10.5C6.8 10.5 7.5 11.2 7.5 12C7.5 12.8 6.8 13.5 6 13.5ZM11.5 11H12.5C13.9 11 15 12.1 15 13.5C15 14.7 14.1 15.7 13 16C13 16.5 12.5 17 12 17C11.5 17 11 16.5 11 16H10C9.5 16 9 15.5 9 15C9 14.5 9.5 14 10 14H12H12.5C12.8 14 13 13.8 13 13.5C13 13.2 12.8 13 12.5 13H11.5C10.1 13 9 11.9 9 10.5C9 9.3 9.9 8.3 11 8C11 7.5 11.5 7 12 7C12.5 7 13 7.5 13 8H14C14.5 8 15 8.5 15 9C15 9.5 14.5 10 14 10H12H11.5C11.2 10 11 10.2 11 10.5C11 10.8 11.2 11 11.5 11ZM18 13.5C17.2 13.5 16.5 12.8 16.5 12C16.5 11.2 17.2 10.5 18 10.5C18.8 10.5 19.5 11.2 19.5 12C19.5 12.8 18.8 13.5 18 13.5Z" fill="white"/>
</svg>
