<svg width="24" height="24" viewBox="0 0 24 24" fill="none" xmlns="http://www.w3.org/2000/svg">
<path fill-rule="evenodd" clip-rule="evenodd" d="M16.1151 1.79231C16.4682 1.59398 16.9153 1.71948 17.1136 2.07261C18.908 5.26766 21.3252 13.5247 17.1479 21.8618C16.9665 22.2238 16.5259 22.3703 16.1638 22.1889C15.8017 22.0074 15.6552 21.5668 15.8366 21.2047C19.7367 13.421 17.4635 5.69086 15.8348 2.7908C15.6365 2.43767 15.762 1.99063 16.1151 1.79231ZM12.0695 3.61098C12.4292 3.42478 12.8718 3.56541 13.0579 3.92507C14.4574 6.62835 16.3977 13.5392 13.0617 20.0667C12.8774 20.4274 12.4356 20.5703 12.075 20.386C11.7143 20.2017 11.5714 19.7599 11.7557 19.3993C14.8014 13.4398 13.0258 7.05324 11.7554 4.59938C11.5693 4.2397 11.7099 3.79719 12.0695 3.61098ZM8.264 5.88627C8.62072 5.69439 9.06536 5.82798 9.25728 6.18466C9.8392 7.26637 10.4848 9.07336 10.6739 11.1702C10.8644 13.2806 10.5995 15.781 9.23384 18.1415C9.03104 18.4921 8.5824 18.6118 8.23184 18.409C7.88127 18.2062 7.76151 17.7576 7.96434 17.407C9.14072 15.3738 9.38408 13.1957 9.2132 11.3019C9.04232 9.40824 8.45664 7.79218 7.96563 6.8795C7.77375 6.52283 7.90734 6.07814 8.264 5.88627ZM3.96524 8.06424C4.31743 7.86426 4.76506 7.98763 4.96505 8.33984C5.38308 9.076 5.84701 10.2688 5.98431 11.6158C6.12275 12.9742 5.939 14.6276 4.86863 16.0936C4.62981 16.4207 4.17104 16.4923 3.84393 16.2535C3.51683 16.0146 3.44526 15.5559 3.68408 15.2288C4.4775 14.1421 4.63955 12.8865 4.52519 11.7646C4.41079 10.6421 4.01877 9.6436 3.68967 9.06408C3.48967 8.71184 3.61305 8.26424 3.96524 8.06424Z" fill="white"/>
</svg>
