<svg width="24" height="24" viewBox="0 0 24 24" fill="none" xmlns="http://www.w3.org/2000/svg">
<path d="M19.9 5.7001C19.8 5.4001 19.6 5.1001 19.4 4.9001C19.1 4.7001 18.7 4.5001 18 4.2001L12.6 2.2001C12.4 2.1001 12.3 2.1001 12.2 2.1001C12.1 2.1001 12 2.1001 11.9 2.1001C11.8 2.1001 11.7 2.2001 11.5 2.2001L6.1 4.2001C5.3 4.5001 5 4.6001 4.7 4.9001C4.4 5.1001 4.2 5.4001 4.1 5.7001C4 6.0001 4 6.4001 4 7.2001V12.0001C4 16.9001 9.4 20.5001 11.3 21.6001C11.5 21.7001 11.6 21.8001 11.8 21.8001C11.9 21.8001 12.1 21.8001 12.2 21.8001C12.4 21.8001 12.5 21.7001 12.7 21.6001C14.6 20.5001 20 16.9001 20 12.0001V7.2001C20 6.4001 20 6.0001 19.9 5.7001ZM16.2 9.7001L11.7 14.2001C11.5 14.4001 11.2 14.5001 11 14.5001C10.8 14.5001 10.5 14.4001 10.3 14.2001L8.3 12.2001C7.9 11.8001 7.9 11.2001 8.3 10.8001C8.7 10.4001 9.3 10.4001 9.7 10.8001L11 12.1001L14.8 8.3001C15.2 7.9001 15.8 7.9001 16.2 8.3001C16.6 8.7001 16.6 9.3001 16.2 9.7001Z" fill="white"/>
</svg>
