<svg width="136" height="28" viewBox="0 0 136 28" fill="none" xmlns="http://www.w3.org/2000/svg">
<path d="M13.5787 0C6.0775 0 0 6.08742 0 13.6009V27.2018H13.5787C21.08 27.2018 27.1575 21.1144 27.1575 13.6009V0H13.5787ZM2.71469 21.7636V13.3455C2.71469 7.47624 7.46406 2.71912 13.3237 2.71912H21.7281H22.525L19.8103 5.43824H10.8641V8.15735H17.0903L11.6609 13.6009H5.42937V16.32H8.94094L2.71469 22.5618V21.7636ZM24.4428 5.43824V13.8563C24.4428 19.7256 19.6934 24.4827 13.8337 24.4827H5.42937H4.6325L10.8587 18.2463V21.7636H13.5734V15.5272L19.0028 10.0889V16.3253H21.7281V7.3645L24.4428 4.64538V5.43824ZM49.7144 4.29418C50.7025 4.81034 51.4303 5.54998 51.8978 6.51311C52.3653 7.47624 52.5353 8.58837 52.4025 9.86013C52.2697 11.1319 51.8659 12.2387 51.1966 13.1912C50.5272 14.1437 49.6453 14.878 48.5456 15.3941C47.4512 15.9103 46.2241 16.171 44.8641 16.171H41.1984L40.5344 22.5618H36.4597L38.4572 3.51729H46.1975C47.5575 3.51729 48.7316 3.77803 49.7144 4.29418ZM44.8481 12.7655C45.8097 12.7655 46.5959 12.5048 47.2122 11.978C47.8284 11.4512 48.1844 10.7434 48.2747 9.85481C48.3703 8.95021 48.1631 8.23185 47.6584 7.70505C47.1537 7.17826 46.4206 6.91752 45.4591 6.91752H42.1706L41.5544 12.7655H44.8481ZM65.7369 22.5618H62.3422L62.22 20.6036C60.9716 21.9977 59.4469 22.7001 57.6566 22.7001C56.4241 22.7001 55.3509 22.4074 54.4319 21.8274C53.5128 21.2474 52.8381 20.412 52.3972 19.3265C51.9616 18.241 51.8128 16.9799 51.9669 15.5431C52.1156 14.1277 52.5247 12.8772 53.1887 11.7917C53.8528 10.7062 54.7134 9.86545 55.76 9.2748C56.8066 8.68415 57.9487 8.39149 59.1812 8.39149C60.1216 8.39149 60.9344 8.5724 61.625 8.93425C62.3103 9.29608 62.8575 9.79628 63.2612 10.4295L63.835 8.57773H67.2031L65.7369 22.5618ZM62.6928 15.5964C62.8203 14.3831 62.6131 13.404 62.0766 12.6591C61.54 11.9141 60.7537 11.5416 59.7231 11.5416C58.6925 11.5416 57.8212 11.9141 57.12 12.6591C56.4187 13.404 56.0044 14.3831 55.8769 15.5964C55.7494 16.7936 55.9619 17.7567 56.5091 18.4911C57.0562 19.2254 57.8478 19.5926 58.8784 19.5926C59.9091 19.5926 60.775 19.2254 61.4656 18.4911C62.1562 17.7567 62.5706 16.7936 62.6928 15.5964ZM74.2475 18.6135L78.6144 8.57773H82.7156L74.8478 24.5466C74.4334 25.3979 74.0562 26.0631 73.7162 26.5473C73.3762 27.0262 72.9725 27.3881 72.4997 27.6328C72.0322 27.8776 71.4425 28 70.7359 28H67.0172L67.3572 24.7647H69.4769C69.9656 24.7647 70.3269 24.6849 70.5606 24.52C70.7944 24.355 71.0387 24.041 71.2831 23.5675L71.7347 22.6416L67.8353 8.57773H71.91L74.2475 18.6135ZM104.539 14.8886L103.732 22.5884H99.9016L100.725 14.7556C100.948 12.6325 100.252 11.5735 98.6425 11.5735C97.8084 11.5735 97.1072 11.8662 96.5387 12.4569C95.9703 13.0475 95.6303 13.867 95.5187 14.9206L94.7113 22.5937H90.8809L91.7044 14.7609C91.9275 12.6378 91.2262 11.5789 89.5953 11.5789C88.7612 11.5789 88.0653 11.8822 87.5022 12.4888C86.9391 13.0954 86.6044 13.9149 86.4981 14.9525L85.6959 22.599H81.8656L83.3372 8.58837H86.6787L86.8487 10.3284C87.38 9.73242 87.9909 9.26948 88.6762 8.93957C89.3616 8.61497 90.1956 8.43938 91.1731 8.42341C93.1653 8.42341 94.4669 9.21095 95.0778 10.7913C95.6622 10.0304 96.39 9.44508 97.2559 9.03535C98.1219 8.62562 99.0834 8.42341 100.13 8.42341C101.633 8.42341 102.802 8.9236 103.642 9.91866C104.486 10.9084 104.784 12.5686 104.539 14.8886ZM110.771 8.57773L109.299 22.5618H105.469L106.935 8.57773H110.771ZM109.241 2.68719C108.008 2.68719 107.015 3.68757 107.015 4.91676C107.015 6.14595 108.014 7.14633 109.241 7.14633C110.473 7.14633 111.467 6.14595 111.467 4.91676C111.467 3.68757 110.468 2.68719 109.241 2.68719ZM125.688 14.9685L124.892 22.5564H121.061L121.837 15.1866C122.092 12.7761 121.274 11.5682 119.393 11.5682C118.4 11.5682 117.592 11.9035 116.981 12.5739C116.37 13.2444 115.998 14.1862 115.871 15.4048L115.117 22.5618H111.286L112.752 8.57773H116.094L116.264 10.3177C116.817 9.72178 117.454 9.25352 118.177 8.91828C118.899 8.58305 119.77 8.41277 120.78 8.41277C122.411 8.41277 123.696 8.91828 124.642 9.93462C125.587 10.951 125.933 12.6325 125.688 14.9685ZM126.347 11.813L126.687 8.57773H128.998L129.407 4.66135H133.237L132.828 8.57773H136.005L135.665 11.813H132.488L131.846 17.9323C131.792 18.4219 131.862 18.7731 132.048 18.9913C132.233 19.2094 132.568 19.3158 133.057 19.3158H135.038L134.698 22.5511H131.522C128.86 22.5511 127.67 21.2208 127.946 18.5496L128.653 11.8024H126.347V11.813Z" fill="#C3F53C"/>
</svg>
