<svg width="30" height="30" viewBox="0 0 30 30" fill="none" xmlns="http://www.w3.org/2000/svg">
<path d="M14.9549 5.66606L15.6507 4.50896C16.0801 3.78578 17.0379 3.54196 17.7895 3.95521C18.5411 4.36846 18.7944 5.29 18.365 6.01318L11.6608 17.1791H16.5096C18.0815 17.1791 18.9619 18.956 18.2791 20.1875H4.06331C3.19576 20.1875 2.5 19.5181 2.5 18.6833C2.5 17.8485 3.19576 17.1791 4.06331 17.1791H8.04887L13.1511 8.67036L11.5577 6.00905C11.1282 5.28587 11.3816 4.37259 12.1332 3.95108C12.8848 3.53783 13.834 3.78165 14.272 4.50483L14.9549 5.66606ZM8.92501 21.7372L7.42183 24.2456C6.99235 24.9688 6.03462 25.2126 5.28303 24.7994C4.53144 24.3861 4.27804 23.4646 4.70752 22.7414L5.82417 20.8818C7.08684 20.5057 8.1133 20.795 8.92501 21.7372ZM21.8695 17.1873H25.9367C26.8042 17.1873 27.5 17.8568 27.5 18.6916C27.5 19.5263 26.8042 20.1958 25.9367 20.1958H23.6776L25.2023 22.7414C25.6318 23.4646 25.3784 24.3778 24.6268 24.7994C23.8752 25.2126 22.926 24.9688 22.488 24.2456C19.9197 19.9602 17.9913 16.7534 16.7115 14.6169C15.4016 12.4433 16.3378 10.2613 17.2612 9.52165C18.2877 11.2159 19.8209 13.7739 21.8695 17.1873Z" fill="white"/>
</svg>
