<svg width="24" height="24" viewBox="0 0 24 24" fill="none" xmlns="http://www.w3.org/2000/svg">
<path d="M19 15.9002C19 15.6002 19 15.3002 19 15.0002C19 9.50024 14.5 5.00024 9 5.00024C8.7 5.00024 8.4 5.00024 8.1 5.00024C9.5 2.60024 12.1 1.00024 15 1.00024C19.4 1.00024 23 4.60024 23 9.00024C23 12.0002 21.4 14.6002 19 15.9002ZM17 15.0002C17 19.4002 13.4 23.0002 9 23.0002C4.6 23.0002 1 19.4002 1 15.0002C1 10.6002 4.6 7.00024 9 7.00024C13.4 7.00024 17 10.6002 17 15.0002ZM11.5 17.5002C11.5 16.9002 11.1 16.5002 10.5 16.5002H10V12.0002C10 11.6002 9.8 11.3002 9.5 11.1002C9.2 10.9002 8.8 10.9002 8.5 11.1002L7 12.1002C6.5 12.4002 6.4 13.0002 6.7 13.5002C7 14.0002 7.5 14.1002 8 13.9002V16.5002H7.5C6.9 16.5002 6.5 16.9002 6.5 17.5002C6.5 18.1002 6.9 18.5002 7.5 18.5002H10.5C11.1 18.5002 11.5 18.1002 11.5 17.5002Z" fill="white"/>
</svg>
