<svg width="30" height="30" viewBox="0 0 30 30" fill="none" xmlns="http://www.w3.org/2000/svg">
<path fill-rule="evenodd" clip-rule="evenodd" d="M4.33398 27.15L15.1043 16.2116L18.9007 20.0668L6.09716 27.2969C5.61034 27.5719 5.01409 27.5677 4.53034 27.2854L4.33398 27.15ZM14.0182 15.1085L3.75 25.5365V4.68059L14.0182 15.1085ZM20.4348 10.7992L25.4512 13.6315C25.9442 13.9106 26.25 14.4335 26.25 15.0002C26.25 15.5669 25.9442 16.0898 25.4512 16.3689L20.2977 19.2783L16.1915 15.1085L20.4348 10.7992ZM4.22045 2.95146C4.3125 2.86083 4.4158 2.78167 4.53034 2.715C5.01409 2.43271 5.61034 2.42855 6.09716 2.70354L19.0377 10.0107L15.1043 14.0054L4.22045 2.95146Z" fill="white"/>
</svg>
