<svg width="24" height="24" viewBox="0 0 24 24" fill="none" xmlns="http://www.w3.org/2000/svg">
<path d="M10 21.0002C10 21.6002 9.6 22.0002 9 22.0002H6C5.4 22.0002 5 21.6002 5 21.0002C5 20.4002 5.4 20.0002 6 20.0002H9C9.6 20.0002 10 20.4002 10 21.0002ZM18 20.0002H15C14.4 20.0002 14 20.4002 14 21.0002C14 21.6002 14.4 22.0002 15 22.0002H18C18.6 22.0002 19 21.6002 19 21.0002C19 20.4002 18.6 20.0002 18 20.0002ZM22 6.20024V14.8002C22 16.0002 22 16.7002 21.7 17.4002C21.4 18.0002 21 18.4002 20.4 18.7002C19.7 19.0002 19 19.0002 17.8 19.0002H6.2C5 19.0002 4.3 19.0002 3.6 18.7002C3 18.4002 2.6 18.0002 2.3 17.4002C2 16.7002 2 16.0002 2 14.8002V6.20024C2 5.00024 2 4.30024 2.3 3.60024C2.6 3.00024 3 2.60024 3.6 2.30024C4.3 2.00024 5 2.00024 6.2 2.00024H17.8C19 2.00024 19.7 2.00024 20.4 2.30024C21 2.60024 21.4 3.00024 21.7 3.60024C22 4.30024 22 5.00024 22 6.20024ZM11.5 10.5002C11.5 9.10024 10.4 8.00024 9 8.00024C7.6 8.00024 6.5 9.10024 6.5 10.5002C6.5 11.9002 7.6 13.0002 9 13.0002C10.4 13.0002 11.5 11.9002 11.5 10.5002ZM18.5 6.50024C18.5 5.90024 18.1 5.50024 17.5 5.50024C16.9 5.50024 16.5 5.90024 16.5 6.50024V14.5002C16.5 15.1002 16.9 15.5002 17.5 15.5002C18.1 15.5002 18.5 15.1002 18.5 14.5002V6.50024Z" fill="white"/>
</svg>
