<svg width="24" height="24" viewBox="0 0 24 24" fill="none" xmlns="http://www.w3.org/2000/svg">
<g clip-path="url(#clip0_6995_11396)">
<path d="M17.1584 4.87153H7.05941V0.000244141H17.1584V4.87153ZM17.1584 19.129H7.05941V24.0002H17.1584V19.129ZM12.1683 9.98044C11.099 9.98044 10.1485 10.8121 10.1485 12.0002C10.1485 13.1884 10.9802 14.02 12.1683 14.02C13.3564 14.02 14.0693 13.0696 14.0693 12.0002C14.0693 10.9309 13.2376 9.98044 12.1683 9.98044ZM1 6.65371V17.3468H23.3366V6.65371H1ZM12.1683 15.8022C10.1485 15.8022 8.36634 14.1389 8.36634 12.0002C8.36634 9.86163 10.0297 8.19826 12.1683 8.19826C14.1881 8.19826 15.9703 9.86163 15.9703 12.0002C15.9703 14.1389 14.1881 15.8022 12.1683 15.8022Z" fill="white"/>
</g>
<defs>
<clipPath id="clip0_6995_11396">
<rect width="24" height="24" fill="white" transform="translate(0 0.000244141)"/>
</clipPath>
</defs>
</svg>
