<svg width="592" height="624" viewBox="0 0 592 624" fill="none" xmlns="http://www.w3.org/2000/svg">
<path d="M295.529 316.989C455.861 316.99 586.512 377.186 586.511 451.249C586.511 525.313 456.136 585.505 295.526 585.504C135.194 585.503 4.54312 525.307 4.54376 451.244C4.5444 376.903 135.196 316.988 295.529 316.989Z" stroke="#A7A9AB" stroke-width="1.5" stroke-miterlimit="22.4998" stroke-linecap="round"/>
<path d="M295.531 325.865C451.148 325.867 577.638 381.901 577.637 450.971C577.637 520.042 451.146 576.074 295.529 576.072C139.912 576.071 13.4221 520.037 13.4227 450.967C13.4233 381.896 139.914 325.864 295.531 325.865Z" stroke="#A7A9AB" stroke-width="1.5" stroke-miterlimit="22.4998" stroke-linecap="round" stroke-dasharray="5.06 5.06"/>
<path d="M303.693 605.082L303.693 623.112" stroke="#A7A9AB" stroke-width="1.49682" stroke-miterlimit="10"/>
<path d="M257.869 603.706L257.869 621.736" stroke="#A7A9AB" stroke-width="1.49682" stroke-miterlimit="10"/>
<path d="M257.869 603.706L257.869 621.736" stroke="#A7A9AB" stroke-width="1.49682" stroke-miterlimit="10"/>
<path d="M214.146 600.071L214.146 618.102" stroke="#A7A9AB" stroke-width="1.49682" stroke-miterlimit="10"/>
<path d="M172.99 593.372L172.99 611.403" stroke="#A7A9AB" stroke-width="1.49682" stroke-miterlimit="10"/>
<path d="M172.99 593.372L172.99 611.403" stroke="#A7A9AB" stroke-width="1.49682" stroke-miterlimit="10"/>
<path d="M135.021 584.002L135.021 602.032" stroke="#A7A9AB" stroke-width="1.49682" stroke-miterlimit="10"/>
<path d="M100.367 572.581L100.367 590.611" stroke="#A7A9AB" stroke-width="1.49682" stroke-miterlimit="10"/>
<path d="M70.2246 559.052L70.2245 577.083" stroke="#A7A9AB" stroke-width="1.49682" stroke-miterlimit="10"/>
<path d="M44.3691 544.531L44.369 562.561" stroke="#A7A9AB" stroke-width="1.49682" stroke-miterlimit="10"/>
<path d="M23.4785 527.013L23.4784 545.044" stroke="#A7A9AB" stroke-width="1.49682" stroke-miterlimit="10"/>
<path d="M8.16602 509.352L8.16589 527.382" stroke="#A7A9AB" stroke-width="1.49682" stroke-miterlimit="10"/>
<path d="M0 487.343L-0.000121857 505.374" stroke="#A7A9AB" stroke-width="1.49682" stroke-miterlimit="10"/>
<path d="M3.97266 450.989L3.97253 469.019" stroke="#A7A9AB" stroke-width="1.49682" stroke-miterlimit="10"/>
<path d="M33.1504 411.821L33.1503 429.851" stroke="#A7A9AB" stroke-width="1.49682" stroke-miterlimit="10"/>
<path d="M56.8516 396.318L56.8514 414.348" stroke="#A7A9AB" stroke-width="1.49682" stroke-miterlimit="10"/>
<path d="M84.9414 382.046L84.9413 400.077" stroke="#A7A9AB" stroke-width="1.49682" stroke-miterlimit="10"/>
<path d="M117.766 368.202L117.766 386.232" stroke="#A7A9AB" stroke-width="1.49682" stroke-miterlimit="10"/>
<path d="M153.734 358.505L153.734 376.535" stroke="#A7A9AB" stroke-width="1.49682" stroke-miterlimit="10"/>
<path d="M193.346 350.752L193.346 368.782" stroke="#A7A9AB" stroke-width="1.49682" stroke-miterlimit="10"/>
<path d="M235.998 344.78L235.998 362.811" stroke="#A7A9AB" stroke-width="1.49682" stroke-miterlimit="10"/>
<path d="M286.967 342.37L286.967 360.401" stroke="#A7A9AB" stroke-width="1.49682" stroke-miterlimit="10"/>
<path d="M339.283 344.59L339.283 362.62" stroke="#A7A9AB" stroke-width="1.49682" stroke-miterlimit="10"/>
<path d="M383.588 349.028L383.588 367.059" stroke="#A7A9AB" stroke-width="1.49682" stroke-miterlimit="10"/>
<path d="M424.436 356.039L424.435 374.069" stroke="#A7A9AB" stroke-width="1.49682" stroke-miterlimit="10"/>
<path d="M462.262 365.118L462.262 383.148" stroke="#A7A9AB" stroke-width="1.49682" stroke-miterlimit="10"/>
<path d="M495.607 376.885L495.607 394.915" stroke="#A7A9AB" stroke-width="1.49682" stroke-miterlimit="10"/>
<path d="M525.652 390.109L525.652 408.139" stroke="#A7A9AB" stroke-width="1.49682" stroke-miterlimit="10"/>
<path d="M550.596 406.419L550.596 424.45" stroke="#A7A9AB" stroke-width="1.49682" stroke-miterlimit="10"/>
<path d="M591.998 476.916L591.998 494.946" stroke="#A7A9AB" stroke-width="1.49682" stroke-miterlimit="10"/>
<path d="M586.422 502.064L586.422 520.095" stroke="#A7A9AB" stroke-width="1.49682" stroke-miterlimit="10"/>
<path d="M573.961 520.286L573.961 538.316" stroke="#A7A9AB" stroke-width="1.49682" stroke-miterlimit="10"/>
<path d="M555.635 538.225L555.635 556.255" stroke="#A7A9AB" stroke-width="1.49682" stroke-miterlimit="10"/>
<path d="M531.383 554.219L531.383 572.249" stroke="#A7A9AB" stroke-width="1.49682" stroke-miterlimit="10"/>
<path d="M502.205 568.019L502.205 586.049" stroke="#A7A9AB" stroke-width="1.49682" stroke-miterlimit="10"/>
<path d="M468.982 580.989L468.982 599.02" stroke="#A7A9AB" stroke-width="1.49682" stroke-miterlimit="10"/>
<path d="M432.242 590.525L432.242 608.556" stroke="#A7A9AB" stroke-width="1.49682" stroke-miterlimit="10"/>
<path d="M392.08 598.245L392.08 616.275" stroke="#A7A9AB" stroke-width="1.49682" stroke-miterlimit="10"/>
<path d="M348.773 603.118L348.773 621.149" stroke="#A7A9AB" stroke-width="1.49682" stroke-miterlimit="10"/>
<path d="M296.999 525.824C392.434 525.824 469.799 497.514 469.799 462.592C469.799 427.67 392.434 399.36 296.999 399.36C201.564 399.36 124.199 427.67 124.199 462.592C124.199 497.514 201.564 525.824 296.999 525.824Z" fill="black" fill-opacity="0.2"/>
<path d="M294.568 438.784C415.735 438.784 513.96 340.559 513.96 219.392C513.96 98.2251 415.735 0 294.568 0C173.401 0 75.1758 98.2251 75.1758 219.392C75.1758 340.559 173.401 438.784 294.568 438.784Z" fill="url(#paint0_linear_6648_4607)" stroke="black" stroke-width="2" stroke-miterlimit="10"/>
<path d="M403.496 103.296L298.408 65.28L179.112 98.432C153.512 202.112 163.624 312.192 239.144 361.344L261.672 373.632C263.464 372.736 265.128 371.968 266.92 371.072C267.432 370.816 267.944 370.432 268.456 370.176C270.248 369.28 272.04 368.256 273.832 367.232C275.112 366.592 276.264 365.824 277.544 365.184C279.464 364.16 281.256 363.008 283.048 361.856C283.944 361.344 284.84 360.832 285.608 360.32C285.864 360.192 286.12 359.936 286.376 359.808C287.272 359.168 288.296 358.528 289.192 357.888C290.856 356.864 292.392 355.712 294.056 354.56C295.08 353.92 296.104 353.152 297 352.384C297.896 351.744 298.792 351.104 299.688 350.464C300.328 349.952 301.096 349.44 301.736 348.928C302.504 348.288 303.272 347.776 304.04 347.136C305.832 345.728 307.496 344.32 309.288 342.912C309.8 342.4 310.44 342.016 310.952 341.504C311.08 341.376 311.336 341.248 311.464 341.12C313.512 339.456 315.432 337.664 317.352 335.872C317.864 335.36 318.376 334.976 318.888 334.464C319.912 333.568 320.808 332.672 321.832 331.776C322.6 331.136 323.24 330.368 324.008 329.728C324.52 329.216 325.032 328.704 325.672 328.192C327.592 326.272 329.64 324.224 331.56 322.304C331.688 322.176 331.688 322.176 331.816 322.048C332.072 321.792 332.2 321.536 332.456 321.28C334.248 319.36 336.04 317.44 337.704 315.52C338.216 315.008 338.728 314.368 339.24 313.856C339.624 313.344 340.136 312.832 340.52 312.32C341.032 311.808 341.416 311.168 341.928 310.656C343.976 308.352 345.896 305.92 347.944 303.488C348.328 302.976 348.84 302.464 349.224 301.824C349.48 301.568 349.736 301.184 349.992 300.928C352.552 297.728 354.984 294.4 357.416 291.072C357.544 290.944 357.544 290.816 357.672 290.688C359.208 288.512 360.872 286.208 362.408 283.904C362.792 283.264 363.176 282.624 363.688 282.112C364.456 280.96 365.224 279.808 365.992 278.656C366.504 277.888 366.888 277.12 367.4 276.48C367.912 275.584 368.424 274.816 369.064 273.92C370.344 272 371.496 270.08 372.648 268.032C373.032 267.392 373.416 266.752 373.8 266.112C373.928 265.856 374.056 265.728 374.184 265.472C375.592 263.04 377.128 260.48 378.408 258.048C378.664 257.664 378.792 257.28 379.048 257.024C380.2 254.976 381.352 252.928 382.376 250.88C382.504 250.624 382.632 250.24 382.76 249.984C383.4 248.832 384.04 247.552 384.68 246.4C385.576 244.736 386.344 243.072 387.24 241.408C387.88 240.128 388.52 238.848 389.032 237.568C389.544 236.416 390.184 235.264 390.696 234.112C390.952 233.6 391.08 233.216 391.336 232.704C392.104 230.912 392.872 229.248 393.64 227.456C394.28 226.048 394.92 224.64 395.56 223.232C396.328 221.44 397.096 219.648 397.864 217.856C398.376 216.832 398.76 215.68 399.272 214.656C399.4 214.4 399.528 214.016 399.656 213.76C401.064 210.176 402.472 206.592 403.752 203.008C403.88 202.624 404.008 202.24 404.136 201.856C405.288 198.656 406.44 195.328 407.592 192.128C407.72 191.744 407.848 191.36 407.976 190.976C408.616 189.056 409.256 187.136 409.896 185.216C410.024 184.704 410.28 184.192 410.408 183.68C411.304 180.736 412.2 177.792 413.096 174.848C413.352 174.08 413.608 173.184 413.736 172.416C414.376 170.24 415.016 168.064 415.528 165.888C415.784 164.864 416.04 163.84 416.296 162.944C416.552 162.048 416.808 161.28 416.936 160.512C417.192 159.744 417.32 158.848 417.576 158.08C418.088 155.904 418.6 153.856 419.112 151.68C419.496 150.272 419.752 148.864 420.136 147.456C420.648 145.28 421.16 143.104 421.544 140.928C421.8 139.52 422.184 138.24 422.44 136.832C422.952 134.4 423.336 132.096 423.848 129.664C424.104 128.512 424.232 127.36 424.488 126.208C425.128 122.752 425.64 119.168 426.28 115.712L403.496 103.296Z" stroke="black" stroke-width="6" stroke-miterlimit="10"/>
<path d="M298.408 65.28L179.112 98.432C153.512 202.112 163.624 312.192 239.144 361.344C333.608 316.032 387.496 207.36 403.496 103.424L298.408 65.28Z" fill="#3C414C"/>
<path d="M412.841 174.72C413.097 173.952 413.353 173.056 413.481 172.288C414.121 170.112 414.761 167.936 415.273 165.76C415.529 164.736 415.785 163.712 416.041 162.816C416.297 161.92 416.553 161.152 416.681 160.384C416.937 159.616 417.065 158.72 417.321 157.952C417.833 155.776 418.345 153.728 418.857 151.552C419.241 150.144 419.497 148.736 419.881 147.328C420.393 145.152 420.905 142.976 421.289 140.8C421.545 139.392 421.929 138.112 422.185 136.704C422.697 134.272 423.081 131.968 423.593 129.536C423.849 128.384 423.977 127.232 424.233 126.08C424.873 122.624 425.385 119.04 426.025 115.584L403.497 103.296C402.985 106.752 402.345 110.336 401.705 113.792C401.449 114.944 401.321 116.096 401.065 117.248C400.681 119.68 400.169 121.984 399.657 124.416C399.401 125.824 399.145 127.104 398.761 128.512C398.249 130.688 397.865 132.864 397.353 135.04C396.969 136.448 396.713 137.856 396.329 139.264C395.817 141.44 395.305 143.488 394.793 145.664C394.409 147.328 394.025 148.992 393.513 150.528C393.257 151.552 393.001 152.576 392.745 153.472C392.105 155.648 391.593 157.824 390.953 160C390.697 160.768 390.441 161.664 390.313 162.432C389.417 165.376 388.521 168.32 387.625 171.264C387.497 171.776 387.241 172.288 387.113 172.8C386.345 175.104 385.577 177.408 384.809 179.584C383.657 182.784 382.505 186.112 381.353 189.312C381.225 189.696 381.097 190.08 380.969 190.464C379.689 194.048 378.281 197.632 376.873 201.216C376.361 202.624 375.721 203.904 375.209 205.312C374.441 207.104 373.673 208.896 372.905 210.688C372.265 212.096 371.625 213.504 370.985 214.912C370.217 216.704 369.449 218.368 368.681 220.16C367.913 221.824 367.145 223.36 366.377 225.024C365.737 226.304 365.097 227.584 364.585 228.864C363.689 230.528 362.921 232.192 362.025 233.984C361.385 235.136 360.745 236.416 360.105 237.568C358.825 240 357.545 242.304 356.265 244.608C356.009 244.992 355.881 245.376 355.625 245.632C354.089 248.32 352.553 251.008 351.017 253.696C350.633 254.336 350.249 254.976 349.865 255.616C348.713 257.536 347.433 259.584 346.281 261.504C345.769 262.4 345.257 263.168 344.617 264.064C343.337 265.984 342.185 267.904 340.905 269.696C340.521 270.336 340.137 270.976 339.625 271.488C337.961 273.92 336.297 276.224 334.633 278.528C332.201 281.856 329.769 285.184 327.209 288.384C326.569 289.28 325.801 290.048 325.161 290.944C323.241 293.376 321.193 295.808 319.145 298.112C318.249 299.136 317.353 300.16 316.457 301.312C315.945 301.952 315.433 302.464 314.921 302.976C313.129 304.896 311.465 306.816 309.673 308.736C309.417 308.992 309.289 309.248 309.033 309.504C306.985 311.552 305.065 313.6 303.017 315.648C302.505 316.16 301.993 316.672 301.353 317.184C299.689 318.848 298.025 320.384 296.233 321.92C295.721 322.432 295.209 322.816 294.697 323.328C292.521 325.248 290.473 327.168 288.169 328.96C287.657 329.472 287.017 329.856 286.505 330.368C284.713 331.776 283.049 333.184 281.257 334.592C280.489 335.232 279.721 335.744 278.953 336.384C277.417 337.536 275.881 338.688 274.217 339.84C273.193 340.608 272.297 341.248 271.273 342.016C269.737 343.168 268.073 344.192 266.409 345.344C265.513 345.984 264.489 346.624 263.593 347.264C262.441 348.032 261.289 348.672 260.265 349.312C258.473 350.464 256.553 351.616 254.761 352.64C253.609 353.408 252.329 354.048 251.049 354.688C249.257 355.712 247.465 356.736 245.673 357.632C243.369 358.784 241.193 359.936 238.889 361.088L261.417 373.376C263.209 372.48 264.873 371.712 266.665 370.816C267.177 370.56 267.689 370.176 268.201 369.92C269.993 369.024 271.785 368 273.577 366.976C274.857 366.336 276.009 365.568 277.289 364.928C279.209 363.904 281.001 362.752 282.793 361.6C283.689 361.088 284.585 360.576 285.353 360.064C285.609 359.936 285.865 359.68 286.121 359.552C287.017 358.912 288.041 358.272 288.937 357.632C290.601 356.608 292.137 355.456 293.801 354.304C294.825 353.664 295.849 352.896 296.745 352.128C297.641 351.488 298.537 350.848 299.433 350.208C300.073 349.696 300.841 349.184 301.481 348.672C302.249 348.032 303.017 347.52 303.785 346.88C305.577 345.472 307.241 344.064 309.033 342.656C309.545 342.144 310.185 341.76 310.697 341.248C310.825 341.12 311.081 340.992 311.209 340.864C313.257 339.2 315.177 337.408 317.097 335.616C317.609 335.104 318.121 334.72 318.633 334.208C319.657 333.312 320.553 332.416 321.577 331.52C322.345 330.88 322.985 330.112 323.753 329.472C324.265 328.96 324.777 328.448 325.417 327.936C327.337 326.016 329.385 323.968 331.305 322.048C331.433 321.92 331.433 321.92 331.561 321.792C331.817 321.536 331.945 321.28 332.201 321.024C333.993 319.104 335.785 317.184 337.449 315.264C337.961 314.752 338.473 314.112 338.985 313.6C339.369 313.088 339.881 312.576 340.265 312.064C340.777 311.552 341.161 310.912 341.673 310.4C343.721 308.096 345.641 305.664 347.689 303.232C348.073 302.72 348.585 302.208 348.969 301.568C349.225 301.312 349.481 300.928 349.737 300.672C352.297 297.472 354.729 294.144 357.161 290.816C357.289 290.688 357.289 290.56 357.417 290.432C358.953 288.256 360.617 285.952 362.153 283.648C362.537 283.008 362.921 282.368 363.433 281.856C364.201 280.704 364.969 279.552 365.737 278.4C366.249 277.632 366.633 276.864 367.145 276.224C367.657 275.328 368.169 274.56 368.809 273.664C370.089 271.744 371.241 269.824 372.393 267.776C372.777 267.136 373.161 266.496 373.545 265.856C373.673 265.6 373.801 265.472 373.929 265.216C375.337 262.784 376.873 260.224 378.153 257.792C378.409 257.408 378.537 257.024 378.793 256.768C379.945 254.72 381.097 252.672 382.121 250.624C382.249 250.368 382.377 249.984 382.505 249.728C383.145 248.576 383.785 247.296 384.425 246.144C385.321 244.48 386.089 242.816 386.985 241.152C387.625 239.872 388.265 238.592 388.777 237.312C389.289 236.16 389.929 235.008 390.441 233.856C390.697 233.344 390.825 232.96 391.081 232.448C391.849 230.656 392.617 228.992 393.385 227.2C394.025 225.792 394.665 224.384 395.305 222.976C396.073 221.184 396.841 219.392 397.609 217.6C398.121 216.576 398.505 215.424 399.017 214.4C399.145 214.144 399.273 213.76 399.401 213.504C400.809 209.92 402.217 206.336 403.497 202.752C403.625 202.368 403.753 201.984 403.881 201.6C405.033 198.4 406.185 195.072 407.337 191.872C407.465 191.488 407.593 191.104 407.721 190.72C408.361 188.8 409.001 186.88 409.641 184.96C409.769 184.448 410.025 183.936 410.153 183.424C411.177 180.608 412.073 177.664 412.841 174.72Z" fill="#0A0D14"/>
<path d="M294.952 82.8159L190.504 111.744C180.136 159.36 178.472 204.672 185.768 243.456C194.088 287.616 213.288 320.768 242.984 342.272C281 322.304 313.256 290.176 339.112 246.784C361.768 208.768 378.28 163.712 386.984 115.968L294.952 82.8159Z" fill="url(#paint1_linear_6648_4607)"/>
<path d="M330.28 97.792C308.392 144.128 283.432 189.184 251.432 229.376C235.688 249.088 218.536 267.392 200.104 284.416C210.088 307.584 224.552 326.144 243.112 339.968C280.231 320.128 311.976 288.512 337.32 245.888C359.464 208.64 375.848 164.224 384.551 117.504L330.28 97.792Z" fill="url(#paint2_linear_6648_4607)"/>
<path d="M316.071 159.232L327.719 177.536L250.791 249.472L247.975 247.68L235.688 181.12L238.503 182.784L258.087 213.504L313.256 157.568L316.071 159.232Z" fill="black"/>
<path d="M313.256 157.568L324.904 175.872L247.976 247.68L216.744 198.656L235.688 181.12L255.272 211.84L313.256 157.568Z" fill="white" stroke="black" stroke-miterlimit="10.0001"/>
<path opacity="0.2" d="M493.607 219.392C493.607 329.344 404.519 418.432 294.567 418.432C270.503 418.432 247.591 414.208 226.215 406.4C229.671 406.528 233.127 406.656 236.583 406.656C361.127 406.656 462.119 312.064 462.119 195.328C462.119 140.032 439.463 89.728 402.343 51.968C457.255 87.424 493.607 149.12 493.607 219.392Z" fill="white"/>
<path opacity="0.2" d="M120.744 316.032C120.744 316.032 14.5043 94.0799 261.032 23.6799C261.032 23.6799 62.1204 91.9039 120.744 316.032Z" fill="white"/>
<defs>
<linearGradient id="paint0_linear_6648_4607" x1="75.1758" y1="266.692" x2="513.96" y2="266.692" gradientUnits="userSpaceOnUse">
<stop stop-color="#1D1F2D"/>
<stop offset="1" stop-color="#1D1F2E"/>
</linearGradient>
<linearGradient id="paint1_linear_6648_4607" x1="181.295" y1="240.513" x2="386.984" y2="240.513" gradientUnits="userSpaceOnUse">
<stop stop-color="#1D1F2D"/>
<stop offset="1" stop-color="#1D1F2E"/>
</linearGradient>
<linearGradient id="paint2_linear_6648_4607" x1="200.104" y1="244.986" x2="384.551" y2="244.986" gradientUnits="userSpaceOnUse">
<stop stop-color="#1D1F2D"/>
<stop offset="1" stop-color="#1D1F2E"/>
</linearGradient>
</defs>
</svg>
