<svg width="264" height="288" viewBox="0 0 264 288" fill="none" xmlns="http://www.w3.org/2000/svg">
<path d="M125.298 75.4337C140.03 72.7875 156.555 75.2634 175.331 86.3956L176.227 86.9327L176.228 86.9337C178.432 88.2591 180.668 89.7186 182.935 91.299C186.03 93.7938 188.86 96.2875 191.437 98.7892L192.527 99.8634C212.867 120.181 217.011 140.98 213.786 160.887C210.755 179.595 201.217 197.528 192.371 213.567L190.613 216.748C186.326 224.513 182.319 231.807 179.479 238.467C176.732 244.912 175.05 250.821 175.297 256.033L175.327 256.536C176.199 268.543 173.985 275.614 171.605 279.663C170.415 281.689 169.176 282.969 168.248 283.737C168.245 283.74 168.242 283.741 168.239 283.743C168.97 281.531 168.623 278.701 167.433 275.454C165.932 271.364 163.048 266.473 159 261.019C151.153 250.446 138.872 237.671 123.595 224.365L122.107 223.076L122.105 223.075L118.969 220.403L118.968 220.402C113.37 215.685 107.416 210.911 101.177 206.159L98.4854 204.125C92.152 199.382 85.8645 194.937 79.7139 190.802L77.0869 189.048H77.0859C58.6182 176.856 41.4732 167.659 28.0752 162.555C21.3796 160.004 15.5934 158.464 11.0322 158.096C7.38235 157.801 4.41685 158.249 2.42383 159.631C2.42592 159.626 2.42856 159.621 2.43066 159.616C2.9054 158.51 3.78337 156.963 5.39062 155.251C8.50296 151.935 14.3804 147.969 25.4443 145.407L26.5312 145.163C30.7498 144.249 35.0486 141.898 39.4766 138.617C43.9075 135.335 48.5002 131.098 53.3047 126.381C62.9301 116.93 73.4092 105.551 85.2744 95.8341C97.1314 86.1239 110.316 78.1248 125.298 75.4337Z" fill="url(#paint0_linear_6656_5120)" stroke="#3C414C"/>
<path d="M175.781 255.6C175.781 255.51 175.781 255.435 175.781 255.345C175.781 255.12 175.781 254.895 175.781 254.67C175.781 254.565 175.781 254.46 175.781 254.37C175.781 254.145 175.796 253.92 175.811 253.695C175.811 253.605 175.826 253.5 175.826 253.41C175.841 253.11 175.871 252.825 175.901 252.525C175.901 252.495 175.901 252.48 175.901 252.45C175.931 252.12 175.976 251.805 176.021 251.475C176.036 251.385 176.051 251.295 176.066 251.205C176.096 250.965 176.141 250.725 176.186 250.485C176.201 250.365 176.231 250.26 176.246 250.14C176.291 249.915 176.336 249.69 176.381 249.45C176.411 249.345 176.426 249.225 176.456 249.12C176.516 248.85 176.576 248.565 176.636 248.295C176.651 248.235 176.666 248.16 176.681 248.1C176.756 247.755 176.846 247.425 176.951 247.08C176.981 246.975 177.011 246.87 177.041 246.765C177.116 246.525 177.176 246.27 177.251 246.03C177.296 245.895 177.326 245.775 177.371 245.64C177.446 245.415 177.506 245.19 177.581 244.95C177.626 244.815 177.671 244.68 177.716 244.545C177.791 244.29 177.881 244.035 177.971 243.78C178.001 243.675 178.046 243.57 178.076 243.45C178.196 243.105 178.331 242.745 178.451 242.4C178.496 242.28 178.541 242.145 178.601 242.025C178.691 241.785 178.781 241.545 178.871 241.305C178.931 241.155 178.991 240.99 179.051 240.84C179.141 240.63 179.216 240.405 179.306 240.195C179.366 240.03 179.441 239.865 179.501 239.7C179.591 239.475 179.681 239.25 179.786 239.04C179.846 238.89 179.921 238.725 179.981 238.575C180.131 238.23 180.281 237.87 180.446 237.51C180.521 237.33 180.596 237.165 180.686 236.985C180.776 236.775 180.866 236.58 180.956 236.37C181.046 236.175 181.136 235.965 181.226 235.77C181.316 235.59 181.391 235.41 181.481 235.23C181.586 235.02 181.676 234.81 181.781 234.6C181.856 234.435 181.946 234.27 182.021 234.09C182.126 233.865 182.231 233.64 182.351 233.415C182.396 233.325 182.441 233.235 182.486 233.13C182.741 232.59 183.011 232.05 183.281 231.51C183.326 231.405 183.386 231.315 183.431 231.21C183.566 230.925 183.716 230.655 183.851 230.37C183.911 230.265 183.956 230.16 184.016 230.055C184.166 229.77 184.316 229.47 184.466 229.185C184.511 229.11 184.541 229.035 184.586 228.96C203.171 193.095 240.611 143.025 189.341 96.135C187.436 94.395 184.226 91.575 182.606 90.555C183.146 91.035 224.336 129.54 183.956 208.125C176.546 219.765 162.101 255.36 129.926 230.685C148.601 247.92 151.301 252.615 164.171 269.745C165.131 271.44 165.926 273.045 166.541 274.545C166.541 274.56 166.556 274.575 166.556 274.59C166.631 274.77 166.706 274.95 166.766 275.115C166.766 275.13 166.781 275.145 166.781 275.175C166.976 275.685 167.156 276.18 167.306 276.675C167.321 276.735 167.336 276.78 167.351 276.84C167.396 276.99 167.441 277.125 167.486 277.26C167.501 277.305 167.501 277.335 167.516 277.38C167.591 277.635 167.651 277.875 167.711 278.13C167.726 278.205 167.741 278.265 167.756 278.34C167.786 278.46 167.801 278.565 167.831 278.685C167.846 278.76 167.861 278.85 167.876 278.925C167.891 279.03 167.921 279.135 167.936 279.24C167.966 279.405 167.981 279.57 168.011 279.72C168.026 279.81 168.026 279.9 168.041 279.99C168.056 280.08 168.056 280.185 168.071 280.275C168.071 280.365 168.086 280.44 168.086 280.53C168.086 280.635 168.101 280.755 168.101 280.86C168.101 280.95 168.101 281.04 168.101 281.115C168.101 281.25 168.101 281.385 168.101 281.52C168.101 281.595 168.101 281.655 168.086 281.715C168.086 281.82 168.071 281.925 168.056 282.03C168.056 282.09 168.041 282.15 168.041 282.21C168.026 282.36 167.996 282.51 167.981 282.66C167.981 282.705 167.966 282.735 167.951 282.78C167.921 282.9 167.906 283.005 167.876 283.11C167.861 283.17 167.846 283.215 167.831 283.26C167.801 283.365 167.771 283.47 167.726 283.575C167.711 283.62 167.696 283.65 167.696 283.695C167.651 283.83 167.591 283.965 167.531 284.1C167.516 284.145 167.501 284.175 167.471 284.22C167.426 284.31 167.381 284.415 167.321 284.505C167.291 284.55 167.276 284.595 167.246 284.625C167.186 284.745 167.111 284.85 167.036 284.955C167.036 284.97 167.021 284.97 167.021 284.985C166.976 285.045 166.931 285.12 166.886 285.18C166.886 285.18 177.536 280.635 175.781 256.47C175.811 256.215 175.796 255.9 175.781 255.6Z" fill="url(#paint1_linear_6656_5120)"/>
<path d="M167.065 285.015C167.02 285.075 166.975 285.15 166.93 285.21C162.76 290.79 148.24 287.73 128.59 278.37C111.775 270.375 91.2101 257.76 70.1351 241.98C24.4151 207.765 -6.36489 171.645 1.37511 161.295C1.42011 161.235 1.46511 161.175 1.52511 161.115C2.93511 159.39 5.41011 158.535 8.78511 158.52C24.7301 158.37 60.6401 176.43 98.1701 204.525C143.62 238.545 174.295 274.44 167.065 285.015Z" fill="url(#paint2_linear_6656_5120)"/>
<path d="M215.591 72.345C215.036 69.33 213.851 66.42 212.051 63.84C210.746 61.98 209.141 60.285 207.221 58.845C197.591 51.645 183.746 53.46 176.741 63.225C172.301 69.42 171.326 77.31 173.561 84.045C173.636 84.285 173.816 84.765 173.906 85.005C175.061 85.71 176.306 86.37 177.491 87.135C178.556 87.84 179.681 88.62 180.776 89.37C184.391 91.86 187.181 93.555 191.141 97.83C198.941 99.165 206.531 96.075 211.586 89.31C215.381 84.27 216.641 78.105 215.591 72.345ZM187.136 85.665C181.946 81.78 180.881 74.43 184.766 69.225C188.651 64.035 196.016 62.97 201.206 66.855C206.396 70.74 207.461 78.105 203.576 83.295C199.691 88.5 192.326 89.565 187.136 85.665Z" fill="url(#paint3_linear_6656_5120)"/>
<path d="M113.756 231.195C110.111 236.055 105.221 239.415 99.8507 241.185C91.3457 243.975 81.6557 242.7 73.9307 236.925C61.3607 227.505 58.7957 209.685 68.2007 197.115C69.8507 194.91 71.7557 193.02 73.8407 191.445C74.7857 190.74 75.7757 190.08 76.7957 189.495C83.7707 194.1 90.9407 199.14 98.1707 204.555C105.401 209.97 112.256 215.415 118.631 220.815C117.761 224.445 116.141 227.985 113.756 231.195Z" fill="url(#paint4_linear_6656_5120)"/>
<path d="M113.755 231.195C110.11 236.055 105.22 239.415 99.8505 241.185C112.045 216.975 73.8555 191.445 73.8555 191.445C74.8005 190.74 75.7905 190.08 76.8105 189.495C83.7855 194.1 90.9555 199.14 98.1855 204.555C105.415 209.97 112.27 215.415 118.645 220.815C117.76 224.445 116.14 227.985 113.755 231.195Z" fill="url(#paint5_linear_6656_5120)"/>
<g opacity="0.5">
<path d="M78.6326 231.612C81.6342 230.691 82.6236 225.239 80.8426 219.434C79.0616 213.628 75.1845 209.669 72.1829 210.59C69.1813 211.511 68.1919 216.963 69.9729 222.768C71.7539 228.574 75.631 232.533 78.6326 231.612Z" fill="white"/>
<path d="M83.9665 208.815C84.5215 210.615 83.8615 212.415 82.5115 212.835C81.1465 213.255 79.6015 212.13 79.0465 210.33C78.4915 208.53 79.1515 206.73 80.5015 206.31C81.8515 205.89 83.4115 207.015 83.9665 208.815Z" fill="white"/>
</g>
<path opacity="0.1" d="M128.59 278.385C111.775 270.39 91.2101 257.775 70.1351 241.995C24.4151 207.78 -6.36489 171.66 1.37511 161.31C1.42011 161.25 1.46511 161.19 1.52511 161.13C2.93511 159.405 11.5601 158.52 14.4551 161.775C6.83511 161.31 -12.5149 175.26 115.36 268.59C120.205 272.085 124.705 275.19 128.59 278.385Z" fill="white"/>
<path d="M185.56 87.78C188.065 89.655 191.065 90.645 194.14 90.645C194.83 90.645 195.52 90.6 196.21 90.495C200.005 89.955 203.365 87.96 205.66 84.885C207.955 81.81 208.93 78.03 208.375 74.235C207.835 70.44 205.84 67.08 202.765 64.77C196.42 60.03 187.405 61.32 182.65 67.665C177.925 74.01 179.215 83.025 185.56 87.78ZM186.865 70.815C188.65 68.43 191.395 67.17 194.185 67.17C196.09 67.17 197.995 67.755 199.63 68.985C201.58 70.44 202.84 72.57 203.185 74.985C203.53 77.4 202.915 79.8 201.46 81.75C200.005 83.7 197.875 84.96 195.46 85.305C193.045 85.65 190.645 85.035 188.695 83.58C184.69 80.565 183.865 74.835 186.865 70.815Z" fill="url(#paint6_linear_6656_5120)" stroke="#3C414C" stroke-miterlimit="10"/>
<path d="M58.7805 55.365C54.2505 53.67 51.9705 48.615 53.6655 44.1C66.8955 8.97 106.211 -8.85 141.341 4.365C145.871 6.06 148.151 11.115 146.456 15.63C144.761 20.16 139.706 22.44 135.191 20.745C109.106 10.935 79.8856 24.165 70.0606 50.265C68.3506 54.78 63.3105 57.075 58.7805 55.365Z" fill="url(#paint7_linear_6656_5120)"/>
<path d="M87.4602 66.165C82.9302 64.47 80.6502 59.415 82.3452 54.9C89.6052 35.595 111.235 25.785 130.54 33.06C135.07 34.755 137.35 39.81 135.655 44.325C133.96 48.855 128.905 51.135 124.39 49.44C114.115 45.57 102.61 50.79 98.7402 61.065C97.0302 65.58 91.9902 67.86 87.4602 66.165Z" fill="url(#paint8_linear_6656_5120)"/>
<path d="M86.2307 58.95C93.1007 40.695 113.531 31.44 131.786 38.31C133.751 39.045 135.251 40.455 136.166 42.18C136.586 38.31 134.381 34.485 130.556 33.045C111.251 25.785 89.6207 35.58 82.3607 54.885C80.7557 59.16 82.7057 63.885 86.7257 65.835C85.6007 63.795 85.3457 61.305 86.2307 58.95Z" fill="url(#paint9_linear_6656_5120)"/>
<path d="M58.4812 47.835C70.9762 14.64 108.131 -2.20499 141.326 10.29C143.891 11.25 145.691 13.365 146.366 15.81C146.381 15.75 146.411 15.705 146.441 15.645C148.136 11.115 145.856 6.07501 141.326 4.38001C106.211 -8.84999 66.8962 8.97001 53.6812 44.1C51.9862 48.63 54.2662 53.67 58.7962 55.365C59.0512 55.455 59.3062 55.545 59.5612 55.605C57.9562 53.445 57.4612 50.535 58.4812 47.835Z" fill="url(#paint10_linear_6656_5120)"/>
<path d="M87.4602 66.165C82.9302 64.47 80.6502 59.415 82.3452 54.9C89.6052 35.595 111.235 25.785 130.54 33.06C135.07 34.755 137.35 39.81 135.655 44.325C133.96 48.855 128.905 51.135 124.39 49.44C114.115 45.57 102.61 50.79 98.7402 61.065C97.0302 65.58 91.9902 67.86 87.4602 66.165Z" stroke="#3C414C" stroke-width="1.5" stroke-miterlimit="10"/>
<path d="M58.7805 55.365C54.2505 53.67 51.9705 48.615 53.6655 44.1C66.8955 8.97 106.211 -8.85 141.341 4.365C145.871 6.06 148.151 11.115 146.456 15.63C144.761 20.16 139.706 22.44 135.191 20.745C109.106 10.935 79.8856 24.165 70.0606 50.265C68.3506 54.78 63.3105 57.075 58.7805 55.365Z" stroke="#3C414C" stroke-width="1.5" stroke-miterlimit="10"/>
<path d="M1.52573 161.13C1.81073 160.77 2.15573 160.455 2.53073 160.17C2.15573 160.455 1.82573 160.77 1.52573 161.13ZM1.52573 161.13C1.51073 161.145 1.49573 161.175 1.48073 161.19M191.156 97.83C198.761 98.895 206.681 95.895 211.601 89.31C215.381 84.255 216.641 78.09 215.576 72.33C215.021 69.315 213.836 66.405 212.036 63.825C210.731 61.965 209.126 60.27 207.206 58.83C197.576 51.63 183.941 53.595 176.726 63.21C172.091 69.405 171.266 78.21 173.831 84.945C98.5907 42.15 58.9907 137.61 26.4107 144.66C2.80073 149.805 1.39073 161.25 1.39073 161.31C-6.34927 171.66 24.4307 207.78 70.1507 241.995C91.2257 257.76 111.791 270.375 128.606 278.385C148.256 287.745 162.776 290.79 166.946 285.225C166.946 285.225 177.596 280.68 175.841 256.515C175.091 246.09 182.486 232.53 191.066 217.005C209.651 183.375 233.801 140.4 192.896 99.525C192.311 98.955 191.741 98.4 191.156 97.83Z" stroke="#3C414C" stroke-width="1.5" stroke-miterlimit="10"/>
<path d="M167.065 285.015C167.02 285.075 166.975 285.15 166.93 285.21C162.76 290.79 148.24 287.73 128.59 278.37C111.775 270.375 91.2101 257.76 70.1351 241.98C24.4151 207.765 -6.36489 171.645 1.37511 161.295C1.42011 161.235 1.46511 161.175 1.52511 161.115C2.93511 159.39 5.41011 158.535 8.78511 158.52C24.7301 158.37 60.6401 176.43 98.1701 204.525C143.62 238.545 174.295 274.44 167.065 285.015Z" stroke="#3C414C" stroke-width="1.5" stroke-miterlimit="10"/>
<path d="M173.846 84.96C173.846 84.96 184.481 90.84 191.156 97.83" stroke="#3C414C" stroke-width="1.5" stroke-miterlimit="10"/>
<path d="M263.051 141.48C263.051 159.015 248.831 173.235 231.296 173.235C227.846 173.235 224.531 172.68 221.426 171.675C208.721 167.52 199.541 155.58 199.541 141.48C199.541 123.945 213.761 109.725 231.296 109.725C240.596 109.725 248.966 113.73 254.771 120.105C259.916 125.745 263.051 133.245 263.051 141.48Z" fill="url(#paint11_linear_6656_5120)"/>
<path d="M263.051 141.48C263.051 159.015 248.831 173.235 231.296 173.235C227.846 173.235 224.531 172.68 221.426 171.675C208.721 167.52 199.541 155.58 199.541 141.48C199.541 123.945 213.761 109.725 231.296 109.725C240.596 109.725 248.966 113.73 254.771 120.105C259.916 125.745 263.051 133.245 263.051 141.48Z" fill="url(#paint12_linear_6656_5120)" stroke="#3C414C" stroke-width="1.5" stroke-miterlimit="10"/>
<path opacity="0.2" d="M263.051 141.48C263.051 159.015 248.831 173.235 231.296 173.235C227.846 173.235 224.531 172.68 221.426 171.675C273.356 165.525 255.476 120.9 254.771 120.105C259.916 125.745 263.051 133.245 263.051 141.48Z" fill="black"/>
<g opacity="0.2">
<path d="M211.571 128.535C211.106 128.535 210.626 128.385 210.221 128.085C209.216 127.335 209.006 125.925 209.756 124.92C214.271 118.83 221.501 115.2 229.076 115.2C230.321 115.2 231.341 116.22 231.341 117.465C231.341 118.71 230.321 119.73 229.076 119.73C222.836 119.73 217.121 122.61 213.386 127.62C212.951 128.22 212.261 128.535 211.571 128.535Z" fill="white"/>
</g>
<g opacity="0.2">
<path d="M207.281 141.525C206.036 141.525 205.016 140.505 205.016 139.26C205.016 136.77 205.391 134.325 206.141 131.97C206.516 130.785 207.791 130.125 208.976 130.5C210.161 130.875 210.821 132.15 210.446 133.335C209.846 135.24 209.531 137.235 209.531 139.26C209.546 140.505 208.541 141.525 207.281 141.525Z" fill="white"/>
</g>
<path d="M235.227 126.975V156.06H229.962V132.105H229.797L223.002 136.455V131.625L230.232 126.975H235.227Z" fill="white"/>
<defs>
<linearGradient id="paint0_linear_6656_5120" x1="1.39062" y1="73.962" x2="212.622" y2="287.822" gradientUnits="userSpaceOnUse">
<stop stop-color="#3F424D"/>
<stop offset="1" stop-color="#12141C"/>
</linearGradient>
<linearGradient id="paint1_linear_6656_5120" x1="172.597" y1="90.555" x2="172.597" y2="285.18" gradientUnits="userSpaceOnUse">
<stop stop-color="#7B7D81"/>
<stop offset="1" stop-color="white"/>
</linearGradient>
<linearGradient id="paint2_linear_6656_5120" x1="0.183594" y1="237.216" x2="168.12" y2="237.216" gradientUnits="userSpaceOnUse">
<stop stop-color="#1D1F2D"/>
<stop offset="1" stop-color="#1D1F2E"/>
</linearGradient>
<linearGradient id="paint3_linear_6656_5120" x1="172.404" y1="54.4619" x2="216.077" y2="98.0036" gradientUnits="userSpaceOnUse">
<stop stop-color="#3F424D"/>
<stop offset="1" stop-color="#12141C"/>
</linearGradient>
<linearGradient id="paint4_linear_6656_5120" x1="62.5332" y1="221.775" x2="118.631" y2="221.775" gradientUnits="userSpaceOnUse">
<stop stop-color="#1D1F2D"/>
<stop offset="1" stop-color="#1D1F2E"/>
</linearGradient>
<linearGradient id="paint5_linear_6656_5120" x1="73.8555" y1="189.495" x2="125.019" y2="233.829" gradientUnits="userSpaceOnUse">
<stop stop-color="#3F424D"/>
<stop offset="1" stop-color="#12141C"/>
</linearGradient>
<linearGradient id="paint6_linear_6656_5120" x1="179.805" y1="61.9133" x2="208.536" y2="90.6354" gradientUnits="userSpaceOnUse">
<stop stop-color="#3F424D"/>
<stop offset="1" stop-color="#12141C"/>
</linearGradient>
<linearGradient id="paint7_linear_6656_5120" x1="53.1055" y1="0.00189209" x2="102.282" y2="82.5731" gradientUnits="userSpaceOnUse">
<stop stop-color="#3F424D"/>
<stop offset="1" stop-color="#12141C"/>
</linearGradient>
<linearGradient id="paint8_linear_6656_5120" x1="81.7852" y1="30.6577" x2="115" y2="80.7832" gradientUnits="userSpaceOnUse">
<stop stop-color="#3F424D"/>
<stop offset="1" stop-color="#12141C"/>
</linearGradient>
<linearGradient id="paint9_linear_6656_5120" x1="81.7988" y1="30.6487" x2="113.886" y2="80.2738" gradientUnits="userSpaceOnUse">
<stop stop-color="#3F424D"/>
<stop offset="1" stop-color="#12141C"/>
</linearGradient>
<linearGradient id="paint10_linear_6656_5120" x1="53.1211" y1="0.00891113" x2="101.872" y2="82.3306" gradientUnits="userSpaceOnUse">
<stop stop-color="#3F424D"/>
<stop offset="1" stop-color="#12141C"/>
</linearGradient>
<linearGradient id="paint11_linear_6656_5120" x1="199.541" y1="109.725" x2="263.051" y2="173.235" gradientUnits="userSpaceOnUse">
<stop stop-color="#3F424D"/>
<stop offset="1" stop-color="#12141C"/>
</linearGradient>
<linearGradient id="paint12_linear_6656_5120" x1="199.541" y1="109.725" x2="263.051" y2="173.235" gradientUnits="userSpaceOnUse">
<stop stop-color="#3F424D"/>
<stop offset="1" stop-color="#12141C"/>
</linearGradient>
</defs>
</svg>
