<svg width="17" height="20" viewBox="0 0 17 20" fill="none" xmlns="http://www.w3.org/2000/svg">
<path d="M16.6556 9.84326V5.45455C16.6556 4.70219 16.6556 4.20063 16.5289 3.76176C16.4023 3.38558 16.0856 3.0721 15.8956 2.82132C15.8956 2.82132 15.8323 2.82132 15.8323 2.75862C15.5157 2.50784 15.1357 2.31975 14.3124 2.00627L9.11941 0.0626959H9.05608C8.99275 0.0626959 8.92942 0 8.86609 0C8.73943 0.0626959 8.61277 0 8.48612 0H8.2328C8.10614 0 7.97948 0.0626959 7.85282 0.0626959C7.78949 0.0626959 7.72617 0.125392 7.66284 0.125392H7.59951L2.34318 2.06897C1.58323 2.38245 1.20326 2.57053 0.886609 2.82132C0.886609 2.82132 0.82328 2.82132 0.82328 2.88401C0.569963 3.0721 0.316646 3.38558 0.126658 3.82445C0 4.20063 0 4.6395 0 5.45455V10.0313C0 14.6708 4.62303 18.1191 7.34619 19.7492H7.40952C7.59951 19.8746 7.72616 19.9373 7.97948 20C8.04281 20 8.10614 20 8.16947 20H8.61277C8.86609 20 9.05608 19.8746 9.24607 19.8119C9.3094 19.8119 9.30939 19.7492 9.43605 19.6865C11.6526 18.4326 16.7822 14.9216 16.7822 9.96865C16.7189 9.96865 16.6556 9.90596 16.6556 9.84326Z" fill="white"/>
<path d="M5.44727 9.5926L7.34714 11.4735L11.7169 7.14746" stroke="#0A0D14" stroke-width="2" stroke-linecap="round" stroke-linejoin="round"/>
</svg>
