<svg width="24" height="24" viewBox="0 0 24 24" fill="none" xmlns="http://www.w3.org/2000/svg">
<path d="M20.6 11.2C20.2 10.4 19.6 9.8 18.8 9.4C18.5 9.3 18.3 9.2 18 9.1V8C18 4.7 15.3 2 12 2C8.7 2 6 4.7 6 8V9.2C5.7 9.2 5.5 9.3 5.2 9.4C4.4 9.8 3.8 10.4 3.4 11.2C3 12 3 13 3 14.8V16.2C3 18 3 19 3.4 19.8C3.8 20.6 4.4 21.2 5.2 21.6C6 22 7 22 8.8 22H15.2C17 22 18 22 18.8 21.6C19.6 21.2 20.2 20.6 20.6 19.8C21 19 21 18 21 16.2V14.8C21 13 21 12 20.6 11.2ZM13 16.5C13 17.1 12.6 17.5 12 17.5C11.4 17.5 11 17.1 11 16.5V14.5C11 13.9 11.4 13.5 12 13.5C12.6 13.5 13 13.9 13 14.5V16.5ZM16 9H8V8C8 5.8 9.8 4 12 4C14.2 4 16 5.8 16 8V9Z" fill="white"/>
</svg>
