<svg width="40" height="40" viewBox="0 0 40 40" fill="none" xmlns="http://www.w3.org/2000/svg">
<rect width="40" height="40" rx="20" fill="#FFDD00"/>
<path d="M4 11.0021C6.63338 10.9979 9.26877 11.0021 11.9042 11C14.678 16.02 17.4519 21.0421 20.2218 26.0641C19.8866 26.6628 19.5574 27.2677 19.2202 27.8663C18.7807 28.6287 18.1865 29.3324 17.4058 29.721C16.8157 30.0171 16.1192 30.0822 15.4929 29.868C14.7543 29.6306 14.1482 29.0761 13.6865 28.4439C13.3975 28.0616 13.1807 27.6289 12.9459 27.211C9.96525 21.8066 6.97861 16.4065 4 11.0021ZM14.5135 11.0021C17.1488 11 19.7842 11.0021 22.4176 11C24.2622 14.3291 26.1027 17.6604 27.9433 20.9895C28.0597 21.1933 28.1601 21.4117 28.3126 21.5882C28.6679 22.0166 29.256 22.2225 29.7839 22.0755C30.1873 21.9746 30.5225 21.6785 30.7413 21.3172C28.8445 17.8767 26.9437 14.4405 25.047 11.0021C27.6824 11 30.3158 11 32.9511 11.0021C33.9668 12.8484 34.9844 14.6925 36 16.5388C33.9266 20.2964 31.8512 24.0519 29.7778 27.8096C29.3684 28.5321 28.8305 29.2001 28.1239 29.618C27.5318 29.9772 26.8032 30.1011 26.1389 29.9121C25.3802 29.7062 24.7499 29.1622 24.2722 28.53C23.937 28.1036 23.6942 27.6121 23.4292 27.1374C20.4586 21.7583 17.484 16.3812 14.5135 11.0021Z" fill="black"/>
</svg>
