<svg width="22" height="22" viewBox="0 0 22 22" fill="none" xmlns="http://www.w3.org/2000/svg">
<path d="M9.62538 12.375L19.2504 2.75004M9.74232 12.6758L12.1514 18.8706C12.3637 19.4163 12.4698 19.6892 12.6227 19.7689C12.7552 19.8379 12.9131 19.838 13.0458 19.7691C13.1987 19.6896 13.3052 19.4169 13.5181 18.8714L19.5592 3.39097C19.7514 2.89855 19.8474 2.65234 19.7949 2.49502C19.7492 2.35839 19.642 2.25117 19.5054 2.20553C19.3481 2.15297 19.1019 2.24905 18.6094 2.44121L3.12901 8.48236C2.58353 8.69523 2.31078 8.80167 2.2313 8.95466C2.1624 9.08729 2.16249 9.24519 2.23155 9.37774C2.31121 9.53064 2.58408 9.63675 3.12981 9.84898L9.32465 12.2581C9.43543 12.3012 9.49082 12.3227 9.53746 12.356C9.5788 12.3855 9.61495 12.4216 9.64444 12.463C9.6777 12.5096 9.69924 12.565 9.74232 12.6758Z" stroke="white" stroke-width="1.6" stroke-linecap="round" stroke-linejoin="round"/>
</svg>
