<svg xmlns="http://www.w3.org/2000/svg" width="24" height="24" fill="none"><g clip-path="url(#a)"><path fill="#D80027" d="M12 24c6.627 0 12-5.373 12-12S18.627 0 12 0 0 5.373 0 12s5.373 12 12 12z"/><path fill="#000" d="M18.783 8.907h-4.347A1.565 1.565 0 1 0 12 6.961a1.564 1.564 0 0 0-2.87.866c0 .42.166.8.434 1.08H5.218c0 1.153 1.004 2.087 2.156 2.087h-.07c0 1.153.935 2.087 2.088 2.087 0 .374.098.724.27 1.027l-1.731 1.73 1.328 1.329 1.884-1.884c.074.027.15.049.229.063l-1.139 2.57L12 19.827l1.767-1.91-1.138-2.57a1.36 1.36 0 0 0 .229-.063l1.884 1.884 1.328-1.328-1.731-1.732c.172-.302.27-.652.27-1.026a2.087 2.087 0 0 0 2.087-2.087h-.07c1.153 0 2.157-.934 2.157-2.087z"/></g><defs><clipPath id="a"><path fill="#fff" d="M0 0h24v24H0z"/></clipPath></defs></svg>