<svg xmlns="http://www.w3.org/2000/svg" width="24" height="24" fill="none"><g clip-path="url(#a)"><path fill="#0052B4" d="M24 12c0 6.627-5.373 12-12 12S0 18.627 0 12C0 12.003 12 .001 12 0c6.627 0 12 5.373 12 12z"/><path fill="#F0F0F0" d="M11.968 12H12v-.032l-.032.032z"/><path fill="#F0F0F0" d="M12 6.262V0h-.002C5.372 0 0 5.374 0 12h6.26V8.475l3.526 3.526h2.182l.032-.032V9.787L8.474 6.262H12z"/><path fill="#D80027" d="M6.071 1.566A12.057 12.057 0 0 0 1.565 6.07V12h3.13V4.696H12v-3.13H6.071z"/><path fill="#D80027" d="M12 10.525 7.738 6.26H6.262L12 12.002v-1.476z"/><path fill="#F0F0F0" d="m7.237 14.086.659 1.377 1.487-.343-.666 1.373 1.196.949-1.489.335.004 1.527-1.19-.955-1.192.955.005-1.527-1.49-.335 1.197-.949-.667-1.373 1.488.344.658-1.378zm10.73 2.609.33.689.743-.172-.333.687.598.474-.745.168.002.763-.595-.477-.596.477.002-.763-.744-.168.598-.474-.333-.687.744.172.329-.689zm-3.064-7.304.33.69.743-.173-.333.687.598.474-.744.168.002.763-.596-.477-.595.477.002-.763-.745-.168.598-.474-.333-.687.744.172.33-.689zm3.064-4.173.33.688.743-.172-.333.687.598.474-.745.168.002.763-.595-.477-.596.477.002-.763-.744-.168.598-.474-.333-.687.744.172.329-.688zm2.675 3.13.329.688.744-.172-.334.687.599.474-.745.168.002.764-.595-.478-.596.478.002-.764-.744-.168.598-.474-.333-.687.743.172.33-.688zM18.729 12l.259.797h.838l-.678.493.26.797-.679-.492-.678.492.259-.797-.678-.492h.838l.259-.798z"/></g><defs><clipPath id="a"><path fill="#fff" d="M0 0h24v24H0z"/></clipPath></defs></svg>