<svg xmlns="http://www.w3.org/2000/svg" width="24" height="24" fill="none"><g clip-path="url(#a)"><path fill="#FFDA44" d="M16.174.747A11.974 11.974 0 0 0 12 0a11.96 11.96 0 0 0-4.174.747L6.782 12l1.044 11.254c1.3.482 2.706.746 4.174.746a11.99 11.99 0 0 0 4.174-.746L17.216 12 16.174.747z"/><path fill="#D80027" d="M24 12c0-5.16-3.257-9.56-7.826-11.255v22.507C20.744 21.557 24 17.159 24 11.999z"/><path fill="#000" d="M0 12c0 5.16 3.256 9.558 7.826 11.254V.746C3.256 2.442 0 6.84 0 12z"/></g><defs><clipPath id="a"><path fill="#fff" d="M0 0h24v24H0z"/></clipPath></defs></svg>