<svg xmlns="http://www.w3.org/2000/svg" width="24" height="24" fill="none"><g clip-path="url(#a)"><path fill="#6DA544" d="M12 24c6.627 0 12-5.373 12-12S18.627 0 12 0 0 5.373 0 12s5.373 12 12 12z"/><path fill="#FFDA44" d="M12 4.696 21.913 12 12 19.305 2.087 12 12 4.696z"/><path fill="#F0F0F0" d="M12 16.174a4.174 4.174 0 1 0 0-8.348 4.174 4.174 0 0 0 0 8.348z"/><path fill="#0052B4" d="M9.913 11.74a7.02 7.02 0 0 0-2.086.315 4.173 4.173 0 0 0 7.59 2.34 7.034 7.034 0 0 0-5.504-2.655zm6.183 1.06a4.174 4.174 0 0 0-7.932-2.447 8.607 8.607 0 0 1 7.932 2.447z"/></g><defs><clipPath id="a"><path fill="#fff" d="M0 0h24v24H0z"/></clipPath></defs></svg>