<svg xmlns="http://www.w3.org/2000/svg" width="24" height="24" fill="none"><g clip-path="url(#a)"><path fill="#F0F0F0" d="M12 24c6.627 0 12-5.373 12-12S18.627 0 12 0 0 5.373 0 12s5.373 12 12 12z"/><path fill="#D80027" d="M9.392 10.435h14.507C23.132 4.547 18.097 0 12 0c-.896 0-1.768.1-2.608.285v10.15zm-3.132.001V1.46a12.008 12.008 0 0 0-6.158 8.976H6.26zm0 3.13H.103A12.007 12.007 0 0 0 6.26 22.54v-8.975zm3.132 0v10.15c.84.185 1.712.284 2.608.284 6.097 0 11.132-4.547 11.899-10.434H9.392z"/></g><defs><clipPath id="a"><path fill="#fff" d="M0 0h24v24H0z"/></clipPath></defs></svg>