<svg xmlns="http://www.w3.org/2000/svg" width="24" height="24" fill="none"><g clip-path="url(#a)"><path fill="#D80027" d="M12 24c6.627 0 12-5.373 12-12S18.627 0 12 0 0 5.373 0 12s5.373 12 12 12z"/><path fill="#F0F0F0" d="M13.239 9.078c-.273 1.134-.758.918-.995 1.907a2.609 2.609 0 0 1 1.22-5.073c-.476 1.978.019 2.151-.225 3.166zm-3.635.839c.995.61.639 1.004 1.506 1.536a2.609 2.609 0 0 1-4.447-2.727c1.734 1.064 2.051.646 2.94 1.191zm-.324 3.718c.887-.758 1.152-.298 1.926-.958a2.609 2.609 0 1 1-3.969 3.387c1.548-1.321 1.249-1.752 2.042-2.43zm3.434 1.456c-.446-1.077.073-1.187-.316-2.127a2.609 2.609 0 0 1 1.996 4.82c-.778-1.88-1.28-1.728-1.68-2.693zm2.448-2.817c-1.163.091-1.107-.437-2.122-.357a2.61 2.61 0 0 1 5.202-.408c-2.029.16-2.04.683-3.08.765z"/></g><defs><clipPath id="a"><path fill="#fff" d="M0 0h24v24H0z"/></clipPath></defs></svg>