<svg xmlns="http://www.w3.org/2000/svg" width="24" height="24" fill="none"><g clip-path="url(#a)"><path fill="#F0F0F0" d="M12 24c6.627 0 12-5.373 12-12S18.627 0 12 0 0 5.373 0 12s5.373 12 12 12z"/><path fill="#D80027" d="M12 0A12 12 0 0 0 1.19 6.781h21.62A12 12 0 0 0 12-.002zm0 24a12 12 0 0 0 10.809-6.783H1.19A12 12 0 0 0 12 23.999z"/><path fill="#6DA544" d="m15.131 14.086-3.13-5.739-3.13 5.74h2.347v1.564h1.565v-1.565h2.348z"/></g><defs><clipPath id="a"><path fill="#fff" d="M0 0h24v24H0z"/></clipPath></defs></svg>