<svg xmlns="http://www.w3.org/2000/svg" width="24" height="24" fill="none"><g clip-path="url(#a)"><path fill="#F0F0F0" d="M12 24c6.627 0 12-5.373 12-12S18.627 0 12 0 0 5.373 0 12s5.373 12 12 12z"/><path fill="#D80027" d="M11.479 12H24a12.01 12.01 0 0 0-.413-3.13H11.479V12zm0-6.261h10.76a12.063 12.063 0 0 0-2.769-3.13h-7.99v3.13zM12.001 24c2.824 0 5.42-.976 7.47-2.608H4.531A11.95 11.95 0 0 0 12.001 24zM1.762 18.26h20.477a11.933 11.933 0 0 0 1.348-3.13H.414a11.89 11.89 0 0 0 1.348 3.13z"/><path fill="#0052B4" d="M12 12V0C5.373 0 0 5.373 0 12h12z"/><path fill="#FFDA44" d="M7.98 10.27a2.967 2.967 0 1 1 1.412-5.577 3.652 3.652 0 1 0 0 5.221 2.95 2.95 0 0 1-1.412.357z"/><path fill="#FFDA44" d="m8.816 5.217.527 1.102 1.19-.275L10 7.143l.957.759-1.191.268.003 1.221-.953-.764-.952.764.003-1.22-1.191-.27.957-.758L7.1 6.044l1.19.275.526-1.102z"/></g><defs><clipPath id="a"><path fill="#fff" d="M0 0h24v24H0z"/></clipPath></defs></svg>