<svg xmlns="http://www.w3.org/2000/svg" width="24" height="24" fill="none"><g clip-path="url(#a)"><path fill="#0052B4" d="M24 12c0 6.627-5.373 12-12 12S0 18.627 0 12C0 12.003 12 .001 12 0c6.627 0 12 5.373 12 12z"/><path fill="#F0F0F0" d="M11.968 12H12v-.032l-.032.032z"/><path fill="#F0F0F0" d="M12 6.26V0h-.002C5.372.001 0 5.373 0 12h6.26V8.474L9.787 12h2.182l.032-.032V9.786L8.474 6.261H12z"/><path fill="#D80027" d="M6.071 1.565A12.057 12.057 0 0 0 1.565 6.07V12h3.13V4.695H12v-3.13H6.071z"/><path fill="#D80027" d="M12 10.525 7.738 6.26H6.262L12 12.001v-1.476zm8.78-1.62.26.797h.838l-.678.492.259.798-.678-.493-.678.493.259-.798-.678-.492h.838l.259-.797zm-2.995 5.739.389 1.195h1.257l-1.017.74.389 1.195-1.018-.739-1.017.739.389-1.196-1.017-.739h1.257l.388-1.195zm.114-9.392.324.996h1.047l-.847.616.323.997-.847-.616-.848.616.324-.997-.848-.616h1.048l.324-.996zM15.015 8.87l.388 1.196h1.258l-1.018.739.39 1.195-1.018-.739-1.017.74.388-1.196-1.017-.74h1.257l.389-1.195z"/></g><defs><clipPath id="a"><path fill="#fff" d="M0 0h24v24H0z"/></clipPath></defs></svg>