<svg xmlns="http://www.w3.org/2000/svg" width="24" height="24" fill="none"><g clip-path="url(#a)"><path fill="#F0F0F0" d="M12 24c6.627 0 12-5.373 12-12S18.627 0 12 0 0 5.373 0 12s5.373 12 12 12z"/><path fill="#D80027" d="M.413 15.131a12.01 12.01 0 0 0 4.282 6.39v-6.39H.413zm10.543 8.824c.344.03.692.046 1.043.046 5.545 0 10.21-3.76 11.587-8.87h-12.63v8.824zM23.586 8.87C22.21 3.76 17.544 0 12 0c-.352 0-.7.017-1.044.046V8.87h12.63zM4.695 2.48A12.01 12.01 0 0 0 .413 8.87h4.282V2.48z"/><path fill="#0052B4" d="M23.898 10.434H9.391V.284a11.97 11.97 0 0 0-3.13 1.176v8.975H.1a12.104 12.104 0 0 0 0 3.13h6.16v8.976c.97.53 2.021.928 3.13 1.174v-10.15h14.507a12.118 12.118 0 0 0 0-3.13z"/></g><defs><clipPath id="a"><path fill="#fff" d="M0 0h24v24H0z"/></clipPath></defs></svg>