a<svg xmlns="http://www.w3.org/2000/svg" width="24" height="24" fill="none"><g clip-path="url(#a)"><path fill="#F0F0F0" d="M12 24c6.627 0 12-5.373 12-12S18.627 0 12 0 0 5.373 0 12s5.373 12 12 12z"/><path fill="#D80027" d="M16.174 12c0 1.043-1.869 3.652-4.174 3.652-2.305 0-4.174-2.609-4.174-3.652a4.174 4.174 0 1 1 8.348 0z"/><path fill="#0052B4" d="M16.174 12a4.174 4.174 0 0 1-8.348 0"/><path fill="#000" d="m17.534 14.583-1.107 1.106.738.738 1.106-1.107-.738-.737zm-1.845 1.844-1.107 1.107.738.737 1.107-1.106-.738-.738zm4.058.368L18.641 17.9l.738.738 1.106-1.106-.738-.738zm-1.844 1.845-1.107 1.108.738.737 1.107-1.106-.738-.738zm.737-2.95-1.106 1.106.738.738 1.107-1.107-.738-.737zm-1.844 1.844L15.69 18.64l.737.738 1.107-1.107-.738-.738zM15.69 5.358l2.95 2.952.738-.738-2.95-2.952-.739.738zm-1.107 1.108 1.107 1.107.737-.738-1.107-1.107-.737.738zm1.844 1.844 1.107 1.107.738-.738-1.107-1.107-.738.738zm.368-4.058L17.9 5.36l.738-.738-1.107-1.107-.737.738zm1.846 1.846 1.107 1.106.738-.737-1.107-1.107-.738.738zM7.203 19.748l-2.951-2.951-.738.738 2.951 2.95.738-.737zM8.31 18.64l-1.106-1.107-.738.738 1.107 1.107.738-.738zm-1.844-1.844L5.36 15.689l-.737.738 1.106 1.107.738-.738zm2.951.738-2.951-2.952-.738.738 2.951 2.951.738-.737zM4.253 7.205l2.951-2.952-.738-.738-2.951 2.952.738.738zM5.358 8.31 8.31 5.358l-.738-.737L4.62 7.57l.738.739zm1.109 1.107 2.951-2.951-.738-.738-2.95 2.951.738.738z"/></g><defs><clipPath id="a"><path fill="#fff" d="M0 0h24v24H0z"/></clipPath></defs></svg>