<svg width="50" height="50" viewBox="0 0 50 50" fill="none" xmlns="http://www.w3.org/2000/svg">
<path d="M25.0008 48.7C38.0899 48.7 48.7008 38.0891 48.7008 25C48.7008 11.9108 38.0899 1.29999 25.0008 1.29999C11.9116 1.29999 1.30078 11.9108 1.30078 25C1.30078 38.0891 11.9116 48.7 25.0008 48.7Z" fill="url(#paint0_linear_6885_30443)"/>
<path d="M49 24.88V25C49 38.26 38.26 49 25 49C14.68 49 5.86 42.46 2.5 33.28C7.9 37 14.44 39.16 21.52 39.16C32.86 39.16 42.94 33.52 49 24.88Z" fill="#0A0D14"/>
<path d="M25.0008 48.7C38.0899 48.7 48.7008 38.0891 48.7008 25C48.7008 11.9108 38.0899 1.29999 25.0008 1.29999C11.9116 1.29999 1.30078 11.9108 1.30078 25C1.30078 38.0891 11.9116 48.7 25.0008 48.7Z" stroke="#3C414C" stroke-miterlimit="10"/>
<path d="M23.4995 26.5001L33.9995 16.0001M23.6271 26.8281L26.2552 33.5861C26.4867 34.1815 26.6025 34.4791 26.7693 34.566C26.9139 34.6414 27.0862 34.6415 27.2308 34.5663C27.3977 34.4796 27.5139 34.1821 27.7461 33.587L34.3364 16.6992C34.5461 16.1621 34.6509 15.8935 34.5935 15.7219C34.5437 15.5728 34.4268 15.4558 34.2777 15.406C34.1061 15.3487 33.8375 15.4535 33.3003 15.6632L16.4126 22.2535C15.8175 22.4857 15.52 22.6018 15.4333 22.7687C15.3581 22.9134 15.3582 23.0857 15.4335 23.2303C15.5204 23.3971 15.8181 23.5128 16.4135 23.7444L23.1715 26.3725C23.2923 26.4195 23.3527 26.443 23.4036 26.4793C23.4487 26.5114 23.4881 26.5509 23.5203 26.596C23.5566 26.6468 23.5801 26.7073 23.6271 26.8281Z" stroke="white" stroke-width="1.6" stroke-linecap="round" stroke-linejoin="round"/>
<defs>
<linearGradient id="paint0_linear_6885_30443" x1="1.30078" y1="1.29999" x2="48.7008" y2="48.7" gradientUnits="userSpaceOnUse">
<stop stop-color="#3F424D"/>
<stop offset="1" stop-color="#12141C"/>
</linearGradient>
</defs>
</svg>
