<svg width="250" height="264" viewBox="0 0 250 264" fill="none" xmlns="http://www.w3.org/2000/svg">
<path d="M124.802 134.105C192.442 134.105 247.56 159.5 247.56 190.746C247.56 221.991 192.558 247.385 124.801 247.385C57.1605 247.384 2.04221 221.989 2.04248 190.744C2.04275 159.381 57.1615 134.104 124.802 134.105Z" stroke="#A7A9AB" stroke-width="0.632812" stroke-miterlimit="22.4998" stroke-linecap="round"/>
<path d="M124.803 137.85C190.454 137.851 243.817 161.49 243.817 190.629C243.816 219.768 190.453 243.407 124.802 243.406C59.1514 243.406 5.78835 219.766 5.78861 190.627C5.78886 161.488 59.1523 137.849 124.803 137.85Z" stroke="#A7A9AB" stroke-width="0.632812" stroke-miterlimit="22.4998" stroke-linecap="round" stroke-dasharray="2.14 2.14"/>
<path d="M128.246 255.644L128.246 263.251" stroke="#A7A9AB" stroke-width="0.631471" stroke-miterlimit="10"/>
<path d="M108.914 255.063L108.914 262.67" stroke="#A7A9AB" stroke-width="0.631471" stroke-miterlimit="10"/>
<path d="M108.914 255.063L108.914 262.67" stroke="#A7A9AB" stroke-width="0.631471" stroke-miterlimit="10"/>
<path d="M90.4688 253.53L90.4687 261.137" stroke="#A7A9AB" stroke-width="0.631471" stroke-miterlimit="10"/>
<path d="M73.1074 250.704L73.1074 258.311" stroke="#A7A9AB" stroke-width="0.631471" stroke-miterlimit="10"/>
<path d="M73.1074 250.704L73.1074 258.311" stroke="#A7A9AB" stroke-width="0.631471" stroke-miterlimit="10"/>
<path d="M57.0879 246.751L57.0878 254.357" stroke="#A7A9AB" stroke-width="0.631471" stroke-miterlimit="10"/>
<path d="M42.4688 241.933L42.4687 249.539" stroke="#A7A9AB" stroke-width="0.631471" stroke-miterlimit="10"/>
<path d="M29.752 236.225L29.7519 243.832" stroke="#A7A9AB" stroke-width="0.631471" stroke-miterlimit="10"/>
<path d="M18.8457 230.099L18.8457 237.706" stroke="#A7A9AB" stroke-width="0.631471" stroke-miterlimit="10"/>
<path d="M10.0312 222.709L10.0312 230.315" stroke="#A7A9AB" stroke-width="0.631471" stroke-miterlimit="10"/>
<path d="M3.57031 215.258L3.57026 222.865" stroke="#A7A9AB" stroke-width="0.631471" stroke-miterlimit="10"/>
<path d="M0.126953 205.973L0.126902 213.58" stroke="#A7A9AB" stroke-width="0.631471" stroke-miterlimit="10"/>
<path d="M1.80273 190.636L1.80268 198.243" stroke="#A7A9AB" stroke-width="0.631471" stroke-miterlimit="10"/>
<path d="M14.1113 174.112L14.1113 181.719" stroke="#A7A9AB" stroke-width="0.631471" stroke-miterlimit="10"/>
<path d="M24.1113 167.572L24.1113 175.178" stroke="#A7A9AB" stroke-width="0.631471" stroke-miterlimit="10"/>
<path d="M35.9609 161.551L35.9609 169.157" stroke="#A7A9AB" stroke-width="0.631471" stroke-miterlimit="10"/>
<path d="M49.8086 155.711L49.8085 163.317" stroke="#A7A9AB" stroke-width="0.631471" stroke-miterlimit="10"/>
<path d="M64.9844 151.619L64.9843 159.226" stroke="#A7A9AB" stroke-width="0.631471" stroke-miterlimit="10"/>
<path d="M81.6953 148.349L81.6953 155.955" stroke="#A7A9AB" stroke-width="0.631471" stroke-miterlimit="10"/>
<path d="M99.6875 145.829L99.6874 153.436" stroke="#A7A9AB" stroke-width="0.631471" stroke-miterlimit="10"/>
<path d="M121.191 144.812L121.191 152.419" stroke="#A7A9AB" stroke-width="0.631471" stroke-miterlimit="10"/>
<path d="M143.262 145.749L143.262 153.356" stroke="#A7A9AB" stroke-width="0.631471" stroke-miterlimit="10"/>
<path d="M161.951 147.621L161.951 155.228" stroke="#A7A9AB" stroke-width="0.631471" stroke-miterlimit="10"/>
<path d="M179.186 150.579L179.185 158.185" stroke="#A7A9AB" stroke-width="0.631471" stroke-miterlimit="10"/>
<path d="M195.143 154.409L195.143 162.016" stroke="#A7A9AB" stroke-width="0.631471" stroke-miterlimit="10"/>
<path d="M209.211 159.373L209.211 166.98" stroke="#A7A9AB" stroke-width="0.631471" stroke-miterlimit="10"/>
<path d="M221.887 164.952L221.887 172.559" stroke="#A7A9AB" stroke-width="0.631471" stroke-miterlimit="10"/>
<path d="M232.41 171.833L232.41 179.44" stroke="#A7A9AB" stroke-width="0.631471" stroke-miterlimit="10"/>
<path d="M249.875 201.574L249.875 209.181" stroke="#A7A9AB" stroke-width="0.631471" stroke-miterlimit="10"/>
<path d="M247.523 212.183L247.523 219.79" stroke="#A7A9AB" stroke-width="0.631471" stroke-miterlimit="10"/>
<path d="M242.266 219.871L242.266 227.478" stroke="#A7A9AB" stroke-width="0.631471" stroke-miterlimit="10"/>
<path d="M234.535 227.439L234.535 235.045" stroke="#A7A9AB" stroke-width="0.631471" stroke-miterlimit="10"/>
<path d="M224.303 234.186L224.303 241.793" stroke="#A7A9AB" stroke-width="0.631471" stroke-miterlimit="10"/>
<path d="M211.994 240.008L211.994 247.615" stroke="#A7A9AB" stroke-width="0.631471" stroke-miterlimit="10"/>
<path d="M197.979 245.48L197.978 253.087" stroke="#A7A9AB" stroke-width="0.631471" stroke-miterlimit="10"/>
<path d="M182.479 249.503L182.478 257.11" stroke="#A7A9AB" stroke-width="0.631471" stroke-miterlimit="10"/>
<path d="M165.535 252.76L165.535 260.366" stroke="#A7A9AB" stroke-width="0.631471" stroke-miterlimit="10"/>
<path d="M147.266 254.816L147.266 262.422" stroke="#A7A9AB" stroke-width="0.631471" stroke-miterlimit="10"/>
<path d="M125.421 222.207C165.683 222.207 198.321 210.264 198.321 195.531C198.321 180.798 165.683 168.855 125.421 168.855C85.1599 168.855 52.5215 180.798 52.5215 195.531C52.5215 210.264 85.1599 222.207 125.421 222.207Z" fill="black" fill-opacity="0.2"/>
<path d="M124.396 185.487C175.513 185.487 216.952 144.048 216.952 92.931C216.952 41.8137 175.513 0.375 124.396 0.375C73.2786 0.375 31.8398 41.8137 31.8398 92.931C31.8398 144.048 73.2786 185.487 124.396 185.487Z" fill="url(#paint0_linear_8245_4795)" stroke="black" stroke-width="0.84375" stroke-miterlimit="10"/>
<path d="M170.349 43.953L126.015 27.915L75.6872 41.901C64.8872 85.641 69.1532 132.081 101.013 152.817L110.517 158.001C111.273 157.623 111.975 157.299 112.731 156.921C112.947 156.813 113.163 156.651 113.379 156.543C114.135 156.165 114.891 155.733 115.647 155.301C116.187 155.031 116.673 154.707 117.213 154.437C118.023 154.005 118.779 153.519 119.535 153.033C119.913 152.817 120.291 152.601 120.615 152.385C120.723 152.331 120.831 152.223 120.939 152.169C121.317 151.899 121.749 151.629 122.127 151.359C122.829 150.927 123.477 150.441 124.179 149.955C124.611 149.685 125.043 149.361 125.421 149.037C125.799 148.767 126.177 148.497 126.555 148.227C126.825 148.011 127.149 147.795 127.419 147.579C127.743 147.309 128.067 147.093 128.391 146.823C129.147 146.229 129.849 145.635 130.605 145.041C130.821 144.825 131.091 144.663 131.307 144.447C131.361 144.393 131.469 144.339 131.523 144.285C132.387 143.583 133.197 142.827 134.007 142.071C134.223 141.855 134.439 141.693 134.655 141.477C135.087 141.099 135.465 140.721 135.897 140.343C136.221 140.073 136.491 139.749 136.815 139.479C137.031 139.263 137.247 139.047 137.517 138.831C138.327 138.021 139.191 137.157 140.001 136.347C140.055 136.293 140.055 136.293 140.109 136.239C140.217 136.131 140.271 136.023 140.379 135.915C141.135 135.105 141.891 134.295 142.593 133.485C142.809 133.269 143.025 132.999 143.241 132.783C143.403 132.567 143.619 132.351 143.781 132.135C143.997 131.919 144.159 131.649 144.375 131.433C145.239 130.461 146.049 129.435 146.913 128.409C147.075 128.193 147.291 127.977 147.453 127.707C147.561 127.599 147.669 127.437 147.777 127.329C148.857 125.979 149.883 124.575 150.909 123.171C150.963 123.117 150.963 123.063 151.017 123.009C151.665 122.091 152.367 121.119 153.015 120.147C153.177 119.877 153.339 119.607 153.555 119.391C153.879 118.905 154.203 118.419 154.527 117.933C154.743 117.609 154.905 117.285 155.121 117.015C155.337 116.637 155.553 116.313 155.823 115.935C156.363 115.125 156.849 114.315 157.335 113.451C157.497 113.181 157.659 112.911 157.821 112.641C157.875 112.533 157.929 112.479 157.983 112.371C158.577 111.345 159.225 110.265 159.765 109.239C159.873 109.077 159.927 108.915 160.035 108.807C160.521 107.943 161.007 107.079 161.439 106.215C161.493 106.107 161.547 105.945 161.601 105.837C161.871 105.351 162.141 104.811 162.411 104.325C162.789 103.623 163.113 102.921 163.491 102.219C163.761 101.679 164.031 101.139 164.247 100.599C164.463 100.113 164.733 99.627 164.949 99.141C165.057 98.925 165.111 98.763 165.219 98.547C165.543 97.791 165.867 97.089 166.191 96.333C166.461 95.739 166.731 95.145 167.001 94.551C167.325 93.795 167.649 93.039 167.973 92.283C168.189 91.851 168.351 91.365 168.567 90.933C168.621 90.825 168.675 90.663 168.729 90.555C169.323 89.043 169.917 87.531 170.457 86.019C170.511 85.857 170.565 85.695 170.619 85.533C171.105 84.183 171.591 82.779 172.077 81.429C172.131 81.267 172.185 81.105 172.239 80.943C172.509 80.133 172.779 79.323 173.049 78.513C173.103 78.297 173.211 78.081 173.265 77.865C173.643 76.623 174.021 75.381 174.399 74.139C174.507 73.815 174.615 73.437 174.669 73.113C174.939 72.195 175.209 71.277 175.425 70.359C175.533 69.927 175.641 69.495 175.749 69.117C175.857 68.739 175.965 68.415 176.019 68.091C176.127 67.767 176.181 67.389 176.289 67.065C176.505 66.147 176.721 65.283 176.937 64.365C177.099 63.771 177.207 63.177 177.369 62.583C177.585 61.665 177.801 60.747 177.963 59.829C178.071 59.235 178.233 58.695 178.341 58.101C178.557 57.075 178.719 56.103 178.935 55.077C179.043 54.591 179.097 54.105 179.205 53.619C179.475 52.161 179.691 50.649 179.961 49.191L170.349 43.953Z" stroke="black" stroke-width="2.53125" stroke-miterlimit="10"/>
<path d="M126.015 27.915L75.6872 41.901C64.8872 85.641 69.1532 132.081 101.013 152.817C140.865 133.701 163.599 87.855 170.349 44.007L126.015 27.915Z" fill="#3C414C"/>
<path d="M174.292 74.085C174.4 73.761 174.508 73.383 174.562 73.059C174.832 72.141 175.102 71.223 175.318 70.305C175.426 69.873 175.534 69.441 175.642 69.063C175.75 68.685 175.858 68.361 175.912 68.037C176.02 67.713 176.074 67.335 176.182 67.011C176.398 66.093 176.614 65.229 176.83 64.311C176.992 63.717 177.1 63.123 177.262 62.529C177.478 61.611 177.694 60.693 177.856 59.775C177.964 59.181 178.126 58.641 178.234 58.047C178.45 57.021 178.612 56.049 178.828 55.023C178.936 54.537 178.99 54.051 179.098 53.565C179.368 52.107 179.584 50.595 179.854 49.137L170.35 43.953C170.134 45.411 169.864 46.923 169.594 48.381C169.486 48.867 169.432 49.353 169.324 49.839C169.162 50.865 168.946 51.837 168.73 52.863C168.622 53.457 168.514 53.997 168.352 54.591C168.136 55.509 167.974 56.427 167.758 57.345C167.596 57.939 167.488 58.533 167.326 59.127C167.11 60.045 166.894 60.909 166.678 61.827C166.516 62.529 166.354 63.231 166.138 63.879C166.03 64.311 165.922 64.743 165.814 65.121C165.544 66.039 165.328 66.957 165.058 67.875C164.95 68.199 164.842 68.577 164.788 68.901C164.41 70.143 164.032 71.385 163.654 72.627C163.6 72.843 163.492 73.059 163.438 73.275C163.114 74.247 162.79 75.219 162.466 76.137C161.98 77.487 161.494 78.891 161.008 80.241C160.954 80.403 160.9 80.565 160.846 80.727C160.306 82.239 159.712 83.751 159.118 85.263C158.902 85.857 158.632 86.397 158.416 86.991C158.092 87.747 157.768 88.503 157.444 89.259C157.174 89.853 156.904 90.447 156.634 91.041C156.31 91.797 155.986 92.499 155.662 93.255C155.338 93.957 155.014 94.605 154.69 95.307C154.42 95.847 154.15 96.387 153.934 96.927C153.556 97.629 153.232 98.331 152.854 99.087C152.584 99.573 152.314 100.113 152.044 100.599C151.504 101.625 150.964 102.597 150.424 103.569C150.316 103.731 150.262 103.893 150.154 104.001C149.506 105.135 148.858 106.269 148.21 107.403C148.048 107.673 147.886 107.943 147.724 108.213C147.238 109.023 146.698 109.887 146.212 110.697C145.996 111.075 145.78 111.399 145.51 111.777C144.97 112.587 144.484 113.397 143.944 114.153C143.782 114.423 143.62 114.693 143.404 114.909C142.702 115.935 142 116.907 141.298 117.879C140.272 119.283 139.246 120.687 138.166 122.037C137.896 122.415 137.572 122.739 137.302 123.117C136.492 124.143 135.628 125.169 134.764 126.141C134.386 126.573 134.008 127.005 133.63 127.491C133.414 127.761 133.198 127.977 132.982 128.193C132.226 129.003 131.524 129.813 130.768 130.623C130.66 130.731 130.606 130.839 130.498 130.947C129.634 131.811 128.824 132.675 127.96 133.539C127.744 133.755 127.528 133.971 127.258 134.187C126.556 134.889 125.854 135.537 125.098 136.185C124.882 136.401 124.666 136.563 124.45 136.779C123.532 137.589 122.668 138.399 121.696 139.155C121.48 139.371 121.21 139.533 120.994 139.749C120.238 140.343 119.536 140.937 118.78 141.531C118.456 141.801 118.132 142.017 117.808 142.287C117.16 142.773 116.512 143.259 115.81 143.745C115.378 144.069 115 144.339 114.568 144.663C113.92 145.149 113.218 145.581 112.516 146.067C112.138 146.337 111.706 146.607 111.328 146.877C110.842 147.201 110.356 147.471 109.924 147.741C109.168 148.227 108.358 148.713 107.602 149.145C107.116 149.469 106.576 149.739 106.036 150.009C105.28 150.441 104.524 150.873 103.768 151.251C102.796 151.737 101.878 152.223 100.906 152.709L110.41 157.893C111.166 157.515 111.868 157.191 112.624 156.813C112.84 156.705 113.056 156.543 113.272 156.435C114.028 156.057 114.784 155.625 115.54 155.193C116.08 154.923 116.566 154.599 117.106 154.329C117.916 153.897 118.672 153.411 119.428 152.925C119.806 152.709 120.184 152.493 120.508 152.277C120.616 152.223 120.724 152.115 120.832 152.061C121.21 151.791 121.642 151.521 122.02 151.251C122.722 150.819 123.37 150.333 124.072 149.847C124.504 149.577 124.936 149.253 125.314 148.929C125.692 148.659 126.07 148.389 126.448 148.119C126.718 147.903 127.042 147.687 127.312 147.471C127.636 147.201 127.96 146.985 128.284 146.715C129.04 146.121 129.742 145.527 130.498 144.933C130.714 144.717 130.984 144.555 131.2 144.339C131.254 144.285 131.362 144.231 131.416 144.177C132.28 143.475 133.09 142.719 133.9 141.963C134.116 141.747 134.332 141.585 134.548 141.369C134.98 140.991 135.358 140.613 135.79 140.235C136.114 139.965 136.384 139.641 136.708 139.371C136.924 139.155 137.14 138.939 137.41 138.723C138.22 137.913 139.084 137.049 139.894 136.239C139.948 136.185 139.948 136.185 140.002 136.131C140.11 136.023 140.164 135.915 140.272 135.807C141.028 134.997 141.784 134.187 142.486 133.377C142.702 133.161 142.918 132.891 143.134 132.675C143.296 132.459 143.512 132.243 143.674 132.027C143.89 131.811 144.052 131.541 144.268 131.325C145.132 130.353 145.942 129.327 146.806 128.301C146.968 128.085 147.184 127.869 147.346 127.599C147.454 127.491 147.562 127.329 147.67 127.221C148.75 125.871 149.776 124.467 150.802 123.063C150.856 123.009 150.856 122.955 150.91 122.901C151.558 121.983 152.26 121.011 152.908 120.039C153.07 119.769 153.232 119.499 153.448 119.283C153.772 118.797 154.096 118.311 154.42 117.825C154.636 117.501 154.798 117.177 155.014 116.907C155.23 116.529 155.446 116.205 155.716 115.827C156.256 115.017 156.742 114.207 157.228 113.343C157.39 113.073 157.552 112.803 157.714 112.533C157.768 112.425 157.822 112.371 157.876 112.263C158.47 111.237 159.118 110.157 159.658 109.131C159.766 108.969 159.82 108.807 159.928 108.699C160.414 107.835 160.9 106.971 161.332 106.107C161.386 105.999 161.44 105.837 161.494 105.729C161.764 105.243 162.034 104.703 162.304 104.217C162.682 103.515 163.006 102.813 163.384 102.111C163.654 101.571 163.924 101.031 164.14 100.491C164.356 100.005 164.626 99.519 164.842 99.033C164.95 98.817 165.004 98.655 165.112 98.439C165.436 97.683 165.76 96.981 166.084 96.225C166.354 95.631 166.624 95.037 166.894 94.443C167.218 93.687 167.542 92.931 167.866 92.175C168.082 91.743 168.244 91.257 168.46 90.825C168.514 90.717 168.568 90.555 168.622 90.447C169.216 88.935 169.81 87.423 170.35 85.911C170.404 85.749 170.458 85.587 170.512 85.425C170.998 84.075 171.484 82.671 171.97 81.321C172.024 81.159 172.078 80.997 172.132 80.835C172.402 80.025 172.672 79.215 172.942 78.405C172.996 78.189 173.104 77.973 173.158 77.757C173.59 76.569 173.968 75.327 174.292 74.085Z" fill="#0A0D14"/>
<path d="M124.559 35.313L80.4945 47.517C76.1205 67.605 75.4185 86.721 78.4965 103.083C82.0065 121.713 90.1065 135.699 102.635 144.771C118.673 136.347 132.281 122.793 143.189 104.487C152.747 88.449 159.713 69.441 163.384 49.299L124.559 35.313Z" fill="url(#paint1_linear_8245_4795)"/>
<path d="M139.461 41.631C130.227 61.179 119.697 80.187 106.197 97.143C99.555 105.459 92.319 113.181 84.543 120.363C88.755 130.137 94.857 137.967 102.687 143.799C118.347 135.429 131.739 122.091 142.431 104.109C151.773 88.395 158.685 69.657 162.357 49.947L139.461 41.631Z" fill="url(#paint2_linear_8245_4795)"/>
<path d="M133.467 67.5509L138.381 75.2729L105.927 105.621L104.739 104.865L99.5547 76.7849L100.743 77.4869L109.005 90.4469L132.279 66.8489L133.467 67.5509Z" fill="black"/>
<path d="M132.28 66.8489L137.194 74.5709L104.74 104.865L91.5645 84.1829L99.5565 76.7849L107.818 89.7449L132.28 66.8489Z" fill="white" stroke="black" stroke-width="0.421875" stroke-miterlimit="10.0001"/>
<path opacity="0.2" d="M208.365 92.9309C208.365 139.317 170.781 176.901 124.395 176.901C114.243 176.901 104.577 175.119 95.5586 171.825C97.0166 171.879 98.4746 171.933 99.9326 171.933C152.475 171.933 195.081 132.027 195.081 82.7789C195.081 59.451 185.523 38.2289 169.863 22.299C193.029 37.2569 208.365 63.2849 208.365 92.9309Z" fill="white"/>
<path opacity="0.2" d="M51.0633 133.701C51.0633 133.701 6.24331 40.065 110.247 10.365C110.247 10.365 26.3313 39.147 51.0633 133.701Z" fill="white"/>
<defs>
<linearGradient id="paint0_linear_8245_4795" x1="31.8398" y1="112.886" x2="216.952" y2="112.886" gradientUnits="userSpaceOnUse">
<stop stop-color="#1D1F2D"/>
<stop offset="1" stop-color="#1D1F2E"/>
</linearGradient>
<linearGradient id="paint1_linear_8245_4795" x1="76.6094" y1="101.841" x2="163.384" y2="101.841" gradientUnits="userSpaceOnUse">
<stop stop-color="#1D1F2D"/>
<stop offset="1" stop-color="#1D1F2E"/>
</linearGradient>
<linearGradient id="paint2_linear_8245_4795" x1="84.543" y1="103.729" x2="162.357" y2="103.729" gradientUnits="userSpaceOnUse">
<stop stop-color="#1D1F2D"/>
<stop offset="1" stop-color="#1D1F2E"/>
</linearGradient>
</defs>
</svg>
