<svg width="49" height="50" viewBox="0 0 49 50" fill="none" xmlns="http://www.w3.org/2000/svg">
<path d="M24.6668 48.7C37.7559 48.7 48.3668 38.0892 48.3668 25C48.3668 11.9109 37.7559 1.30005 24.6668 1.30005C11.5776 1.30005 0.966797 11.9109 0.966797 25C0.966797 38.0892 11.5776 48.7 24.6668 48.7Z" fill="url(#paint0_linear_6885_28936)"/>
<path d="M48.666 24.8799V24.9999C48.666 38.2599 37.926 48.9999 24.666 48.9999C14.346 48.9999 5.52602 42.4599 2.16602 33.2799C7.56602 36.9999 14.106 39.1599 21.186 39.1599C32.526 39.1599 42.606 33.5199 48.666 24.8799Z" fill="#0A0D14"/>
<path d="M24.6668 48.7C37.7559 48.7 48.3668 38.0892 48.3668 25C48.3668 11.9109 37.7559 1.30005 24.6668 1.30005C11.5776 1.30005 0.966797 11.9109 0.966797 25C0.966797 38.0892 11.5776 48.7 24.6668 48.7Z" stroke="#3C414C" stroke-miterlimit="10"/>
<path d="M19 19L21 17M21 17L19 15M21 17H19C16.7909 17 15 18.7909 15 21M31 31L29 33M29 33L31 35M29 33H31C33.2091 33 35 31.2091 35 29M23.189 19.5C23.8551 16.9122 26.2042 15 29 15C32.3137 15 35 17.6863 35 21C35 23.7957 33.0879 26.1449 30.5001 26.811M27 29C27 32.3137 24.3137 35 21 35C17.6863 35 15 32.3137 15 29C15 25.6863 17.6863 23 21 23C24.3137 23 27 25.6863 27 29Z" stroke="white" stroke-width="1.6" stroke-linecap="round" stroke-linejoin="round"/>
<defs>
<linearGradient id="paint0_linear_6885_28936" x1="0.966797" y1="1.30005" x2="48.3668" y2="48.7" gradientUnits="userSpaceOnUse">
<stop stop-color="#3F424D"/>
<stop offset="1" stop-color="#12141C"/>
</linearGradient>
</defs>
</svg>
