<svg width="49" height="50" viewBox="0 0 49 50" fill="none" xmlns="http://www.w3.org/2000/svg">
<path d="M24.3348 48.7C37.4239 48.7 48.0348 38.0892 48.0348 25C48.0348 11.9109 37.4239 1.30005 24.3348 1.30005C11.2456 1.30005 0.634766 11.9109 0.634766 25C0.634766 38.0892 11.2456 48.7 24.3348 48.7Z" fill="url(#paint0_linear_6885_28946)"/>
<path d="M48.334 24.8799V24.9999C48.334 38.2599 37.594 48.9999 24.334 48.9999C14.014 48.9999 5.19398 42.4599 1.83398 33.2799C7.23398 36.9999 13.774 39.1599 20.854 39.1599C32.194 39.1599 42.274 33.5199 48.334 24.8799Z" fill="#0A0D14"/>
<path d="M24.3348 48.7C37.4239 48.7 48.0348 38.0892 48.0348 25C48.0348 11.9109 37.4239 1.30005 24.3348 1.30005C11.2456 1.30005 0.634766 11.9109 0.634766 25C0.634766 38.0892 11.2456 48.7 24.3348 48.7Z" stroke="#3C414C" stroke-miterlimit="10"/>
<path d="M21 16.5V15M17.0607 18.0607L16 17M17.0607 26L16 27.0607M25 18.0607L26.0607 17M15.5 22H14M20.5 21.5L24.6111 34.2778L27.5 31.3889L31.1111 35L34 32.1111L30.3889 28.5L33.2778 25.6111L20.5 21.5Z" stroke="white" stroke-width="1.6" stroke-linecap="round" stroke-linejoin="round"/>
<defs>
<linearGradient id="paint0_linear_6885_28946" x1="0.634766" y1="1.30005" x2="48.0348" y2="48.7" gradientUnits="userSpaceOnUse">
<stop stop-color="#3F424D"/>
<stop offset="1" stop-color="#12141C"/>
</linearGradient>
</defs>
</svg>
