<svg width="50" height="50" viewBox="0 0 50 50" fill="none" xmlns="http://www.w3.org/2000/svg">
<path d="M25.0008 48.7C38.0899 48.7 48.7008 38.0892 48.7008 25C48.7008 11.9109 38.0899 1.30005 25.0008 1.30005C11.9116 1.30005 1.30078 11.9109 1.30078 25C1.30078 38.0892 11.9116 48.7 25.0008 48.7Z" fill="url(#paint0_linear_6885_28926)"/>
<path d="M49 24.8799V24.9999C49 38.2599 38.26 48.9999 25 48.9999C14.68 48.9999 5.86 42.4599 2.5 33.2799C7.9 36.9999 14.44 39.1599 21.52 39.1599C32.86 39.1599 42.94 33.5199 49 24.8799Z" fill="#0A0D14"/>
<path d="M25.0008 48.7C38.0899 48.7 48.7008 38.0892 48.7008 25C48.7008 11.9109 38.0899 1.30005 25.0008 1.30005C11.9116 1.30005 1.30078 11.9109 1.30078 25C1.30078 38.0892 11.9116 48.7 25.0008 48.7Z" stroke="#3C414C" stroke-miterlimit="10"/>
<path d="M14 23H36M16 17H34C35.1046 17 36 17.8954 36 19V31C36 32.1046 35.1046 33 34 33H16C14.8954 33 14 32.1046 14 31V19C14 17.8954 14.8954 17 16 17Z" stroke="white" stroke-width="1.6" stroke-linecap="round" stroke-linejoin="round"/>
<defs>
<linearGradient id="paint0_linear_6885_28926" x1="1.30078" y1="1.30005" x2="48.7008" y2="48.7" gradientUnits="userSpaceOnUse">
<stop stop-color="#3F424D"/>
<stop offset="1" stop-color="#12141C"/>
</linearGradient>
</defs>
</svg>
