<svg width="50" height="50" viewBox="0 0 50 50" fill="none" xmlns="http://www.w3.org/2000/svg">
<path d="M25.0008 48.7C38.0899 48.7 48.7008 38.0892 48.7008 25C48.7008 11.9109 38.0899 1.30005 25.0008 1.30005C11.9116 1.30005 1.30078 11.9109 1.30078 25C1.30078 38.0892 11.9116 48.7 25.0008 48.7Z" fill="url(#paint0_linear_6885_28892)"/>
<path d="M49 24.8799V24.9999C49 38.2599 38.26 48.9999 25 48.9999C14.68 48.9999 5.86 42.4599 2.5 33.2799C7.9 36.9999 14.44 39.1599 21.52 39.1599C32.86 39.1599 42.94 33.5199 49 24.8799Z" fill="#0A0D14"/>
<path d="M25.0008 48.7C38.0899 48.7 48.7008 38.0892 48.7008 25C48.7008 11.9109 38.0899 1.30005 25.0008 1.30005C11.9116 1.30005 1.30078 11.9109 1.30078 25C1.30078 38.0892 11.9116 48.7 25.0008 48.7Z" stroke="#3C414C" stroke-miterlimit="10"/>
<path d="M23.4995 26.5002L33.9995 16.0002M23.6271 26.8282L26.2552 33.5862C26.4867 34.1816 26.6025 34.4793 26.7693 34.5662C26.9139 34.6415 27.0862 34.6416 27.2308 34.5664C27.3977 34.4797 27.5139 34.1822 27.7461 33.5871L34.3364 16.6994C34.5461 16.1622 34.6509 15.8936 34.5935 15.722C34.5437 15.5729 34.4268 15.456 34.2777 15.4062C34.1061 15.3488 33.8375 15.4536 33.3003 15.6633L16.4126 22.2536C15.8175 22.4858 15.52 22.602 15.4333 22.7689C15.3581 22.9135 15.3582 23.0858 15.4335 23.2304C15.5204 23.3972 15.8181 23.513 16.4135 23.7445L23.1715 26.3726C23.2923 26.4196 23.3527 26.4431 23.4036 26.4794C23.4487 26.5115 23.4881 26.551 23.5203 26.5961C23.5566 26.647 23.5801 26.7074 23.6271 26.8282Z" stroke="white" stroke-width="1.6" stroke-linecap="round" stroke-linejoin="round"/>
<defs>
<linearGradient id="paint0_linear_6885_28892" x1="1.30078" y1="1.30005" x2="48.7008" y2="48.7" gradientUnits="userSpaceOnUse">
<stop stop-color="#3F424D"/>
<stop offset="1" stop-color="#12141C"/>
</linearGradient>
</defs>
</svg>
