<svg width="111" height="20" viewBox="0 0 111 20" fill="none" xmlns="http://www.w3.org/2000/svg">
<g clip-path="url(#clip0_6423_167407)">
<path d="M10.3379 20C15.8607 20 20.3379 15.5228 20.3379 10C20.3379 4.47715 15.8607 0 10.3379 0C4.81504 0 0.337891 4.47715 0.337891 10C0.337891 15.5228 4.81504 20 10.3379 20Z" fill="url(#paint0_linear_6423_167407)"/>
<path d="M24.7637 11.5338V4.42578H27.9344V10.593C27.9344 11.8125 28.0738 12.9972 29.6766 12.9972C31.2794 12.9972 31.4187 11.8125 31.4187 10.593V4.42578H34.5895V11.499C34.5895 14.2516 32.8473 15.7498 29.6766 15.7498C26.4361 15.7847 24.7637 14.2516 24.7637 11.5338Z" fill="url(#paint1_linear_6423_167407)"/>
<path d="M35.4258 14.1468L36.9589 12.0214C37.5164 12.7182 38.492 13.3106 39.5721 13.3106C40.4084 13.3106 40.8962 12.9621 40.8962 12.3001C40.8962 11.5336 40.1993 11.2897 38.9798 10.9412C37.377 10.4534 35.9484 9.61718 35.9484 7.7008C35.9484 5.61021 37.6906 4.18164 40.1296 4.18164C41.8369 4.18164 43.0913 4.70429 43.9275 5.47084L42.499 7.59627C42.046 7.07363 41.2794 6.62067 40.3038 6.62067C39.4676 6.62067 39.1192 6.9691 39.1192 7.38722C39.1192 8.08408 39.9554 8.2583 40.8613 8.57188C42.6732 9.12938 44.0669 9.96561 44.0669 12.0214C44.0669 14.1468 42.5338 15.7496 39.7463 15.7496C37.6906 15.7844 36.1226 14.9133 35.4258 14.1468Z" fill="url(#paint2_linear_6423_167407)"/>
<path d="M48.3182 4.42578H51.8025L55.9489 15.5408H52.6388L52.1161 13.938H47.9349L47.4123 15.5408H44.1719C44.2067 15.5408 48.3182 4.42578 48.3182 4.42578ZM51.3147 11.4293L50.4437 8.74634C50.2694 8.22369 50.1301 7.56167 50.0604 7.07386H49.9558C49.8862 7.56167 49.7468 8.22369 49.5726 8.74634L48.7015 11.4293H51.3147Z" fill="url(#paint3_linear_6423_167407)"/>
<path d="M60.5475 7.00418H57.7949V4.42578H66.4709V7.00418H63.7183V15.5408H60.5475V7.00418Z" fill="url(#paint4_linear_6423_167407)"/>
<path d="M66.6797 10.0008C66.6797 7.24816 68.6309 4.2168 72.7772 4.2168C76.9236 4.2168 78.8748 7.283 78.8748 10.0008C78.8748 12.7185 76.9236 15.7499 72.7772 15.7499C68.6309 15.7847 66.6797 12.7534 66.6797 10.0008ZM75.6344 10.0008C75.6344 8.01471 74.3452 6.96941 72.7772 6.96941C71.2441 6.96941 69.9549 8.01471 69.9549 10.0008C69.9549 11.9868 71.2441 12.9973 72.7772 12.9973C74.3103 12.9973 75.6344 11.9868 75.6344 10.0008Z" fill="url(#paint5_linear_6423_167407)"/>
<path d="M80.0254 4.42578H84.1369C88.0742 4.42578 90.3041 6.51637 90.3041 10.0007C90.3041 13.4153 88.0045 15.5756 84.1369 15.5756H80.0254V4.42578ZM83.231 12.9972H83.9278C85.9836 12.9972 87.0637 12.0216 87.0637 10.0007C87.0637 7.97979 85.9836 7.00418 83.9278 7.00418H83.231V12.9972Z" fill="url(#paint6_linear_6423_167407)"/>
<path d="M93.9979 4.42578H97.4822L101.629 15.5408H98.3185L97.7958 13.938H93.6146L93.092 15.5408H89.8516C89.8864 15.5408 93.9979 4.42578 93.9979 4.42578ZM96.9944 11.4293L96.1233 8.74634C95.9491 8.22369 95.8097 7.56167 95.7401 7.07386H95.6355C95.5658 7.56167 95.4265 8.22369 95.2523 8.74634L94.3812 11.4293H96.9944Z" fill="url(#paint7_linear_6423_167407)"/>
<path d="M103.16 11.6038L99.0137 4.46094H102.498L103.996 7.21355C104.31 7.80589 104.763 8.67696 104.867 9.2693H104.937C105.042 8.67696 105.46 7.80589 105.808 7.21355L107.306 4.46094H110.686L106.54 11.6038V15.5759H103.195V11.6038H103.16Z" fill="url(#paint8_linear_6423_167407)"/>
</g>
<defs>
<linearGradient id="paint0_linear_6423_167407" x1="10.3379" y1="0" x2="10.3379" y2="20" gradientUnits="userSpaceOnUse">
<stop stop-color="#7B7D81"/>
<stop offset="1" stop-color="white"/>
</linearGradient>
<linearGradient id="paint1_linear_6423_167407" x1="29.6766" y1="4.42578" x2="29.6766" y2="15.7504" gradientUnits="userSpaceOnUse">
<stop stop-color="#7B7D81"/>
<stop offset="1" stop-color="white"/>
</linearGradient>
<linearGradient id="paint2_linear_6423_167407" x1="39.7463" y1="4.18164" x2="39.7463" y2="15.7506" gradientUnits="userSpaceOnUse">
<stop stop-color="#7B7D81"/>
<stop offset="1" stop-color="white"/>
</linearGradient>
<linearGradient id="paint3_linear_6423_167407" x1="50.0604" y1="4.42578" x2="50.0604" y2="15.5408" gradientUnits="userSpaceOnUse">
<stop stop-color="#7B7D81"/>
<stop offset="1" stop-color="white"/>
</linearGradient>
<linearGradient id="paint4_linear_6423_167407" x1="62.1329" y1="4.42578" x2="62.1329" y2="15.5408" gradientUnits="userSpaceOnUse">
<stop stop-color="#7B7D81"/>
<stop offset="1" stop-color="white"/>
</linearGradient>
<linearGradient id="paint5_linear_6423_167407" x1="72.7772" y1="4.2168" x2="72.7772" y2="15.7502" gradientUnits="userSpaceOnUse">
<stop stop-color="#7B7D81"/>
<stop offset="1" stop-color="white"/>
</linearGradient>
<linearGradient id="paint6_linear_6423_167407" x1="85.1647" y1="4.42578" x2="85.1647" y2="15.5756" gradientUnits="userSpaceOnUse">
<stop stop-color="#7B7D81"/>
<stop offset="1" stop-color="white"/>
</linearGradient>
<linearGradient id="paint7_linear_6423_167407" x1="95.7403" y1="4.42578" x2="95.7403" y2="15.5408" gradientUnits="userSpaceOnUse">
<stop stop-color="#7B7D81"/>
<stop offset="1" stop-color="white"/>
</linearGradient>
<linearGradient id="paint8_linear_6423_167407" x1="104.85" y1="4.46094" x2="104.85" y2="15.5759" gradientUnits="userSpaceOnUse">
<stop stop-color="#7B7D81"/>
<stop offset="1" stop-color="white"/>
</linearGradient>
<clipPath id="clip0_6423_167407">
<rect width="111" height="20" fill="white"/>
</clipPath>
</defs>
</svg>
