<svg width="113" height="20" viewBox="0 0 113 20" fill="none" xmlns="http://www.w3.org/2000/svg">
<g clip-path="url(#clip0_6423_167417)">
<path d="M0.273438 0H8.4796C10.0427 0 11.215 0.378928 12.0834 1.01048C13.0386 1.76833 13.5596 2.86301 13.5596 4.21031C13.5596 5.76813 12.9083 6.7365 11.6058 7.32594V7.41015C13.3425 7.95749 14.3411 9.4732 14.3411 11.2836C14.3411 13.0099 13.6464 14.3572 12.5175 15.1992C11.5623 15.8729 10.3466 16.1676 8.69669 16.1676H0.273438V0ZM7.65464 6.31547C8.52302 6.31547 9.1743 5.85233 9.1743 4.88396C9.1743 3.95769 8.52302 3.49456 7.61122 3.49456H4.789V6.27337H7.65464V6.31547ZM8.04541 12.5888C9.04404 12.5888 9.78216 11.9994 9.78216 10.9468C9.78216 9.81003 9.00062 9.30479 8.04541 9.30479H4.83242V12.6309H8.04541V12.5888Z" fill="url(#paint0_linear_6423_167417)"/>
<path d="M15.0801 0H19.3785V16.2097H15.0801V0Z" fill="url(#paint1_linear_6423_167417)"/>
<path d="M20.2461 10.4409C20.2461 6.77792 22.6776 4.33594 26.455 4.33594C30.2324 4.33594 32.6205 6.82002 32.6205 10.4409C32.6205 14.1039 30.2324 16.5458 26.455 16.5458C22.6776 16.5458 20.2461 14.1039 20.2461 10.4409ZM28.322 10.4409C28.322 8.41994 27.6707 7.15685 26.3682 7.15685C25.0656 7.15685 24.4577 8.41994 24.4577 10.4409C24.4577 12.4618 25.0656 13.767 26.3682 13.767C27.6707 13.7249 28.322 12.4618 28.322 10.4409Z" fill="url(#paint2_linear_6423_167417)"/>
<path d="M33.0977 10.4409C33.0977 6.77792 35.5291 4.33594 39.3065 4.33594C43.084 4.33594 45.4286 6.77792 45.4286 10.4409C45.4286 14.1039 43.0406 16.5458 39.2631 16.5458C35.5291 16.5458 33.0977 14.1039 33.0977 10.4409ZM41.1736 10.4409C41.1736 8.41994 40.5223 7.15685 39.2197 7.15685C37.9171 7.15685 37.3093 8.41994 37.3093 10.4409C37.3093 12.4618 37.9171 13.767 39.2197 13.767C40.5223 13.7249 41.1736 12.4618 41.1736 10.4409Z" fill="url(#paint3_linear_6423_167417)"/>
<path d="M46.2969 4.63175H50.2914V6.35797H50.3782C51.1598 5.01067 52.2453 4.29492 53.982 4.29492C55.5017 4.29492 56.6306 5.01068 57.195 6.27377H57.2818C58.2371 4.75806 59.4962 4.29492 60.9724 4.29492C63.7512 4.29492 64.9235 6.27377 64.9235 8.92626V16.168H60.7553V9.64202C60.7553 8.46313 60.3646 7.70527 59.3225 7.70527C58.2805 7.70527 57.7594 8.63154 57.7594 9.89464V16.168H53.5912V9.64202C53.5912 8.46313 53.2005 7.70527 52.1584 7.70527C51.1164 7.70527 50.5953 8.63154 50.5953 9.89464V16.168H46.2969V4.63175Z" fill="url(#paint4_linear_6423_167417)"/>
<path d="M70.1786 14.6519H70.1352V16.1676H66.1406V0H70.3088V5.81023H70.3957C71.1772 4.79976 72.2627 4.25241 73.7823 4.25241C76.7782 4.25241 78.515 6.86281 78.515 10.3574C78.515 14.273 76.648 16.5465 73.5218 16.5465C72.2193 16.5465 70.8733 15.9571 70.1786 14.6519ZM74.2165 10.3153C74.2165 8.46273 73.5218 7.24174 72.2627 7.24174C70.9601 7.24174 70.1786 8.46273 70.1786 10.3153C70.1786 12.1678 71.0035 13.3888 72.2627 13.3888C73.5218 13.3888 74.2165 12.2099 74.2165 10.3153Z" fill="url(#paint5_linear_6423_167417)"/>
<path d="M78.9922 10.3999C78.9922 6.77901 81.4671 4.29492 85.0274 4.29492C86.8076 4.29492 88.1536 4.84226 89.1956 5.81063C90.585 7.11583 91.1929 9.13678 91.1495 11.4946H83.1604C83.3341 12.9261 84.0288 13.6839 85.2879 13.6839C86.026 13.6839 86.6773 13.3471 86.9378 12.5892H90.9758C90.2811 15.2417 88.1536 16.5469 85.1577 16.5469C81.4671 16.5048 78.9922 14.0628 78.9922 10.3999ZM83.1604 9.17888H86.9813C86.8944 7.78948 86.1129 7.07373 85.1142 7.07373C83.9419 7.03162 83.2907 7.83158 83.1604 9.17888Z" fill="url(#paint6_linear_6423_167417)"/>
<path d="M95.8813 6.61037H95.9681C96.8365 5.01045 97.9653 4.37891 99.3982 4.37891C99.7455 4.37891 99.9626 4.42101 100.093 4.50522V8.04188H100.006C97.5312 7.62085 96.0984 8.75763 96.0984 11.368V16.2099H91.8867V4.63152H95.8813V6.61037Z" fill="url(#paint7_linear_6423_167417)"/>
<path d="M100.528 16.2092H104.566C104.739 16.7145 105.26 17.1776 106.259 17.1776C107.605 17.1776 108.083 16.3777 108.083 15.1567V14.3146H107.996C107.344 15.0725 106.433 15.6198 105.13 15.6198C102.568 15.6198 100.311 13.7673 100.311 10.1464C100.311 6.82024 102.134 4.25195 104.913 4.25195C106.519 4.25195 107.475 4.8835 108.126 5.85187H108.213V4.58878H112.207V14.6093C112.207 16.4619 111.556 17.8934 110.557 18.7354C109.515 19.6196 108.039 19.9985 106.346 19.9985C103.133 20.0406 100.918 18.7775 100.528 16.2092ZM108.256 9.97798C108.256 8.54647 107.561 7.36758 106.346 7.36758C105.173 7.36758 104.435 8.37806 104.435 9.97798C104.435 11.5358 105.173 12.6305 106.346 12.6305C107.518 12.6305 108.256 11.4937 108.256 9.97798Z" fill="url(#paint8_linear_6423_167417)"/>
</g>
<defs>
<linearGradient id="paint0_linear_6423_167417" x1="7.30727" y1="0" x2="7.30727" y2="16.1676" gradientUnits="userSpaceOnUse">
<stop stop-color="#7B7D81"/>
<stop offset="1" stop-color="white"/>
</linearGradient>
<linearGradient id="paint1_linear_6423_167417" x1="17.2293" y1="0" x2="17.2293" y2="16.2097" gradientUnits="userSpaceOnUse">
<stop stop-color="#7B7D81"/>
<stop offset="1" stop-color="white"/>
</linearGradient>
<linearGradient id="paint2_linear_6423_167417" x1="26.4333" y1="4.33594" x2="26.4333" y2="16.5458" gradientUnits="userSpaceOnUse">
<stop stop-color="#7B7D81"/>
<stop offset="1" stop-color="white"/>
</linearGradient>
<linearGradient id="paint3_linear_6423_167417" x1="39.2631" y1="4.33594" x2="39.2631" y2="16.5458" gradientUnits="userSpaceOnUse">
<stop stop-color="#7B7D81"/>
<stop offset="1" stop-color="white"/>
</linearGradient>
<linearGradient id="paint4_linear_6423_167417" x1="55.6102" y1="4.29492" x2="55.6102" y2="16.168" gradientUnits="userSpaceOnUse">
<stop stop-color="#7B7D81"/>
<stop offset="1" stop-color="white"/>
</linearGradient>
<linearGradient id="paint5_linear_6423_167417" x1="72.3278" y1="0" x2="72.3278" y2="16.5465" gradientUnits="userSpaceOnUse">
<stop stop-color="#7B7D81"/>
<stop offset="1" stop-color="white"/>
</linearGradient>
<linearGradient id="paint6_linear_6423_167417" x1="85.0719" y1="4.29492" x2="85.0719" y2="16.5469" gradientUnits="userSpaceOnUse">
<stop stop-color="#7B7D81"/>
<stop offset="1" stop-color="white"/>
</linearGradient>
<linearGradient id="paint7_linear_6423_167417" x1="95.9898" y1="4.37891" x2="95.9898" y2="16.2099" gradientUnits="userSpaceOnUse">
<stop stop-color="#7B7D81"/>
<stop offset="1" stop-color="white"/>
</linearGradient>
<linearGradient id="paint8_linear_6423_167417" x1="106.259" y1="4.25195" x2="106.259" y2="19.9995" gradientUnits="userSpaceOnUse">
<stop stop-color="#7B7D81"/>
<stop offset="1" stop-color="white"/>
</linearGradient>
<clipPath id="clip0_6423_167417">
<rect width="112" height="20" fill="white" transform="translate(0.25)"/>
</clipPath>
</defs>
</svg>
