<svg width="116" height="20" viewBox="0 0 116 20" fill="none" xmlns="http://www.w3.org/2000/svg">
<path d="M9.73154 7.97466H6.92886V14.1244C6.92886 15.1743 7.55168 15.3993 8.56376 15.3993C8.95302 15.3993 9.34228 15.3243 9.73154 15.3243V18.5491C8.87517 18.5491 8.01879 18.6991 7.24027 18.6991C3.34765 18.6991 2.33557 17.5742 2.33557 13.8994V7.97466H0V5.0498H2.33557V1H6.92886V5.0498H9.73154V7.97466ZM13.7799 12.9244C13.8577 14.7993 14.9477 15.9993 16.894 15.9993C17.9839 15.9993 19.0738 15.4743 19.5409 14.4993H23.8228C23.0443 17.6492 20.0081 18.9991 16.894 18.9991C12.3007 18.9991 9.18658 16.3742 9.18658 11.7995C9.18658 7.67467 12.6121 4.67482 16.7383 4.67482C21.7987 4.67482 24.2899 8.34964 24.0564 12.9244H13.7799ZM19.4631 10.4495C19.3852 8.94961 18.2953 7.67467 16.7383 7.67467C15.1034 7.67467 14.0134 8.79962 13.7799 10.4495H19.4631ZM34.1772 9.99956C34.1772 8.87461 33.0872 8.04965 31.9195 8.04965C29.3503 8.04965 28.9611 10.1496 28.9611 12.0245C28.9611 13.7494 29.7396 15.5493 31.6859 15.5493C33.3208 15.5493 34.0993 14.6493 34.3329 13.2244H38.7705C38.3812 16.8992 35.5007 18.9991 31.7638 18.9991C27.5597 18.9991 24.3678 16.2243 24.3678 12.0995C24.3678 7.82467 27.1705 4.74982 31.7638 4.74982C35.2671 4.74982 38.3812 6.54973 38.6926 10.0746H34.1772V9.99956ZM38.9262 1H43.5195V6.92471H43.5973C44.298 5.57478 46.1664 4.67482 47.8792 4.67482C52.5503 4.67482 52.9396 7.97466 52.9396 9.92456V18.6241H48.3463V12.0995C48.3463 10.2245 48.5799 8.34964 46.0107 8.34964C44.298 8.34964 43.5195 9.77457 43.5195 11.2745V18.6241H38.9262V1ZM53.3289 5.0498H57.7664V7.44968H57.8443C58.545 5.72477 60.102 4.82481 62.0483 4.82481C62.4376 4.82481 62.749 4.82481 63.1383 4.89981V8.94961C62.5154 8.79962 61.9705 8.72462 61.3477 8.72462C59.0899 8.72462 57.9221 10.2245 57.9221 11.9495V18.6241H53.3289V5.0498ZM63.1383 9.24959C63.2161 7.44968 64.0725 6.32474 65.3181 5.64977C66.5638 4.9748 68.1987 4.67482 69.7557 4.67482C73.1034 4.67482 76.2953 5.34979 76.2953 9.1746V15.0993C76.2953 16.2243 76.2953 17.4992 76.8403 18.5491H72.247C72.0913 18.0992 72.0134 17.7242 72.0134 17.2742C70.7678 18.5491 69.055 18.9991 67.3423 18.9991C64.6953 18.9991 62.5154 17.7242 62.5154 14.8743C62.5154 10.4495 67.498 10.8245 70.6899 10.1496C71.4685 9.99956 71.9356 9.69957 71.9356 8.87461C71.9356 7.82466 70.6899 7.44968 69.6779 7.44968C68.4322 7.44968 67.5758 7.97466 67.3423 9.1746H63.1383V9.24959ZM69.055 16.2992C71.2349 16.2992 72.0134 15.0993 71.8577 12.3244C71.2349 12.6994 69.9893 12.7744 69.055 13.0744C68.043 13.2994 67.1866 13.7494 67.1866 14.7993C67.1866 15.8493 68.043 16.2992 69.055 16.2992ZM91.1651 18.6241H86.8054V17.0492H86.7275C86.3167 17.6603 85.7506 18.1601 85.083 18.5013C84.4154 18.8426 83.6684 19.0139 82.9128 18.9991C78.4752 18.9991 76.6067 15.3243 76.6067 11.5745C76.6067 8.04965 78.553 4.74982 82.5235 4.74982C84.2362 4.74982 85.5597 5.34979 86.494 6.62472H86.5718V1H91.1651V18.6241ZM81.2 11.7245C81.2 13.5994 81.9007 15.6243 84.0027 15.6243C86.2604 15.6243 86.7275 13.5994 86.7275 11.8745C86.7275 9.92456 86.0268 8.12465 84.0027 8.12465C81.9007 8.04965 81.2 9.99956 81.2 11.7245ZM91.8658 9.24959C91.9436 7.44968 92.8 6.32474 94.0456 5.64977C95.2913 4.9748 96.9262 4.67482 98.4832 4.67482C101.831 4.67482 105.023 5.34979 105.023 9.1746V15.0993C105.023 16.2243 105.023 17.4992 105.568 18.5491H100.974C100.819 18.0992 100.741 17.7242 100.741 17.2742C99.4953 18.5491 97.7047 18.9991 96.0698 18.9991C93.4228 18.9991 91.243 17.7242 91.243 14.8743C91.243 10.4495 96.2255 10.8245 99.4174 10.1496C100.196 9.99956 100.663 9.69957 100.663 8.87461C100.663 7.82466 99.4174 7.44968 98.4054 7.44968C97.1597 7.44968 96.3034 7.97466 96.0698 9.1746H91.8658V9.24959ZM97.7826 16.2992C99.9624 16.2992 100.741 15.0993 100.585 12.3244C99.9624 12.6994 98.7168 12.7744 97.7826 13.0744C96.7705 13.2994 95.9141 13.7494 95.9141 14.7993C95.8362 15.8493 96.7705 16.2992 97.7826 16.2992ZM105.723 5.0498H110.161V7.44968H110.239C110.94 5.72477 112.497 4.82481 114.443 4.82481C114.832 4.82481 115.611 4.82481 116 4.89981V8.94961C115.377 8.79962 114.443 8.72462 113.82 8.72462C111.562 8.72462 110.395 10.2245 110.395 11.9495V18.6241H105.801V5.0498H105.723Z" fill="url(#paint0_linear_6532_171970)"/>
<path d="M111 14H116V19H111V14Z" fill="url(#paint1_linear_6532_171970)"/>
<defs>
<linearGradient id="paint0_linear_6532_171970" x1="58" y1="1" x2="58" y2="19" gradientUnits="userSpaceOnUse">
<stop stop-color="#7B7D81"/>
<stop offset="1" stop-color="white"/>
</linearGradient>
<linearGradient id="paint1_linear_6532_171970" x1="113.5" y1="14" x2="113.5" y2="19" gradientUnits="userSpaceOnUse">
<stop stop-color="#7B7D81"/>
<stop offset="1" stop-color="white"/>
</linearGradient>
</defs>
</svg>
