<svg width="122" height="24" viewBox="0 0 122 24" fill="none" xmlns="http://www.w3.org/2000/svg">
<g clip-path="url(#clip0_6549_174684)">
<path fill-rule="evenodd" clip-rule="evenodd" d="M118.925 18.2392C118.999 19.0748 119.671 20.1383 120.837 20.1383H121.519C121.783 20.1383 122 19.9231 122 19.6603V4.75989H121.997C121.983 4.50887 121.774 4.30781 121.519 4.30781H119.406C119.15 4.30781 118.942 4.50887 118.928 4.75989H118.925V5.97064C117.63 4.38514 115.589 3.72705 113.542 3.72705C108.89 3.72705 105.118 7.47716 105.118 12.1034C105.118 16.73 108.89 20.4801 113.542 20.4801V20.4806C115.589 20.4806 117.82 19.6911 118.925 18.2372L118.925 18.2392ZM113.551 17.5485C110.592 17.5485 108.193 15.1109 108.193 12.1035C108.193 9.09651 110.592 6.65875 113.551 6.65875C116.509 6.65875 118.908 9.09651 118.908 12.1035C118.908 15.1109 116.509 17.5485 113.551 17.5485Z" fill="white"/>
<path fill-rule="evenodd" clip-rule="evenodd" d="M102.447 18.7516L102.446 11.0412H102.446C102.446 6.69499 99.6886 3.76294 95.2912 3.76294C93.1921 3.76294 91.4713 4.96987 90.8636 6.00665C90.7322 5.19597 90.2993 4.34384 88.957 4.34384H88.2728C88.0082 4.34384 87.792 4.55925 87.792 4.8221V18.2764C87.792 18.2768 87.792 18.2779 87.792 18.2785V19.7237H87.7947C87.8086 19.9743 88.0176 20.1757 88.273 20.1757H90.3861C90.4184 20.1757 90.4501 20.1718 90.4808 20.1659C90.4948 20.1632 90.5078 20.1577 90.5214 20.1539C90.5371 20.1491 90.5535 20.1454 90.5683 20.1393C90.5873 20.1316 90.6042 20.1211 90.6218 20.1114C90.6303 20.1062 90.6392 20.1026 90.6475 20.097C90.6686 20.0836 90.688 20.0673 90.7067 20.0507C90.7097 20.0476 90.7134 20.0456 90.7165 20.0428C90.7374 20.0226 90.7566 20.0003 90.7737 19.9771C90.7738 19.9768 90.7738 19.9768 90.7738 19.9768C90.8267 19.9045 90.8588 19.8176 90.8641 19.7237H90.8668V10.9217C90.8668 8.58746 92.7701 6.69499 95.118 6.69499C97.4656 6.69499 99.3689 8.58746 99.3689 10.9217L99.3709 18.279L99.3714 18.2764C99.3714 18.283 99.3725 18.2896 99.3725 18.2966V19.7237H99.3753C99.3892 19.9743 99.5979 20.1757 99.8534 20.1757H101.967C101.999 20.1757 102.031 20.1718 102.061 20.1659C102.074 20.1636 102.085 20.1586 102.097 20.1552C102.115 20.1502 102.132 20.1459 102.149 20.1393C102.166 20.1322 102.182 20.1222 102.198 20.1131C102.208 20.1076 102.219 20.1034 102.229 20.097C102.248 20.0844 102.266 20.069 102.283 20.0537C102.288 20.0496 102.293 20.0466 102.297 20.0423C102.317 20.0232 102.335 20.0025 102.351 19.9808C102.352 19.9791 102.354 19.9777 102.355 19.9762C102.407 19.9045 102.439 19.8182 102.444 19.725C102.444 19.7244 102.445 19.7237 102.445 19.7237H102.447V18.7518L102.447 18.7516Z" fill="white"/>
<path fill-rule="evenodd" clip-rule="evenodd" d="M80.4405 18.2392C80.5145 19.0748 81.1872 20.1383 82.3525 20.1383H83.0345C83.2989 20.1383 83.5152 19.9231 83.5152 19.6603V4.75989H83.5125C83.4987 4.50887 83.2897 4.30781 83.0345 4.30781H80.9215C80.666 4.30781 80.4572 4.50887 80.443 4.75989H80.4405V5.97064C79.1457 4.38514 77.1047 3.72705 75.0578 3.72705C70.4053 3.72705 66.6338 7.47716 66.6338 12.1034C66.6338 16.73 70.4053 20.4801 75.0578 20.4801V20.4806C77.1047 20.4806 79.3354 19.6911 80.4403 18.2372L80.4405 18.2392ZM75.0659 17.5485C72.1072 17.5485 69.7083 15.1109 69.7083 12.1035C69.7083 9.09651 72.1072 6.65875 75.0659 6.65875C78.025 6.65875 80.4234 9.09651 80.4234 12.1035C80.4234 15.1109 78.025 17.5485 75.0659 17.5485Z" fill="white"/>
<path fill-rule="evenodd" clip-rule="evenodd" d="M54.1385 16.1051C55.5491 17.0767 57.0888 17.5486 58.5684 17.5486C59.978 17.5486 61.4353 16.8221 61.4353 15.5573C61.4353 13.8689 58.2599 13.6062 56.2647 12.9319C54.2693 12.2577 52.5507 10.864 52.5507 8.6069C52.5507 5.15322 55.6456 3.72681 58.5342 3.72681C60.3644 3.72681 62.2529 4.3269 63.4771 5.18654C63.8988 5.5042 63.6419 5.8689 63.6419 5.8689L62.4733 7.52854C62.3419 7.71547 62.1123 7.87698 61.7825 7.67465C61.4529 7.47246 60.2965 6.6586 58.5342 6.6586C56.7718 6.6586 55.7101 7.46788 55.7101 8.47096C55.7101 9.67381 57.0899 10.0521 58.7061 10.4621C61.5224 11.217 64.5948 12.1242 64.5948 15.5573C64.5948 18.6004 61.7322 20.4809 58.5684 20.4809C56.1709 20.4809 54.1297 19.8012 52.4177 18.5521C52.0611 18.1972 52.3102 17.8678 52.3102 17.8678L53.4731 16.2165C53.7097 15.9078 54.0081 16.0154 54.1385 16.1051Z" fill="white"/>
<path fill-rule="evenodd" clip-rule="evenodd" d="M46.0146 18.2392C46.0886 19.0748 46.7613 20.1383 47.9267 20.1383H48.6087C48.873 20.1383 49.0896 19.9231 49.0896 19.6603V4.75989H49.0867C49.0729 4.50887 48.8642 4.30781 48.6087 4.30781H46.4957C46.2402 4.30781 46.0315 4.50887 46.0172 4.75989H46.0146V5.97064C44.7201 4.38514 42.6789 3.72705 40.6321 3.72705C35.9796 3.72705 32.208 7.47716 32.208 12.1034C32.208 16.73 35.9796 20.4801 40.6321 20.4801V20.4806C42.6789 20.4806 44.9095 19.6911 46.0144 18.2372L46.0146 18.2392ZM40.6404 17.5485C37.6814 17.5485 35.2825 15.1109 35.2825 12.1035C35.2825 9.09651 37.6814 6.65875 40.6404 6.65875C43.5993 6.65875 45.9978 9.09651 45.9978 12.1035C45.9978 15.1109 43.5993 17.5485 40.6404 17.5485Z" fill="white"/>
<path fill-rule="evenodd" clip-rule="evenodd" d="M20.398 12.6732C17.267 12.6732 14.7289 15.195 14.7289 18.3059C14.7289 21.4167 17.267 23.9385 20.398 23.9385C23.529 23.9385 26.0671 21.4167 26.0671 18.3059C26.0671 15.195 23.529 12.6732 20.398 12.6732ZM5.66913 12.6737C2.53819 12.6737 0 15.195 0 18.3059C0 21.4167 2.53819 23.9385 5.66913 23.9385C8.80021 23.9385 11.3385 21.4167 11.3385 18.3059C11.3385 15.195 8.80021 12.6737 5.66913 12.6737ZM18.7026 5.6324C18.7026 8.74338 16.1645 11.2654 13.0336 11.2654C9.90251 11.2654 7.36444 8.74338 7.36444 5.6324C7.36444 2.52204 9.90251 0 13.0336 0C16.1645 0 18.7026 2.52204 18.7026 5.6324Z" fill="white"/>
</g>
<defs>
<clipPath id="clip0_6549_174684">
<rect width="122" height="24" fill="white"/>
</clipPath>
</defs>
</svg>
