<svg width="48" height="48" viewBox="0 0 48 48" fill="none" xmlns="http://www.w3.org/2000/svg">
<g clip-path="url(#clip0_8221_99099)">
<path d="M32.347 1.49327C29.747 0.528582 26.9349 0.000488281 23.9992 0.000488281C21.0635 0.000488281 18.2514 0.528582 15.6514 1.49327L13.5645 24.0005L15.6514 46.5077C18.2514 47.4725 21.0635 48.0005 23.9992 48.0005C26.9349 48.0005 29.747 47.4725 32.347 46.5077L34.434 24.0005L32.347 1.49327Z" fill="#FFDA44"/>
<path d="M47.9999 23.9988C47.9999 13.6798 41.4869 4.88264 32.3477 1.4917V46.5062C41.4869 43.115 47.9999 34.3181 47.9999 23.9988Z" fill="#D80027"/>
<path d="M-0.000976562 23.9998C-0.000976562 34.3191 6.51202 43.116 15.6512 46.5071V1.49268C6.51202 4.88361 -0.000976562 13.6807 -0.000976562 23.9998Z" fill="black"/>
</g>
<defs>
<clipPath id="clip0_8221_99099">
<rect width="48" height="48" fill="white"/>
</clipPath>
</defs>
</svg>
