<svg width="22" height="22" viewBox="0 0 22 22" fill="none" xmlns="http://www.w3.org/2000/svg">
<mask id="mask0_6554_183792" style="mask-type:luminance" maskUnits="userSpaceOnUse" x="0" y="0" width="22" height="22">
<path d="M22 0H0V22H22V0Z" fill="white"/>
</mask>
<g mask="url(#mask0_6554_183792)">
<mask id="mask1_6554_183792" style="mask-type:luminance" maskUnits="userSpaceOnUse" x="0" y="0" width="22" height="22">
<path d="M11 22C17.0751 22 22 17.0751 22 11C22 4.92487 17.0751 0 11 0C4.92487 0 0 4.92487 0 11C0 17.0751 4.92487 22 11 22Z" fill="white"/>
</mask>
<g mask="url(#mask1_6554_183792)">
<path d="M22 0H0V22H22V0Z" fill="#231D9A"/>
<path d="M5.48343 14.6689L3.65234 16.5L5.48343 18.3311L7.31452 16.5L5.48343 14.6689Z" fill="white"/>
<path d="M13.3077 6.87048L12.1572 8.02101L13.3077 9.17151L14.4583 8.02101L13.3077 6.87048Z" fill="white"/>
<path d="M16.5157 3.20398L15.3652 4.3545L16.5157 5.50499L17.6663 4.3545L16.5157 3.20398Z" fill="white"/>
<path d="M16.5157 16.037L15.3652 17.1875L16.5157 18.338L17.6663 17.1875L16.5157 16.037Z" fill="white"/>
<path d="M19.2657 6.41211L18.1152 7.56264L19.2657 8.71314L20.4163 7.56264L19.2657 6.41211Z" fill="white"/>
<path d="M17.4169 9.6322L16.7363 10.3128L17.4169 10.9934L18.0975 10.3128L17.4169 9.6322Z" fill="white"/>
<mask id="mask2_6554_183792" style="mask-type:luminance" maskUnits="userSpaceOnUse" x="0" y="0" width="11" height="10">
<path d="M10.5531 0H0V9.625H10.5531V0Z" fill="white"/>
</mask>
<g mask="url(#mask2_6554_183792)">
<path d="M4.06272 3.03671V2.92689L-0.768883 -0.257568C-0.989498 0.0157349 -1.25903 0.321572 -1.42773 0.620903L2.30577 3.0367L4.06272 3.03671Z" fill="#F0263C"/>
<path d="M3.95268 2.4217L-0.209223 -0.334528C-0.308051 -0.224719 -0.406878 -0.11491 -0.494727 -0.00510073L3.96365 2.9378V3.03663H2.50319L-0.988867 0.730619C-1.05475 0.862389 -1.12064 0.994162 -1.18652 1.12593L1.71257 3.03663H0.938415H-0.13235C-0.165293 3.17938 -0.198236 3.32213 -0.220198 3.47587H4.39189V-1.13611C4.23817 -1.11415 4.09541 -1.0812 3.95265 -1.04826L3.95268 2.4217Z" fill="white"/>
<path d="M-0.220222 5.23291C-0.198261 5.38664 -0.165318 5.52939 -0.132375 5.67212H1.71255L-1.23047 7.62672C-1.17556 7.75848 -1.10968 7.89023 -1.03281 8.02203L2.50317 5.67212H3.95265V5.75998L-0.549651 8.74676C-0.461806 8.86755 -0.362978 8.97734 -0.264149 9.07617L3.95265 6.28705V9.64718C4.09541 9.68014 4.23816 9.71307 4.39189 9.73504V5.99057V5.4635V5.23291H-0.220222Z" fill="white"/>
<path d="M10.7612 3.47589C10.7392 3.32215 10.7063 3.1794 10.6733 3.03665H8.82877L11.3102 1.38952C11.2443 1.25775 11.1894 1.12597 11.1126 0.994203L8.03815 3.03665H6.58866V2.9488L10.9589 0.0718014C10.871 -0.0489882 10.7722 -0.158798 10.6733 -0.257626L6.58866 2.42172V-1.02629C6.4459 -1.05923 6.30317 -1.09217 6.14941 -1.11414V2.71821V3.24529V3.47589H10.7612Z" fill="white"/>
<path d="M6.14945 5.23291L6.14941 9.84483C6.30317 9.8229 6.4459 9.78994 6.58866 9.757V6.28705L10.5855 8.85655C10.6843 8.74676 10.7832 8.63696 10.871 8.52714L6.58866 5.75998V5.67212H8.03815L11.0028 7.60475C11.0686 7.47296 11.1345 7.3412 11.2004 7.20944L8.82877 5.67212H10.6733C10.7063 5.52939 10.7392 5.38664 10.7612 5.23291H6.14945Z" fill="white"/>
<path d="M11.1999 0.950204C11.0571 0.697644 10.8924 0.445081 10.7167 0.225464L6.58789 2.94874V3.03658H8.03738L11.1999 0.950204Z" fill="#F0263C"/>
<path d="M-0.703125 7.80241C-0.560373 8.05496 -0.395658 8.30755 -0.219964 8.52713L3.95278 5.75995V5.67212H2.5033L-0.703125 7.80241Z" fill="#F0263C"/>
<path d="M6.58789 5.67212V5.75995L10.6069 8.37341C10.7936 8.14282 10.9473 7.90123 11.0901 7.64868L8.03738 5.67212H6.58789Z" fill="#F0263C"/>
<path d="M10.6507 3.47588H6.14849V3.24527V2.71819V-1.02628C5.86297 -1.08119 5.56649 -1.10315 5.27 -1.10315C4.97352 -1.10315 4.67703 -1.08119 4.39155 -1.02628V3.47588H-0.110634C-0.165538 3.76136 -0.1875 4.05785 -0.1875 4.35433C-0.1875 4.65082 -0.165538 4.9473 -0.110634 5.23282H4.39155L4.39151 9.73498C4.67703 9.77891 4.97352 9.81184 5.27 9.81184C5.56649 9.81184 5.86297 9.78988 6.14849 9.73498V5.23282H10.6507C10.6946 4.9473 10.7275 4.65082 10.7275 4.35433C10.7275 4.05785 10.7055 3.76136 10.6507 3.47588Z" fill="#F0263C"/>
</g>
</g>
</g>
</svg>
