<svg width="56" height="56" viewBox="0 0 56 56" fill="none" xmlns="http://www.w3.org/2000/svg">
<mask id="mask0_6536_171750" style="mask-type:luminance" maskUnits="userSpaceOnUse" x="0" y="0" width="56" height="56">
<path d="M56 0H0V56H56V0Z" fill="white"/>
</mask>
<g mask="url(#mask0_6536_171750)">
<path d="M28 56C43.464 56 56 43.464 56 28C56 12.536 43.464 0 28 0C12.536 0 0 12.536 0 28C0 43.464 12.536 56 28 56Z" fill="#231D9A"/>
<path d="M30.7834 9.78483L27.9991 7.00057L25.2148 9.78483L27.9991 12.5691L30.7834 9.78483Z" fill="#FFD400"/>
<path d="M21.4982 11.875L18.7139 9.09066L15.9297 11.875L18.7139 14.6592L21.4982 11.875Z" fill="#FFD400"/>
<path d="M14.6583 18.7143L11.8741 15.9301L9.08984 18.7143L11.8741 21.4987L14.6583 18.7143Z" fill="#FFD400"/>
<path d="M12.5705 28.0003L9.78623 25.2161L7.00195 28.0003L9.78623 30.7847L12.5705 28.0003Z" fill="#FFD400"/>
<path d="M14.678 37.3201L11.8937 34.5358L9.10938 37.3201L11.8937 40.1043L14.678 37.3201Z" fill="#FFD400"/>
<path d="M21.467 44.103L18.6827 41.3187L15.8984 44.103L18.6827 46.8873L21.467 44.103Z" fill="#FFD400"/>
<path d="M37.4113 46.8874L34.627 44.1031L37.4113 41.3188L40.1955 44.1031L37.4113 46.8874Z" fill="#FFD400"/>
<path d="M30.7834 46.2158L27.9991 43.4316L25.2148 46.2158L27.9991 49.0001L30.7834 46.2158Z" fill="#FFD400"/>
<path d="M46.9026 37.2872L44.1183 34.5029L41.334 37.2872L44.1183 40.0714L46.9026 37.2872Z" fill="#FFD400"/>
<path d="M49.0001 28.0001L46.2159 25.2158L43.4316 28.0001L46.2159 30.7844L49.0001 28.0001Z" fill="#FFD400"/>
<path d="M46.8869 18.6852L44.1026 15.901L41.3184 18.6852L44.1026 21.4695L46.8869 18.6852Z" fill="#FFD400"/>
<path d="M40.1056 11.8948L37.3214 9.11059L34.5371 11.8948L37.3214 14.6792L40.1056 11.8948Z" fill="#FFD400"/>
</g>
</svg>
