<svg width="56" height="56" viewBox="0 0 56 56" fill="none" xmlns="http://www.w3.org/2000/svg">
<mask id="mask0_6536_171559" style="mask-type:luminance" maskUnits="userSpaceOnUse" x="0" y="0" width="56" height="56">
<path d="M56 28C56 12.536 43.464 0 28 0C12.536 0 0 12.536 0 28C0 43.464 12.536 56 28 56C43.464 56 56 43.464 56 28Z" fill="white"/>
</mask>
<g mask="url(#mask0_6536_171559)">
<path d="M56 28C56 12.536 43.464 0 28 0C12.536 0 0 12.536 0 28C0 43.464 12.536 56 28 56C43.464 56 56 43.464 56 28Z" fill="white"/>
<mask id="mask1_6536_171559" style="mask-type:luminance" maskUnits="userSpaceOnUse" x="0" y="0" width="56" height="56">
<path d="M28 56C43.464 56 56 43.464 56 28C56 12.536 43.464 0 28 0C12.536 0 0 12.536 0 28C0 43.464 12.536 56 28 56Z" fill="white"/>
</mask>
<g mask="url(#mask1_6536_171559)">
<path d="M0 0H56V56H0V0Z" fill="white"/>
<path d="M28 0H0V30.1788H28V0Z" fill="#231D9A"/>
<path d="M18.0884 7.39678L20.1953 5.28987L18.0884 3.18296L15.9815 5.28987L18.0884 7.39678Z" fill="white"/>
<path d="M18.0884 15.9184L20.1953 13.8114L18.0884 11.7045L15.9815 13.8114L18.0884 15.9184Z" fill="white"/>
<path d="M18.0884 24.4394L20.1953 22.3324L18.0884 20.2255L15.9815 22.3324L18.0884 24.4394Z" fill="white"/>
<path d="M6.85012 7.39678L8.95703 5.28987L6.85012 3.18296L4.74321 5.28987L6.85012 7.39678Z" fill="white"/>
<path d="M6.85012 15.9184L8.95703 13.8114L6.85012 11.7045L4.74321 13.8114L6.85012 15.9184Z" fill="white"/>
<path d="M6.85012 24.4394L8.95703 22.3324L6.85012 20.2255L4.74321 22.3324L6.85012 24.4394Z" fill="white"/>
<path d="M23.7056 11.6573L25.8125 9.55037L23.7056 7.44346L21.5987 9.55037L23.7056 11.6573Z" fill="white"/>
<path d="M23.7056 3.13685L25.8125 1.02994L23.7056 -1.07697L21.5987 1.02994L23.7056 3.13685Z" fill="white"/>
<path d="M23.7056 20.1783L25.8125 18.0714L23.7056 15.9645L21.5987 18.0714L23.7056 20.1783Z" fill="white"/>
<path d="M23.7056 28.6999L25.8125 26.5929L23.7056 24.486L21.5987 26.5929L23.7056 28.6999Z" fill="white"/>
<path d="M12.4693 11.6573L14.5762 9.55037L12.4693 7.44346L10.3624 9.55037L12.4693 11.6573Z" fill="white"/>
<path d="M12.4693 20.1783L14.5762 18.0714L12.4693 15.9645L10.3624 18.0714L12.4693 20.1783Z" fill="white"/>
<path d="M12.4693 28.6999L14.5762 26.5929L12.4693 24.486L10.3624 26.5929L12.4693 28.6999Z" fill="white"/>
<path d="M1.23098 11.6573L3.33789 9.55037L1.23098 7.44346L-0.875928 9.55037L1.23098 11.6573Z" fill="white"/>
<path d="M1.23098 20.1783L3.33789 18.0714L1.23098 15.9645L-0.875929 18.0714L1.23098 20.1783Z" fill="white"/>
<path d="M1.23098 28.6999L3.33789 26.5929L1.23098 24.486L-0.875928 26.5929L1.23098 28.6999Z" fill="white"/>
<path d="M69.3425 -0.287109H28V4.06474H69.3425V-0.287109Z" fill="#F0263C"/>
<path d="M58.4629 8.41675H28V12.7686H58.4629V8.41675Z" fill="#F0263C"/>
<path d="M58.4629 17.12H28V21.4719H58.4629V17.12Z" fill="#F0263C"/>
<path d="M69.3425 25.8239H28V30.1757H69.3425V25.8239Z" fill="#F0263C"/>
<path d="M69.1256 34.5277H0.583984V38.8796H69.1256V34.5277Z" fill="#F0263C"/>
<path d="M69.1256 43.231H0.583984V47.5829H69.1256V43.231Z" fill="#F0263C"/>
<path d="M69.1256 51.9355H0.583984V56.2873H69.1256V51.9355Z" fill="#F0263C"/>
</g>
</g>
</svg>
