<svg width="29" height="28" viewBox="0 0 29 28" fill="none" xmlns="http://www.w3.org/2000/svg">
<mask id="mask0_6554_183682" style="mask-type:luminance" maskUnits="userSpaceOnUse" x="0" y="0" width="29" height="28">
<path d="M14.4563 27.9998C22.107 27.9998 28.3091 21.7977 28.3091 14.147C28.3091 6.49631 22.107 0.294189 14.4563 0.294189C6.80564 0.294189 0.603516 6.49631 0.603516 14.147C0.603516 21.7977 6.80564 27.9998 14.4563 27.9998Z" fill="white"/>
</mask>
<g mask="url(#mask0_6554_183682)">
<path d="M28.3082 0.294312H0.602539V27.9999H28.3082V0.294312Z" fill="#231D9A"/>
<path d="M12.291 11.9825V-0.138672H10.9923V9.16869L1.68495 2.89163L-1.12891 6.57128L5.14815 10.6838H-0.479556V11.9825H12.291Z" fill="white"/>
<path d="M12.291 16.3115V28.4327H10.9923V19.1254L1.68495 25.4024L-1.12891 21.7228L5.14815 17.6102H-0.479556V16.3115H12.291Z" fill="white"/>
<path d="M16.6201 11.9825V-0.138672H17.9188V9.16869L27.2262 2.89163L30.04 6.57128L23.763 10.6838H29.3907V11.9825H16.6201Z" fill="white"/>
<path d="M16.6201 16.3115V28.4327H17.9188V19.1254L27.2262 25.4024L30.04 21.7228L23.763 17.6102H29.3907V16.3115H16.6201Z" fill="white"/>
<path d="M10.9928 10.6839V10.4675L1.90187 4.40686L0.386719 6.13846L7.09668 10.6839H10.9928Z" fill="#F0263C"/>
<path d="M10.9928 17.6102V17.8267L1.90187 23.8873L0.386719 22.1557L7.09668 17.6102H10.9928Z" fill="#F0263C"/>
<path d="M17.9189 10.6839V10.4675L27.0099 4.40686L28.525 6.13846L21.815 10.6839H17.9189Z" fill="#F0263C"/>
<path d="M17.9189 17.6102V17.8267L27.0099 23.8873L28.525 22.1557L21.815 17.6102H17.9189Z" fill="#F0263C"/>
<path fill-rule="evenodd" clip-rule="evenodd" d="M16.6204 11.9826V-0.571533H12.2914V11.9826H-0.262695V16.3116H12.2914V28.8657H16.6204V16.3116H29.1745V11.9826H16.6204Z" fill="#F0263C"/>
</g>
</svg>
