<svg width="56" height="56" viewBox="0 0 56 56" fill="none" xmlns="http://www.w3.org/2000/svg">
<mask id="mask0_6536_171867" style="mask-type:luminance" maskUnits="userSpaceOnUse" x="0" y="0" width="56" height="56">
<path d="M56 0H0V56H56V0Z" fill="white"/>
</mask>
<g mask="url(#mask0_6536_171867)">
<path d="M11.6666 5.25C5.77487 9.50836 1.63321 15.925 0.408203 23.3334H11.6666V5.25Z" fill="#231D9A"/>
<path d="M55.5916 23.3334C53.375 10.0916 41.8834 0 28 0C25.6084 0 23.2166 0.291666 21 0.875V23.3334H55.5916Z" fill="#231D9A"/>
<path d="M0.408203 32.6666C1.63321 40.0749 5.77487 46.4916 11.6666 50.7499V32.6666H0.408203Z" fill="#231D9A"/>
<path d="M21 55.1249C23.2166 55.7083 25.6084 55.9999 28 55.9999C41.8834 55.9999 53.375 45.9083 55.5916 32.6666H21V55.1249Z" fill="#231D9A"/>
<path d="M55.8834 25.6666C55.825 24.9084 55.7084 24.0916 55.5916 23.3334H21V0.875C20.1834 1.05 19.425 1.34166 18.6666 1.575C17.0334 2.15834 15.4584 2.85834 14 3.73334C13.1834 4.2 12.425 4.725 11.6666 5.25V23.3334H0.408334C0.291666 24.0916 0.175 24.9084 0.116666 25.6666C0.0583334 26.425 0 27.2416 0 28C0 28.7584 0.0583334 29.575 0.116666 30.3334C0.175 31.0916 0.291666 31.9084 0.408334 32.6666H11.6666V50.75C12.425 51.275 13.1834 51.8 14 52.2666C15.4584 53.1416 17.0334 53.8416 18.6666 54.425C19.425 54.7166 20.1834 54.95 21 55.125V32.6666H55.5916C55.7084 31.9084 55.825 31.0916 55.8834 30.3334C55.9416 29.575 56 28.7584 56 28C56 27.2416 55.9416 26.425 55.8834 25.6666Z" fill="#FFD400"/>
</g>
</svg>
