<svg width="28" height="28" viewBox="0 0 28 28" fill="none" xmlns="http://www.w3.org/2000/svg">
<mask id="mask0_6554_183830" style="mask-type:luminance" maskUnits="userSpaceOnUse" x="0" y="0" width="28" height="28">
<path d="M28 0H0V28H28V0Z" fill="white"/>
</mask>
<g mask="url(#mask0_6554_183830)">
<path d="M14 28C21.732 28 28 21.732 28 14C28 6.26802 21.732 0 14 0C6.26802 0 0 6.26802 0 14C0 21.732 6.26802 28 14 28Z" fill="white"/>
<path d="M0 14.0001C0 19.1918 2.82917 23.7126 7 26.1335V1.86682C2.82917 4.28765 0 8.80851 0 14.0001Z" fill="#F0263C"/>
<path d="M21 1.86682V26.1043C25.1708 23.7126 28 19.1918 28 14.0001C28 8.80851 25.1708 4.28765 21 1.86682Z" fill="#F0263C"/>
<path d="M20.4163 14.0001L19.2497 13.4167L19.833 11.6667L18.083 12.2501L17.4997 11.0834L15.7497 12.8334L16.333 9.33337L15.1955 9.91669L13.9997 7.58337L12.8038 9.91669L11.6663 9.33337L12.2497 12.8334L10.4997 11.0834L9.91633 12.2501L8.16633 11.6667L8.74969 13.4167L7.58301 14.0001L11.083 16.9167L10.4997 18.0834L13.4163 17.5001V20.4167H14.583V17.5001L17.4997 18.0834L16.9163 16.9167L20.4163 14.0001Z" fill="#F0263C"/>
</g>
</svg>
