<svg width="32" height="32" viewBox="0 0 32 32" fill="none" xmlns="http://www.w3.org/2000/svg">
<mask id="mask0_6552_181383" style="mask-type:luminance" maskUnits="userSpaceOnUse" x="0" y="0" width="32" height="32">
<path d="M32 16C32 7.16344 24.8366 0 16 0C7.16344 0 0 7.16344 0 16C0 24.8366 7.16344 32 16 32C24.8366 32 32 24.8366 32 16Z" fill="white"/>
</mask>
<g mask="url(#mask0_6552_181383)">
<path d="M32 16C32 7.16344 24.8366 0 16 0C7.16344 0 0 7.16344 0 16C0 24.8366 7.16344 32 16 32C24.8366 32 32 24.8366 32 16Z" fill="white"/>
<mask id="mask1_6552_181383" style="mask-type:luminance" maskUnits="userSpaceOnUse" x="0" y="0" width="32" height="32">
<path d="M16 32C24.8366 32 32 24.8366 32 16C32 7.16344 24.8366 0 16 0C7.16344 0 0 7.16344 0 16C0 24.8366 7.16344 32 16 32Z" fill="white"/>
</mask>
<g mask="url(#mask1_6552_181383)">
<path d="M0 0H32V32H0V0Z" fill="white"/>
<path d="M16 0H0V17.245H16V0Z" fill="#231D9A"/>
<path d="M10.3361 4.22678L11.54 3.02283L10.3361 1.81888L9.13214 3.02283L10.3361 4.22678Z" fill="white"/>
<path d="M10.3361 9.09628L11.54 7.89233L10.3361 6.68839L9.13214 7.89233L10.3361 9.09628Z" fill="white"/>
<path d="M10.3361 13.9654L11.54 12.7615L10.3361 11.5575L9.13214 12.7615L10.3361 13.9654Z" fill="white"/>
<path d="M3.91422 4.22678L5.11816 3.02283L3.91422 1.81888L2.71027 3.02283L3.91422 4.22678Z" fill="white"/>
<path d="M3.91422 9.09628L5.11816 7.89233L3.91422 6.68839L2.71027 7.89233L3.91422 9.09628Z" fill="white"/>
<path d="M3.91422 13.9654L5.11816 12.7615L3.91422 11.5575L2.71027 12.7615L3.91422 13.9654Z" fill="white"/>
<path d="M13.5461 6.66135L14.75 5.4574L13.5461 4.25345L12.3421 5.4574L13.5461 6.66135Z" fill="white"/>
<path d="M13.5461 1.79257L14.75 0.588623L13.5461 -0.615325L12.3421 0.588624L13.5461 1.79257Z" fill="white"/>
<path d="M13.5461 11.5305L14.75 10.3265L13.5461 9.12259L12.3421 10.3265L13.5461 11.5305Z" fill="white"/>
<path d="M13.5461 16.4L14.75 15.196L13.5461 13.9921L12.3421 15.196L13.5461 16.4Z" fill="white"/>
<path d="M7.12515 6.66135L8.3291 5.4574L7.12515 4.25345L5.9212 5.4574L7.12515 6.66135Z" fill="white"/>
<path d="M7.12515 11.5305L8.3291 10.3265L7.12515 9.12259L5.9212 10.3265L7.12515 11.5305Z" fill="white"/>
<path d="M7.12515 16.4L8.3291 15.196L7.12515 13.9921L5.9212 15.196L7.12515 16.4Z" fill="white"/>
<path d="M0.703278 6.66135L1.90723 5.4574L0.703279 4.25345L-0.50067 5.4574L0.703278 6.66135Z" fill="white"/>
<path d="M0.703278 11.5305L1.90723 10.3265L0.703278 9.12259L-0.50067 10.3265L0.703278 11.5305Z" fill="white"/>
<path d="M0.703278 16.4L1.90723 15.196L0.703279 13.9921L-0.50067 15.196L0.703278 16.4Z" fill="white"/>
<path d="M39.6243 -0.164062H16V2.32271H39.6243V-0.164062Z" fill="#F0263C"/>
<path d="M33.4074 4.80957H16V7.29634H33.4074V4.80957Z" fill="#F0263C"/>
<path d="M33.4074 9.78296H16V12.2697H33.4074V9.78296Z" fill="#F0263C"/>
<path d="M39.6243 14.7566H16V17.2434H39.6243V14.7566Z" fill="#F0263C"/>
<path d="M39.4997 19.7302H0.333008V22.217H39.4997V19.7302Z" fill="#F0263C"/>
<path d="M39.4997 24.7035H0.333008V27.1903H39.4997V24.7035Z" fill="#F0263C"/>
<path d="M39.4997 29.6775H0.333008V32.1643H39.4997V29.6775Z" fill="#F0263C"/>
</g>
</g>
</svg>
