<svg width="78" height="20" viewBox="0 0 78 20" fill="none" xmlns="http://www.w3.org/2000/svg">
<mask id="mask0_6433_178096" style="mask-type:luminance" maskUnits="userSpaceOnUse" x="0" y="0" width="78" height="20">
<path d="M77.317 0H0.520508V20H77.317V0Z" fill="white"/>
</mask>
<g mask="url(#mask0_6433_178096)">
<path d="M76.3276 13.214C75.8665 12.3073 75.0209 11.6953 73.2528 10.9623C71.8076 10.3654 71.0773 9.95734 70.6314 9.48142C70.2701 9.096 70.1625 8.77867 70.201 8.20443C70.2317 7.66796 70.37 7.35061 70.7083 6.99549C71.1464 6.53458 71.7461 6.3759 72.4687 6.52702C73.6525 6.7688 74.4059 7.57729 75.0594 9.27742C75.2899 9.88184 75.3207 9.9045 75.7358 9.75342L75.9971 9.65517L75.9894 8.96C75.9818 8.57467 75.9664 7.76619 75.9433 7.16927L75.9126 6.05856L75.7127 5.97544C74.6287 5.52209 72.5686 5.24252 71.231 5.36341C69.7089 5.49943 68.5865 5.97544 67.7257 6.85192C66.8723 7.72084 66.4803 8.74842 66.5495 9.965C66.6033 10.9698 66.9107 11.6953 67.5411 12.3223C68.1254 12.9118 68.6173 13.1913 70.024 13.7278C72.2919 14.5968 72.8991 15.1181 72.8915 16.191C72.8915 17.0977 72.3995 17.7626 71.5078 18.0724C71.1926 18.1858 70.3854 18.1858 69.9549 18.0724C68.8249 17.7778 67.9639 16.8182 67.226 15.035L67.0338 14.5816L66.8108 14.5891C66.6878 14.5968 66.5187 14.6345 66.4418 14.6723L66.2881 14.7403L66.3034 15.5185C66.3111 15.9493 66.3342 16.8483 66.3496 17.5284L66.3803 18.7525L66.634 18.8583C67.1491 19.0773 68.7019 19.4098 69.6705 19.5156C69.7934 19.5307 70.4546 19.5307 71.1464 19.5232C72.3456 19.508 72.4302 19.5005 73.0375 19.3493C74.8209 18.8884 75.9741 17.9138 76.4815 16.4328C76.6352 15.9794 76.6583 15.8358 76.6813 15.1634C76.7121 14.2718 76.6275 13.8033 76.3276 13.214Z" fill="url(#paint0_linear_6433_178096)"/>
<path d="M62.5511 5.86324C61.052 5.12277 58.7305 5.17566 57.0316 5.99169C55.4249 6.7624 54.318 8.0469 53.703 9.86033C53.3801 10.8048 53.2802 11.5679 53.311 12.792C53.334 13.5627 53.3648 13.9632 53.4493 14.3258C54.0797 17.1064 56.0246 18.9954 58.7304 19.479C59.3301 19.5847 60.6831 19.5848 61.2904 19.4865C62.1513 19.3354 63.1429 18.9652 63.7734 18.542C64.5344 18.0358 65.3262 17.2727 65.3262 17.0308C65.3262 16.8873 65.0648 16.5548 64.9496 16.5548C64.9034 16.5548 64.6881 16.6606 64.4806 16.7967C63.7349 17.2727 63.02 17.4691 62.0207 17.4691C60.6523 17.4691 59.776 17.1291 58.9073 16.2677C58.523 15.8823 58.3615 15.6783 58.1616 15.293C57.7235 14.4543 57.4851 13.4947 57.4467 12.4067L57.4313 11.9382L61.4748 11.923L65.5183 11.908L65.5337 11.636C65.5414 11.4848 65.5261 11.0995 65.4876 10.7746C65.2339 8.35667 64.2422 6.69439 62.5511 5.86324ZM58.4768 10.7594L57.4544 10.7746V10.5555C57.4544 10.4346 57.4929 10.1173 57.5313 9.85275C57.8695 7.69177 58.6921 6.39216 59.7221 6.39216C60.6677 6.39216 61.252 7.6691 61.375 10.0114L61.4057 10.6763L60.4525 10.7066C59.9297 10.7293 59.0379 10.7519 58.4768 10.7594Z" fill="url(#paint1_linear_6433_178096)"/>
<path d="M47.8954 5.60647C47.5725 5.53847 47.2804 5.53092 46.6578 5.54602C45.7122 5.57624 45.0665 5.71981 44.3592 6.03716C44.1286 6.14294 43.9211 6.23361 43.9057 6.23361C43.8903 6.23361 43.8903 4.82821 43.9134 3.12058C43.9364 0.702697 43.9288 0 43.875 0C43.6982 0 38.1172 1.04272 38.0557 1.08805C38.0095 1.12583 37.9942 1.23917 38.0019 1.41295C38.0172 1.71518 37.9865 1.69252 38.663 1.84363C38.8706 1.88897 39.1088 1.97965 39.1934 2.04009C39.424 2.19877 39.6085 2.54633 39.7392 3.03747C39.8391 3.42282 39.8545 3.70239 39.9006 6.33939C39.9467 9.02925 39.939 11.7872 39.8622 16.8497L39.8314 18.9502L40.2312 19.0408C40.8077 19.1693 42.4682 19.4413 43.0063 19.4942C43.7981 19.5773 45.6584 19.5622 46.2426 19.4791C48.8102 19.1012 50.7397 17.6355 51.6392 15.3989C51.8774 14.802 52.108 13.8877 52.1849 13.2153C52.2772 12.4219 52.2233 10.8276 52.0851 10.1853C51.5546 7.72967 50.0017 6.03716 47.8954 5.60647ZM43.998 18.2852C43.9288 18.1039 43.8442 11.8098 43.875 9.29375L43.898 7.32922L44.2593 7.22343C44.4976 7.15543 44.7821 7.11765 45.1126 7.11765C45.5738 7.11765 45.6354 7.13276 46.0274 7.32166C46.9652 7.77501 47.611 8.91592 47.9108 10.6387C48.0184 11.2733 48.0338 13.0187 47.9338 13.7819C47.6879 15.6557 47.0652 17.1745 46.235 17.9075C45.9044 18.2022 45.5969 18.3532 45.1971 18.4288C44.9127 18.4817 44.8205 18.4817 44.3055 18.444C44.0901 18.4288 44.044 18.4062 43.998 18.2852Z" fill="url(#paint2_linear_6433_178096)"/>
<path d="M37.4664 5.32056C36.8284 5.32056 36.4901 5.38855 35.975 5.62278C35.0372 6.04591 34.3376 6.7335 33.7073 7.85177L33.5074 8.19932L33.5305 7.57977C33.5458 7.23975 33.5689 6.60506 33.5842 6.16682L33.6073 5.37344H33.4767C33.3075 5.37344 27.888 6.43882 27.7265 6.50682C27.6189 6.55216 27.6035 6.5975 27.6035 6.8544C27.6035 7.11885 27.6189 7.14907 27.7265 7.17174C27.7958 7.18686 28.0417 7.23219 28.28 7.27752C28.7566 7.3682 28.9027 7.44375 29.1026 7.70066C29.4638 8.17664 29.5407 9.00783 29.5407 12.5515C29.5407 15.4454 29.4792 16.8887 29.3332 17.342C29.164 17.8935 28.8566 18.1807 28.3262 18.2713C28.1571 18.3016 27.9265 18.3469 27.8265 18.3696L27.6343 18.4073L27.6189 18.7776C27.6112 19.0345 27.6267 19.1629 27.6728 19.1932C27.7112 19.2158 29.5638 19.231 31.7854 19.2233L35.829 19.2083L35.8443 18.7927C35.852 18.5661 35.8443 18.3772 35.8136 18.3772C35.4984 18.3772 34.5375 18.2487 34.3838 18.1882C33.9302 17.9993 33.7073 17.5988 33.615 16.7828C33.4997 15.8232 33.4382 13.4356 33.4689 11.4862C33.4996 9.51408 33.4996 9.5065 33.6227 9.3705C33.9148 9.06067 34.6605 8.819 35.3215 8.819C35.852 8.819 36.4056 8.95492 36.9897 9.22692C37.2742 9.363 37.5278 9.45358 37.5663 9.44608C37.6431 9.41583 38.9654 5.97036 38.9654 5.81168C38.973 5.56234 38.2197 5.32056 37.4664 5.32056Z" fill="url(#paint3_linear_6433_178096)"/>
<path d="M27.6105 11.3117C27.3261 8.924 26.2959 7.17858 24.5971 6.19632C22.7136 5.10827 19.8463 5.04027 17.8092 6.0452C16.3409 6.77057 15.134 8.16838 14.6036 9.77025C14.0501 11.425 14.0501 13.6011 14.6036 15.2936C14.9572 16.3741 15.4338 17.1675 16.1718 17.8852C17.0558 18.7467 18.2166 19.2982 19.5388 19.4871C20.0154 19.5552 21.5067 19.5552 21.9987 19.4871C22.2294 19.4569 22.6291 19.3662 22.8905 19.2983C25.2966 18.6107 26.934 16.7972 27.4952 14.198C27.6413 13.5784 27.695 12.0371 27.6105 11.3117ZM21.5298 18.4596C20.0385 18.8977 18.9699 17.5 18.5549 14.5682C18.4242 13.6237 18.4242 11.0397 18.5549 9.95917C18.847 7.60172 19.5849 6.40789 20.7534 6.40032C21.2761 6.40032 21.5682 6.52878 21.9834 6.92923C22.9597 7.8964 23.4286 9.74767 23.4209 12.6567C23.4132 14.9762 23.1826 16.4345 22.6522 17.4244C22.3908 17.9004 21.9142 18.3462 21.5298 18.4596Z" fill="url(#paint4_linear_6433_178096)"/>
<path d="M7.87841 1.8301H9.60034C11.5759 1.8301 11.8989 1.86788 12.5984 2.20789C13.6132 2.69903 14.3511 3.66618 15.0045 5.35115C15.2659 6.03873 15.2659 6.03117 15.8501 5.85739L16.2422 5.74405L16.2037 3.26571C16.1807 1.90566 16.15 0.689158 16.1346 0.568265L16.0961 0.356699L8.55489 0.341587C4.40375 0.334031 0.929091 0.341587 0.836839 0.356699L0.652344 0.386923L0.667723 0.825165L0.683094 1.26341L1.25964 1.33141C2.00531 1.42208 2.45118 1.62609 2.71254 2.00388C3.30447 2.8577 3.41209 4.02131 3.41209 9.53708C3.41209 15.4156 3.28909 16.8437 2.71254 17.5841C2.41274 17.9695 2.17443 18.0904 1.50564 18.2112C0.629283 18.3699 0.660033 18.3472 0.660033 18.7931C0.660033 19.0424 0.683094 19.1709 0.729216 19.1936C0.829158 19.2312 10.4767 19.2389 10.5766 19.1936C10.7073 19.1407 10.6996 18.4455 10.569 18.3775C10.5151 18.3472 10.1923 18.2868 9.8463 18.2339C9.50038 18.1811 9.11606 18.0979 9.00076 18.045C8.3704 17.773 8.01678 17.025 7.8861 15.6725C7.79385 14.7053 7.71697 12.9146 7.71697 11.5923V10.3834L8.30122 10.3984C9.55431 10.4362 10.1999 10.5042 10.4614 10.6176C11.0302 10.8669 11.4838 11.547 11.722 12.5066L11.845 13.0204L12.2909 13.0355L12.7368 13.0506V6.60542L12.2909 6.62053L11.845 6.63565L11.7144 7.14189C11.4607 8.13169 11.0533 8.73617 10.446 9.01575C10.1999 9.12908 10.0232 9.15933 9.43129 9.19717C9.03917 9.21975 8.49342 9.24242 8.20897 9.24242H7.7016V7.64058C7.7016 6.03873 7.78616 2.63858 7.84767 2.10966L7.87841 1.8301Z" fill="url(#paint5_linear_6433_178096)"/>
</g>
<defs>
<linearGradient id="paint0_linear_6433_178096" x1="71.4877" y1="5.33521" x2="71.4877" y2="19.5281" gradientUnits="userSpaceOnUse">
<stop stop-color="#7B7D81"/>
<stop offset="1" stop-color="white"/>
</linearGradient>
<linearGradient id="paint1_linear_6433_178096" x1="59.4207" y1="5.3418" x2="59.4207" y2="19.5593" gradientUnits="userSpaceOnUse">
<stop stop-color="#7B7D81"/>
<stop offset="1" stop-color="white"/>
</linearGradient>
<linearGradient id="paint2_linear_6433_178096" x1="45.1154" y1="0" x2="45.1154" y2="19.5495" gradientUnits="userSpaceOnUse">
<stop stop-color="#7B7D81"/>
<stop offset="1" stop-color="white"/>
</linearGradient>
<linearGradient id="paint3_linear_6433_178096" x1="33.2845" y1="5.32056" x2="33.2845" y2="19.2253" gradientUnits="userSpaceOnUse">
<stop stop-color="#7B7D81"/>
<stop offset="1" stop-color="white"/>
</linearGradient>
<linearGradient id="paint4_linear_6433_178096" x1="20.9196" y1="5.33374" x2="20.9196" y2="19.5381" gradientUnits="userSpaceOnUse">
<stop stop-color="#7B7D81"/>
<stop offset="1" stop-color="white"/>
</linearGradient>
<linearGradient id="paint5_linear_6433_178096" x1="8.44728" y1="0.338623" x2="8.44728" y2="19.2248" gradientUnits="userSpaceOnUse">
<stop stop-color="#7B7D81"/>
<stop offset="1" stop-color="white"/>
</linearGradient>
</defs>
</svg>
