<svg width="48" height="48" viewBox="0 0 48 48" fill="none" xmlns="http://www.w3.org/2000/svg">
<g clip-path="url(#clip0_8221_99063)">
<path d="M24 48C37.2548 48 48 37.2548 48 24C48 10.7452 37.2548 0 24 0C10.7452 0 0 10.7452 0 24C0 37.2548 10.7452 48 24 48Z" fill="white"/>
<path d="M21.9139 23.9985C21.9139 23.9985 7.04434 40.9725 7.03027 40.9691C11.3733 45.3122 17.3734 47.9986 24.0009 47.9986C37.2556 47.9986 48.0009 37.2533 48.0009 23.9985H21.9139Z" fill="#D80027"/>
<path d="M7.0304 7.0293C-2.34217 16.4019 -2.34217 31.5979 7.0304 40.9705C10.9035 37.0975 14.6285 33.3725 24.001 23.9999L7.0304 7.0293Z" fill="#0052B4"/>
</g>
<defs>
<clipPath id="clip0_8221_99063">
<rect width="48" height="48" fill="white"/>
</clipPath>
</defs>
</svg>
