<svg width="48" height="48" viewBox="0 0 48 48" fill="none" xmlns="http://www.w3.org/2000/svg">
<g clip-path="url(#clip0_8221_99103)">
<path d="M1.49219 32.3496C4.88322 41.4887 13.6802 48.0018 23.9994 48.0018C34.3186 48.0018 43.1156 41.4887 46.5066 32.3496L23.9994 30.2627L1.49219 32.3496Z" fill="#FFDA44"/>
<path d="M23.9994 0.00146484C13.6802 0.00146484 4.88322 6.51446 1.49219 15.6537L23.9994 17.7406L46.5066 15.6536C43.1156 6.51446 34.3186 0.00146484 23.9994 0.00146484Z" fill="black"/>
<path d="M1.49278 15.6514C0.528094 18.2513 0 21.0635 0 23.9991C0 26.9348 0.528094 29.747 1.49278 32.3469H46.5073C47.472 29.747 48 26.9348 48 23.9991C48 21.0635 47.472 18.2513 46.5072 15.6514H1.49278Z" fill="#D80027"/>
</g>
<defs>
<clipPath id="clip0_8221_99103">
<rect width="48" height="48" fill="white"/>
</clipPath>
</defs>
</svg>
