<svg width="48" height="48" viewBox="0 0 48 48" fill="none" xmlns="http://www.w3.org/2000/svg">
<g clip-path="url(#clip0_8221_99060)">
<path d="M24 48C37.2548 48 48 37.2548 48 24C48 10.7452 37.2548 0 24 0C10.7452 0 0 10.7452 0 24C0 37.2548 10.7452 48 24 48Z" fill="white"/>
<path d="M47.7968 20.8694H18.7827H18.7826V0.570312C16.5647 1.06212 14.462 1.85928 12.5217 2.918V20.8692V20.8693H0.203156C0.0695625 21.8941 0 22.9389 0 23.9998C0 25.0608 0.0695625 26.1056 0.203156 27.1302H12.5216H12.5217V45.0816C14.462 46.1402 16.5647 46.9376 18.7826 47.4293V27.1305V27.1303H47.7968C47.9303 26.1056 48 25.0608 48 23.9998C48 22.9389 47.9303 21.8941 47.7968 20.8694Z" fill="#0052B4"/>
</g>
<defs>
<clipPath id="clip0_8221_99060">
<rect width="48" height="48" fill="white"/>
</clipPath>
</defs>
</svg>
