<svg width="40" height="7" viewBox="0 0 40 7" fill="none" xmlns="http://www.w3.org/2000/svg">
<path d="M6.9449 3.772C6.9449 4.61 6.69691 5.277 6.19991 5.775C5.63591 6.367 4.89991 6.663 3.99591 6.663C3.12991 6.663 2.39291 6.363 1.78791 5.763C1.18191 5.162 0.878906 4.418 0.878906 3.53C0.878906 2.641 1.18191 1.897 1.78791 1.297C2.39291 0.695996 3.12991 0.395997 3.99591 0.395997C4.42591 0.395997 4.83691 0.479996 5.22691 0.646996C5.61791 0.814996 5.93091 1.038 6.16491 1.317L5.63791 1.845C5.24091 1.37 4.6939 1.133 3.9949 1.133C3.3629 1.133 2.8169 1.355 2.3559 1.799C1.8949 2.243 1.66491 2.82 1.66491 3.529C1.66491 4.238 1.8949 4.815 2.3559 5.259C2.8169 5.703 3.3629 5.925 3.9949 5.925C4.6649 5.925 5.22391 5.702 5.67091 5.255C5.96091 4.964 6.1289 4.559 6.1739 4.04H3.9949V3.319H6.90191C6.93191 3.476 6.9449 3.627 6.9449 3.772Z" fill="white"/>
<path d="M11.555 1.26605H8.823V3.16805H11.287V3.88905H8.823V5.79105H11.555V6.52905H8.052V0.529053H11.555V1.26605Z" fill="white"/>
<path d="M14.8059 6.52905H14.0349V1.26605H12.3589V0.529053H16.4819V1.26605H14.8059V6.52905Z" fill="white"/>
<path d="M19.4648 6.52905V0.529053H20.2358V6.52905H19.4648Z" fill="white"/>
<path d="M23.655 6.52905H22.884V1.26605H21.208V0.529053H25.331V1.26605H23.655V6.52905Z" fill="white"/>
<path d="M33.1358 5.75404C32.5458 6.36004 31.8128 6.66304 30.9358 6.66304C30.0588 6.66304 29.3258 6.36004 28.7368 5.75404C28.1468 5.14804 27.8528 4.40604 27.8528 3.52904C27.8528 2.65204 28.1468 1.91004 28.7368 1.30404C29.3258 0.698043 30.0588 0.394043 30.9358 0.394043C31.8078 0.394043 32.5398 0.699042 33.1318 1.30804C33.7238 1.91704 34.0198 2.65704 34.0198 3.52904C34.0198 4.40604 33.7248 5.14804 33.1358 5.75404ZM29.3058 5.25104C29.7498 5.70104 30.2928 5.92504 30.9358 5.92504C31.5788 5.92504 32.1228 5.70004 32.5658 5.25104C33.0098 4.80104 33.2328 4.22704 33.2328 3.52904C33.2328 2.83104 33.0098 2.25704 32.5658 1.80704C32.1228 1.35704 31.5788 1.13304 30.9358 1.13304C30.2928 1.13304 29.7498 1.35804 29.3058 1.80704C28.8628 2.25704 28.6398 2.83104 28.6398 3.52904C28.6398 4.22704 28.8628 4.80104 29.3058 5.25104Z" fill="white"/>
<path d="M35.1018 6.52905V0.529053H36.0398L38.9558 5.19605H38.9888L38.9558 4.04005V0.529053H39.7268V6.52905H38.9218L35.8708 1.63505H35.8378L35.8708 2.79105V6.52905H35.1018Z" fill="white"/>
<path d="M6.9449 3.772C6.9449 4.61 6.69691 5.277 6.19991 5.775C5.63591 6.367 4.89991 6.663 3.99591 6.663C3.12991 6.663 2.39291 6.363 1.78791 5.763C1.18191 5.162 0.878906 4.418 0.878906 3.53C0.878906 2.641 1.18191 1.897 1.78791 1.297C2.39291 0.695996 3.12991 0.395997 3.99591 0.395997C4.42591 0.395997 4.83691 0.479996 5.22691 0.646996C5.61791 0.814996 5.93091 1.038 6.16491 1.317L5.63791 1.845C5.24091 1.37 4.6939 1.133 3.9949 1.133C3.3629 1.133 2.8169 1.355 2.3559 1.799C1.8949 2.243 1.66491 2.82 1.66491 3.529C1.66491 4.238 1.8949 4.815 2.3559 5.259C2.8169 5.703 3.3629 5.925 3.9949 5.925C4.6649 5.925 5.22391 5.702 5.67091 5.255C5.96091 4.964 6.1289 4.559 6.1739 4.04H3.9949V3.319H6.90191C6.93191 3.476 6.9449 3.627 6.9449 3.772Z" stroke="white" stroke-width="0.2" stroke-miterlimit="10"/>
<path d="M11.555 1.26605H8.823V3.16805H11.287V3.88905H8.823V5.79105H11.555V6.52905H8.052V0.529053H11.555V1.26605Z" stroke="white" stroke-width="0.2" stroke-miterlimit="10"/>
<path d="M14.8059 6.52905H14.0349V1.26605H12.3589V0.529053H16.4819V1.26605H14.8059V6.52905Z" stroke="white" stroke-width="0.2" stroke-miterlimit="10"/>
<path d="M19.4648 6.52905V0.529053H20.2358V6.52905H19.4648Z" stroke="white" stroke-width="0.2" stroke-miterlimit="10"/>
<path d="M23.655 6.52905H22.884V1.26605H21.208V0.529053H25.331V1.26605H23.655V6.52905Z" stroke="white" stroke-width="0.2" stroke-miterlimit="10"/>
<path d="M33.1358 5.75404C32.5458 6.36004 31.8128 6.66304 30.9358 6.66304C30.0588 6.66304 29.3258 6.36004 28.7368 5.75404C28.1468 5.14804 27.8528 4.40604 27.8528 3.52904C27.8528 2.65204 28.1468 1.91004 28.7368 1.30404C29.3258 0.698043 30.0588 0.394043 30.9358 0.394043C31.8078 0.394043 32.5398 0.699042 33.1318 1.30804C33.7238 1.91704 34.0198 2.65704 34.0198 3.52904C34.0198 4.40604 33.7248 5.14804 33.1358 5.75404ZM29.3058 5.25104C29.7498 5.70104 30.2928 5.92504 30.9358 5.92504C31.5788 5.92504 32.1228 5.70004 32.5658 5.25104C33.0098 4.80104 33.2328 4.22704 33.2328 3.52904C33.2328 2.83104 33.0098 2.25704 32.5658 1.80704C32.1228 1.35704 31.5788 1.13304 30.9358 1.13304C30.2928 1.13304 29.7498 1.35804 29.3058 1.80704C28.8628 2.25704 28.6398 2.83104 28.6398 3.52904C28.6398 4.22704 28.8628 4.80104 29.3058 5.25104Z" stroke="white" stroke-width="0.2" stroke-miterlimit="10"/>
<path d="M35.1018 6.52905V0.529053H36.0398L38.9558 5.19605H38.9888L38.9558 4.04005V0.529053H39.7268V6.52905H38.9218L35.8708 1.63505H35.8378L35.8708 2.79105V6.52905H35.1018Z" stroke="white" stroke-width="0.2" stroke-miterlimit="10"/>
</svg>
