<svg width="40" height="7" viewBox="0 0 40 7" fill="none" xmlns="http://www.w3.org/2000/svg">
<path d="M6.4449 3.77224C6.4449 4.61024 6.19691 5.27724 5.69991 5.77524C5.13591 6.36724 4.39991 6.66324 3.49591 6.66324C2.62991 6.66324 1.89291 6.36324 1.28791 5.76324C0.681907 5.16224 0.378906 4.41824 0.378906 3.53024C0.378906 2.64124 0.681907 1.89724 1.28791 1.29724C1.89291 0.69624 2.62991 0.396241 3.49591 0.396241C3.92591 0.396241 4.33691 0.48024 4.72691 0.64724C5.11791 0.815241 5.43091 1.03824 5.66491 1.31724L5.13791 1.84524C4.74091 1.37024 4.1939 1.13324 3.4949 1.13324C2.8629 1.13324 2.3169 1.35524 1.8559 1.79924C1.3949 2.24324 1.16491 2.82024 1.16491 3.52924C1.16491 4.23824 1.3949 4.81524 1.8559 5.25924C2.3169 5.70324 2.8629 5.92524 3.4949 5.92524C4.1649 5.92524 4.72391 5.70224 5.17091 5.25524C5.46091 4.96424 5.6289 4.55924 5.6739 4.04024H3.4949V3.31924H6.40191C6.43191 3.47624 6.4449 3.62724 6.4449 3.77224Z" fill="white"/>
<path d="M11.055 1.2663H8.323V3.1683H10.787V3.8893H8.323V5.7913H11.055V6.5293H7.552V0.529297H11.055V1.2663Z" fill="white"/>
<path d="M14.3059 6.5293H13.5349V1.2663H11.8589V0.529297H15.9819V1.2663H14.3059V6.5293Z" fill="white"/>
<path d="M18.9648 6.5293V0.529297H19.7358V6.5293H18.9648Z" fill="white"/>
<path d="M23.155 6.5293H22.384V1.2663H20.708V0.529297H24.831V1.2663H23.155V6.5293Z" fill="white"/>
<path d="M32.6358 5.75429C32.0458 6.36029 31.3128 6.66329 30.4358 6.66329C29.5588 6.66329 28.8258 6.36029 28.2368 5.75429C27.6468 5.14829 27.3528 4.40629 27.3528 3.52929C27.3528 2.65229 27.6468 1.91029 28.2368 1.30429C28.8258 0.698287 29.5588 0.394287 30.4358 0.394287C31.3078 0.394287 32.0398 0.699287 32.6318 1.30829C33.2238 1.91729 33.5198 2.65729 33.5198 3.52929C33.5198 4.40629 33.2248 5.14829 32.6358 5.75429ZM28.8058 5.25129C29.2498 5.70129 29.7928 5.92529 30.4358 5.92529C31.0788 5.92529 31.6228 5.70029 32.0658 5.25129C32.5098 4.80129 32.7328 4.22729 32.7328 3.52929C32.7328 2.83129 32.5098 2.25729 32.0658 1.80729C31.6228 1.35729 31.0788 1.13329 30.4358 1.13329C29.7928 1.13329 29.2498 1.35829 28.8058 1.80729C28.3628 2.25729 28.1398 2.83129 28.1398 3.52929C28.1398 4.22729 28.3628 4.80129 28.8058 5.25129Z" fill="white"/>
<path d="M34.6018 6.5293V0.529297H35.5398L38.4558 5.1963H38.4888L38.4558 4.0403V0.529297H39.2268V6.5293H38.4218L35.3708 1.6353H35.3378L35.3708 2.7913V6.5293H34.6018Z" fill="white"/>
<path d="M6.4449 3.77224C6.4449 4.61024 6.19691 5.27724 5.69991 5.77524C5.13591 6.36724 4.39991 6.66324 3.49591 6.66324C2.62991 6.66324 1.89291 6.36324 1.28791 5.76324C0.681907 5.16224 0.378906 4.41824 0.378906 3.53024C0.378906 2.64124 0.681907 1.89724 1.28791 1.29724C1.89291 0.69624 2.62991 0.396241 3.49591 0.396241C3.92591 0.396241 4.33691 0.48024 4.72691 0.64724C5.11791 0.815241 5.43091 1.03824 5.66491 1.31724L5.13791 1.84524C4.74091 1.37024 4.1939 1.13324 3.4949 1.13324C2.8629 1.13324 2.3169 1.35524 1.8559 1.79924C1.3949 2.24324 1.16491 2.82024 1.16491 3.52924C1.16491 4.23824 1.3949 4.81524 1.8559 5.25924C2.3169 5.70324 2.8629 5.92524 3.4949 5.92524C4.1649 5.92524 4.72391 5.70224 5.17091 5.25524C5.46091 4.96424 5.6289 4.55924 5.6739 4.04024H3.4949V3.31924H6.40191C6.43191 3.47624 6.4449 3.62724 6.4449 3.77224Z" stroke="white" stroke-width="0.2" stroke-miterlimit="10"/>
<path d="M11.055 1.2663H8.323V3.1683H10.787V3.8893H8.323V5.7913H11.055V6.5293H7.552V0.529297H11.055V1.2663Z" stroke="white" stroke-width="0.2" stroke-miterlimit="10"/>
<path d="M14.3059 6.5293H13.5349V1.2663H11.8589V0.529297H15.9819V1.2663H14.3059V6.5293Z" stroke="white" stroke-width="0.2" stroke-miterlimit="10"/>
<path d="M18.9648 6.5293V0.529297H19.7358V6.5293H18.9648Z" stroke="white" stroke-width="0.2" stroke-miterlimit="10"/>
<path d="M23.155 6.5293H22.384V1.2663H20.708V0.529297H24.831V1.2663H23.155V6.5293Z" stroke="white" stroke-width="0.2" stroke-miterlimit="10"/>
<path d="M32.6358 5.75429C32.0458 6.36029 31.3128 6.66329 30.4358 6.66329C29.5588 6.66329 28.8258 6.36029 28.2368 5.75429C27.6468 5.14829 27.3528 4.40629 27.3528 3.52929C27.3528 2.65229 27.6468 1.91029 28.2368 1.30429C28.8258 0.698287 29.5588 0.394287 30.4358 0.394287C31.3078 0.394287 32.0398 0.699287 32.6318 1.30829C33.2238 1.91729 33.5198 2.65729 33.5198 3.52929C33.5198 4.40629 33.2248 5.14829 32.6358 5.75429ZM28.8058 5.25129C29.2498 5.70129 29.7928 5.92529 30.4358 5.92529C31.0788 5.92529 31.6228 5.70029 32.0658 5.25129C32.5098 4.80129 32.7328 4.22729 32.7328 3.52929C32.7328 2.83129 32.5098 2.25729 32.0658 1.80729C31.6228 1.35729 31.0788 1.13329 30.4358 1.13329C29.7928 1.13329 29.2498 1.35829 28.8058 1.80729C28.3628 2.25729 28.1398 2.83129 28.1398 3.52929C28.1398 4.22729 28.3628 4.80129 28.8058 5.25129Z" stroke="white" stroke-width="0.2" stroke-miterlimit="10"/>
<path d="M34.6018 6.5293V0.529297H35.5398L38.4558 5.1963H38.4888L38.4558 4.0403V0.529297H39.2268V6.5293H38.4218L35.3708 1.6353H35.3378L35.3708 2.7913V6.5293H34.6018Z" stroke="white" stroke-width="0.2" stroke-miterlimit="10"/>
</svg>
