<svg width="85" height="18" viewBox="0 0 85 18" fill="none" xmlns="http://www.w3.org/2000/svg">
<path d="M27.1624 5.28042C24.8104 5.28042 22.8934 7.06942 22.8934 9.53342C22.8934 11.9824 24.8104 13.7864 27.1624 13.7864C29.5154 13.7864 31.4324 11.9824 31.4324 9.53342C31.4314 7.06942 29.5144 5.28042 27.1624 5.28042ZM27.1624 12.1124C25.8734 12.1124 24.7624 11.0494 24.7624 9.53442C24.7624 8.00342 25.8744 6.95641 27.1624 6.95641C28.4514 6.95641 29.5624 8.00342 29.5624 9.53442C29.5624 11.0484 28.4514 12.1124 27.1624 12.1124ZM17.8484 5.28042C15.4964 5.28042 13.5794 7.06942 13.5794 9.53342C13.5794 11.9824 15.4964 13.7864 17.8484 13.7864C20.2014 13.7864 22.1184 11.9824 22.1184 9.53342C22.1184 7.06942 20.2014 5.28042 17.8484 5.28042ZM17.8484 12.1124C16.5594 12.1124 15.4484 11.0494 15.4484 9.53442C15.4484 8.00342 16.5604 6.95641 17.8484 6.95641C19.1374 6.95641 20.2484 8.00342 20.2484 9.53442C20.2494 11.0484 19.1374 12.1124 17.8484 12.1124ZM6.77036 6.58642V8.39042H11.0884C10.9594 9.40542 10.6214 10.1464 10.1054 10.6614C9.47736 11.2894 8.49436 11.9824 6.77036 11.9824C4.11236 11.9824 2.03436 9.83942 2.03436 7.18142C2.03436 4.52342 4.11236 2.38042 6.77036 2.38042C8.20436 2.38042 9.25136 2.94442 10.0244 3.66942L11.2974 2.39642C10.2174 1.36542 8.78436 0.576417 6.77036 0.576417C3.12936 0.576417 0.0683592 3.54042 0.0683592 7.18142C0.0683592 10.8224 3.12936 13.7864 6.77036 13.7864C8.73536 13.7864 10.2184 13.1414 11.3774 11.9334C12.5694 10.7414 12.9404 9.06541 12.9404 7.71241C12.9404 7.29441 12.9084 6.90742 12.8434 6.58542H6.77036V6.58642ZM52.0784 7.98742C51.7244 7.03742 50.6444 5.28042 48.4374 5.28042C46.2464 5.28042 44.4254 7.00442 44.4254 9.53342C44.4254 11.9174 46.2304 13.7864 48.6464 13.7864C50.5954 13.7864 51.7234 12.5944 52.1914 11.9014L50.7414 10.9344C50.2584 11.6434 49.5974 12.1104 48.6464 12.1104C47.6964 12.1104 47.0194 11.6754 46.5844 10.8214L52.2714 8.46941L52.0784 7.98742ZM46.2784 9.40542C46.2304 7.76142 47.5514 6.92442 48.5024 6.92442C49.2434 6.92442 49.8714 7.29542 50.0814 7.82642L46.2784 9.40542ZM41.6554 13.5294H43.5234V1.02842H41.6554V13.5294ZM38.5934 6.23142H38.5294C38.1104 5.73142 37.3044 5.28042 36.2904 5.28042C34.1634 5.28042 32.2144 7.14942 32.2144 9.55042C32.2144 11.9344 34.1634 13.7874 36.2904 13.7874C37.3054 13.7874 38.1104 13.3364 38.5294 12.8214H38.5934V13.4334C38.5934 15.0604 37.7234 15.9304 36.3224 15.9304C35.1784 15.9304 34.4694 15.1094 34.1794 14.4164L32.5524 15.0934C33.0194 16.2204 34.2594 17.6064 36.3224 17.6064C38.5134 17.6064 40.3664 16.3174 40.3664 13.1754V5.53941H38.5944V6.23142H38.5934ZM36.4514 12.1124C35.1624 12.1124 34.0834 11.0324 34.0834 9.55042C34.0834 8.05142 35.1624 6.95641 36.4514 6.95641C37.7234 6.95641 38.7224 8.05142 38.7224 9.55042C38.7224 11.0324 37.7234 12.1124 36.4514 12.1124ZM60.8324 1.02842H56.3614V13.5294H58.2264V8.79342H60.8314C62.8994 8.79342 64.9334 7.29642 64.9334 4.91142C64.9334 2.52642 62.9004 1.02842 60.8324 1.02842ZM60.8804 7.05341H58.2264V2.76842H60.8804C62.2754 2.76842 63.0674 3.92342 63.0674 4.91142C63.0674 5.87942 62.2754 7.05341 60.8804 7.05341ZM72.4124 5.25842C71.0614 5.25842 69.6624 5.85342 69.0834 7.17242L70.7394 7.86342C71.0934 7.17242 71.7534 6.94642 72.4444 6.94642C73.4094 6.94642 74.3904 7.52542 74.4064 8.55442V8.68342C74.0684 8.49042 73.3444 8.20142 72.4604 8.20142C70.6754 8.20142 68.8574 9.18242 68.8574 11.0154C68.8574 12.6884 70.3214 13.7654 71.9614 13.7654C73.2154 13.7654 73.9074 13.2024 74.3414 12.5424H74.4054V13.5074H76.2074V8.71442C76.2084 6.49642 74.5504 5.25842 72.4124 5.25842ZM72.1864 12.1094C71.5764 12.1094 70.7234 11.8034 70.7234 11.0474C70.7234 10.0824 71.7854 9.71241 72.7024 9.71241C73.5214 9.71241 73.9084 9.88942 74.4064 10.1304C74.2614 11.2894 73.2644 12.1094 72.1864 12.1094ZM82.7694 5.53141L80.6304 10.9514H80.5664L78.3464 5.53141H76.3364L79.6654 13.1064L77.7674 17.3204H79.7134L84.8444 5.53141H82.7694ZM65.9634 13.5294H67.8284V1.02842H65.9634V13.5294Z" fill="white"/>
</svg>
