<svg width="24" height="27" viewBox="0 0 24 27" fill="none" xmlns="http://www.w3.org/2000/svg">
<path d="M17.1973 18.0096L3.04102 26.0546C2.40643 26.4144 1.82499 26.474 1.37891 26.2831L13.4238 14.2362L17.1973 18.0096ZM12.7168 13.5292L0.683594 25.5643C0.565531 25.2971 0.5 24.9695 0.5 24.5878V2.47154C0.500035 2.09041 0.564528 1.76241 0.682617 1.49498L12.7168 13.5292ZM22.542 12.0868C23.9389 12.8807 23.9388 14.1795 22.542 14.9745L18.0996 17.4979L14.1309 13.5292L18.0977 9.56139L22.542 12.0868ZM1.37891 0.777209C1.82496 0.586074 2.4065 0.645169 3.04102 1.00572L17.1963 9.04869L13.4238 12.8221L1.37891 0.777209Z" fill="white"/>
</svg>
