<svg width="24" height="27" viewBox="0 0 24 27" fill="none" xmlns="http://www.w3.org/2000/svg">
<path d="M16.6973 18.01L2.54102 26.0549C1.90643 26.4148 1.32499 26.4744 0.878906 26.2834L12.9238 14.2366L16.6973 18.01ZM12.2168 13.5295L0.183594 25.5647C0.0655309 25.2974 0 24.9699 0 24.5881V2.47191C3.53261e-05 2.09078 0.0645285 1.76278 0.182617 1.49535L12.2168 13.5295ZM22.042 12.0871C23.4389 12.8811 23.4388 14.1798 22.042 14.9748L17.5996 17.4983L13.6309 13.5295L17.5977 9.56175L22.042 12.0871ZM0.878906 0.777575C1.32496 0.58644 1.9065 0.645535 2.54102 1.00609L16.6963 9.04906L12.9238 12.8225L0.878906 0.777575Z" fill="white"/>
</svg>
