<svg width="86" height="18" viewBox="0 0 86 18" fill="none" xmlns="http://www.w3.org/2000/svg">
<path d="M27.6624 5.28017C25.3104 5.28017 23.3934 7.06917 23.3934 9.53317C23.3934 11.9822 25.3104 13.7862 27.6624 13.7862C30.0154 13.7862 31.9324 11.9822 31.9324 9.53317C31.9314 7.06917 30.0144 5.28017 27.6624 5.28017ZM27.6624 12.1122C26.3734 12.1122 25.2624 11.0492 25.2624 9.53417C25.2624 8.00317 26.3744 6.95617 27.6624 6.95617C28.9514 6.95617 30.0624 8.00317 30.0624 9.53417C30.0624 11.0482 28.9514 12.1122 27.6624 12.1122ZM18.3484 5.28017C15.9964 5.28017 14.0794 7.06917 14.0794 9.53317C14.0794 11.9822 15.9964 13.7862 18.3484 13.7862C20.7014 13.7862 22.6184 11.9822 22.6184 9.53317C22.6184 7.06917 20.7014 5.28017 18.3484 5.28017ZM18.3484 12.1122C17.0594 12.1122 15.9484 11.0492 15.9484 9.53417C15.9484 8.00317 17.0604 6.95617 18.3484 6.95617C19.6374 6.95617 20.7484 8.00317 20.7484 9.53417C20.7494 11.0482 19.6374 12.1122 18.3484 12.1122ZM7.27036 6.58617V8.39017H11.5884C11.4594 9.40517 11.1214 10.1462 10.6054 10.6612C9.97736 11.2892 8.99436 11.9822 7.27036 11.9822C4.61236 11.9822 2.53436 9.83917 2.53436 7.18117C2.53436 4.52317 4.61236 2.38017 7.27036 2.38017C8.70436 2.38017 9.75136 2.94417 10.5244 3.66917L11.7974 2.39617C10.7174 1.36517 9.28436 0.576173 7.27036 0.576173C3.62936 0.576173 0.568359 3.54017 0.568359 7.18117C0.568359 10.8222 3.62936 13.7862 7.27036 13.7862C9.23536 13.7862 10.7184 13.1412 11.8774 11.9332C13.0694 10.7412 13.4404 9.06517 13.4404 7.71217C13.4404 7.29417 13.4084 6.90717 13.3434 6.58517H7.27036V6.58617ZM52.5784 7.98717C52.2244 7.03717 51.1444 5.28017 48.9374 5.28017C46.7464 5.28017 44.9254 7.00417 44.9254 9.53317C44.9254 11.9172 46.7304 13.7862 49.1464 13.7862C51.0954 13.7862 52.2234 12.5942 52.6914 11.9012L51.2414 10.9342C50.7584 11.6432 50.0974 12.1102 49.1464 12.1102C48.1964 12.1102 47.5194 11.6752 47.0844 10.8212L52.7714 8.46917L52.5784 7.98717ZM46.7784 9.40517C46.7304 7.76117 48.0514 6.92417 49.0024 6.92417C49.7434 6.92417 50.3714 7.29517 50.5814 7.82617L46.7784 9.40517ZM42.1554 13.5292H44.0234V1.02817H42.1554V13.5292ZM39.0934 6.23117H39.0294C38.6104 5.73117 37.8044 5.28017 36.7904 5.28017C34.6634 5.28017 32.7144 7.14917 32.7144 9.55017C32.7144 11.9342 34.6634 13.7872 36.7904 13.7872C37.8054 13.7872 38.6104 13.3362 39.0294 12.8212H39.0934V13.4332C39.0934 15.0602 38.2234 15.9302 36.8224 15.9302C35.6784 15.9302 34.9694 15.1092 34.6794 14.4162L33.0524 15.0932C33.5194 16.2202 34.7594 17.6062 36.8224 17.6062C39.0134 17.6062 40.8664 16.3172 40.8664 13.1752V5.53917H39.0944V6.23117H39.0934ZM36.9514 12.1122C35.6624 12.1122 34.5834 11.0322 34.5834 9.55017C34.5834 8.05117 35.6624 6.95617 36.9514 6.95617C38.2234 6.95617 39.2224 8.05117 39.2224 9.55017C39.2224 11.0322 38.2234 12.1122 36.9514 12.1122ZM61.3324 1.02817H56.8614V13.5292H58.7264V8.79317H61.3314C63.3994 8.79317 65.4334 7.29617 65.4334 4.91117C65.4334 2.52617 63.4004 1.02817 61.3324 1.02817ZM61.3804 7.05317H58.7264V2.76817H61.3804C62.7754 2.76817 63.5674 3.92317 63.5674 4.91117C63.5674 5.87917 62.7754 7.05317 61.3804 7.05317ZM72.9124 5.25817C71.5614 5.25817 70.1624 5.85317 69.5834 7.17217L71.2394 7.86317C71.5934 7.17217 72.2534 6.94617 72.9444 6.94617C73.9094 6.94617 74.8904 7.52517 74.9064 8.55417V8.68317C74.5684 8.49017 73.8444 8.20117 72.9604 8.20117C71.1754 8.20117 69.3574 9.18217 69.3574 11.0152C69.3574 12.6882 70.8214 13.7652 72.4614 13.7652C73.7154 13.7652 74.4074 13.2022 74.8414 12.5422H74.9054V13.5072H76.7074V8.71417C76.7084 6.49617 75.0504 5.25817 72.9124 5.25817ZM72.6864 12.1092C72.0764 12.1092 71.2234 11.8032 71.2234 11.0472C71.2234 10.0822 72.2854 9.71217 73.2024 9.71217C74.0214 9.71217 74.4084 9.88917 74.9064 10.1302C74.7614 11.2892 73.7644 12.1092 72.6864 12.1092ZM83.2694 5.53117L81.1304 10.9512H81.0664L78.8464 5.53117H76.8364L80.1654 13.1062L78.2674 17.3202H80.2134L85.3444 5.53117H83.2694ZM66.4634 13.5292H68.3284V1.02817H66.4634V13.5292Z" fill="white"/>
</svg>
