<svg width="59" height="37" viewBox="0 0 59 37" fill="none" xmlns="http://www.w3.org/2000/svg">
<path d="M29.2062 4.67003C26.1539 2.27218 22.3036 0.822998 18.1037 0.822998C8.15464 0.822998 0.104492 8.86626 0.104492 18.8069C0.104492 28.7474 8.15464 36.7907 18.1037 36.7907C22.3036 36.7907 26.1539 35.3415 29.2062 32.9437C33.406 29.6437 36.0564 24.5512 36.0564 18.8069C36.0564 13.0625 33.3536 7.96416 29.2062 4.67003Z" fill="url(#paint0_linear_6536_171439)" fill-opacity="0.8"/>
<path d="M40.3023 0.822754C36.1025 0.822754 32.2521 2.27194 29.2057 4.66979C25.0583 7.96392 22.3555 13.0623 22.3555 18.8066C22.3555 24.551 25.0524 29.6959 29.2057 32.9434C32.258 35.3413 36.1083 36.7905 40.3081 36.7905C50.2572 36.7905 58.3074 28.7472 58.3074 18.8066C58.3074 8.9184 50.2572 0.822754 40.3023 0.822754Z" fill="url(#paint1_linear_6536_171439)"/>
<path d="M29.2062 4.67003C26.1539 2.27218 22.3036 0.822998 18.1037 0.822998C8.15464 0.822998 0.104492 8.86626 0.104492 18.8069C0.104492 28.7474 8.15464 36.7907 18.1037 36.7907C22.3036 36.7907 26.1539 35.3415 29.2062 32.9437C33.406 29.6437 36.0564 24.5512 36.0564 18.8069C36.0564 13.0625 33.3536 7.96416 29.2062 4.67003Z" stroke="white" stroke-width="0.731183" stroke-miterlimit="10"/>
<path d="M51.1427 4.66979C48.0904 2.27194 44.2401 0.822754 40.0403 0.822754C30.0912 0.822754 22.041 8.86602 22.041 18.8066C22.041 28.7472 30.0912 36.7905 40.0403 36.7905C44.2401 36.7905 48.0904 35.3413 51.1427 32.9434C55.3425 29.6435 57.9929 24.551 57.9929 18.8066C57.9929 13.0623 55.2901 7.96392 51.1427 4.66979Z" stroke="white" stroke-width="0.731183" stroke-miterlimit="10"/>
<defs>
<linearGradient id="paint0_linear_6536_171439" x1="-0.0411734" y1="18.9569" x2="35.7868" y2="18.9569" gradientUnits="userSpaceOnUse">
<stop stop-color="#F0F1EF"/>
<stop offset="1" stop-color="#C4C0B3"/>
</linearGradient>
<linearGradient id="paint1_linear_6536_171439" x1="22.3555" y1="0.822754" x2="65.7587" y2="18.87" gradientUnits="userSpaceOnUse">
<stop stop-color="#37425D"/>
<stop offset="0.500594" stop-color="#1D2129"/>
<stop offset="1" stop-color="#29283C"/>
</linearGradient>
</defs>
</svg>
