<svg width="67" height="51" viewBox="0 0 67 51" fill="none" xmlns="http://www.w3.org/2000/svg">
<path d="M37.0773 11.8249C34.7496 8.71879 31.4055 6.32244 27.3488 5.23545C17.7387 2.66044 7.88114 8.3461 5.30833 17.948C2.73551 27.5498 8.42961 37.4026 18.0397 39.9776C22.0964 41.0646 26.1906 40.6613 29.7595 39.1352C34.6703 37.0347 38.5484 32.8016 40.0352 27.253C41.5219 21.7044 40.2308 16.0802 37.0773 11.8249Z" fill="url(#paint0_linear_8229_195)" fill-opacity="0.8"/>
<path d="M48.7904 10.9807C44.7337 9.89368 40.6395 10.2969 37.0762 11.8246C32.2175 13.9331 28.2873 18.1581 26.8005 23.7068C25.3138 29.2554 26.5872 34.923 29.7584 39.1349C32.0861 42.241 35.4302 44.6373 39.4869 45.7243C49.097 48.2993 58.9545 42.6137 61.5274 33.0118C64.0866 23.4605 58.4061 13.5572 48.7904 10.9807Z" fill="url(#paint1_linear_8229_195)"/>
<path d="M37.0773 11.8249C34.7496 8.71879 31.4055 6.32244 27.3488 5.23545C17.7387 2.66044 7.88114 8.3461 5.30833 17.948C2.73551 27.5498 8.42961 37.4026 18.0397 39.9776C22.0964 41.0646 26.1906 40.6613 29.7595 39.1352C34.6703 37.0347 38.5484 32.8016 40.0352 27.253C41.5219 21.7044 40.2308 16.0802 37.0773 11.8249Z" stroke="white" stroke-width="0.731183" stroke-miterlimit="10"/>
<path d="M58.2658 17.5023C55.9381 14.3962 52.594 11.9998 48.5373 10.9128C38.9272 8.3378 29.0696 14.0235 26.4968 23.6253C23.924 33.2272 29.6181 43.0799 39.2282 45.655C43.2849 46.742 47.3791 46.3387 50.948 44.8125C55.8588 42.712 59.7369 38.479 61.2237 32.9304C62.7104 27.3818 61.4192 21.7576 58.2658 17.5023Z" stroke="white" stroke-width="0.731183" stroke-miterlimit="10"/>
<defs>
<linearGradient id="paint0_linear_8229_195" x1="5.12878" y1="18.0552" x2="39.7359" y2="27.3282" gradientUnits="userSpaceOnUse">
<stop stop-color="#F0F1EF"/>
<stop offset="1" stop-color="#C4C0B3"/>
</linearGradient>
<linearGradient id="paint1_linear_8229_195" x1="31.4551" y1="6.33569" x2="68.7085" y2="35.0016" gradientUnits="userSpaceOnUse">
<stop stop-color="#37425D"/>
<stop offset="0.500594" stop-color="#1D2129"/>
<stop offset="1" stop-color="#29283C"/>
</linearGradient>
</defs>
</svg>
