<svg width="83" height="28" viewBox="0 0 83 28" fill="none" xmlns="http://www.w3.org/2000/svg">
<path d="M4.77527 19.9972C5.12602 20.9018 5.61162 21.6752 6.23217 22.3175C6.85272 22.9598 7.58788 23.4514 8.43767 23.7922C9.28754 24.1331 10.2116 24.3034 11.2098 24.3034C12.1811 24.3034 13.0916 24.1264 13.9415 23.7725C14.7913 23.4185 15.5332 22.9204 16.1672 22.2781C16.8012 21.6358 17.2936 20.869 17.6443 19.9776C17.9951 19.0862 18.1704 18.09 18.1704 16.9888V0H22.4196V27.5281H18.2109V24.9719C17.2666 25.9419 16.1537 26.6891 14.8722 27.2135C13.5906 27.7378 12.2081 28 10.7242 28C9.21331 28 7.80369 27.7443 6.49516 27.2331C5.18673 26.7219 4.05353 25.9944 3.09585 25.0506C2.13816 24.1067 1.38267 22.973 0.829637 21.6489C0.276516 20.3249 0 18.8503 0 17.2247V0H4.24919V16.9888C4.24919 18.09 4.42452 19.0927 4.77527 19.9972Z" fill="white"/>
<path d="M29.7445 0V10.0281C30.6888 9.11048 31.7815 8.38302 33.0225 7.84552C34.2635 7.30802 35.6125 7.03931 37.0693 7.03931C38.5802 7.03931 39.9965 7.31454 41.3185 7.8651C42.6405 8.41565 43.787 9.16287 44.7583 10.1067C45.7296 11.0506 46.4985 12.1648 47.0651 13.4494C47.6316 14.7341 47.9149 16.0974 47.9149 17.5394C47.9149 18.9812 47.6316 20.338 47.0651 21.6095C46.4985 22.8811 45.7296 23.9888 44.7583 24.9325C43.787 25.8764 42.6405 26.6236 41.3185 27.1741C39.9965 27.7247 38.5801 27.9999 37.0693 27.9999C35.6124 27.9999 34.2568 27.7312 33.0023 27.1937C31.7477 26.6563 30.6483 25.9287 29.704 25.0111V27.528H25.6572V0H29.7445ZM30.2099 20.2528C30.5741 21.0918 31.08 21.8259 31.7275 22.4551C32.375 23.0843 33.1304 23.5825 33.9937 23.9495C34.8571 24.3166 35.7878 24.5001 36.7861 24.5001C37.7574 24.5001 38.6746 24.3166 39.5379 23.9495C40.4012 23.5825 41.1498 23.0844 41.784 22.4551C42.4179 21.826 42.9238 21.0918 43.3015 20.2528C43.6792 19.4139 43.868 18.5094 43.868 17.5394C43.868 16.5693 43.6792 15.6582 43.3015 14.8062C42.9238 13.9541 42.4179 13.2135 41.784 12.5843C41.1499 11.9551 40.4013 11.4635 39.5379 11.1096C38.6745 10.7557 37.7573 10.5786 36.7861 10.5786C35.8149 10.5786 34.8976 10.7556 34.0343 11.1096C33.171 11.4636 32.4156 11.9551 31.768 12.5843C31.1206 13.2135 30.6079 13.9541 30.2302 14.8062C29.8525 15.6582 29.6637 16.5693 29.6637 17.5394C29.6636 18.5094 29.8457 19.4139 30.2099 20.2528Z" fill="white"/>
<path d="M50.2204 13.4889C50.7599 12.2304 51.5019 11.1228 52.4461 10.1659C53.3903 9.20894 54.51 8.4552 55.805 7.90465C57.1 7.35409 58.5029 7.07886 60.0137 7.07886C61.4976 7.07886 62.8735 7.34104 64.1416 7.86532C65.4095 8.38968 66.5022 9.11723 67.4195 10.048C68.3368 10.9786 69.0518 12.0798 69.5643 13.3513C70.0769 14.6229 70.3332 16.0058 70.3332 17.5002V18.798H53.5388C53.6738 19.6108 53.9436 20.3645 54.3482 21.0591C54.753 21.7539 55.2587 22.3569 55.8657 22.8681C56.4728 23.3794 57.1607 23.7793 57.9297 24.0676C58.6986 24.356 59.5146 24.5002 60.378 24.5002C62.8332 24.5002 64.8161 23.517 66.3269 21.5507L69.2811 23.6743C68.2559 25.0114 66.988 26.0601 65.4772 26.8204C63.9663 27.5806 62.2666 27.9608 60.3781 27.9608C58.8402 27.9608 57.4037 27.6985 56.0682 27.1743C54.7327 26.65 53.5727 25.9158 52.5879 24.9719C51.6032 24.0281 50.8276 22.9204 50.261 21.6489C49.6945 20.3775 49.4111 18.9944 49.4111 17.5001C49.411 16.0844 49.6808 14.7473 50.2204 13.4889ZM55.9062 11.9354C54.7596 12.8662 53.9975 14.1049 53.6198 15.6518H66.2055C65.8548 14.1049 65.1061 12.8662 63.9595 11.9354C62.8128 11.0048 61.4706 10.5394 59.9329 10.5394C58.395 10.5394 57.0528 11.0048 55.9062 11.9354Z" fill="white"/>
<path d="M77.982 12.3875C77.1187 13.3051 76.687 14.5504 76.687 16.1235V27.5281H72.5996V7.47187H76.6464V9.94941C77.1591 9.13667 77.8268 8.49431 78.6496 8.02242C79.4725 7.55044 80.4505 7.31445 81.5837 7.31445H83V11.0111H81.3004C79.9515 11.0112 78.8453 11.4699 77.982 12.3875Z" fill="white"/>
</svg>
