<svg width="110" height="28" viewBox="0 0 110 28" fill="none" xmlns="http://www.w3.org/2000/svg">
<path d="M78.7106 12.0702V14.5904H77.1309V16.243H78.7106V21.8585C78.7106 23.776 79.578 24.543 81.7603 24.543C82.1438 24.543 82.509 24.4973 82.8286 24.4426V22.8081C82.5547 22.8355 82.3812 22.8538 82.0799 22.8538C81.1029 22.8538 80.6737 22.3972 80.6737 21.3563V16.243H82.8286V14.5904H80.6737V12.0702H78.7106Z" fill="white"/>
<path d="M88.3878 24.68C91.2914 24.68 93.072 22.7351 93.072 19.5119C93.072 16.307 91.2823 14.353 88.3878 14.353C85.4842 14.353 83.6946 16.307 83.6946 19.5119C83.6946 22.7351 85.4751 24.68 88.3878 24.68ZM88.3878 22.936C86.6804 22.936 85.7216 21.685 85.7216 19.5119C85.7216 17.357 86.6804 16.0969 88.3878 16.0969C90.0862 16.0969 91.054 17.357 91.054 19.5119C91.054 21.6759 90.0862 22.936 88.3878 22.936Z" fill="white"/>
<path d="M94.5954 24.4882H96.5585V18.6171C96.5585 17.22 97.6085 16.2796 99.0969 16.2796C99.4438 16.2796 100.028 16.3435 100.193 16.3983V14.4625C99.9826 14.4077 99.6082 14.3803 99.316 14.3803C98.0194 14.3803 96.9146 15.0926 96.6315 16.0696H96.4854V14.5447H94.5954V24.4882Z" fill="white"/>
<path d="M105.067 16.0239C106.519 16.0239 107.468 17.0374 107.514 18.5988H102.492C102.602 17.0466 103.615 16.0239 105.067 16.0239ZM107.505 21.8037C107.14 22.5799 106.327 23.009 105.14 23.009C103.57 23.009 102.556 21.9042 102.492 20.1602V20.0506H109.514V19.3658C109.514 16.243 107.843 14.353 105.076 14.353C102.273 14.353 100.492 16.3709 100.492 19.5484C100.492 22.726 102.236 24.68 105.085 24.68C107.359 24.68 108.948 23.5843 109.395 21.8037H107.505Z" fill="white"/>
<path d="M65.8366 20.8162C65.9881 23.2579 68.0228 24.8194 71.0512 24.8194C74.2879 24.8194 76.3131 23.1822 76.3131 20.5702C76.3131 18.5165 75.1585 17.3808 72.3572 16.7278L70.8525 16.3587C69.0733 15.9423 68.354 15.384 68.354 14.4092C68.354 13.1789 69.4708 12.3745 71.1459 12.3745C72.7358 12.3745 73.8336 13.16 74.0323 14.4187H76.0955C75.9724 12.1189 73.9472 10.5006 71.1743 10.5006C68.1931 10.5006 66.2057 12.1189 66.2057 14.5511C66.2057 16.5575 67.3319 17.7499 69.802 18.3272L71.5623 18.7531C73.3699 19.179 74.1648 19.8036 74.1648 20.8446C74.1648 22.056 72.9156 22.9361 71.2121 22.9361C69.3856 22.9361 68.1174 22.1128 67.9376 20.8162H65.8366Z" fill="white"/>
<path d="M45.5006 14.3803C44.1492 14.3803 42.9804 15.056 42.3778 16.1883H42.2317V14.5447H40.3416V27.7936H42.3048V22.9816H42.46C42.9804 24.0317 44.1035 24.6526 45.5188 24.6526C48.0298 24.6526 49.6277 22.6712 49.6277 19.5119C49.6277 16.3526 48.0298 14.3803 45.5006 14.3803ZM44.9436 22.8903C43.3 22.8903 42.2682 21.5937 42.2682 19.521C42.2682 17.4392 43.3 16.1426 44.9527 16.1426C46.6145 16.1426 47.6098 17.4118 47.6098 19.5119C47.6098 21.6211 46.6145 22.8903 44.9436 22.8903Z" fill="white"/>
<path d="M56.497 14.3803C55.1457 14.3803 53.9769 15.056 53.3743 16.1883H53.2282V14.5447H51.3381V27.7936H53.3012V22.9816H53.4565C53.9769 24.0317 55.1 24.6526 56.5153 24.6526C59.0263 24.6526 60.6242 22.6712 60.6242 19.5119C60.6242 16.3526 59.0263 14.3803 56.497 14.3803ZM55.9401 22.8903C54.2965 22.8903 53.2647 21.5937 53.2647 19.521C53.2647 17.4392 54.2965 16.1426 55.9492 16.1426C57.611 16.1426 58.6063 17.4118 58.6063 19.5119C58.6063 21.6211 57.611 22.8903 55.9401 22.8903Z" fill="white"/>
<path d="M36.8194 24.4882H39.0718L34.1412 10.8318H31.8604L26.9297 24.4882H29.1064L30.3651 20.8635H35.5702L36.8194 24.4882ZM32.8919 13.3114H33.0528L35.0308 19.0843H30.9045L32.8919 13.3114Z" fill="white"/>
<path d="M28.248 0.531299V7.11921H30.6266C32.5898 7.11921 33.7266 5.90937 33.7266 3.80471C33.7266 1.73201 32.5806 0.531299 30.6266 0.531299H28.248ZM29.2707 1.46265H30.5125C31.8776 1.46265 32.6856 2.33008 32.6856 3.81841C32.6856 5.32957 31.8913 6.18787 30.5125 6.18787H29.2707V1.46265Z" fill="white"/>
<path d="M37.2082 7.21509C38.66 7.21509 39.5502 6.24265 39.5502 4.63105C39.5502 3.02859 38.6554 2.05159 37.2082 2.05159C35.7564 2.05159 34.8615 3.02859 34.8615 4.63105C34.8615 6.24265 35.7518 7.21509 37.2082 7.21509ZM37.2082 6.34309C36.3544 6.34309 35.8751 5.71763 35.8751 4.63105C35.8751 3.55361 36.3544 2.92358 37.2082 2.92358C38.0573 2.92358 38.5413 3.55361 38.5413 4.63105C38.5413 5.71306 38.0573 6.34309 37.2082 6.34309Z" fill="white"/>
<path d="M47.1316 2.14746H46.15L45.2643 5.94133H45.1867L44.164 2.14746H43.2236L42.2009 5.94133H42.1279L41.2376 2.14746H40.2423L41.612 7.11921H42.6209L43.6436 3.45774H43.7212L44.7484 7.11921H45.7665L47.1316 2.14746Z" fill="white"/>
<path d="M48.262 7.11921H49.2435V4.21103C49.2435 3.43491 49.7047 2.95098 50.4306 2.95098C51.1565 2.95098 51.5034 3.34817 51.5034 4.14712V7.11921H52.485V3.90059C52.485 2.71814 51.8732 2.05159 50.7638 2.05159C50.0151 2.05159 49.522 2.38486 49.2801 2.93728H49.207V2.14746H48.262V7.11921Z" fill="white"/>
<path d="M54.0309 7.11921H55.0124V0.207153H54.0309V7.11921Z" fill="white"/>
<path d="M58.704 7.21509C60.1558 7.21509 61.0461 6.24265 61.0461 4.63105C61.0461 3.02859 60.1513 2.05159 58.704 2.05159C57.2522 2.05159 56.3574 3.02859 56.3574 4.63105C56.3574 6.24265 57.2477 7.21509 58.704 7.21509ZM58.704 6.34309C57.8503 6.34309 57.3709 5.71763 57.3709 4.63105C57.3709 3.55361 57.8503 2.92358 58.704 2.92358C59.5532 2.92358 60.0371 3.55361 60.0371 4.63105C60.0371 5.71306 59.5532 6.34309 58.704 6.34309Z" fill="white"/>
<path d="M63.9707 6.37505C63.4366 6.37505 63.0485 6.11482 63.0485 5.66741C63.0485 5.22913 63.3589 4.99629 64.0438 4.95063L65.2582 4.87302V5.28848C65.2582 5.90481 64.7103 6.37505 63.9707 6.37505ZM63.7196 7.20139C64.3725 7.20139 64.9158 6.91833 65.2125 6.4207H65.2901V7.11921H66.2352V3.72253C66.2352 2.67249 65.5321 2.05159 64.2857 2.05159C63.1581 2.05159 62.3545 2.59944 62.2541 3.45317H63.2037C63.3133 3.10164 63.6922 2.90076 64.2401 2.90076C64.9112 2.90076 65.2582 3.19751 65.2582 3.72253V4.15168L63.9114 4.2293C62.7289 4.30234 62.0624 4.81824 62.0624 5.71306C62.0624 6.62158 62.7609 7.20139 63.7196 7.20139Z" fill="white"/>
<path d="M69.5661 7.20139C70.2509 7.20139 70.8307 6.87725 71.1275 6.33396H71.2051V7.11921H72.1456V0.207153H71.164V2.93728H71.091C70.8216 2.38943 70.2463 2.06528 69.5661 2.06528C68.3106 2.06528 67.5025 3.06055 67.5025 4.63105C67.5025 6.20613 68.3015 7.20139 69.5661 7.20139ZM69.8446 2.94641C70.6664 2.94641 71.1823 3.59927 71.1823 4.63562C71.1823 5.67654 70.6709 6.32026 69.8446 6.32026C69.0137 6.32026 68.5161 5.68567 68.5161 4.63105C68.5161 3.58557 69.0182 2.94641 69.8446 2.94641Z" fill="white"/>
<path d="M78.5107 7.21509C79.9625 7.21509 80.8528 6.24265 80.8528 4.63105C80.8528 3.02859 79.9579 2.05159 78.5107 2.05159C77.0589 2.05159 76.1641 3.02859 76.1641 4.63105C76.1641 6.24265 77.0543 7.21509 78.5107 7.21509ZM78.5107 6.34309C77.657 6.34309 77.1776 5.71763 77.1776 4.63105C77.1776 3.55361 77.657 2.92358 78.5107 2.92358C79.3599 2.92358 79.8438 3.55361 79.8438 4.63105C79.8438 5.71306 79.3599 6.34309 78.5107 6.34309Z" fill="white"/>
<path d="M82.1521 7.11921H83.1336V4.21103C83.1336 3.43491 83.5948 2.95098 84.3207 2.95098C85.0466 2.95098 85.3935 3.34817 85.3935 4.14712V7.11921H86.3751V3.90059C86.3751 2.71814 85.7633 2.05159 84.6539 2.05159C83.9052 2.05159 83.4121 2.38486 83.1702 2.93728H83.0971V2.14746H82.1521V7.11921Z" fill="white"/>
<path d="M90.8958 0.910229V2.17029H90.106V2.99663H90.8958V5.80437C90.8958 6.76311 91.3295 7.14661 92.4206 7.14661C92.6124 7.14661 92.795 7.12378 92.9548 7.09639V6.27917C92.8178 6.29287 92.7311 6.302 92.5804 6.302C92.0919 6.302 91.8774 6.07373 91.8774 5.55327V2.99663H92.9548V2.17029H91.8774V0.910229H90.8958Z" fill="white"/>
<path d="M94.2724 7.11921H95.254V4.2156C95.254 3.4623 95.7014 2.95554 96.5049 2.95554C97.1988 2.95554 97.5686 3.3573 97.5686 4.15168V7.11921H98.5502V3.90972C98.5502 2.72727 97.8973 2.05615 96.8382 2.05615C96.0894 2.05615 95.5644 2.38943 95.3224 2.94641H95.2448V0.207153H94.2724V7.11921Z" fill="white"/>
<path d="M102.091 2.88706C102.817 2.88706 103.292 3.39382 103.315 4.17451H100.804C100.858 3.39839 101.365 2.88706 102.091 2.88706ZM103.31 5.77698C103.127 6.16504 102.721 6.37961 102.128 6.37961C101.342 6.37961 100.836 5.8272 100.804 4.9552V4.90041H104.314V4.55801C104.314 2.99663 103.479 2.05159 102.096 2.05159C100.694 2.05159 99.8039 3.06055 99.8039 4.64932C99.8039 6.23809 100.676 7.21509 102.1 7.21509C103.237 7.21509 104.031 6.66724 104.255 5.77698H103.31Z" fill="white"/>
<path d="M16.277 13.2801C16.3009 11.431 17.2939 9.68139 18.8693 8.71288C17.8754 7.29352 16.2108 6.39361 14.479 6.33943C12.6318 6.14554 10.8411 7.44474 9.89979 7.44474C8.9403 7.44474 7.49105 6.35868 5.93044 6.39079C3.89627 6.45651 1.9999 7.61303 1.01023 9.39144C-1.11717 13.0747 0.46968 18.4879 2.50755 21.4651C3.52714 22.923 4.71875 24.5515 6.27795 24.4938C7.80371 24.4305 8.37356 23.5208 10.2153 23.5208C12.0399 23.5208 12.5746 24.4938 14.1654 24.457C15.8026 24.4305 16.8341 22.9927 17.8179 21.521C18.5505 20.4822 19.1142 19.3341 19.4882 18.1192C17.5642 17.3055 16.2793 15.3692 16.277 13.2801Z" fill="white"/>
<path d="M13.2722 4.38143C14.1649 3.3098 14.6047 1.9324 14.4982 0.541748C13.1344 0.684991 11.8746 1.33681 10.9698 2.36732C10.0851 3.37418 9.62472 4.72735 9.71177 6.06485C11.0761 6.0789 12.4173 5.44475 13.2722 4.38143Z" fill="white"/>
</svg>
