<svg width="56" height="37" viewBox="0 0 56 37" fill="none" xmlns="http://www.w3.org/2000/svg">
<rect x="6.69411" y="1.26177" width="30.1248" height="22.8129" rx="4.3871" transform="rotate(15 6.69411 1.26177)" fill="url(#paint0_linear_8229_180)"/>
<rect x="6.69411" y="1.26177" width="30.1248" height="22.8129" rx="4.3871" transform="rotate(15 6.69411 1.26177)" fill="url(#paint1_linear_8229_180)" fill-opacity="0.6"/>
<rect x="6.69411" y="1.26177" width="30.1248" height="22.8129" rx="4.3871" transform="rotate(15 6.69411 1.26177)" stroke="#7D8076" stroke-width="0.584947"/>
<path d="M20.673 4.89077C20.7448 4.93214 20.7978 5.0006 20.8193 5.08061C20.8407 5.1604 20.8295 5.24536 20.7883 5.31697C20.747 5.38875 20.6785 5.44175 20.5985 5.46325C18.494 6.04345 14.9563 8.68457 14.1837 11.4888C14.2448 13.8479 13.6213 16.1745 12.3889 18.187C11.6567 20.9991 13.4006 25.0524 14.9292 26.6212C14.9593 26.6488 14.9835 26.6825 14.9998 26.72C15.0161 26.7575 15.0238 26.7986 15.0234 26.8395C15.023 26.8804 15.0147 26.9208 14.9977 26.958C14.9807 26.9952 14.9557 27.0287 14.925 27.0558C14.8865 27.0931 14.8387 27.1203 14.7868 27.134C14.7349 27.1476 14.6799 27.1474 14.6281 27.1339C14.5754 27.1199 14.5278 27.0913 14.4904 27.0516C12.8569 25.3882 11.0985 21.3334 11.7311 18.2949L2.79065 15.8993C2.7188 15.8723 2.65918 15.8198 2.624 15.7515C2.5888 15.6831 2.58082 15.6033 2.60074 15.5289C2.62071 15.4547 2.6673 15.3904 2.73193 15.3487C2.79655 15.3071 2.87432 15.2916 2.95014 15.3041L11.9472 17.7148C13.0398 15.891 13.6009 13.797 13.5666 11.6712L4.56953 9.26045C4.49102 9.23933 4.42403 9.18796 4.38337 9.11755C4.34278 9.0471 4.33166 8.96343 4.3527 8.88489C4.37377 8.80634 4.42519 8.73943 4.4956 8.69873C4.56601 8.65808 4.64971 8.6471 4.72826 8.66806L13.6687 11.0637C14.6432 8.1046 18.2016 5.48663 20.4367 4.85979C20.5165 4.83838 20.6014 4.8496 20.673 4.89077ZM33.7994 16.4577C33.8781 16.4787 33.9458 16.5303 33.9865 16.6008C34.027 16.6712 34.0382 16.755 34.0172 16.8335C33.9962 16.912 33.9446 16.9789 33.8743 17.0196C33.8038 17.0603 33.7193 17.0711 33.6407 17.05L24.6276 14.635C23.535 16.4588 22.9742 18.552 23.0084 20.6777L32.0216 23.0927C32.0936 23.1198 32.1537 23.1733 32.1889 23.2417C32.224 23.31 32.2322 23.3891 32.2124 23.4634C32.1925 23.5375 32.1457 23.6019 32.0812 23.6435C32.0165 23.6852 31.9378 23.7015 31.8618 23.6889L22.9138 21.2913C21.9424 24.239 18.3771 26.8824 16.1459 27.4951C16.0935 27.5109 16.0373 27.5117 15.9845 27.4974C15.933 27.4832 15.886 27.4559 15.848 27.4184C15.8099 27.3806 15.7821 27.3331 15.7674 27.2815C15.7549 27.2421 15.7509 27.2002 15.7557 27.1591C15.7605 27.1181 15.7737 27.0786 15.7948 27.0432C15.816 27.0077 15.8447 26.977 15.8785 26.9534C15.9125 26.9297 15.9517 26.9137 15.9923 26.906C18.1005 26.3116 21.6365 23.673 22.4085 20.8718C22.3419 18.4942 22.9705 16.1483 24.2169 14.1226C24.2506 14.0654 24.3021 14.0206 24.3633 13.995C24.4248 13.9694 24.4936 13.9649 24.558 13.9814L33.7994 16.4577ZM21.8644 5.21C21.9472 5.21006 22.027 5.24298 22.0855 5.3016C23.2422 6.47414 24.3427 8.74867 24.7688 10.8178C24.7814 10.8586 24.7852 10.9018 24.7795 10.944C24.7736 10.9863 24.7577 11.0266 24.7346 11.0624C24.7114 11.0983 24.6811 11.1289 24.645 11.1517C24.6088 11.1744 24.5678 11.1891 24.5253 11.1944C24.4787 11.2055 24.4296 11.2049 24.3832 11.1927C24.3283 11.178 24.2785 11.1481 24.2395 11.1067C24.2003 11.0652 24.1736 11.0134 24.1621 10.9576C23.6909 8.66134 22.5239 6.64498 21.6427 5.74305C21.5843 5.68444 21.5514 5.60423 21.5514 5.52145C21.5516 5.43881 21.5853 5.35993 21.6437 5.30152C21.7024 5.24298 21.7816 5.20994 21.8644 5.21ZM20.8507 6.60857C20.9913 6.64635 21.1118 6.73773 21.1847 6.86386C21.2575 6.99001 21.2764 7.14004 21.2388 7.28074C21.2107 7.38568 21.1526 7.48058 21.071 7.55223C20.9893 7.62389 20.8878 7.66935 20.78 7.68355C20.6723 7.69773 20.5628 7.67964 20.4654 7.63159C20.3679 7.58352 20.287 7.50765 20.2326 7.41353C20.1783 7.31939 20.153 7.21141 20.1601 7.10294C20.1673 6.99448 20.2063 6.89069 20.2725 6.80446C20.3386 6.71823 20.4288 6.65306 20.5317 6.61813C20.6346 6.58324 20.7458 6.58045 20.8507 6.60857Z" fill="#7D8076"/>
<path d="M41.0036 20.1918C40.9623 20.0866 40.9421 19.9743 40.9442 19.8612C40.9462 19.7482 40.9705 19.6366 41.0157 19.533C41.107 19.3237 41.2776 19.1592 41.4901 19.0757C41.7026 18.9922 41.9396 18.9965 42.149 19.0878C42.3583 19.179 42.5228 19.3496 42.6063 19.5622C42.8031 20.0569 42.9204 20.5797 42.954 21.111C42.9891 21.6625 42.9336 22.2159 42.7896 22.7493C42.6475 23.2818 42.4193 23.7875 42.1139 24.2463C41.8191 24.6897 41.4561 25.0837 41.0383 25.4138C40.8598 25.5561 40.632 25.6216 40.4051 25.596C40.1782 25.5703 39.9708 25.4556 39.8285 25.277C39.6862 25.0985 39.6206 24.8707 39.6463 24.6438C39.6719 24.4169 39.7867 24.2095 39.9652 24.0672C40.2407 23.8514 40.4804 23.5935 40.6756 23.303C40.8821 22.998 41.0371 22.6611 41.1345 22.3059C41.2307 21.9525 41.2686 21.5858 41.2467 21.2202C41.221 20.8666 41.1389 20.5195 41.0036 20.1918ZM44.2653 19.4052C44.6317 20.627 44.6487 21.927 44.3145 23.1579C43.9905 24.3893 43.3291 25.5057 42.4048 26.3814C42.3225 26.4589 42.2562 26.5519 42.2099 26.6551C42.1635 26.7582 42.1379 26.8694 42.1345 26.9825C42.1312 27.0955 42.1501 27.2081 42.1902 27.3138C42.2304 27.4195 42.2909 27.5163 42.3685 27.5986C42.446 27.6809 42.539 27.7471 42.6421 27.7935C42.7452 27.8398 42.8565 27.8654 42.9695 27.8688C43.0825 27.8722 43.1951 27.8533 43.3008 27.8131C43.4066 27.773 43.5033 27.7124 43.5856 27.6349C44.7431 26.5405 45.5704 25.1435 45.9736 23.6025C46.3958 22.0651 46.3782 20.4402 45.9228 18.9123C45.8903 18.804 45.8368 18.7032 45.7653 18.6156C45.6938 18.5279 45.6058 18.4553 45.5062 18.4017C45.4067 18.3481 45.2975 18.3146 45.185 18.3032C45.0725 18.2918 44.9589 18.3027 44.8506 18.3352C44.7423 18.3677 44.6414 18.4212 44.5538 18.4927C44.4662 18.5642 44.3935 18.6522 44.3399 18.7518C44.2863 18.8513 44.2529 18.9605 44.2415 19.073C44.2301 19.1855 44.2409 19.2991 44.2734 19.4074L44.2653 19.4052ZM47.7143 18.6514C48.2005 20.431 48.2045 22.3078 47.726 24.0895C47.2494 25.8702 46.3079 27.4922 44.9979 28.7891C44.9174 28.8685 44.8533 28.9631 44.8093 29.0673C44.7653 29.1715 44.7423 29.2834 44.7415 29.3965C44.7408 29.5096 44.7623 29.6217 44.8049 29.7265C44.8474 29.8313 44.9102 29.9267 44.9897 30.0073C45.0691 30.0878 45.1637 30.1519 45.2679 30.1959C45.3721 30.2399 45.4839 30.2629 45.5971 30.2637C45.7102 30.2644 45.8223 30.2429 45.9271 30.2003C46.0319 30.1577 46.1273 30.0949 46.2078 30.0155C47.7374 28.5064 48.8354 26.6156 49.3881 24.5392C49.9531 22.458 49.9513 20.2634 49.3827 18.1832C49.3206 17.9619 49.1731 17.7744 48.9728 17.6619C48.7724 17.5494 48.5356 17.521 48.3144 17.5831C48.0931 17.6452 47.9056 17.7926 47.7931 17.993C47.6806 18.1933 47.6522 18.4302 47.7143 18.6514ZM51.1566 17.874C51.7689 20.2116 51.7596 22.6686 51.1296 25.0015C50.5086 27.3353 49.2886 29.4664 47.5903 31.1835C47.5115 31.264 47.4493 31.3592 47.4073 31.4637C47.3653 31.5682 47.3443 31.68 47.3455 31.7926C47.3467 31.9052 47.37 32.0165 47.4142 32.1201C47.4584 32.2237 47.5226 32.3176 47.6031 32.3964C47.6836 32.4752 47.7788 32.5374 47.8833 32.5794C47.9878 32.6214 48.0996 32.6424 48.2122 32.6412C48.3248 32.64 48.4361 32.6167 48.5397 32.5725C48.6433 32.5283 48.7372 32.4641 48.816 32.3836C50.7243 30.4529 52.0961 28.0578 52.7961 25.4349C53.5065 22.8075 53.5179 20.04 52.829 17.4068C52.7724 17.1865 52.6307 16.9976 52.4349 16.8818C52.2391 16.766 52.0053 16.7327 51.785 16.7893C51.5647 16.8459 51.3758 16.9876 51.26 17.1834C51.1442 17.3792 51.1109 17.613 51.1675 17.8333" fill="white"/>
<defs>
<linearGradient id="paint0_linear_8229_180" x1="3.56257" y1="0.903564" x2="39.683" y2="24.3014" gradientUnits="userSpaceOnUse">
<stop stop-color="#DDD9D6"/>
<stop offset="0.212761" stop-color="#8A868C"/>
<stop offset="0.548384" stop-color="#F2F3F3" stop-opacity="0.8"/>
<stop offset="0.914316" stop-color="#807C80"/>
<stop offset="1" stop-color="#A6A8AB"/>
</linearGradient>
<linearGradient id="paint1_linear_8229_180" x1="6.4873" y1="0.903564" x2="35.3691" y2="22.839" gradientUnits="userSpaceOnUse">
<stop stop-color="#F0F1EF"/>
<stop offset="1" stop-color="#C4C0B3"/>
</linearGradient>
</defs>
</svg>
