<svg width="111" height="28" viewBox="0 0 111 28" fill="none" xmlns="http://www.w3.org/2000/svg">
<path d="M79.2106 12.0701V14.5902H77.6309V16.2429H79.2106V21.8584C79.2106 23.7759 80.078 24.5429 82.2603 24.5429C82.6438 24.5429 83.009 24.4972 83.3286 24.4424V22.808C83.0547 22.8354 82.8812 22.8537 82.5799 22.8537C81.6029 22.8537 81.1737 22.3971 81.1737 21.3562V16.2429H83.3286V14.5902H81.1737V12.0701H79.2106Z" fill="white"/>
<path d="M88.8878 24.6798C91.7914 24.6798 93.572 22.735 93.572 19.5118C93.572 16.3068 91.7823 14.3528 88.8878 14.3528C85.9842 14.3528 84.1946 16.3068 84.1946 19.5118C84.1946 22.735 85.9751 24.6798 88.8878 24.6798ZM88.8878 22.9358C87.1804 22.9358 86.2216 21.6849 86.2216 19.5118C86.2216 17.3569 87.1804 16.0968 88.8878 16.0968C90.5862 16.0968 91.554 17.3569 91.554 19.5118C91.554 21.6758 90.5862 22.9358 88.8878 22.9358Z" fill="white"/>
<path d="M95.0954 24.4881H97.0585V18.6169C97.0585 17.2199 98.1085 16.2794 99.5969 16.2794C99.9438 16.2794 100.528 16.3434 100.693 16.3981V14.4624C100.483 14.4076 100.108 14.3802 99.816 14.3802C98.5194 14.3802 97.4146 15.0924 97.1315 16.0694H96.9854V14.5446H95.0954V24.4881Z" fill="white"/>
<path d="M105.567 16.0238C107.019 16.0238 107.968 17.0373 108.014 18.5987H102.992C103.102 17.0464 104.115 16.0238 105.567 16.0238ZM108.005 21.8036C107.64 22.5797 106.827 23.0089 105.64 23.0089C104.07 23.0089 103.056 21.9041 102.992 20.1601V20.0505H110.014V19.3657C110.014 16.2429 108.343 14.3528 105.576 14.3528C102.773 14.3528 100.992 16.3708 100.992 19.5483C100.992 22.7258 102.736 24.6798 105.585 24.6798C107.859 24.6798 109.448 23.5841 109.895 21.8036H108.005Z" fill="white"/>
<path d="M66.3366 20.8161C66.4881 23.2578 68.5228 24.8193 71.5512 24.8193C74.7879 24.8193 76.8131 23.1821 76.8131 20.57C76.8131 18.5164 75.6585 17.3807 72.8572 16.7277L71.3525 16.3586C69.5733 15.9422 68.854 15.3838 68.854 14.4091C68.854 13.1788 69.9708 12.3743 71.6459 12.3743C73.2358 12.3743 74.3336 13.1598 74.5323 14.4185H76.5955C76.4724 12.1188 74.4472 10.5005 71.6743 10.5005C68.6931 10.5005 66.7057 12.1188 66.7057 14.551C66.7057 16.5574 67.8319 17.7498 70.302 18.3271L72.0623 18.753C73.8699 19.1789 74.6648 19.8035 74.6648 20.8445C74.6648 22.0559 73.4156 22.936 71.7121 22.936C69.8856 22.936 68.6174 22.1127 68.4376 20.8161H66.3366Z" fill="white"/>
<path d="M46.0006 14.3802C44.6492 14.3802 43.4804 15.0559 42.8778 16.1881H42.7317V14.5446H40.8416V27.7935H42.8048V22.9815H42.96C43.4804 24.0315 44.6035 24.6524 46.0188 24.6524C48.5298 24.6524 50.1277 22.671 50.1277 19.5118C50.1277 16.3525 48.5298 14.3802 46.0006 14.3802ZM45.4436 22.8902C43.8 22.8902 42.7682 21.5936 42.7682 19.5209C42.7682 17.4391 43.8 16.1425 45.4527 16.1425C47.1145 16.1425 48.1098 17.4117 48.1098 19.5118C48.1098 21.621 47.1145 22.8902 45.4436 22.8902Z" fill="white"/>
<path d="M56.997 14.3802C55.6457 14.3802 54.4769 15.0559 53.8743 16.1881H53.7282V14.5446H51.8381V27.7935H53.8012V22.9815H53.9565C54.4769 24.0315 55.6 24.6524 57.0153 24.6524C59.5263 24.6524 61.1242 22.671 61.1242 19.5118C61.1242 16.3525 59.5263 14.3802 56.997 14.3802ZM56.4401 22.8902C54.7965 22.8902 53.7647 21.5936 53.7647 19.5209C53.7647 17.4391 54.7965 16.1425 56.4492 16.1425C58.111 16.1425 59.1063 17.4117 59.1063 19.5118C59.1063 21.621 58.111 22.8902 56.4401 22.8902Z" fill="white"/>
<path d="M37.3194 24.4881H39.5718L34.6412 10.8317H32.3604L27.4297 24.4881H29.6064L30.8651 20.8634H36.0702L37.3194 24.4881ZM33.3919 13.3113H33.5528L35.5308 19.0842H31.4045L33.3919 13.3113Z" fill="white"/>
<path d="M28.748 0.531177V7.11909H31.1266C33.0898 7.11909 34.2266 5.90925 34.2266 3.80459C34.2266 1.73188 33.0806 0.531177 31.1266 0.531177H28.748ZM29.7707 1.46252H31.0125C32.3776 1.46252 33.1856 2.32996 33.1856 3.81829C33.1856 5.32944 32.3913 6.18774 31.0125 6.18774H29.7707V1.46252Z" fill="white"/>
<path d="M37.7082 7.21497C39.16 7.21497 40.0502 6.24253 40.0502 4.63093C40.0502 3.02847 39.1554 2.05146 37.7082 2.05146C36.2564 2.05146 35.3615 3.02847 35.3615 4.63093C35.3615 6.24253 36.2518 7.21497 37.7082 7.21497ZM37.7082 6.34297C36.8544 6.34297 36.3751 5.7175 36.3751 4.63093C36.3751 3.55349 36.8544 2.92346 37.7082 2.92346C38.5573 2.92346 39.0413 3.55349 39.0413 4.63093C39.0413 5.71294 38.5573 6.34297 37.7082 6.34297Z" fill="white"/>
<path d="M47.6316 2.14734H46.65L45.7643 5.94121H45.6867L44.664 2.14734H43.7236L42.7009 5.94121H42.6279L41.7376 2.14734H40.7423L42.112 7.11909H43.1209L44.1436 3.45762H44.2212L45.2484 7.11909H46.2665L47.6316 2.14734Z" fill="white"/>
<path d="M48.762 7.11909H49.7435V4.21091C49.7435 3.43479 50.2047 2.95085 50.9306 2.95085C51.6565 2.95085 52.0034 3.34805 52.0034 4.147V7.11909H52.985V3.90046C52.985 2.71802 52.3732 2.05146 51.2638 2.05146C50.5151 2.05146 50.022 2.38474 49.7801 2.93716H49.707V2.14734H48.762V7.11909Z" fill="white"/>
<path d="M54.5309 7.11909H55.5124V0.207031H54.5309V7.11909Z" fill="white"/>
<path d="M59.204 7.21497C60.6558 7.21497 61.5461 6.24253 61.5461 4.63093C61.5461 3.02847 60.6513 2.05146 59.204 2.05146C57.7522 2.05146 56.8574 3.02847 56.8574 4.63093C56.8574 6.24253 57.7477 7.21497 59.204 7.21497ZM59.204 6.34297C58.3503 6.34297 57.8709 5.7175 57.8709 4.63093C57.8709 3.55349 58.3503 2.92346 59.204 2.92346C60.0532 2.92346 60.5371 3.55349 60.5371 4.63093C60.5371 5.71294 60.0532 6.34297 59.204 6.34297Z" fill="white"/>
<path d="M64.4707 6.37493C63.9366 6.37493 63.5485 6.1147 63.5485 5.66728C63.5485 5.229 63.8589 4.99617 64.5438 4.95051L65.7582 4.8729V5.28835C65.7582 5.90469 65.2103 6.37493 64.4707 6.37493ZM64.2196 7.20127C64.8725 7.20127 65.4158 6.91821 65.7125 6.42058H65.7901V7.11909H66.7352V3.72241C66.7352 2.67236 66.0321 2.05146 64.7857 2.05146C63.6581 2.05146 62.8545 2.59932 62.7541 3.45305H63.7037C63.8133 3.10151 64.1922 2.90063 64.7401 2.90063C65.4112 2.90063 65.7582 3.19739 65.7582 3.72241V4.15156L64.4114 4.22917C63.2289 4.30222 62.5624 4.81811 62.5624 5.71294C62.5624 6.62146 63.2609 7.20127 64.2196 7.20127Z" fill="white"/>
<path d="M70.0661 7.20127C70.7509 7.20127 71.3307 6.87712 71.6275 6.33384H71.7051V7.11909H72.6456V0.207031H71.664V2.93716H71.591C71.3216 2.38931 70.7463 2.06516 70.0661 2.06516C68.8106 2.06516 68.0025 3.06042 68.0025 4.63093C68.0025 6.20601 68.8015 7.20127 70.0661 7.20127ZM70.3446 2.94629C71.1664 2.94629 71.6823 3.59915 71.6823 4.6355C71.6823 5.67642 71.1709 6.32014 70.3446 6.32014C69.5137 6.32014 69.0161 5.68555 69.0161 4.63093C69.0161 3.58545 69.5182 2.94629 70.3446 2.94629Z" fill="white"/>
<path d="M79.0107 7.21497C80.4625 7.21497 81.3528 6.24253 81.3528 4.63093C81.3528 3.02847 80.4579 2.05146 79.0107 2.05146C77.5589 2.05146 76.6641 3.02847 76.6641 4.63093C76.6641 6.24253 77.5543 7.21497 79.0107 7.21497ZM79.0107 6.34297C78.157 6.34297 77.6776 5.7175 77.6776 4.63093C77.6776 3.55349 78.157 2.92346 79.0107 2.92346C79.8599 2.92346 80.3438 3.55349 80.3438 4.63093C80.3438 5.71294 79.8599 6.34297 79.0107 6.34297Z" fill="white"/>
<path d="M82.6521 7.11909H83.6336V4.21091C83.6336 3.43479 84.0948 2.95085 84.8207 2.95085C85.5466 2.95085 85.8935 3.34805 85.8935 4.147V7.11909H86.8751V3.90046C86.8751 2.71802 86.2633 2.05146 85.1539 2.05146C84.4052 2.05146 83.9121 2.38474 83.6702 2.93716H83.5971V2.14734H82.6521V7.11909Z" fill="white"/>
<path d="M91.3958 0.910107V2.17017H90.606V2.99651H91.3958V5.80425C91.3958 6.76299 91.8295 7.14648 92.9206 7.14648C93.1124 7.14648 93.295 7.12366 93.4548 7.09626V6.27905C93.3178 6.29275 93.2311 6.30188 93.0804 6.30188C92.5919 6.30188 92.3774 6.07361 92.3774 5.55315V2.99651H93.4548V2.17017H92.3774V0.910107H91.3958Z" fill="white"/>
<path d="M94.7724 7.11909H95.754V4.21548C95.754 3.46218 96.2014 2.95542 97.0049 2.95542C97.6988 2.95542 98.0686 3.35718 98.0686 4.15156V7.11909H99.0502V3.90959C99.0502 2.72715 98.3973 2.05603 97.3382 2.05603C96.5894 2.05603 96.0644 2.38931 95.8224 2.94629H95.7448V0.207031H94.7724V7.11909Z" fill="white"/>
<path d="M102.591 2.88694C103.317 2.88694 103.792 3.3937 103.815 4.17439H101.304C101.358 3.39827 101.865 2.88694 102.591 2.88694ZM103.81 5.77685C103.627 6.16492 103.221 6.37949 102.628 6.37949C101.842 6.37949 101.336 5.82707 101.304 4.95508V4.90029H104.814V4.55789C104.814 2.99651 103.979 2.05146 102.596 2.05146C101.194 2.05146 100.304 3.06042 100.304 4.64919C100.304 6.23796 101.176 7.21497 102.6 7.21497C103.737 7.21497 104.531 6.66711 104.755 5.77685H103.81Z" fill="white"/>
<path d="M16.777 13.2799C16.8009 11.4308 17.7939 9.68114 19.3693 8.71263C18.3754 7.29328 16.7108 6.39337 14.979 6.33918C13.1318 6.1453 11.3411 7.4445 10.3998 7.4445C9.4403 7.4445 7.99105 6.35843 6.43044 6.39054C4.39627 6.45626 2.4999 7.61279 1.51023 9.3912C-0.617168 13.0745 0.96968 18.4876 3.00755 21.4649C4.02714 22.9228 5.21875 24.5513 6.77795 24.4935C8.30371 24.4302 8.87356 23.5206 10.7153 23.5206C12.5399 23.5206 13.0746 24.4935 14.6654 24.4568C16.3026 24.4302 17.3341 22.9924 18.3179 21.5207C19.0505 20.482 19.6142 19.3339 19.9882 18.119C18.0642 17.3052 16.7793 15.3689 16.777 13.2799Z" fill="white"/>
<path d="M13.7722 4.38119C14.6649 3.30956 15.1047 1.93216 14.9982 0.541504C13.6344 0.684746 12.3746 1.33656 11.4698 2.36707C10.5851 3.37394 10.1247 4.7271 10.2118 6.0646C11.5761 6.07865 12.9173 5.44451 13.7722 4.38119Z" fill="white"/>
</svg>
