<svg width="18" height="21" viewBox="0 0 18 21" fill="none" xmlns="http://www.w3.org/2000/svg">
<path d="M3.99145 0.651855H0.652344V3.99096H3.99145V0.651855Z" fill="#D80027"/>
<path d="M10.6702 0.651855H7.33105V3.99096H10.6702V0.651855Z" fill="#D80027"/>
<path d="M17.3489 0.651855H14.0098V3.99096H17.3489V0.651855Z" fill="#D80027"/>
<path d="M7.3303 3.98975H3.99121V7.32883H7.3303V3.98975Z" fill="#D80027"/>
<path d="M14.008 3.98975H10.6689V7.32883H14.008V3.98975Z" fill="#D80027"/>
<path d="M3.99145 7.32764H0.652344V10.6667H3.99145V7.32764Z" fill="#D80027"/>
<path d="M7.3303 10.6694H3.99121V14.0085H7.3303V10.6694Z" fill="#D80027"/>
<path d="M10.6702 7.32764H7.33105V10.6667H10.6702V7.32764Z" fill="#D80027"/>
<path d="M17.3489 7.32764H14.0098V10.6667H17.3489V7.32764Z" fill="#D80027"/>
<path d="M14.008 10.6694H10.6689V14.0085H14.008V10.6694Z" fill="#D80027"/>
<path d="M10.6702 14.0078H7.33105V17.3469H10.6702V14.0078Z" fill="#D80027"/>
<path d="M3.99084 14.0078H0.867188C1.15369 15.2491 1.71694 16.3848 2.48925 17.3469H3.99084V14.0078Z" fill="#D80027"/>
<path d="M14.0098 17.3474H15.5113C16.2838 16.3853 16.8468 15.2495 17.1333 14.0083H14.0098V17.3474Z" fill="#D80027"/>
<path d="M3.99121 17.3462V18.8032C4.96236 19.5339 6.0973 20.0579 7.3303 20.3094V17.3462H3.99121Z" fill="#D80027"/>
<path d="M10.6689 17.3462V20.3094C11.902 20.0581 13.0369 19.5339 14.008 18.8032V17.3462H10.6689Z" fill="#D80027"/>
</svg>
