<svg width="53" height="25" viewBox="0 0 53 25" fill="none" xmlns="http://www.w3.org/2000/svg">
<rect x="1.24267" y="1.09936" width="30.1248" height="22.8129" rx="4.3871" fill="url(#paint0_linear_6536_171425)"/>
<rect x="1.24267" y="1.09936" width="30.1248" height="22.8129" rx="4.3871" fill="url(#paint1_linear_6536_171425)" fill-opacity="0.6"/>
<rect x="1.24267" y="1.09936" width="30.1248" height="22.8129" rx="4.3871" stroke="#7D8076" stroke-width="0.584947"/>
<path d="M15.6846 0.986449C15.7646 1.00783 15.8335 1.06024 15.875 1.13196C15.9163 1.2035 15.9275 1.28846 15.9062 1.36828C15.8849 1.44833 15.8325 1.51723 15.7607 1.55871C13.8781 2.66382 11.1446 6.13057 11.124 9.03918C11.7936 11.3021 11.7936 13.7109 11.124 15.9738C11.1446 18.8795 13.8782 22.3433 15.7607 23.463C15.797 23.4819 15.8291 23.5082 15.8545 23.5402C15.8799 23.5723 15.898 23.6099 15.9082 23.6495C15.9184 23.6891 15.9208 23.7303 15.9141 23.7706C15.9072 23.811 15.8918 23.8498 15.8691 23.8839C15.8416 23.9299 15.8024 23.9686 15.7559 23.9952C15.7093 24.0218 15.6561 24.0359 15.6025 24.0363C15.548 24.0363 15.4946 24.021 15.4482 23.9923C13.4399 22.8084 10.692 19.3469 10.5166 16.2482H1.26074C1.18434 16.2406 1.11316 16.2054 1.06152 16.1486C1.0098 16.0915 0.981445 16.0166 0.981445 15.9396C0.981522 15.8627 1.00987 15.7885 1.06152 15.7316C1.11317 15.6746 1.18427 15.6395 1.26074 15.632L10.5752 15.632C11.1585 13.5874 11.1585 11.4196 10.5752 9.37512L1.26074 9.37512C1.17945 9.37504 1.10144 9.34277 1.04395 9.28528C0.986505 9.22773 0.954102 9.1498 0.954102 9.06848C0.954124 8.98715 0.986471 8.90922 1.04395 8.85168C1.10144 8.79419 1.17945 8.76192 1.26074 8.76184L10.5166 8.76184C10.692 5.6514 13.4516 2.20165 15.4482 1.0177C15.5198 0.97636 15.6047 0.965228 15.6846 0.986449ZM31.3574 8.76184C31.4388 8.76184 31.5176 8.79412 31.5752 8.85168C31.6326 8.90922 31.665 8.98722 31.665 9.06848C31.665 9.14974 31.6326 9.22774 31.5752 9.28528C31.5176 9.34284 31.4388 9.37512 31.3574 9.37512L22.0264 9.37512C21.4431 11.4195 21.4432 13.5866 22.0264 15.631L31.3574 15.631C31.434 15.6384 31.5059 15.6746 31.5576 15.7316C31.6092 15.7885 31.6376 15.8628 31.6377 15.9396C31.6377 16.0164 31.6091 16.0906 31.5576 16.1476C31.5059 16.2046 31.434 16.2407 31.3574 16.2482L22.0938 16.2482C21.9184 19.3469 19.1588 22.823 17.1621 23.9923C17.1156 24.0211 17.0616 24.0364 17.0068 24.0363C16.9534 24.0358 16.9009 24.0217 16.8545 23.9952C16.8079 23.9686 16.7688 23.9299 16.7412 23.8839C16.7189 23.849 16.7042 23.8096 16.6982 23.7687C16.6923 23.7279 16.6948 23.6863 16.7061 23.6466C16.7174 23.6069 16.7371 23.5698 16.7637 23.5382C16.7903 23.5066 16.824 23.4809 16.8613 23.463C18.7439 22.3432 21.4764 18.8793 21.4971 15.9738C20.8174 13.6944 20.8174 11.2658 21.4971 8.98645C21.5148 8.92247 21.5529 8.86588 21.6055 8.82532C21.6582 8.78472 21.7235 8.7626 21.79 8.76184L31.3574 8.76184ZM16.918 0.986449C16.998 0.965068 17.0836 0.976219 17.1553 1.0177C18.576 1.85093 20.2277 3.76312 21.1748 5.65149C21.1975 5.68757 21.2124 5.72834 21.2178 5.77063C21.2231 5.81298 21.2182 5.85597 21.2051 5.89661C21.192 5.93724 21.1706 5.97469 21.1416 6.00598C21.1125 6.03731 21.0767 6.06217 21.0371 6.07825C20.9949 6.10099 20.9473 6.11316 20.8994 6.1134C20.8425 6.1134 20.7867 6.09736 20.7383 6.0675C20.6897 6.03755 20.6505 5.99448 20.625 5.94348C19.5755 3.84745 17.9264 2.20185 16.8418 1.55871C16.7702 1.51722 16.7177 1.44826 16.6963 1.36828C16.6751 1.28841 16.6871 1.20351 16.7285 1.13196C16.77 1.06024 16.8379 1.00783 16.918 0.986449ZM16.3008 2.59973C16.4464 2.59982 16.5865 2.65689 16.6895 2.75989C16.7924 2.86289 16.8495 3.00291 16.8496 3.14856C16.8496 3.2572 16.8181 3.36387 16.7578 3.45422C16.6974 3.54459 16.6111 3.61477 16.5107 3.65637C16.4103 3.69796 16.2999 3.70881 16.1934 3.68762C16.0868 3.66642 15.989 3.61408 15.9121 3.53723C15.8352 3.46037 15.7829 3.36259 15.7617 3.25598C15.7405 3.14938 15.7514 3.03902 15.793 2.9386C15.8346 2.83818 15.9047 2.75191 15.9951 2.69153C16.0855 2.6312 16.1921 2.59973 16.3008 2.59973Z" fill="#7D8076"/>
<path d="M39.2827 10.5043C39.2155 10.4134 39.1669 10.3101 39.1397 10.2004C39.1124 10.0907 39.107 9.97663 39.1238 9.86483C39.1578 9.63903 39.28 9.43596 39.4637 9.3003C39.6474 9.16464 39.8774 9.1075 40.1032 9.14145C40.329 9.1754 40.5321 9.29766 40.6677 9.48133C40.9859 9.90828 41.2345 10.3828 41.4045 10.8874C41.5812 11.411 41.6708 11.9599 41.6697 12.5125C41.6703 13.0636 41.5807 13.6111 41.4045 14.1333C41.2345 14.6379 40.9859 15.1124 40.6677 15.5394C40.5321 15.7231 40.329 15.8453 40.1032 15.8793C39.8774 15.9132 39.6474 15.8561 39.4637 15.7204C39.28 15.5848 39.1578 15.3817 39.1238 15.1559C39.0899 14.9301 39.147 14.7001 39.2827 14.5164C39.4929 14.2366 39.6577 13.9255 39.771 13.5944C39.8915 13.2463 39.9541 12.8808 39.9563 12.5125C39.9577 12.1462 39.8994 11.7822 39.7837 11.4347C39.6673 11.0999 39.4981 10.7858 39.2827 10.5043ZM42.2296 8.90036C42.8997 9.9857 43.2526 11.2369 43.2484 12.5125C43.2542 13.7857 42.9042 15.0353 42.238 16.1204C42.1786 16.2166 42.1387 16.3235 42.1206 16.4351C42.1025 16.5468 42.1066 16.6608 42.1326 16.7709C42.1586 16.8809 42.206 16.9848 42.2721 17.0765C42.3383 17.1682 42.4218 17.246 42.518 17.3055C42.6142 17.3649 42.7212 17.4048 42.8328 17.4229C42.9444 17.441 43.0585 17.4369 43.1685 17.4109C43.2786 17.3849 43.3824 17.3375 43.4741 17.2714C43.5659 17.2052 43.6437 17.1217 43.7031 17.0255C44.5378 15.6689 44.9754 14.1053 44.9661 12.5125C44.976 10.9182 44.5384 9.35317 43.7031 7.99523C43.6437 7.89903 43.5659 7.81548 43.4741 7.74935C43.3824 7.68322 43.2786 7.63581 43.1685 7.60981C43.0585 7.58381 42.9444 7.57975 42.8328 7.59784C42.7212 7.61594 42.6142 7.65584 42.518 7.71527C42.4218 7.7747 42.3383 7.8525 42.2721 7.94422C42.206 8.03594 42.1586 8.13979 42.1326 8.24983C42.1066 8.35988 42.1025 8.47397 42.1206 8.58559C42.1387 8.6972 42.1786 8.80416 42.238 8.90036H42.2296ZM45.366 7.27954C46.2962 8.87263 46.7859 10.6845 46.7847 12.5293C46.7853 14.3727 46.2957 16.1831 45.366 17.7749C45.3088 17.8724 45.2713 17.9803 45.2558 18.0924C45.2403 18.2044 45.247 18.3184 45.2755 18.4279C45.3041 18.5374 45.3539 18.6401 45.4221 18.7303C45.4904 18.8205 45.5758 18.8964 45.6733 18.9536C45.7709 19.0109 45.8788 19.0483 45.9909 19.0638C46.1029 19.0793 46.2169 19.0726 46.3264 19.0441C46.4358 19.0156 46.5386 18.9658 46.6288 18.8975C46.719 18.8292 46.7949 18.7439 46.8521 18.6463C47.939 16.7928 48.5102 14.6822 48.5066 12.5335C48.5138 10.3769 47.944 8.25769 46.8563 6.39546C46.7391 6.19783 46.5481 6.05487 46.3255 5.99803C46.1029 5.94118 45.8667 5.97511 45.6691 6.09235C45.4715 6.20958 45.3285 6.40053 45.2717 6.62317C45.2148 6.84581 45.2488 7.08192 45.366 7.27954ZM48.4898 5.63768C49.6863 7.73712 50.3132 10.1129 50.3084 12.5293C50.3127 14.9444 49.6857 17.3186 48.4898 19.4167C48.4345 19.5149 48.3991 19.6229 48.3855 19.7347C48.372 19.8466 48.3806 19.9599 48.4109 20.0684C48.4412 20.1769 48.4926 20.2784 48.5621 20.367C48.6316 20.4556 48.7179 20.5297 48.816 20.585C48.9142 20.6403 49.0222 20.6757 49.134 20.6892C49.2459 20.7027 49.3592 20.6941 49.4677 20.6638C49.5762 20.6335 49.6777 20.5821 49.7663 20.5126C49.8549 20.4431 49.929 20.3568 49.9843 20.2587C51.3279 17.8998 52.0331 15.2314 52.0303 12.5167C52.0365 9.79489 51.3312 7.11874 49.9843 4.75359C49.8726 4.55541 49.6868 4.40969 49.4677 4.34851C49.2486 4.28732 49.0142 4.31567 48.816 4.42733C48.6178 4.53898 48.4721 4.72479 48.4109 4.94388C48.3498 5.16297 48.3781 5.39739 48.4898 5.59558" fill="white"/>
<defs>
<linearGradient id="paint0_linear_6536_171425" x1="-1.97454" y1="0.806884" x2="34.1459" y2="24.2048" gradientUnits="userSpaceOnUse">
<stop stop-color="#DDD9D6"/>
<stop offset="0.212761" stop-color="#8A868C"/>
<stop offset="0.548384" stop-color="#F2F3F3" stop-opacity="0.8"/>
<stop offset="0.914316" stop-color="#807C80"/>
<stop offset="1" stop-color="#A6A8AB"/>
</linearGradient>
<linearGradient id="paint1_linear_6536_171425" x1="0.950195" y1="0.806885" x2="29.8319" y2="22.7424" gradientUnits="userSpaceOnUse">
<stop stop-color="#F0F1EF"/>
<stop offset="1" stop-color="#C4C0B3"/>
</linearGradient>
</defs>
</svg>
