<svg width="16" height="16" viewBox="0 0 16 16" fill="none" xmlns="http://www.w3.org/2000/svg">
<g clip-path="url(#clip0_6479_171898)">
<path d="M11.8058 3.01705C11.6278 3.01705 11.4538 3.07067 11.3058 3.17114C11.1578 3.27159 11.0424 3.41439 10.9743 3.58145C10.9062 3.74852 10.8884 3.93235 10.9231 4.10971C10.9578 4.28706 11.0435 4.44997 11.1694 4.57783C11.2953 4.7057 11.4556 4.79278 11.6302 4.82805C11.8048 4.86333 11.9857 4.84523 12.1502 4.77603C12.3147 4.70683 12.4552 4.58964 12.5541 4.43928C12.653 4.28894 12.7058 4.11217 12.7058 3.93134C12.7058 3.68885 12.611 3.4563 12.4422 3.28484C12.2734 3.11338 12.0445 3.01705 11.8058 3.01705ZM15.2558 4.86086C15.2412 4.22871 15.1247 3.60326 14.9108 3.00943C14.7201 2.50134 14.4233 2.04126 14.0408 1.66086C13.6694 1.27033 13.2155 0.970711 12.7133 0.784669C12.1303 0.560792 11.5139 0.439686 10.8908 0.426574C10.0958 0.380859 9.84078 0.380859 7.80078 0.380859C5.76078 0.380859 5.50578 0.380859 4.71078 0.426574C4.08764 0.439686 3.47129 0.560792 2.88828 0.784669C2.38704 0.972593 1.93348 1.27195 1.56078 1.66086C1.17635 2.03814 0.881413 2.49929 0.698281 3.00943C0.477902 3.60169 0.358689 4.22783 0.345781 4.86086C0.300781 5.66848 0.300781 5.92753 0.300781 7.99991C0.300781 10.0723 0.300781 10.3313 0.345781 11.139C0.358689 11.7719 0.477902 12.3982 0.698281 12.9904C0.881413 13.5006 1.17635 13.9617 1.56078 14.339C1.93348 14.7278 2.38704 15.0273 2.88828 15.2151C3.47129 15.439 4.08764 15.5601 4.71078 15.5732C5.50578 15.619 5.76078 15.619 7.80078 15.619C9.84078 15.619 10.0958 15.619 10.8908 15.5732C11.5139 15.5601 12.1303 15.439 12.7133 15.2151C13.2155 15.0291 13.6694 14.7295 14.0408 14.339C14.4249 13.96 14.722 13.4995 14.9108 12.9904C15.1247 12.3966 15.2412 11.7711 15.2558 11.139C15.2558 10.3313 15.3008 10.0723 15.3008 7.99991C15.3008 5.92753 15.3008 5.66848 15.2558 4.86086ZM13.9058 11.0475C13.9003 11.5312 13.8141 12.0103 13.6508 12.4647C13.531 12.7963 13.3387 13.0958 13.0883 13.3409C12.845 13.5927 12.5507 13.7876 12.2258 13.9123C11.7786 14.0782 11.3069 14.1658 10.8308 14.1713C10.0808 14.2094 9.80328 14.217 7.83078 14.217C5.85828 14.217 5.58078 14.2171 4.83078 14.1713C4.33645 14.1807 3.84422 14.1034 3.37578 13.9428C3.06512 13.8118 2.7843 13.6173 2.55078 13.3713C2.30185 13.1265 2.11191 12.8267 1.99578 12.4951C1.81268 12.0343 1.71111 11.5442 1.69578 11.0475C1.69578 10.2856 1.65078 10.0037 1.65078 7.99991C1.65078 5.9961 1.65078 5.71419 1.69578 4.95229C1.69914 4.45786 1.78799 3.96787 1.95828 3.50467C2.09032 3.18308 2.29298 2.89641 2.55078 2.66657C2.77864 2.40461 3.06025 2.19655 3.37578 2.05705C3.83294 1.88946 4.31478 1.80187 4.80078 1.798C5.55078 1.798 5.82828 1.75229 7.80078 1.75229C9.77328 1.75229 10.0508 1.75229 10.8008 1.798C11.2769 1.80355 11.7486 1.89115 12.1958 2.05705C12.5366 2.18555 12.8425 2.39446 13.0883 2.66657C13.3341 2.90062 13.5261 3.18675 13.6508 3.50467C13.8175 3.96862 13.9038 4.45841 13.9058 4.95229C13.9433 5.71419 13.9508 5.9961 13.9508 7.99991C13.9508 10.0037 13.9433 10.2856 13.9058 11.0475ZM7.80078 4.09134C7.04014 4.09284 6.297 4.32336 5.66527 4.75375C5.03354 5.18414 4.54157 5.79511 4.2515 6.50943C3.96145 7.22376 3.88632 8.00943 4.03562 8.76707C4.18493 9.52478 4.55196 10.2205 5.09034 10.7664C5.62872 11.3122 6.31429 11.6837 7.06043 11.8339C7.80656 11.9841 8.57981 11.9063 9.28241 11.6102C9.98501 11.3142 10.5855 10.8132 11.0079 10.1706C11.4303 9.52798 11.6558 8.77263 11.6558 7.99991C11.6568 7.4857 11.5577 6.97637 11.3642 6.50121C11.1708 6.02605 10.8867 5.59443 10.5285 5.23118C10.1702 4.86794 9.74471 4.58023 9.27663 4.38462C8.80848 4.189 8.30696 4.08932 7.80078 4.09134ZM7.80078 10.5371C7.30682 10.5371 6.82396 10.3883 6.41324 10.1095C6.00254 9.83069 5.68242 9.43442 5.49339 8.9708C5.30436 8.50726 5.25491 7.99709 5.35127 7.50494C5.44763 7.01278 5.6855 6.5607 6.03478 6.20587C6.38406 5.85105 6.82907 5.60941 7.31354 5.51151C7.79801 5.41362 8.30021 5.46386 8.75651 5.65589C9.21288 5.84792 9.60296 6.17312 9.87738 6.59035C10.1518 7.00758 10.2983 7.49811 10.2983 7.99991C10.2983 8.33309 10.2337 8.66299 10.1082 8.9708C9.98268 9.27869 9.79871 9.55831 9.56681 9.79396C9.33483 10.0295 9.05958 10.2164 8.75651 10.3439C8.45351 10.4714 8.12876 10.5371 7.80078 10.5371Z" fill="white"/>
</g>
<defs>
<clipPath id="clip0_6479_171898">
<rect width="15" height="16" fill="white" transform="translate(0.300781)"/>
</clipPath>
</defs>
</svg>
