<svg width="159" height="33" viewBox="0 0 159 33" fill="none" xmlns="http://www.w3.org/2000/svg">
<path d="M28.9017 17.7441C28.8486 17.2923 28.6358 16.8936 28.2636 16.6278C27.918 16.362 27.4659 16.2291 27.0405 16.2823C26.5885 16.3355 26.1897 16.5481 25.9238 16.9202L19.2766 25.4517C18.6119 26.3022 17.6547 26.8338 16.5912 26.9401C15.5277 27.073 14.4907 26.7541 13.6399 26.0896C11.9648 24.7341 11.6989 22.2358 13.0549 20.5348L19.7021 12.0298C19.968 11.6843 20.1009 11.2325 20.0477 10.8072C19.9945 10.3554 19.7818 9.95672 19.4096 9.69094C19.0639 9.42516 18.6119 9.29227 18.1865 9.34543C17.7345 9.39858 17.3357 9.61121 17.0698 9.9833L10.396 18.5149C9.73133 19.3654 8.77414 19.8969 7.7106 20.0032C6.64705 20.1361 5.61009 19.8172 4.75926 19.1527C3.08417 17.7973 2.81829 15.2989 4.17431 13.5979L4.8922 12.6943C4.91879 12.6677 4.94538 12.6411 4.94538 12.6145L11.0342 4.80058C11.885 3.71087 13.0549 2.8338 14.1982 2.4617L13.1081 1.61121C11.9116 0.680974 10.1833 0.787286 9.11979 1.90357C8.88049 2.16935 8.6412 2.43513 8.4019 2.72749L8.18919 2.99327L1.56862 11.4983C0.345546 13.0398 -0.186227 15.0066 0.0530706 16.9733C0.292368 18.9135 1.24956 20.6411 2.76511 21.8105C4.22749 22.9534 6.0621 23.485 7.89672 23.3255L8.77414 23.2458L8.90708 24.1228C9.19956 25.9567 10.1567 27.6046 11.6191 28.7474C12.6029 29.5182 13.7994 30.0232 15.0225 30.2092C15.6606 30.2889 16.3253 30.3155 16.9634 30.2358C18.9576 29.9966 20.7124 29.0132 21.9355 27.4451L28.5561 18.9933C28.8486 18.6212 28.9549 18.1959 28.9017 17.7441Z" fill="white"/>
<path d="M5.61019 16.2556C5.66337 16.7075 5.87607 17.1061 6.24831 17.3719C6.59397 17.6377 7.04597 17.7706 7.47139 17.7174C7.9234 17.6643 8.32223 17.4516 8.58811 17.0795L15.2619 8.54798C15.9266 7.69749 16.8838 7.16592 17.9473 7.05961C19.0109 6.92672 20.0478 7.24566 20.8986 7.91011C22.5737 9.26559 22.8396 11.7639 21.4836 13.4649L14.8364 21.9699C14.5706 22.3154 14.4376 22.7673 14.4908 23.1925C14.544 23.6443 14.7567 24.043 15.1289 24.3088C15.4746 24.5746 15.9266 24.7075 16.352 24.6543C16.804 24.6011 17.2028 24.3885 17.4687 24.0164L24.1425 15.4849C24.8072 14.6344 25.7644 14.1028 26.8279 13.9965C27.8915 13.8636 28.9284 14.1825 29.7793 14.847C31.4543 16.2025 31.7202 18.7008 30.3642 20.4018L29.6463 21.3055C29.6197 21.332 29.5931 21.3586 29.5931 21.3852L23.4777 29.1726C22.6269 30.2623 21.457 31.1393 20.3137 31.5114L21.4038 32.3619C22.6003 33.2922 24.3286 33.1859 25.3921 32.0696C25.6314 31.8038 25.8707 31.538 26.11 31.2457L26.3227 30.9799L32.9699 22.4749C34.193 20.9334 34.7247 18.9666 34.4854 16.9998C34.2461 15.0596 33.2889 13.332 31.7734 12.1626C30.311 11.0197 28.4764 10.4882 26.6418 10.6477L25.7644 10.7274L25.6314 9.85031C25.3389 8.01642 24.3818 6.36858 22.9194 5.22572C21.9356 4.45496 20.7391 3.94998 19.516 3.76393C18.8779 3.6842 18.2132 3.65762 17.5751 3.73735C15.5809 3.97655 13.8261 4.95994 12.603 6.52805L5.95584 15.0065C5.68995 15.3785 5.55701 15.8038 5.61019 16.2556Z" fill="white"/>
<path d="M41.0264 11.073H44.8551L46.9822 19.4185L47.2215 20.4019L47.5406 19.4185L49.907 11.073H53.071L55.4374 19.4185L55.7299 20.4019L55.9958 19.4185L58.1229 11.073H61.9516L57.6974 24.9733H53.9484L51.4225 16.8139L48.7371 24.9733H45.2008L41.0264 11.073Z" fill="white"/>
<path d="M75.3789 18.0097C75.3789 14.3685 72.7998 11.3652 69.423 10.807C69.3964 10.807 69.3964 10.807 69.3698 10.807C69.2635 10.7805 69.1571 10.7805 69.0774 10.7539C69.0242 10.7539 68.9976 10.7539 68.9444 10.7539C68.8646 10.7539 68.7849 10.7273 68.7317 10.7273C68.5988 10.7273 68.4658 10.7273 68.3595 10.7273C64.4775 10.7273 61.3135 13.9964 61.3135 18.0097C61.3135 21.7838 64.0787 24.8668 67.615 25.2389C67.7213 25.2389 67.8011 25.2655 67.9075 25.2655C67.934 25.2655 67.934 25.2655 67.9606 25.2655C68.0936 25.2655 68.1999 25.2655 68.3329 25.2655C68.4392 25.2655 68.5722 25.2655 68.6785 25.2655C68.7849 25.2655 68.9178 25.2389 69.0242 25.2389H69.0508C71.7362 24.9466 73.9697 23.1127 74.9003 20.5878H71.4703H70.912C70.3004 21.3585 69.3698 21.8369 68.3329 21.8369C66.711 21.8369 65.3549 20.6409 65.0891 19.0994H75.2725C75.3523 18.7539 75.3789 18.3818 75.3789 18.0097ZM65.1156 16.6276C65.3815 15.0595 66.7376 13.8901 68.3595 13.8901C69.9814 13.8901 71.3374 15.0861 71.6033 16.6276H65.1156Z" fill="white"/>
<path d="M83.9933 10.7805C83.0893 10.7805 82.2119 10.9932 81.4674 11.4982C81.042 11.7905 80.6697 12.1094 80.2975 12.455V11.7374V9.07955V5.73071H76.708V18.0098V24.9732H80.2975V24.2822V23.4583C80.3506 23.5114 80.4038 23.5646 80.4304 23.6178C80.8558 24.0696 81.3344 24.3885 81.813 24.6277C83.1956 25.2922 84.7644 25.3188 86.2267 24.8669C89.1515 23.9367 91.2786 21.2789 91.2786 18.0364C91.2786 13.9965 88.0082 10.7805 83.9933 10.7805ZM83.9933 21.651C81.9991 21.651 80.3772 20.0297 80.3772 18.0364C80.3772 16.043 81.9991 14.4217 83.9933 14.4217C85.9874 14.4217 87.6093 16.043 87.6093 18.0364C87.6093 20.0297 85.9874 21.651 83.9933 21.651Z" fill="white"/>
<path d="M99.1222 10.7273C95.1073 10.7273 91.8369 13.9964 91.8369 18.0097C91.8369 22.023 95.1073 25.2921 99.1222 25.2921C103.137 25.2921 106.407 22.023 106.407 18.0097C106.407 13.9964 103.137 10.7273 99.1222 10.7273ZM99.1222 21.6509C97.128 21.6509 95.5062 20.0296 95.5062 18.0363C95.5062 16.0429 97.128 14.4216 99.1222 14.4216C101.116 14.4216 102.738 16.0429 102.738 18.0363C102.738 20.0296 101.116 21.6509 99.1222 21.6509Z" fill="white"/>
<path d="M114.996 14.3952V11.3122H111.991V7.72412H108.296V11.2856H105.982V14.3686H108.296V20.4284C108.296 22.2357 108.694 23.4583 109.545 24.2025C110.316 24.8936 111.46 25.2125 113.082 25.2125C113.613 25.2125 114.225 25.1859 114.89 25.1062H114.996V21.6776H114.863C113.64 21.7573 112.709 21.7573 112.311 21.3587C112.098 21.1726 112.018 20.8537 112.018 20.4284V14.3952H114.996Z" fill="white"/>
<path d="M123.823 10.754C122.095 10.754 120.792 11.3387 119.941 12.5347V5.73071H116.006V24.9732H119.941V17.6643C119.941 16.5746 120.18 15.7241 120.685 15.1394C121.191 14.5546 121.829 14.2623 122.626 14.2623C123.344 14.2623 123.876 14.4749 124.248 14.9001C124.621 15.3254 124.807 15.9367 124.807 16.7606V24.9467H128.742V15.9101C128.742 14.3154 128.316 13.0397 127.466 12.1095C126.641 11.2324 125.418 10.754 123.823 10.754Z" fill="white"/>
<path d="M130.577 24.6012C130.125 24.1494 129.912 23.5912 129.912 22.9268C129.912 22.2623 130.125 21.7042 130.577 21.279C131.029 20.8537 131.587 20.6145 132.225 20.6145C132.863 20.6145 133.422 20.8271 133.874 21.279C134.326 21.7308 134.565 22.2623 134.565 22.9268C134.565 23.5912 134.326 24.1228 133.874 24.5746C133.422 25.0265 132.863 25.2391 132.225 25.2391C131.561 25.2657 131.029 25.053 130.577 24.6012Z" fill="white"/>
<path d="M143.472 11.073V19.6046C143.472 20.8006 142.515 21.7574 141.319 21.7574C140.122 21.7574 139.165 20.8006 139.165 19.6046V11.073H135.549V19.5248C135.549 22.7142 138.128 25.2657 141.292 25.2657C144.483 25.2657 147.035 22.6876 147.035 19.5248V11.073H143.472Z" fill="white"/>
<path d="M148.205 20.7473H151.715C151.715 21.3054 151.901 21.7307 152.247 22.023C152.592 22.3154 153.071 22.4483 153.709 22.4483C154.241 22.4483 154.666 22.342 154.985 22.1028C155.278 21.8636 155.437 21.5446 155.437 21.1194C155.437 20.6676 155.278 20.322 154.932 20.0563C154.586 19.7905 153.922 19.5779 152.938 19.3918C151.422 19.126 150.306 18.6742 149.561 18.0098C148.843 17.3453 148.471 16.4416 148.471 15.2988C148.471 14.023 148.923 12.9333 149.8 12.0828C150.704 11.2058 151.954 10.7805 153.603 10.7805C155.065 10.7805 156.288 11.1792 157.219 12.0031C158.149 12.8005 158.654 13.8636 158.708 15.1925H155.171C155.145 14.1294 154.613 13.5978 153.576 13.5978C153.097 13.5978 152.699 13.7307 152.433 13.9699C152.167 14.2091 152.034 14.5546 152.034 14.9533C152.034 15.3785 152.193 15.724 152.539 15.9632C152.885 16.2024 153.523 16.3885 154.48 16.548C156.128 16.8137 157.272 17.2921 157.963 17.9832C158.654 18.6742 159 19.6044 159 20.7739C159 21.5446 158.867 22.2091 158.575 22.8204C158.282 23.4051 157.883 23.8835 157.405 24.229C156.9 24.5745 156.341 24.8669 155.703 25.0264C155.065 25.2124 154.374 25.2921 153.629 25.2921C151.954 25.2921 150.625 24.8935 149.694 24.0696C148.737 23.2456 148.258 22.1559 148.205 20.7473Z" fill="white"/>
</svg>
