<svg width="126" height="57" viewBox="0 0 126 57" fill="none" xmlns="http://www.w3.org/2000/svg">
<g clip-path="url(#clip0_8229_190)">
<path d="M18.8712 3.92128C12.3267 2.1677 5.62555 5.96759 3.89897 12.4113L0.773531 24.0756L12.6203 27.2499C19.1648 29.0035 25.8659 25.2036 27.5925 18.7599L30.718 7.09562L18.8712 3.92128ZM4.39165 20.0463L6.32609 12.8268C7.67483 7.79328 12.9116 4.82379 18.0239 6.19362L25.3563 8.15833L26.0515 8.34461L23.0582 10.0419L15.2531 7.95056L14.6282 10.2825L20.0603 11.738L14.0726 15.1373L8.63583 13.6805L8.01099 16.0124L11.0746 16.8333L4.20823 20.7308L4.39165 20.0463ZM27.0999 11.1249L25.1654 18.3444C23.8167 23.3779 18.5799 26.3474 13.4676 24.9776L6.13523 23.0128L5.44 22.8266L12.3052 18.9337L11.4969 21.9501L13.8654 22.5848L15.2985 17.2363L21.285 13.8417L19.8519 19.1901L22.2296 19.8272L24.2888 12.1423L27.282 10.4449L27.0999 11.1249ZM49.4109 16.0515C50.1544 16.7252 50.6194 17.5297 50.806 18.4649C50.9925 19.4002 50.8853 20.3937 50.4771 21.4534C50.069 22.513 49.4624 23.3678 48.6596 24.0282C47.8567 24.6886 46.9185 25.1122 45.8405 25.2978C44.7671 25.4846 43.6365 25.4213 42.45 25.1034L39.2519 24.2465L37.204 29.572L33.649 28.6194L39.7681 12.7536L46.5211 14.5631C47.7077 14.881 48.6721 15.3791 49.4109 16.0515ZM43.2187 22.179C44.0576 22.4038 44.8035 22.364 45.4622 22.0563C46.1209 21.7486 46.594 21.2248 46.877 20.4838C47.1684 19.7304 47.1527 19.0659 46.8334 18.4961C46.5141 17.9263 45.9345 17.5313 45.0955 17.3066L42.2265 16.5378L40.3451 21.409L43.2187 22.179ZM59.1919 35.4636L56.2302 34.6701L56.5736 32.9621C55.164 33.8659 53.6724 34.1119 52.1105 33.6933C51.0352 33.4052 50.1662 32.9034 49.4976 32.1911C48.8291 31.4788 48.4324 30.6046 48.2972 29.5706C48.1665 28.5378 48.3266 27.4215 48.7911 26.2253C49.2462 25.0462 49.8904 24.0694 50.7192 23.2937C51.548 22.518 52.4921 21.9982 53.5409 21.7363C54.5897 21.4744 55.6534 21.4904 56.7287 21.7785C57.5491 21.9983 58.2167 22.3435 58.7361 22.8153C59.2508 23.2858 59.6133 23.8427 59.82 24.4801L60.7461 23.0262L63.6846 23.8135L59.1919 35.4636ZM58.1367 28.7784C58.5268 27.7677 58.571 26.8796 58.2741 26.1153C57.9771 25.351 57.3768 24.8477 56.4776 24.6068C55.5784 24.3659 54.7327 24.4816 53.9497 24.9566C53.1667 25.4315 52.5802 26.1744 52.1902 27.185C51.8038 28.182 51.7679 29.0577 52.0765 29.8154C52.3852 30.573 52.9914 31.073 53.8906 31.3139C54.7898 31.5548 55.6296 31.4424 56.4009 30.9741C57.1722 30.5057 57.755 29.7766 58.1367 28.7784ZM67.5243 34.0671L73.6404 26.4812L77.2185 27.4399L66.6846 39.2957C66.1275 39.929 65.6456 40.4113 65.2376 40.7471C64.831 41.0783 64.3956 41.2942 63.9268 41.3936C63.4627 41.4942 62.9201 41.4614 62.3037 41.2962L59.0592 40.4268L60.0993 37.7317L61.9486 38.2272C62.3751 38.3415 62.7086 38.3575 62.9504 38.2707C63.1922 38.1838 63.4776 37.9717 63.7996 37.6227L64.4064 36.9342L64.2362 23.9613L67.7911 24.9139L67.5243 34.0671ZM94.8084 37.954L92.3345 44.3686L88.9928 43.4732L91.5111 36.9482C92.1937 35.1796 91.8298 34.1087 90.4255 33.7324C89.6978 33.5375 89.0187 33.6245 88.3871 33.9982C87.7554 34.3718 87.2705 34.9951 86.931 35.8726L84.4633 42.2644L81.1215 41.369L83.6399 34.844C84.3224 33.0754 83.9539 32.0033 82.531 31.622C81.8034 31.427 81.1265 31.5245 80.4958 31.9131C79.8651 32.3017 79.3848 32.9262 79.0536 33.7912L76.5966 40.1615L73.2549 39.266L77.7583 27.5944L80.6737 28.3755L80.4222 29.9075C81.0226 29.5206 81.662 29.2664 82.3357 29.1437C83.0082 29.0255 83.7762 29.0699 84.6327 29.2847C86.3708 29.7504 87.3254 30.7301 87.4952 32.2283C88.1799 31.7123 88.9494 31.3805 89.799 31.2315C90.6487 31.0825 91.5341 31.1339 92.4471 31.3786C93.7588 31.73 94.6635 32.4322 95.1672 33.4818C95.6767 34.5281 95.5547 36.0215 94.8084 37.954ZM101.695 33.9985L97.198 45.6473L93.8562 44.7519L98.349 33.1018L101.695 33.9985ZM101.714 28.589C100.639 28.3009 99.5422 28.9266 99.2598 29.9808C98.9773 31.0349 99.6188 32.1263 100.689 32.4132C101.765 32.7013 102.861 32.0756 103.144 31.0215C103.426 29.9673 102.785 28.8759 101.714 28.589ZM113.242 42.9665L110.803 49.2878L107.461 48.3924L109.831 42.2532C110.608 40.2456 110.171 39.0184 108.531 38.5788C107.664 38.3465 106.882 38.4453 106.195 38.8775C105.508 39.3096 104.967 40.0304 104.576 41.0457L102.273 47.0072L98.9315 46.1118L103.424 34.4617L106.34 35.2429L106.088 36.7749C106.707 36.3929 107.371 36.1404 108.078 36.0218C108.786 35.9032 109.585 35.9608 110.465 36.1968C111.888 36.578 112.894 37.3121 113.485 38.4048C114.077 39.4975 113.992 41.0203 113.242 42.9665ZM114.541 40.4144L115.581 37.7192L117.598 38.2595L118.855 34.9964L122.196 35.8918L120.939 39.1549L123.711 39.8976L122.671 42.5927L119.899 41.85L117.932 46.9478C117.773 47.3552 117.753 47.6725 117.865 47.9031C117.977 48.1337 118.245 48.3032 118.671 48.4174L120.4 48.8807L119.36 51.5758L116.588 50.8331C114.266 50.2109 113.534 48.7919 114.388 46.5656L116.555 40.9442L114.544 40.4052L114.541 40.4144Z" fill="white"/>
</g>
<defs>
<clipPath id="clip0_8229_190">
<rect width="122.839" height="24.8602" fill="white" transform="translate(7.02441 0.746948) rotate(15)"/>
</clipPath>
</defs>
</svg>
