<svg width="22" height="22" viewBox="0 0 22 22" fill="none" xmlns="http://www.w3.org/2000/svg">
<path d="M11 0.000366211C4.92332 0.000366211 0 4.92368 0 11.0004V22.0004H11C17.0767 22.0004 22 17.077 22 11.0004V0.000366211H11ZM2.19914 17.6021V10.7938C2.19914 6.04692 6.04656 2.19951 10.7934 2.19951H17.6017H18.2473L16.0481 4.39864H8.80086V6.59778H13.8447L9.4464 11.0004H4.39828V13.1995H7.24296L2.19914 18.2476V17.6021ZM19.8009 4.39864V11.2069C19.8009 15.9538 15.9534 19.8012 11.2066 19.8012H4.39828H3.75274L8.79656 14.7574V17.6021H10.9957V12.5583L15.394 8.15999V13.2038H17.6017V5.95655L19.8009 3.75741V4.39864Z" fill="white"/>
</svg>
