<svg width="141" height="20" viewBox="0 0 141 20" fill="none" xmlns="http://www.w3.org/2000/svg">
<path d="M26.6611 6.66667H39.7533V0H26.6611V6.66667Z" fill="url(#paint0_linear_6423_167428)"/>
<path d="M0.5 0V6.66667H7.03442V20H13.5688V6.66667H20.1266V0H0.5Z" fill="url(#paint1_linear_6423_167428)"/>
<path d="M20.127 20.0001H39.7536V13.3334H26.6614V6.66675H20.127V20.0001Z" fill="url(#paint2_linear_6423_167428)"/>
<path d="M56.4392 5.03491H46.8242V7.8088H50.0448V16.5034H53.2186V7.8088H56.4392V5.03491Z" fill="url(#paint3_linear_6423_167428)"/>
<path d="M60.0563 7.71558C57.7926 7.71558 56.1123 9.23073 56.1123 12.2144C56.1123 14.8484 57.5359 16.6899 60.1263 16.6899C61.4799 16.6899 62.5767 16.3403 63.6269 15.7109L62.5067 13.8228C61.6432 14.2657 61.0365 14.4289 60.2663 14.4289C59.4729 14.4289 58.9128 14.0093 58.7961 13.0536H63.8603C63.8836 12.9137 63.8836 12.7272 63.8836 12.4708C63.9069 9.27735 62.4367 7.71558 60.0563 7.71558ZM58.8428 11.2121C58.9361 10.3496 59.3095 9.90672 59.9863 9.90672C60.8498 9.90672 61.1531 10.3496 61.2932 11.2121H58.8428Z" fill="url(#paint4_linear_6423_167428)"/>
<path d="M69.5086 14.289C68.7152 14.289 68.2951 13.5897 68.2951 12.2144C68.2951 10.8624 68.6685 10.0932 69.4386 10.0932C70.0687 10.0932 70.3488 10.4428 70.7688 11.2121L72.7992 9.67362C72.0524 8.4615 71.1189 7.71558 69.4853 7.71558C66.7315 7.71558 65.3779 9.53376 65.3779 12.1678C65.3779 15.0582 66.8948 16.6666 69.4153 16.6666C70.9322 16.6666 71.8657 16.0839 72.8692 14.6153L71.0022 13.1468C70.4421 13.986 70.0687 14.289 69.5086 14.289Z" fill="url(#paint5_linear_6423_167428)"/>
<path d="M79.683 7.7157C78.6562 7.7157 78.0494 8.06535 77.5127 8.46162V4.56885L74.5488 5.75766V16.5269H77.5127V11.6085C77.5127 10.5362 77.8861 10.2332 78.5162 10.2332C79.1229 10.2332 79.4963 10.5362 79.4963 11.6318V16.5269H82.4602V11.2588C82.4602 8.99775 81.55 7.7157 79.683 7.7157Z" fill="url(#paint6_linear_6423_167428)"/>
<path d="M89.5779 13.916C88.201 13.916 87.6409 12.5174 87.6409 10.7691C87.6409 8.95095 88.2244 7.62228 89.5546 7.62228C90.6048 7.62228 91.0015 8.29827 91.3982 9.37053L94.292 8.22834C93.4986 6.06051 92.3784 4.84839 89.5546 4.84839C86.4741 4.84839 84.3037 7.08615 84.3037 10.7691C84.3037 14.1724 86.124 16.6899 89.5312 16.6899C92.2617 16.6899 93.5452 15.2213 94.3154 13.7295L91.6316 12.3076C91.0015 13.3799 90.5814 13.916 89.5779 13.916Z" fill="url(#paint7_linear_6423_167428)"/>
<path d="M99.0761 8.53143V7.90206H96.1123V16.5035H99.0761V11.8181C99.0761 10.7692 99.5195 10.4195 100.243 10.4195C100.826 10.4195 101.246 10.7226 101.62 11.1421L102.32 8.08854C101.97 7.87875 101.55 7.71558 100.92 7.71558C100.15 7.71558 99.5662 8.04192 99.0761 8.53143Z" fill="url(#paint8_linear_6423_167428)"/>
<path d="M108.645 12.8205C108.645 13.8928 108.271 14.1958 107.665 14.1958C107.058 14.1958 106.685 13.8928 106.685 12.7972V7.9021H103.721V13.1702C103.721 15.4312 104.631 16.69 106.521 16.69C107.525 16.69 108.155 16.3403 108.668 15.9441V16.5268H111.632V7.92541H108.668L108.645 12.8205Z" fill="url(#paint9_linear_6423_167428)"/>
<path d="M118.89 7.71558C117.863 7.71558 117.256 8.06523 116.72 8.4615V7.87875H113.756V16.4801H116.72V11.5617C116.72 10.4895 117.093 10.1864 117.723 10.1864C118.33 10.1864 118.703 10.4895 118.703 11.585V16.4801H121.667V11.2121C121.667 8.99763 120.78 7.71558 118.89 7.71558Z" fill="url(#paint10_linear_6423_167428)"/>
<path d="M127.548 14.289C126.754 14.289 126.334 13.5897 126.334 12.2144C126.334 10.8624 126.707 10.0932 127.454 10.0932C128.084 10.0932 128.364 10.4428 128.784 11.2121L130.815 9.67362C130.068 8.4615 129.135 7.71558 127.501 7.71558C124.747 7.71558 123.394 9.53376 123.394 12.1678C123.394 15.0582 124.91 16.6666 127.431 16.6666C128.948 16.6666 129.881 16.0839 130.885 14.6153L129.018 13.1468C128.504 13.986 128.108 14.289 127.548 14.289Z" fill="url(#paint11_linear_6423_167428)"/>
<path d="M137.723 7.7157C136.696 7.7157 136.089 8.06535 135.553 8.46162V4.56885L132.589 5.75766V16.5269H135.553V11.6085C135.553 10.5362 135.926 10.2332 136.556 10.2332C137.163 10.2332 137.536 10.5362 137.536 11.6318V16.5269H140.5V11.2588C140.524 8.99775 139.613 7.7157 137.723 7.7157Z" fill="url(#paint12_linear_6423_167428)"/>
<defs>
<linearGradient id="paint0_linear_6423_167428" x1="33.2072" y1="0" x2="33.2072" y2="6.66667" gradientUnits="userSpaceOnUse">
<stop stop-color="#7B7D81"/>
<stop offset="1" stop-color="white"/>
</linearGradient>
<linearGradient id="paint1_linear_6423_167428" x1="10.3133" y1="0" x2="10.3133" y2="20" gradientUnits="userSpaceOnUse">
<stop stop-color="#7B7D81"/>
<stop offset="1" stop-color="white"/>
</linearGradient>
<linearGradient id="paint2_linear_6423_167428" x1="29.9403" y1="6.66675" x2="29.9403" y2="20.0001" gradientUnits="userSpaceOnUse">
<stop stop-color="#7B7D81"/>
<stop offset="1" stop-color="white"/>
</linearGradient>
<linearGradient id="paint3_linear_6423_167428" x1="51.6317" y1="5.03491" x2="51.6317" y2="16.5034" gradientUnits="userSpaceOnUse">
<stop stop-color="#7B7D81"/>
<stop offset="1" stop-color="white"/>
</linearGradient>
<linearGradient id="paint4_linear_6423_167428" x1="59.9981" y1="7.71558" x2="59.9981" y2="16.6899" gradientUnits="userSpaceOnUse">
<stop stop-color="#7B7D81"/>
<stop offset="1" stop-color="white"/>
</linearGradient>
<linearGradient id="paint5_linear_6423_167428" x1="69.1236" y1="7.71558" x2="69.1236" y2="16.6666" gradientUnits="userSpaceOnUse">
<stop stop-color="#7B7D81"/>
<stop offset="1" stop-color="white"/>
</linearGradient>
<linearGradient id="paint6_linear_6423_167428" x1="78.5045" y1="4.56885" x2="78.5045" y2="16.5269" gradientUnits="userSpaceOnUse">
<stop stop-color="#7B7D81"/>
<stop offset="1" stop-color="white"/>
</linearGradient>
<linearGradient id="paint7_linear_6423_167428" x1="89.3095" y1="4.84839" x2="89.3095" y2="16.6899" gradientUnits="userSpaceOnUse">
<stop stop-color="#7B7D81"/>
<stop offset="1" stop-color="white"/>
</linearGradient>
<linearGradient id="paint8_linear_6423_167428" x1="99.2162" y1="7.71558" x2="99.2162" y2="16.5035" gradientUnits="userSpaceOnUse">
<stop stop-color="#7B7D81"/>
<stop offset="1" stop-color="white"/>
</linearGradient>
<linearGradient id="paint9_linear_6423_167428" x1="107.676" y1="7.9021" x2="107.676" y2="16.69" gradientUnits="userSpaceOnUse">
<stop stop-color="#7B7D81"/>
<stop offset="1" stop-color="white"/>
</linearGradient>
<linearGradient id="paint10_linear_6423_167428" x1="117.712" y1="7.71558" x2="117.712" y2="16.4801" gradientUnits="userSpaceOnUse">
<stop stop-color="#7B7D81"/>
<stop offset="1" stop-color="white"/>
</linearGradient>
<linearGradient id="paint11_linear_6423_167428" x1="127.139" y1="7.71558" x2="127.139" y2="16.6666" gradientUnits="userSpaceOnUse">
<stop stop-color="#7B7D81"/>
<stop offset="1" stop-color="white"/>
</linearGradient>
<linearGradient id="paint12_linear_6423_167428" x1="136.545" y1="4.56885" x2="136.545" y2="16.5269" gradientUnits="userSpaceOnUse">
<stop stop-color="#7B7D81"/>
<stop offset="1" stop-color="white"/>
</linearGradient>
</defs>
</svg>
