<svg width="266" height="185" viewBox="0 0 266 185" fill="none" xmlns="http://www.w3.org/2000/svg">
<path d="M69.3232 108.373L2.36621 92.5443L259.974 2.40173L69.3232 108.373Z" fill="url(#paint0_linear_6547_174568)" stroke="#2E323D"/>
<path d="M132.617 121.689L132.51 121.787L132.473 121.929L116.188 183.745L70.0967 109.087L261.904 2.47302L132.617 121.689Z" fill="#0A0D14" stroke="#2E323D"/>
<path d="M210.3 141.128L160.723 129.652L133.945 121.824L264.086 1.82263L210.3 141.128Z" fill="url(#paint1_linear_6547_174568)" stroke="#2E323D"/>
<path d="M159.731 130.404L117.455 182.863L133.31 122.679L159.731 130.404Z" fill="url(#paint2_linear_6547_174568)" stroke="#2E323D"/>
<path d="M210.3 141.13L160.792 129.883L160.489 129.814L160.293 130.056L116.433 184.138L69.8242 108.642L69.7148 108.466L69.5137 108.418L2.36719 92.5443L264.471 0.828491L210.3 141.13Z" stroke="#2E323D" stroke-miterlimit="10"/>
<path d="M263.706 1.86238C263.948 1.72852 264.035 1.4242 263.901 1.18267C263.767 0.941146 263.463 0.853862 263.222 0.987722L263.706 1.86238ZM69.5781 108.88L69.8205 109.317L263.706 1.86238L263.464 1.42505L263.222 0.987722L69.3358 108.442L69.5781 108.88Z" fill="#2E323D"/>
<path d="M116.298 183.631L133.117 121.961L263.464 1.42505" stroke="#2E323D"/>
<path d="M133.117 121.961L160.682 129.903" stroke="#2E323D"/>
<defs>
<linearGradient id="paint0_linear_6547_174568" x1="0.587891" y1="66.1924" x2="265.326" y2="66.1924" gradientUnits="userSpaceOnUse">
<stop stop-color="#1D1F2D"/>
<stop offset="1" stop-color="#1D1F2E"/>
</linearGradient>
<linearGradient id="paint1_linear_6547_174568" x1="132.957" y1="86.1338" x2="265.326" y2="86.1338" gradientUnits="userSpaceOnUse">
<stop stop-color="#1D1F2D"/>
<stop offset="1" stop-color="#1D1F2E"/>
</linearGradient>
<linearGradient id="paint2_linear_6547_174568" x1="138.484" y1="122.056" x2="138.484" y2="185" gradientUnits="userSpaceOnUse">
<stop stop-color="#0C1118"/>
<stop offset="1" stop-color="#1D1E2D"/>
</linearGradient>
</defs>
</svg>
