<svg width="25" height="24" viewBox="0 0 25 24" fill="none" xmlns="http://www.w3.org/2000/svg">
<path d="M21.5088 17.1449C21.1761 17.9135 20.7823 18.6211 20.326 19.2715C19.7041 20.1583 19.1948 20.7721 18.8024 21.113C18.194 21.6724 17.5422 21.959 16.8442 21.9753C16.3431 21.9753 15.7388 21.8327 15.0353 21.5434C14.3296 21.2555 13.681 21.113 13.088 21.113C12.466 21.113 11.799 21.2555 11.0855 21.5434C10.3709 21.8327 9.7953 21.9834 9.35518 21.9984C8.68583 22.0269 8.01865 21.7322 7.3527 21.113C6.92765 20.7422 6.396 20.1067 5.75911 19.2063C5.07577 18.2449 4.51398 17.13 4.07385 15.8589C3.6025 14.486 3.36621 13.1565 3.36621 11.8694C3.36621 10.3951 3.68479 9.12345 4.32291 8.05784C4.82441 7.20191 5.49159 6.52672 6.32661 6.03105C7.16163 5.53539 8.06387 5.2828 9.03551 5.26664C9.56716 5.26664 10.2643 5.43109 11.1307 5.75429C11.9947 6.07858 12.5494 6.24303 12.7926 6.24303C12.9745 6.24303 13.5907 6.05074 14.6354 5.66738C15.6233 5.31186 16.4571 5.16466 17.1402 5.22264C18.9911 5.37202 20.3817 6.10167 21.3065 7.41619C19.6511 8.4192 18.8323 9.82403 18.8486 11.6262C18.8635 13.03 19.3727 14.1981 20.3736 15.1256C20.8271 15.5561 21.3337 15.8888 21.8972 16.1251C21.775 16.4795 21.646 16.819 21.5088 17.1449ZM17.2638 0.440369C17.2638 1.54062 16.8618 2.56792 16.0606 3.51878C15.0937 4.64917 13.9242 5.30236 12.656 5.19929C12.6399 5.06729 12.6305 4.92837 12.6305 4.78239C12.6305 3.72615 13.0903 2.59576 13.9069 1.67152C14.3145 1.20356 14.833 0.814453 15.4617 0.504058C16.0891 0.198295 16.6826 0.0292007 17.2407 0.000244141C17.257 0.147331 17.2638 0.294426 17.2638 0.440355V0.440369Z" fill="white"/>
</svg>
