<svg width="25" height="24" viewBox="0 0 25 24" fill="none" xmlns="http://www.w3.org/2000/svg">
<g clip-path="url(#clip0_8221_98994)">
<path d="M24.0993 12.2765C24.0993 11.4608 24.0331 10.6406 23.892 9.83813H12.5732V14.4591H19.055C18.786 15.9495 17.9218 17.2679 16.6563 18.1056V21.104H20.5233C22.7941 19.014 24.0993 15.9274 24.0993 12.2765Z" fill="#4285F4"/>
<path d="M12.5731 24.0008C15.8096 24.0008 18.5389 22.9382 20.5275 21.1039L16.6606 18.1055C15.5847 18.8375 14.1957 19.252 12.5775 19.252C9.44689 19.252 6.79247 17.1399 5.84006 14.3003H1.84961V17.3912C3.88672 21.4434 8.03591 24.0008 12.5731 24.0008Z" fill="#34A853"/>
<path d="M5.83578 14.3002C5.33312 12.8099 5.33312 11.196 5.83578 9.70569V6.61475H1.84974C0.147742 10.0055 0.147742 14.0004 1.84974 17.3912L5.83578 14.3002Z" fill="#FBBC04"/>
<path d="M12.5731 4.74966C14.2839 4.7232 15.9374 5.36697 17.1765 6.54867L20.6025 3.12262C18.4331 1.0855 15.5538 -0.034466 12.5731 0.000808666C8.0359 0.000808666 3.88672 2.55822 1.84961 6.61481L5.83565 9.70575C6.78365 6.86173 9.44248 4.74966 12.5731 4.74966Z" fill="#EA4335"/>
</g>
<defs>
<clipPath id="clip0_8221_98994">
<rect width="24" height="24" fill="white" transform="translate(0.333008)"/>
</clipPath>
</defs>
</svg>
