<svg width="27" height="32" viewBox="0 0 27 32" fill="none" xmlns="http://www.w3.org/2000/svg">
<path d="M8.11142 15.2423L11.3203 18.4513L18.6295 11.1421M26.0279 16.0446C26.0279 23.9777 17.3816 29.7716 14.1727 31.6435C13.8162 31.8217 13.6379 32 13.3705 32C13.1922 32 12.9248 32 12.6574 32C12.39 31.9109 12.2117 31.8217 11.8552 31.6435C8.73538 29.7716 0 23.9777 0 16.0446V8.28969C0 6.95265 6.77401e-07 6.32869 0.178274 5.79387C0.356547 5.25905 0.713093 4.90251 1.06964 4.54596C1.51532 4.18942 2.13928 3.92201 3.29805 3.47632L12.0334 0.178272C12.39 0.0891355 12.5682 0 12.7465 0C12.9248 0 13.0139 0 13.1922 0C13.3705 0 13.5487 0.0891355 13.9053 0.178272L22.6407 3.47632C23.8886 3.92201 24.4234 4.18942 24.8691 4.54596C25.2256 4.90251 25.5822 5.34819 25.7604 5.79387C25.9387 6.32869 25.9387 7.04178 25.9387 8.28969V16.0446H26.0279Z" stroke="white" stroke-width="2" stroke-linecap="round" stroke-linejoin="round"/>
</svg>
