<svg width="53" height="7" viewBox="0 0 53 7" fill="none" xmlns="http://www.w3.org/2000/svg">
<path d="M7.65018 6.88736V3.89005C7.65018 2.7435 6.95118 1.99272 5.75123 1.99272C5.15125 1.99272 4.49885 2.1906 4.05033 2.84244C3.70083 2.29536 3.19988 1.99272 2.44845 1.99272C1.9475 1.99272 1.44655 2.14404 1.05045 2.69113L1.05045 2.09166H0.00195313L0.00195313 6.88736H1.05045L1.05045 4.23925C1.05045 3.38953 1.49898 2.98795 2.19798 2.98795C2.89698 2.98795 3.24648 3.43609 3.24648 4.23925L3.24648 6.88736H4.29498V4.23925C4.29498 3.38953 4.79593 2.98795 5.4425 2.98795C6.1415 2.98795 6.491 3.43609 6.491 4.23925V6.88736H7.65018ZM23.2029 2.09166H21.502V0.642478L20.4535 0.642478V2.09166L19.504 2.09166V3.04033H20.4535V5.24029C20.4535 6.34028 20.902 6.9863 22.102 6.9863C22.5505 6.9863 23.0515 6.83498 23.401 6.6371L23.0981 5.73499C22.7952 5.93288 22.4457 5.98525 22.1952 5.98525C21.6942 5.98525 21.4962 5.68261 21.4962 5.18791V3.04033H23.1971V2.09166H23.2029ZM32.1035 1.9869C31.5035 1.9869 31.1016 2.28954 30.8511 2.6853V2.08584H29.8026V6.88154L30.8511 6.88154V4.18105C30.8511 3.38371 31.2006 2.92974 31.853 2.92974C32.0511 2.92974 32.3016 2.98213 32.5054 3.02869L32.8083 2.02764C32.5986 1.9869 32.3016 1.9869 32.1035 1.9869ZM18.6536 2.48742C18.1526 2.13822 17.4536 1.9869 16.7022 1.9869C15.5023 1.9869 14.7042 2.58637 14.7042 3.53503C14.7042 4.33237 15.3042 4.78633 16.3527 4.93183L16.8537 4.98421C17.4012 5.08315 17.7041 5.23447 17.7041 5.48473C17.7041 5.83394 17.3022 6.0842 16.6032 6.0842C15.9042 6.0842 15.3508 5.83394 15.0013 5.58368L14.5004 6.38102C15.0479 6.7826 15.7993 6.98048 16.5508 6.98048C17.9488 6.98048 18.7526 6.32864 18.7526 5.43235C18.7526 4.58263 18.1002 4.13449 17.1041 3.98317L16.6032 3.93079C16.1547 3.87841 15.8052 3.77947 15.8052 3.48265C15.8052 3.13345 16.1547 2.93557 16.708 2.93557C17.308 2.93557 17.908 3.18583 18.2109 3.33715L18.6536 2.48742ZM46.5495 1.9869C45.9495 1.9869 45.5476 2.28954 45.2971 2.6853V2.08584H44.2486V6.88154H45.2971V4.18105C45.2971 3.38371 45.6466 2.92974 46.299 2.92974C46.4971 2.92974 46.7476 2.98213 46.9514 3.02869L47.2543 2.03928C47.0505 1.9869 46.7534 1.9869 46.5495 1.9869ZM33.152 4.48951C33.152 5.93869 34.1539 6.9863 35.7034 6.9863C36.4024 6.9863 36.9033 6.83498 37.4043 6.43922L36.9033 5.58949C36.5014 5.89214 36.1053 6.03764 35.6509 6.03764C34.8005 6.03764 34.2005 5.43817 34.2005 4.48951C34.2005 3.58741 34.8005 2.98795 35.6509 2.94139C36.0995 2.94139 36.5014 3.09271 36.9033 3.38953L37.4043 2.5398C36.9033 2.13822 36.4024 1.99272 35.7034 1.99272C34.1539 1.9869 33.152 3.04032 33.152 4.48951ZM42.8506 4.48951V2.09166L41.8021 2.09166V2.69113C41.4526 2.24298 40.9517 1.99272 40.2993 1.99272C38.9479 1.99272 37.8994 3.04032 37.8994 4.48951C37.8994 5.93869 38.9479 6.9863 40.2993 6.9863C40.9983 6.9863 41.4992 6.73604 41.8021 6.2879V6.88736H42.8506V4.48951ZM39.0003 4.48951C39.0003 3.63979 39.5479 2.94139 40.4507 2.94139C41.3012 2.94139 41.9012 3.59323 41.9012 4.48951C41.9012 5.33923 41.3012 6.03764 40.4507 6.03764C39.5537 5.98526 39.0003 5.33341 39.0003 4.48951ZM26.4533 1.9869C25.0553 1.9869 24.0534 2.98795 24.0534 4.48369C24.0534 5.98526 25.0553 6.98048 26.5057 6.98048C27.2047 6.98048 27.9037 6.7826 28.4571 6.32864L27.9561 5.57785C27.5542 5.88049 27.0532 6.07838 26.5581 6.07838C25.9057 6.07838 25.2591 5.77574 25.1077 4.93183H28.6551C28.6551 4.78051 28.6551 4.68157 28.6551 4.53025C28.7017 2.98795 27.7988 1.9869 26.4533 1.9869ZM26.4533 2.889C27.1057 2.889 27.5542 3.29059 27.6532 4.03555L25.1543 4.03555C25.2533 3.38953 25.7018 2.889 26.4533 2.889ZM52.5027 4.48951V0.194336L51.4542 0.194336V2.69113C51.1047 2.24298 50.6037 1.99272 49.9513 1.99272C48.5999 1.99272 47.5514 3.04032 47.5514 4.48951C47.5514 5.93869 48.5999 6.9863 49.9513 6.9863C50.6503 6.9863 51.1513 6.73604 51.4542 6.2879V6.88736L52.5027 6.88736V4.48951ZM48.6523 4.48951C48.6523 3.63979 49.1999 2.94139 50.1028 2.94139C50.9532 2.94139 51.5532 3.59323 51.5532 4.48951C51.5532 5.33923 50.9532 6.03764 50.1028 6.03764C49.1999 5.98526 48.6523 5.33341 48.6523 4.48951ZM13.5509 4.48951V2.09166L12.5024 2.09166V2.69113C12.1529 2.24298 11.6519 1.99272 10.9995 1.99272C9.64815 1.99272 8.59965 3.04032 8.59965 4.48951C8.59965 5.93869 9.64815 6.9863 10.9995 6.9863C11.6985 6.9863 12.1995 6.73604 12.5024 6.2879V6.88736H13.5509L13.5509 4.48951ZM9.65397 4.48951C9.65397 3.63979 10.2015 2.94139 11.1044 2.94139C11.9548 2.94139 12.5548 3.59323 12.5548 4.48951C12.5548 5.33923 11.9548 6.03764 11.1044 6.03764C10.2015 5.98526 9.65397 5.33341 9.65397 4.48951Z" fill="url(#paint0_linear_6536_171438)"/>
<defs>
<linearGradient id="paint0_linear_6536_171438" x1="-0.119435" y1="4.45184" x2="52.5257" y2="4.45184" gradientUnits="userSpaceOnUse">
<stop stop-color="white"/>
<stop offset="0.494792" stop-color="#E7FBB0"/>
<stop offset="1" stop-color="#94ABB7"/>
</linearGradient>
</defs>
</svg>
