<svg width="53" height="21" viewBox="0 0 53 21" fill="none" xmlns="http://www.w3.org/2000/svg">
<path d="M7.48639 8.83546L8.26215 5.94028C8.5589 4.8328 8.07803 3.92669 6.91897 3.61612C6.33944 3.46084 5.65805 3.48312 5.0561 3.99666C4.86011 3.37777 4.45456 2.95578 3.72873 2.7613C3.24485 2.63165 2.72181 2.64815 2.19761 3.07408L2.35276 2.49504L1.33999 2.22367L0.0987732 6.85595L1.11155 7.12733L1.79693 4.56945C2.01685 3.74868 2.55403 3.47687 3.22921 3.65778C3.90439 3.8387 4.126 4.36203 3.91812 5.13782L3.23274 7.6957L4.24552 7.96707L4.9309 5.40919C5.15082 4.58842 5.73864 4.33018 6.36318 4.49753C7.03836 4.67844 7.25997 5.20177 7.05209 5.97757L6.36671 8.53544L7.48639 8.83546ZM23.7504 8.22852L22.1075 7.7883L22.4825 6.38849L21.4698 6.11712L21.0947 7.51692L20.1776 7.27118L19.932 8.18752L20.8492 8.43326L20.2798 10.5583C19.9951 11.6208 20.2611 12.3609 21.4202 12.6714C21.8534 12.7875 22.3765 12.771 22.7653 12.6703L22.7062 11.7206C22.3624 11.8333 22.0112 11.7935 21.7693 11.7286C21.2854 11.599 21.1724 11.2554 21.3005 10.7775L21.8563 8.70313L23.4992 9.14335L23.7448 8.22701L23.7504 8.22852ZM32.3748 10.431C31.7953 10.2757 31.3287 10.464 30.9844 10.7814L31.1395 10.2024L30.1268 9.93103L28.8855 14.5633L29.8983 14.8347L30.5972 12.2262C30.8036 11.456 31.2587 11.108 31.8889 11.2769C32.0802 11.3281 32.3085 11.4435 32.4934 11.5413L33.0451 10.6527C32.8531 10.5591 32.5661 10.4822 32.3748 10.431ZM19.2537 7.43335C18.8602 6.96639 18.2241 6.63931 17.4983 6.44482C16.3393 6.13425 15.4133 6.50675 15.1677 7.42309C14.9614 8.19326 15.4234 8.78704 16.3985 9.19895L16.8689 9.3792C17.3721 9.61649 17.6256 9.84105 17.5608 10.0828C17.4704 10.4201 17.0174 10.5578 16.3422 10.3769C15.667 10.196 15.1973 9.81101 14.9245 9.47882L14.2342 10.1193C14.6592 10.6489 15.3338 11.0346 16.0596 11.2291C17.41 11.5909 18.3551 11.1693 18.5871 10.3036C18.807 9.48279 18.2929 8.88106 17.3699 8.4771L16.8996 8.29685C16.4799 8.13016 16.1679 7.94414 16.2447 7.65743C16.3351 7.32013 16.7239 7.21945 17.2584 7.36267C17.838 7.51796 18.3527 7.91497 18.6061 8.13953L19.2537 7.43335ZM46.3286 14.1699C45.7491 14.0146 45.2825 14.2029 44.9381 14.5203L45.0933 13.9413L44.0805 13.6699L42.8393 18.3022L43.8521 18.5736L44.551 15.9651C44.7574 15.1949 45.2125 14.8469 45.8426 15.0158C46.0339 15.067 46.2623 15.1824 46.4472 15.2802L46.9958 14.4029C46.8125 14.2995 46.5255 14.2226 46.3286 14.1699ZM32.7399 13.1197C32.3648 14.5195 33.0614 15.7907 34.5581 16.1917C35.2333 16.3726 35.7563 16.3561 36.3426 16.1035L36.0787 15.1531C35.6121 15.3414 35.1918 15.3794 34.753 15.2618C33.9315 15.0417 33.5071 14.3074 33.7527 13.391C33.9861 12.5197 34.7208 12.0959 35.5543 12.2711C35.9876 12.3872 36.3366 12.6374 36.6481 13.0281L37.3519 12.337C36.9719 11.8194 36.5257 11.5492 35.8505 11.3683C34.3554 10.9617 33.115 11.7199 32.7399 13.1197ZM42.108 15.6299L42.7286 13.3137L41.7159 13.0424L41.5607 13.6214C41.3391 13.0981 40.92 12.7267 40.2898 12.5578C38.9845 12.208 37.7006 12.9486 37.3255 14.3484C36.9504 15.7482 37.692 17.0315 38.9974 17.3812C39.6726 17.5622 40.2212 17.4501 40.6298 17.0956L40.4747 17.6746L41.4874 17.946L42.108 15.6299ZM38.3889 14.6333C38.6088 13.8126 39.3185 13.2797 40.1906 13.5134C41.0121 13.7335 41.4229 14.5184 41.1909 15.3841C40.971 16.2049 40.2107 16.7242 39.3892 16.5041C38.5363 16.2213 38.1705 15.4485 38.3889 14.6333ZM26.9171 8.96858C25.5667 8.60675 24.3399 9.31438 23.9528 10.7592C23.5641 12.2096 24.2743 13.4302 25.6753 13.8056C26.3505 13.9865 27.0769 13.9763 27.7289 13.681L27.4393 12.8261C26.9728 13.0144 26.4377 13.0759 25.9594 12.9478C25.3293 12.7789 24.7831 12.3193 24.8552 11.4649L28.2817 12.383C28.3209 12.2369 28.3465 12.1413 28.3857 11.9951C28.8299 10.5175 28.2168 9.31684 26.9171 8.96858ZM26.6836 9.83994C27.3138 10.0088 27.6431 10.5128 27.5459 11.258L25.1322 10.6112C25.395 10.0128 25.9578 9.64546 26.6836 9.83994ZM51.4312 18.128L52.5428 13.9792L51.5301 13.7078L50.8838 16.1195C50.6622 15.5962 50.2431 15.2248 49.613 15.0559C48.3076 14.7062 47.0237 15.4467 46.6486 16.8465C46.2736 18.2463 47.0152 19.5296 48.3205 19.8794C48.9957 20.0603 49.5444 19.9482 49.9529 19.5937L49.7978 20.1728L50.8106 20.4441L51.4312 18.128ZM47.712 17.1315C47.932 16.3107 48.6416 15.7778 49.5137 16.0115C50.3352 16.2316 50.746 17.0165 50.514 17.8822C50.2941 18.703 49.5338 19.2223 48.7124 19.0022C47.8538 18.718 47.4936 17.9466 47.712 17.1315ZM13.8067 8.04653L14.4273 5.73039L13.4145 5.45902L13.2593 6.03806C13.0377 5.51473 12.6186 5.14334 11.9885 4.97449C10.6831 4.62472 9.3992 5.36525 9.02412 6.76506C8.64904 8.16486 9.39068 9.44814 10.696 9.79791C11.3712 9.97882 11.9199 9.86675 12.3284 9.51227L12.1733 10.0913L13.186 10.3627L13.8067 8.04653ZM10.0425 7.03794C10.2624 6.21717 10.9721 5.68428 11.8442 5.91796C12.6657 6.13807 13.0765 6.92299 12.8445 7.78873C12.6246 8.6095 11.8643 9.12882 11.0428 8.90871C10.1843 8.62443 9.8241 7.85308 10.0425 7.03794Z" fill="url(#paint0_linear_8229_194)"/>
<defs>
<linearGradient id="paint0_linear_8229_194" x1="0.611881" y1="4.472" x2="51.4632" y2="18.0976" gradientUnits="userSpaceOnUse">
<stop stop-color="white"/>
<stop offset="0.494792" stop-color="#E7FBB0"/>
<stop offset="1" stop-color="#94ABB7"/>
</linearGradient>
</defs>
</svg>
