<svg width="17" height="11" viewBox="0 0 17 11" fill="none" xmlns="http://www.w3.org/2000/svg">
<g clip-path="url(#clip0_6479_171904)">
<path d="M15.6112 3.74803C15.6457 2.76398 15.4279 1.78729 14.9782 0.908655C14.6731 0.54813 14.2496 0.304833 13.7817 0.221157C11.846 0.0475812 9.90238 -0.0235626 7.95908 0.00803211C6.02284 -0.0249961 4.08619 0.0438509 2.15735 0.214282C1.77601 0.282838 1.4231 0.459614 1.1417 0.72303C0.51561 1.29366 0.446045 2.2699 0.376479 3.0949C0.275549 4.57823 0.275549 6.06658 0.376479 7.54992C0.396605 8.01426 0.466562 8.47516 0.585175 8.92492C0.669053 9.27211 0.838756 9.59338 1.07909 9.85992C1.3624 10.1373 1.72353 10.3241 2.11561 10.3962C3.61538 10.5791 5.12654 10.6549 6.63735 10.623C9.07212 10.6574 11.2078 10.623 13.733 10.4305C14.1347 10.3629 14.506 10.1758 14.7973 9.89429C14.9921 9.70173 15.1376 9.46605 15.2217 9.20679C15.4704 8.45233 15.5927 7.66274 15.5834 6.86929C15.6112 6.48428 15.6112 4.16053 15.6112 3.74803ZM6.38692 7.28179V3.02615L10.5052 5.16428C9.35038 5.79678 7.8269 6.51178 6.38692 7.28179Z" fill="white"/>
</g>
<defs>
<clipPath id="clip0_6479_171904">
<rect width="16" height="11" fill="white" transform="translate(0.300781)"/>
</clipPath>
</defs>
</svg>
