<svg width="32" height="32" fill="none" xmlns="http://www.w3.org/2000/svg">
                        <g clip-path="url(#a)">
                            <path d="M16 32c8.837 0 16-7.163 16-16S24.837 0 16 0 0 7.163 0 16s7.163 16 16 16z" fill="#F4BA40"></path>
                            <path fill-rule="evenodd" clip-rule="evenodd" d="m16 11.616-3.107 3.107-1.808-1.808L16 8l4.917 4.917-1.808 1.808L16 11.616zm-6.192 2.576L8 16l1.808 1.808L11.616 16l-1.808-1.808zM16 20.384l-3.107-3.107-1.81 1.805.002.003L16 24l4.917-4.917-1.808-1.808L16 20.384zm6.192-6.191L20.384 16l1.808 1.808L24 16l-1.808-1.808zm-4.358 1.806.001.001v.001L16 17.836l-1.833-1.833-.003-.003.003-.002.32-.322.157-.156L16 14.165l1.834 1.834z" fill="#323232"></path>
                            <path fill-rule="evenodd" clip-rule="evenodd" d="M16 30.667c8.1 0 14.667-6.567 14.667-14.667S24.1 1.333 16 1.333 1.333 7.9 1.333 16 7.9 30.667 16 30.667zM16 32c8.837 0 16-7.163 16-16S24.837 0 16 0 0 7.163 0 16s7.163 16 16 16z" fill="#000" fill-opacity=".1"></path>
                        </g>
                        <defs>
                            <clipPath id="a">
                                <path fill="#fff" d="M0 0h32v32H0z"></path>
                            </clipPath>
                        </defs>
                    </svg>