<svg width="32" height="32" fill="none" xmlns="http://www.w3.org/2000/svg">
                        <g clip-path="url(#a)">
                            <path d="M16 32c8.837 0 16-7.163 16-16S24.837 0 16 0 0 7.163 0 16s7.163 16 16 16z" fill="#F7931A"></path>
                            <path d="M21.389 14.432c.251-1.68-1.029-2.585-2.779-3.188l.568-2.277-1.386-.346-.553 2.218c-.365-.09-.739-.177-1.11-.261l.556-2.233L15.299 8l-.568 2.277a47.08 47.08 0 0 1-.885-.208l.002-.008-1.912-.477-.369 1.48s1.029.236 1.007.251c.561.14.663.512.646.806l-.647 2.595c.039.01.089.024.144.046l-.146-.036-.907 3.634c-.069.17-.243.427-.635.33.014.02-1.008-.252-1.008-.252l-.688 1.587 1.804.45c.336.083.665.172.988.255l-.573 2.303 1.384.345.568-2.279c.379.103.746.198 1.105.287l-.566 2.268L15.43 24l.574-2.3c2.364.448 4.141.268 4.89-1.87.603-1.722-.03-2.715-1.274-3.362.906-.21 1.588-.805 1.77-2.036zm-3.167 4.442c-.429 1.721-3.327.79-4.267.557l.761-3.051c.94.234 3.953.698 3.506 2.494zm.428-4.466c-.39 1.565-2.803.77-3.586.575l.69-2.768c.783.195 3.304.559 2.896 2.193z" fill="#fff"></path>
                            <path fill-rule="evenodd" clip-rule="evenodd" d="M16 30.667c8.1 0 14.667-6.567 14.667-14.667S24.1 1.333 16 1.333 1.333 7.9 1.333 16 7.9 30.667 16 30.667zM16 32c8.837 0 16-7.163 16-16S24.837 0 16 0 0 7.163 0 16s7.163 16 16 16z" fill="#000" fill-opacity=".1"></path>
                        </g>
                        <defs>
                            <clipPath id="a">
                                <path fill="#fff" d="M0 0h32v32H0z"></path>
                            </clipPath>
                        </defs>
                    </svg>