<svg width="32" height="32" fill="none" xmlns="http://www.w3.org/2000/svg">
                        <path d="M16 32c8.837 0 16-7.163 16-16S24.837 0 16 0 0 7.163 0 16s7.163 16 16 16z" fill="#BA9F33"></path>
                        <path fill-rule="evenodd" clip-rule="evenodd" d="M6.995 14.291c-.09-.083-.186-.166-.274-.248a26.894 26.894 0 0 0-.27-.249l-.269-.256c-.044-.044-.09-.083-.134-.127l-.14-.121c-.358-.34-.717-.679-1.07-1.018.366.334.723.666 1.088 1.005l.127.127c.044.043.09.082.135.126l.269.249c.09.083.178.165.269.256.09.09.179.173.27.256zm-4.743-.051s1.3.134 1.934.225c.588.083 2.426.365 2.426.365l-4.36-.59zm0 0c.365.031.73.07 1.095.109.187.018.365.038.544.056l.274.032.27.039 1.087.173.544.09c.178.031.357.065.543.096a12.79 12.79 0 0 1-.543-.07l-.544-.077-1.087-.16c-.091-.014-.18-.032-.27-.045l-.274-.031c-.179-.018-.365-.044-.544-.065-.365-.044-.73-.09-1.095-.148zm4.23.929s-1.387.352-1.856.487c-.46.126-1.856.551-1.856.551l3.712-1.038z" fill="#CFB66C"></path>
                        <path fill-rule="evenodd" clip-rule="evenodd" d="M6.482 15.169c-.308.09-.614.179-.927.262l-.926.248c-.308.09-.615.179-.922.27l-.46.126c-.154.044-.309.083-.467.127.153-.051.308-.103.461-.148l.46-.147c.309-.096.615-.187.922-.282.314-.078.622-.16.935-.236.298-.075.611-.15.924-.22zm-3.518 1.893c.153-.057 1.913-.878 2.322-1.07.205-.096.8-.307.8-.307l-3.122 1.377z" fill="#CFB66C"></path>
                        <path fill-rule="evenodd" clip-rule="evenodd" d="M2.964 17.061c.135-.05.261-.113.39-.173l.384-.179.769-.37c.256-.121.505-.256.769-.37.135-.057.27-.104.404-.148l.204-.064c.07-.018.135-.04.205-.057-.256.121-.525.225-.782.344-.256.127-.517.23-.782.344l-.781.345c-.263.106-.519.22-.78.328zm.17.717s1.595-.934 2.144-1.235c.288-.16 1.217-.621 1.217-.621l-3.36 1.856z" fill="#CFB66C"></path>
                        <path fill-rule="evenodd" clip-rule="evenodd" d="M3.136 17.779c.269-.166.543-.334.818-.505l.41-.249c.14-.083.274-.16.416-.243.14-.083.275-.166.417-.244.068-.041.139-.078.212-.108l.218-.109c.287-.14.575-.282.878-.404-.275.174-.557.321-.84.474-.14.077-.282.147-.421.225-.14.078-.275.16-.417.236-.14.082-.275.16-.417.235l-.422.23-.852.462zm3.347-1.652s-.991.76-1.312 1.004c-.321.244-1.266.927-1.266.927l2.578-1.931z" fill="#CFB66C"></path>
                        <path fill-rule="evenodd" clip-rule="evenodd" d="m12.173 22.265-.507-.96.295-1.201 2.105-.813-.896-1.838.443-1.857.831-1.662 2.568-.404 1.888-1.799 4.075.308.8 4.357-1.54 5.486-.878 2.84-3.558.135-1.651-1.144-1.934-.808-2.04-.64z" fill="#E2CC85"></path>
                        <path fill-rule="evenodd" clip-rule="evenodd" d="M18.413 22.234s-.492.225-1.331.174c-.243-.327-1.944-.48-1.944-.48s-.212-.064-.588.091c-.378.154-.735.135-1.069.218-.334.083-.665-.352-.921-.443a3.595 3.595 0 0 1-.596-.326l-.717-.07-1.44-.608-2.286-2.279-.621.973-.192 1.204.691 1.427 1.862 1.695 3.63.922 2.151-.634 2.695-1.14.676-.724z" fill="#F1D789"></path>
                        <path fill-rule="evenodd" clip-rule="evenodd" d="m5.518 14.182.46-1.395.55-.901 1.767-.148-.53 1.549-1.478 2.63.613 2.348-1.087.544-.334-.513-.27-1.175-.018-1.32.327-1.619z" fill="#F4ECB4"></path>
                        <path fill-rule="evenodd" clip-rule="evenodd" d="m7.5 22.138-.339-.473s-.09-.226-.038-.422c.05-.2.043-.213.018-.288-.026-.075-.244-.334-.23-.557.012-.225-.019-.3.147-.479.173-.173.121-.473.121-.473l.226.14.05-.078s.084.065.084.166c.018-.14-.057-.788.114-.935.17-.148.473.691.473.691l-.186-1.217-.48-1.247-.85-1.14-.052-1.255v-.11s-.391.602-.5 1.076c-.077.326.109.722.07 1.191-.031.466-.07.43.044.614.114.185.391.565.282.84-.095.235-.422.07-.422.07s-.064.19-.152.26a.58.58 0 0 0-.127-.255c-.006.044-.018.103-.018.103s-.057-.178-.114-.404c-.078-.3-.16-.696-.236-.908-.031.121-.109.492-.109.492l.044.57.213.781.205.512.199.627.173.42.14.322.122.722.587.621.313.14.228-.116z" fill="#F3E19D"></path>
                        <path fill-rule="evenodd" clip-rule="evenodd" d="M5.825 13.043s-.422.717-.543 1.44c-.122.722-.23 1.486-.154 2.47.078.991.225 1.6.345 2.035.204.722.735 1.727.735 1.727l.018-.04a2.728 2.728 0 0 1-.212-.53c-.07-.274-.096-.6-.161-.748-.057-.148-.153-.275-.2-.456-.043-.173-.05-.448-.186-.652-.057-.083-.127-.3-.147-.518-.026-.326.013-.691-.018-.992-.057-.5-.096-.838-.044-1.1.051-.262.32-1.004.486-1.595.11-.378.044-.696.244-1.025.199-.326.32-.614.365-.813.05-.181-.528.797-.528.797z" fill="#F2E8B0"></path>
                        <path fill-rule="evenodd" clip-rule="evenodd" d="M7.826 12.756s-.217.065-.32.178c-.104.11-.148.2-.288.384-.14.184-.148.334-.262.564-.114.225-.365.565-.396.686-.03.122-.083.691-.147.96-.057.27.064.601.064.601l.148-.03s0 .19.147.32c.148.127.174-.43.174-.43l.551-1.861.831-.564.09-.456-.592-.352z" fill="#F5EEC0"></path>
                        <path fill-rule="evenodd" clip-rule="evenodd" d="M8.23 13.6s-.39.026-.582.166c-.077.057-.108.103-.191.173-.153.127-.308.243-.383.41-.083.165-.174.416-.236.89-.026.2-.026.383-.044.544-.026.217-.065.39-.044.512.026.248.282.378.307.66l.531-.269.5-1.97 1.061-.666-.6-.673-.319.222v.001z" fill="#E6DB9D"></path>
                        <path fill-rule="evenodd" clip-rule="evenodd" d="m5.43 26.868.007-.06c.077-.665.09-1.17.147-1.485.083-.448.14-.615.127-.782-.018-.27-.039-.466-.013-.673.039-.275.308-.6.3-.826-.005-.179-.096-.295-.173-.404-.078-.109-.14-.2-.14-.2s.53-.364.526-1.835a.14.14 0 0 1 .03.013l.262.743.179.217.686 1.28.883.856 1.305.878.818.89.082 2.375-1.069 1.387-.175.317a15.207 15.207 0 0 1-3.782-2.692z" fill="#E5CB7A"></path>
                        <path fill-rule="evenodd" clip-rule="evenodd" d="M8.696 29.14s.018-.296.262-.488c.039.065.064.127.057.174a1.543 1.543 0 0 1 1.048-.704c.697-.127.865-.634.865-.634l1.478-1.344 1.69-1.556 2.056-.723.961-.235s.018.07-.018.225c.179-.013.575-.103.986-.248.166-.065.322-.091.404-.006.122.114.14.384.148.544.2-.044.43-.235.614-.217.296.03.557.378.857.378.396 0 .575-.244.852-.435.166-.114.404-.256.539-.352.32-.236 3.717-1.274 3.717-1.274l1.191.077.192 1.28-.102 3.343-.038.037-5.415 2.828-7.506 1.15a15.055 15.055 0 0 1-4.799-1.65l-.038-.17z" fill="#D8C173"></path>
                        <path fill-rule="evenodd" clip-rule="evenodd" d="M5.886 27.293c.106-.223.202-.41.22-.476.013.134.037.43.086.743a16.29 16.29 0 0 1-.306-.267z" fill="#F1D789"></path>
                        <path fill-rule="evenodd" clip-rule="evenodd" d="m11.368 30.44.971-.27.083.026s.044.026.044.113c.122-.07.225-.056.3-.103.04.083.078.357.249.39.178.04.37-.077.564-.224.192-.153.41-.345.575-.422.06.111.114.226.16.344.218-.173.596-.878 1.134-.865.156-.368.416-.682.748-.903.5-.34.813-.365 1.204-.334.155-.202.347-.373.565-.505.064.026.243.134.466.03.225-.102.479-.504.813-.556a.785.785 0 0 1 .517.11s.973-.967 1.644-1.288c-.026-.077-.077-.37.71-1.017.044.039.013.147.044.153.012 0 .204-.082.447-.269.3-.225.66-.46.878-.525.41-.122.844.126.844.126a.39.39 0 0 1 .122-.057c.103-.018.178-.03.235-.05-.005.134.07.364 0 .564.081.045.167.082.256.108-.043.096-.14.34-.3.456.135.065.153.14.344.205a3.794 3.794 0 0 0-.261.41c-.057.121-.262.626-.352.817-.096.192-.226.544-.288.615-.062.07-.287.37-.46.517.153-.057.781-.248 1.048-.32-.08.116-.482.713-.868 1.287a15.192 15.192 0 0 1-12.437 1.44l.001-.003z" fill="#E0CD81"></path>
                        <path fill-rule="evenodd" clip-rule="evenodd" d="M8.294 13.53s-.225 0-.269.031c-.044.031.226.096.308.127.083.031.262.174.308.288.044.108 1.618.742 1.618.742l1.114-.056.384-.53-.73-.64.512-1.51-.679.11-1.63.972-.819.313-.117.153z" fill="#DFC57C"></path>
                        <path fill-rule="evenodd" clip-rule="evenodd" d="M10.739 14.03a.175.175 0 0 0 .153.083c.23 0 .443.057.531.173.148.187.557.782.557.782l.978.352.063-1.152-1.069-.743-1.217.448v.057h.003z" fill="#E5CC7C"></path>
                        <path fill-rule="evenodd" clip-rule="evenodd" d="M10.547 14.457s.179.013.404-.07c.225-.083.595-.261.756-.191.225.095.178.396.422.665.148.166.417.16.57.34.152.178.678.095.678.095l.2 1.075-.8 1.026-.262 1.274h-1.082l-.988-.392-.487-1.178.243-1.191.346-1.453z" fill="#D2C281"></path>
                        <path fill-rule="evenodd" clip-rule="evenodd" d="M12.64 14.509a.29.29 0 0 0 .082.013c-.03.026-.095.082-.07.23.026.148.11.334.04.448a.562.562 0 0 1 .121.212c.044.127.057.244.344.262a.6.6 0 0 0-.114.09s.2.174.3.334c.104-.004.379-.09.379-.09l.057.04.121-.052s-.114-.044-.03-.32c.077-.244.147-.231.153-.25.006-.017.057-.274.057-.377.039-.135.07-.544.07-.544l-.083-.903-.466-.283-.379-.365-.357.673-.236.234-.018.583.029.065z" fill="#E2C270"></path>
                        <path fill-rule="evenodd" clip-rule="evenodd" d="M13.76 13.753s.084.235.115.416a.397.397 0 0 0 .018-.108s.064.357.077.505c.026-.006.051-.013.057.013.006.025.065.313.052.473.107-.178.256-.327.434-.434.104-.065.226-.135.353-.14.199-.006.344.127.582.127.575 0 1.095-.423 1.478-.552.283-.096.526-.166.697-.321.083-.07.23-.225.365-.456.178-.307.365-.574.551-.608-.084.016-.17.022-.256.018 0 0 .057-.057.154-.135.097-.077.212-.173.378-.173.295 0 .443.044.608.044.166-.005.262-.044.262-.044s.173.122.564.122c.391.005.653.038.857.057.205.018.89-.057 1.088-.052a.953.953 0 0 1 .37.091l-.634-1.843-2.28-1.992-1.356.96-2.087 2.088-2.02.748-.421.473v.723h-.005z" fill="#CCB360"></path>
                        <path fill-rule="evenodd" clip-rule="evenodd" d="M18.291 12.697s.057-.057.153-.135c.096-.078.212-.173.378-.173.295 0 .443.044.608.044.166-.006.262-.044.262-.044s.174.121.564.121c.391.005.653.039.857.057.205.018.89-.057 1.088-.051a.946.946 0 0 1 .37.09l-.288-.83-.333-.635-.953-1.043-1.152-.679c-.005-.005-.396-.108-.396-.108l-1.036.626-.94 2.431-.018.512.608.288c.153-.256.322-.461.48-.487-.143.015-.252.015-.252.015z" fill="#D5B457"></path>
                        <path fill-rule="evenodd" clip-rule="evenodd" d="M18.279 12.87c-.091.005-.166-.013-.187-.077-.077-.218-.14-.249-.205-.249-.065 0-.152.14-.204.153-.052.012-.114-.16-.114-.16l-.057-.027s-.334.218-.57.474c-.235.256-.621.691-.794.769-.174.077-.77.104-.973.147a1.26 1.26 0 0 0-.461.226c-.031.033.09.07.109.103.018.031-.2.018-.218.051-.013.026.051.174.083.249a.421.421 0 0 1 .179-.044c.199-.005.344.127.582.127.575 0 1.095-.422 1.478-.552.283-.096.526-.165.697-.32.083-.07.23-.226.365-.457.098-.157.194-.305.29-.414v.001z" fill="#D2B257"></path>
                        <path fill-rule="evenodd" clip-rule="evenodd" d="M10.035 25.683s-.051-.192-.526-.686c-.135-.14-.217-.256-.308-.339-.225-.213-.357-.27-.518-.391-.352-.261-.735-.261-1.03-.582-.295-.322-.64-.935-.878-1.562-.236-.626-.3-.826-.3-.844 0-.018.064-.14.147-.121.083.018.083.178.104.217.041.064.088.123.14.178.121.14.295.308.383.557-.018-.212-.09-.448-.09-.448s.455.288.843.588c.391.3.551.404.666.596.114.191.383.696.512.844.129.147 1.894.704 1.894.704l.84.626.417.914-.326.512-.627.134-1.018-.455-.325-.442z" fill="#D2B159"></path>
                        <path fill-rule="evenodd" clip-rule="evenodd" d="M7.774 22.535s.213.339.73.66c.467.282 1.204.538 1.862.691.378.09.756.16 1.095.166.914.013 1.543-.249 2.323-.334.422-.044.94-.078 1.478-.205.691-.166 1.1-.352 1.657-.614.404-.187.774-.326 1.074-.505.422-.249.73-.526 1.088-.608-.044.121-.09.339-.443.564.186-.005.443-.018.443-.018s-.249.147-.686.479c-.27.205-.627.551-.992.782-.236.147-.492.256-.66.344-.41.225-.575.34-.844.614a.36.36 0 0 1 .103 0s-.339.045-.582.174c-.051 0-.14-.018-.295.026-.122.038-.283.127-.448.173-.236.07-.313.04-.313.04l.038.077s-.307-.006-.41.005c.019.005.014.013.014.013a.156.156 0 0 0-.051.018.536.536 0 0 1-.16.07c-.032.005-.058.005-.097.013.013.03.114.204.16.307-.038.026-.62.466-.62.466a.451.451 0 0 1 .043.09c.019.058.026.14.044.18.044.077.07.09.07.09s-.07.013-.191.044c-.104.026-.23.07-.41.096a1.64 1.64 0 0 1-.166.012c.026.058.14.275-.07.526-.21.251-.274.288-.339.448a.7.7 0 0 0-.103-.065c-.07-.03-.166-.077-.2-.14-.02.083-.045.165-.077.244-.065.173-.16.344-.179.474-.07-.078-.2-.23-.378-.2-.179.031-.32.275-.352.345 0-.044-.031-.078-.039-.026a1.968 1.968 0 0 1-.652 1.134c-.005-.122-.005-.391-.018-.48-.051.052-.114.128-.487.288-.365.16-.307.321-.307.321s-.031-.256.166-.526c.199-.269.32-.396.32-.416a.115.115 0 0 0-.025-.057c-.026-.026-.078-.057-.078-.078.031-.013.34-.16.321-.466a.826.826 0 0 0-.217-.518c-.013-.013.121-.108.103-.14-.013-.018-.178-.14-.2-.204a.594.594 0 0 1 .027-.114c.018-.057.03-.096.026-.135a1.076 1.076 0 0 0-.104-.261c.018.005.148 0 .148 0s-.104-.166-.122-.244c-.018-.077-.057-.282-.078-.32.044.005.153.012.153 0 .005-.04-.096-.104-.051-.154.03.005.09.03.147.103-.03-.083-.083-.243-.191-.308a.47.47 0 0 1 .378.026c.152.09.204.218.204.218s.091.07.231.173c.16.127.365.307.691.435.07.039.249.039.378.013a.578.578 0 0 0 .16-.065.296.296 0 0 1 .058-.026 1.232 1.232 0 0 0-.096-.16c.044 0 .096.005.096.005s.03-.07-.11-.205c.032-.03.07-.051.07-.103-.043-.005-.12-.07-.139-.096.026-.018.065-.078.109-.096-.04-.031-.135-.16-.179-.173a.812.812 0 0 0 .122-.057s-.218-.057-.288-.104c-.07-.051-.173-.14-.235-.166-.065-.026-.179-.038-.225-.09.043.013.113 0 .165 0 .04 0 .057.005.07.005-.005-.018-.005-.057.096-.07a.47.47 0 0 0 .14-.044s-.096-.005-.205-.109c-.109-.103-.2-.186-.261-.199-.065-.013-.187.044-.262.039-.104-.013-.148-.065-.148-.065s-.344.031-1.108-.435c-.66-.404-.947-.761-.947-.761a1.138 1.138 0 0 1-.179-.083c-.248-.13-.593-.399-.582-.75l-.002.002z" fill="#C2A44D"></path>
                        <path fill-rule="evenodd" clip-rule="evenodd" d="M17.3 6.995c.06.02.113.056.154.104.121.14.199.404-.078.686.109.039.153.051.248.039-.095.114-.313.357-.326.57-.013.173.096.225.096.225s-.166.191-.173.512c.078-.089.163-.17.256-.244.191-.152.455-.326.634-.435a.365.365 0 0 0 .018.135s.334-.274.614-.153c.127.057.07.236.07.236s.174-.065.296.057c.121.122.293.435.381.557.04.057.14.166.244.334.141.236.259.484.352.743.005-.135.039-.344.422-.212.383.134.818.417 1.183.973.365.555.456 1.183.64 1.422.186.23.377.613.39.774.013.16-.057.678.326 2.079.11-.435.275-1.4.275-1.4l.09-.853.104-2.635-2.752-2.287-2.151-1.56-1.401.134.088.2z" fill="#CAA13E"></path>
                        <path fill-rule="evenodd" clip-rule="evenodd" d="M22.413 10.918s-.04-.256-.686-.691c-.648-.43-1.152-.43-1.618-.795-.358-.288-.73-.948-.973-1.165-.236-.215-.275-.837-.275-.837l.795-.665 1.182-1.709 1-1.1.478.666.666.781.37 1.57.135 2.296-1.075 1.65v-.001z" fill="#B59544"></path>
                        <path fill-rule="evenodd" clip-rule="evenodd" d="M23.213 13.67a2.917 2.917 0 0 0-.127-1.03c-.17-.53-.544-1.473-.717-1.826-.07-.39-.018-.422.057-.466.075-.044.357-.205.512-.769.155-.564.634-.582.634-.582l.295-.218.448 1.121.391 1.013.122.774.09.66-.212 1.396-1.048.947-.445-1.02z" fill="#C89D3A"></path>
                        <path fill-rule="evenodd" clip-rule="evenodd" d="M8.583 29.225v-.029a.219.219 0 0 0 .057-.05c.018-.027.031-.058.044-.066a.487.487 0 0 1 .212-.038c.065.012.236.082.326.077.187-.005.404-.147.749-.083.518.096.64.448.94.648.204.14.416.077.447.077h.07c.013 0 .109-.108.16-.103.104.005.115.09.18.096.152.018.447-.078.595-.04a.285.285 0 0 1 .116.474c-.16.148-.313.288-.344.41.04.03.078.062.114.096a15.073 15.073 0 0 1-3.666-1.467v-.002z" fill="#CEB052"></path>
                        <path fill-rule="evenodd" clip-rule="evenodd" d="M22.37 24.052s.403-.538.543-.805c.14-.275-.443-3.757-.443-3.757l1.17-3.834-.03-1.248s.056-1.152.19-1.652c.162.288.661.635.77.818.051-.352.225-1.095.2-1.887.095.148.325 1.631.325 1.631l.23 1 .301 1.06.334 1.122.2.774.113.186.096.327.09.352.262.826.154.678.122 1.23c.026.094.045.19.057.287.005.135-.018.212-.018.236 0 .023.043.295.025.5-.026.204-.026.365-.186.512-.16.147-.262 1.025-.262 1.025l-.287-.192s.057-.261-.078-.5a.505.505 0 0 0-.543-.248c-.148.031-.443.078-.539.16-.09.083-.313.34-.518.456-.256.154-.673.166-.895.218-.226.05-.474.204-.736.383a4.107 4.107 0 0 1-.647.341v.001z" fill="#CCA847"></path>
                        <path fill-rule="evenodd" clip-rule="evenodd" d="m22.37 29.709.05.029a15.206 15.206 0 0 0 4.846-3.593 24.98 24.98 0 0 0-.055-1.26c-.044-.422-.013-.852-.026-1.1a15.978 15.978 0 0 0-.217-1.522c-.07-.262-.205-.391-.226-.391-.018.005-.127.492-.127.614s-.026.417-.026.492c-.018-.005-.025-.051-.025-.07-.026.065-.057.179-.07.192-.013.013.018-.109 0-.135-.018-.026-.052-.013-.044-.078a.74.74 0 0 1 .018-.113s-.078.113-.135.403c-.057.288-.057.296-.077.321-.018.032-.122.135-.127.174-.006.07.095.14.103.178.005.065-.09.365-.122.512-.03.147-.018.435-.05.583-.027.135-.052.212-.14.27.064.012.126.03.126.03s.09.383-.14.71c-.082.113-.103.165-.19.269-.175.191-.31.41-.322.551a.919.919 0 0 1-.018-.127s-.27.314-.383.492c-.148.23-.352.218-.41.275-.057.057-.07.16-.051.243-.051.013-.148.031-.212.23a.484.484 0 0 1-.23.275c-.123.07-.27.09-.345.109.064.018.09.018.121.039-.038.064-.217.165-.416.295-.2.121-.296.3-.345.416-.051.11-.127.18-.248.192.05.031.127.104.166.127-.058.013-.154.013-.327.16-.18.15-.243.195-.326.208z" fill="#C39D3C"></path>
                        <path fill-rule="evenodd" clip-rule="evenodd" d="M18.767 30.909c.099-.07.206-.127.32-.17.403-.16.83-.191.998-.243.161-.051.288-.122.487-.16l-.014.128a15.1 15.1 0 0 1-1.792.445z" fill="#D2BA6B"></path>
                        <path fill-rule="evenodd" clip-rule="evenodd" d="M26.215 20.288s-.083.447-.23.73c-.148.282-.308.673-.308.673 0-.088.011-.176.031-.262-.186.109-.64.37-.768.487-.122.109-.326.3-.378.39.122-.356.248-.677.27-.825-.187.135-1.057.852-1.51 1.326l-1.411 1.141a4.91 4.91 0 0 1-.502.236c-.244.103-.531.191-.743.274.057-.153.147-.288.274-.417.135-.127.538-.564.6-.768.058-.212.07-.34-.005-.518-.07.018-.23.026-.339.057-.108.031-.225.148-.225.148s.083-.474.262-.922a3.787 3.787 0 0 0-.365.044s.32-.538.87-.914a2.83 2.83 0 0 0-.492.153c-.32.134-.673.334-.934.442.147-.204 1.183-1.682 1.799-3.06.614-1.374.844-1.726.979-2.464.07-.365.05-.905.07-1.388.017-.48.077-.909.038-1.196.16.2.761.761.782 2.017.018 1.255-.575 2.951-1.204 3.865.154.044.552.096.96-.614.41-.71.405-.909.552-1.204.018.147.013.199.013.199s.596-.722.878-1.631c.057.391.225.735-.04 1.453-.235.647-.543.805-.543.805s.153-.026.378-.16c.039.095.031.204.096.242.065.04.153.104.166.166.07-.103.178-.235.212-.334-.026.205-.044 1.1.051 1.556.2-.018.404-.03.544-.39-.096.351-.096.564-.031.864.106-.072.202-.202.202-.202z" fill="#C0993A"></path>
                        <path fill-rule="evenodd" clip-rule="evenodd" d="M19.488 6.017s-.2.083-.539.083c-.295 0-.212-.114-.673-.114-.709 0-3.187.41-3.622.404-.282-.005.953.121.953.121l3.156.044.634-.05.236-.48-.145-.008z" fill="#A88F33"></path>
                        <path fill-rule="evenodd" clip-rule="evenodd" d="M11.304 12.186s-.404.308-.575.544c-.17.236-.261.39-.456.582a.4.4 0 0 0 .135-.018s0 .052-.031.065a.18.18 0 0 1 .147.051c-.056.031-.212.187-.09.37.09.14.282.153.282.153s-.044.127.14.114c.396-.018.839-.192 1.043-.147.205.05.321.07.466.32.154.25.288.288.288.288s.09-.23.07-.575a1.71 1.71 0 0 0 .121-.582l-.134-.992-.588-.743-.761.422-.057.148z" fill="#E3C571"></path>
                        <path fill-rule="evenodd" clip-rule="evenodd" d="M12.025 12.04s.057.134.296.147c-.026.056-.026.064-.018.108l.012.109a.24.24 0 0 0 .07-.051c.013.057-.013.147 0 .212.008.04.021.078.04.114a.222.222 0 0 1 .012-.026c.005-.013.051.14.179.256 0-.018.004-.035.013-.051a.18.18 0 0 0 .03.09.091.091 0 0 1-.025-.018s.013.41.083.622a.289.289 0 0 0 .03-.044c0-.013-.005.114-.017.205-.019.09-.006.217-.006.217a.682.682 0 0 1 .153-.09c.078-.032.205-.128.282-.34.045-.12.08-.244.104-.37.025.048.042.1.051.154.005.064.127.03.127.03l.026-.282.154-.64.14-.395.673-1.049 1.216-.936 1.061.243.896-1.217-1.543-.927-1.46.153-1.326 1.836-1.061 1.664-.192.275z" fill="#D8B65B"></path>
                        <path fill-rule="evenodd" clip-rule="evenodd" d="M19.673 9.382s-.09.018-.352.154c-.261.135-.442.178-.543.378a.98.98 0 0 0-.11.357s.18-.078.283-.103c.109-.026.23-.018.218.026a.302.302 0 0 1-.052.082s.205-.005.2.096a.533.533 0 0 1-.078.262c-.039.05-.2.127-.217.186-.044.122.018.127-.005.225-.019.096-.104.283-.384.609-.287.326-.41.556-.41.556s-.139-.261-.211-.486a23.38 23.38 0 0 0-.327.178l-.637-2.218.013-.148s.057-.07.07-.2c-.096-.03-.108-.056-.236-.178-.127-.121-.23-.27-.442-.37-.031-.057-.07-.135-.225-.166a4.06 4.06 0 0 1-.249-.057s.083-.031.122-.096c-.096.013-.173.044-.383.04-.213-.006-.236-.014-.352.004-.117.018-.256.07-.308-.108-.057-.044-.18-.006-.283.147-.103.153-.14.274-.339.334a.694.694 0 0 1-.09.249c-.057.095-.148.191-.27.334-.191.225-.16.595-.466.877-.308.282.051-.782.051-.782l.492-1.177 1.4-1.37 2.176-.147.212 1.126 1.062.365.67 1.023v-.002z" fill="#D3AE4D"></path>
                        <path fill-rule="evenodd" clip-rule="evenodd" d="m20.018 9.631-.914-1.318-.64-.492s-.455-.838-.486-.864c-.026-.018-.456-.065-.73-.083l.051.127c.06.02.113.055.154.103.121.14.199.404-.078.686.109.04.154.052.248.04-.095.113-.313.357-.326.569-.013.173.096.225.096.225s-.166.192-.173.512c.078-.088.164-.17.256-.243.191-.154.455-.327.634-.435a.366.366 0 0 0 .018.134s.334-.274.615-.152c.126.057.07.235.07.235s.173-.064.295.057c.121.122.295.435.383.557.038.057.14.166.243.334.141.235.26.484.352.743.005-.104.026-.249.205-.249l-.272-.486z" fill="#CAA13E"></path>
                        <path fill-rule="evenodd" clip-rule="evenodd" d="M6.317 13.375s-.065-.16 0-.474c.065-.313.166-.46.2-.922.033-.46.333-1.035.333-1.035l.831-.378.588.16.173.787-.743.41s-.039.174-.248.313c-.21.14-.5.249-.57.391a1.14 1.14 0 0 0-.09.275s-.213-.044-.34.095c-.134.143-.129.27-.134.378z" fill="#F4EFC8"></path>
                        <path fill-rule="evenodd" clip-rule="evenodd" d="M7.995 13.165s-.07.044-.122.153c-.05-.082-.173-.574-.178-1.017-.005-.443-.032-.553.07-.705.103-.153.505-.313.448-.588-.057-.262-.296-.37-.588-.295-.205.05-.357.486-.57.704-.16.166-.352.14-.404.23-.07.122-.005.244-.025.321-.006.026-.07.166-.187.334-.236.34-.634.819-.686 1.248.018-.243.005-.248.07-.518l-.039-.064.256-.84.166-.69.37-1.158.652-1.183.635-.71.66.045.078.991.378 1.862.794.979-1.274.857-.504.044z" fill="#EBCC73"></path>
                        <path fill-rule="evenodd" clip-rule="evenodd" d="M8.39 13.517s-.108.026-.147.005c-.039-.02-.077-.044-.064-.07.012-.026.082-.07.082-.09a.072.072 0 0 0-.064-.078c-.06-.008-.078.03-.078.03s-.057-.043-.103-.05a.694.694 0 0 1 .082-.006.808.808 0 0 0-.225-.064c.065-.04.192-.153.274-.153.083 0 .135-.013.122-.057-.013-.044-.077-.109-.147-.135.025-.03.044-.077-.018-.204-.065-.127-.04-.213-.018-.244.018-.038.082-.108.113-.152s.057-.104.11-.135c.025-.018.108-.051.19-.083.091-.03.166-.07.218-.03.057.038.031.09.031.09s.179-.065.34.018c.16.077.55.127.55.127l.141.282-.927.795-.383.191-.078.013z" fill="#E5C66B"></path>
                        <path fill-rule="evenodd" clip-rule="evenodd" d="M9.677 12.217s-.287.192-.352.262c.04.005.104.031.078.07-.031.039-.218.173-.321.3a1.981 1.981 0 0 0-.249.365c-.038.07-.334.275-.435.3.213 0 .64-.26.8-.26-.005.077.044.165.135.173.09.007.352.056.704-.16.352-.213.236-.371.383-.475.283-.186.396-.352.552-.455a1.01 1.01 0 0 1 .235-.127s.006-.078.052-.07a.07.07 0 0 1 .057.044s.269-.192.614-.243a.036.036 0 0 1-.018-.019s.026-.013.031-.026c0 0 .018-.026.031-.013.013.014.031.11.057.148.057-.026.166-.27.166-.27l.261-.747v-.684l-.204.039-1.536.652-.933.966-.108.23z" fill="#E6BD62"></path>
                        <path fill-rule="evenodd" clip-rule="evenodd" d="M14.1 8.865a.868.868 0 0 0 .236-.096c-.03.083-.03.173-.165.37s-.14.226-.249.43c-.109.212-.122.518-.225.652a.474.474 0 0 1 .147-.044s-.103.091-.147.187c-.044.095-.122.295-.313.417-.192.122-.436.2-.697.486-.261.283-.53.64-.665.769.07-.122.165-.366.191-.526.026-.16-.005-.352.039-.564.044-.213.044-.365.256-.736.212-.37.575-1.657.575-1.657l.781-.248.236.559z" fill="#B6933F"></path>
                        <path fill-rule="evenodd" clip-rule="evenodd" d="M13.535 8.39s-.235.34-.3.64c-.064.3-.005.275-.044.422a.55.55 0 0 0 0 .275.975.975 0 0 1 .326-.321c.223-.135.404-.23.512-.345.109-.121.2-.32.435-.473-.096-.013-.23-.057-.256-.051.096-.11.383-.275.673-.474.287-.205.27-.288.735-.492-.152.026-.225-.013-.352 0 .051-.109.23-.16.41-.34.179-.178-.114-.442-.114-.442l-1.365.826-.66.777V8.39z" fill="#C49937"></path>
                        <path fill-rule="evenodd" clip-rule="evenodd" d="m9.83 7.775.031-.249.391-.626.41-1.1V4.294l-.032-.87.065-.57.049-.18.052-.07.334.173.46.626.045 1.21-.448 1.908-1.28 1.395-.077-.142z" fill="#DFC068"></path>
                        <path fill-rule="evenodd" clip-rule="evenodd" d="M10.848 2.535s-.205.005-.248.857c-.044.852-.065 1.3-.096 1.722-.031.422-.104.678-.14.926-.037.25-.057.588-.174.795-.05.096-.16.396-.417.622a2.57 2.57 0 0 1-.781.435c-.114.025-.692.082-.927.212-.083.044-.226.096-.383.243a4.89 4.89 0 0 0-1.03 1.396c-.462.909-.923 3.474-.923 3.474l.104-.173s.013-.23.243-.635c.226-.404.161-.857.474-1.63.122-.296.275-.679.461-1.005.295-.531.652-.987 1.012-1.235.588-.404 1.235-.492 1.235-.492l.697-.46s.121-.236.282-.506c.225-.378.512-.8.575-1.413.096-.909-.135-1.504-.122-2.043.013-.538.018-.934.127-1.03.109-.096.031-.06.031-.06z" fill="#A88F33"></path>
                        <path fill-rule="evenodd" clip-rule="evenodd" d="M10.848 6.6s.307-.757.448-1.427c.026-.135.078-.27.09-.378.065-.635.083-.896 0-1.243-.064-.256-.313-.487-.442-.666-.127-.186-.187-.256-.16-.295a.287.287 0 0 1 .224-.096.77.77 0 0 1 .552.256c.2.23.357 1.013.357 1.013l.166 1.032.422 1.3-1.657.504z" fill="#C99E3D"></path>
                        <path fill-rule="evenodd" clip-rule="evenodd" d="M13.735 5.812s-.057.026-.16 0a.23.23 0 0 1-.104.218c-.11-.044-1.127.044-1.127.044s-.474-.083-.621-.71c-.104-.416.077-.991.018-1.37-.09-.556-.218-.665-.23-.838-.014-.173-.026-.217-.026-.326-.057-.013-.091-.031-.148-.031-.013-.051.013-.096-.044-.187.031.013.243.04.492.275.205.191.205.261.236.3.038.039.352.307.486.575.135.268.396 1.12.456 1.26.018.058.057.115.154.244.15.187.37.495.618.546z" fill="#B58634"></path>
                        <path fill-rule="evenodd" clip-rule="evenodd" d="M12.057 3.2c.156.254.297.516.421.787.153.345.244.627.436.857-.104-.3-.288-.89-.397-1.1-.121-.222-.37-.46-.46-.544z" fill="#A88F33"></path>
                        <path fill-rule="evenodd" clip-rule="evenodd" d="M10.297 7.456s-.262.065-.748.321c-.16.083-.313.153-.461.218a8.042 8.042 0 0 1-1.121.422.747.747 0 0 0 .039.044s0 .127.07.199c-.04.039-.557.39-.404 1.569.103-.039.225-.09.243-.09.031.005.039.09.078.09.038 0 .165-.051.3-.225-.005.07-.083.774.334 1.248.078-.091.274-.392.274-.392l.005-.095s.019-.334.127-.64c.11-.305.321-.53.321-.53l1.108-1.582-.165-.557z" fill="#E6C367"></path>
                        <path fill-rule="evenodd" clip-rule="evenodd" d="M9.26 9.779a.612.612 0 0 1-.165.083.64.64 0 0 1 .109-.505c.178-.262.57-.6.678-.87.07-.174.039-.609.66-1.166.622-.556.865-.748.865-.748l1.004-.505 1.235.487-.613 2.405-.477 1.126-1.894-.357-1.402.05z" fill="#DCBA5A"></path>
                        <path fill-rule="evenodd" clip-rule="evenodd" d="m9.984 9.126.236-.295v-.21s.261-.07.544-.357c.282-.287.673-.839 1.017-.805.345.039.378.748.391.948.013.2.057.652.127.896.078.243-.839 1.164-.839 1.164l-.622.474-.854-1.815z" fill="#E9CE77"></path>
                        <path fill-rule="evenodd" clip-rule="evenodd" d="M10.713 11.583s.192-.3.051-.365c.083-.186.236-.383.236-.383s.108-.27.46-.6c.352-.332.57-.552.627-.775a2.04 2.04 0 0 0 .057-.442.843.843 0 0 0 .122.082c.057.026.326.249.287.697-.039.448-.205.634-.205.634s-.16.16-.274.244c-.122.082-.166.178-.37.186a.246.246 0 0 1 .07-.039s-.213-.026-.327.078c-.114.103-.356.422-.478.518a27.53 27.53 0 0 0-.256.165z" fill="#CDAE50"></path>
                        <path fill-rule="evenodd" clip-rule="evenodd" d="M19.321 6.548a3.117 3.117 0 0 0-.952-.187c-.544-.018-1.339.013-2.118.018-.84.005-1.6-.287-2.657-.339-.173-.103-.614-.557-1.99.404.082-.005.999-.212 1.317.186.321.397.23 1.07.187 1.23-.083.357-.353.878-.461 1.243-.109.365-.083.557-.16.813-.078.256-.25.383-.148.678.134-.083.204-.083.43-.588.224-.504.178-.864.551-1.292.365-.43.973-1.017 1.204-1.165.231-.147 2.066-1.1 3.987-.191.463-.05.81-.81.81-.81z" fill="#D2A83E"></path>
                        <path fill-rule="evenodd" clip-rule="evenodd" d="M12.378 6.195a.237.237 0 0 0-.012-.057.417.417 0 0 0-.07-.103s-.456-.083-.687-.057c-.404.044-.769.543-.94.8-.17.256-.383.652-.613.857a.085.085 0 0 0-.013-.057s.013.018-.013.044c-.025.026-.026.038-.013.05l.04.04c.012 0 .37-.161.856-.615.518-.474.914-.717 1.121-.8.11-.047.226-.081.344-.102z" fill="#C29637"></path>
                        <path fill-rule="evenodd" clip-rule="evenodd" d="M21.217 4.249s-.083.103-.187.217c-.23.243-.53.518-.787.8-.243.27-.518.479-.826.831-.308.352-.665.743-.756.857a.844.844 0 0 0-.147.396 3.564 3.564 0 0 0-.096-.065.65.65 0 0 0 .078.114c.064.091.165.205.217.275.064.088.11.189.134.295.032.005.23.044.48-.365.248-.41.574-.857.574-.857l.518-.77.326-.651.41-.73.062-.347z" fill="#AC8132"></path>
                        <path fill-rule="evenodd" clip-rule="evenodd" d="M21.748 3.726s-.313.256-.435.41c-.122.153-.41.556-.41.556l.104-.013.526-.466.204-.365.01-.122z" fill="#A88F33"></path>
                        <path fill-rule="evenodd" clip-rule="evenodd" d="M21.652 24.3s-.005-.212.114-.339c.121-.127.43-.313.73-1.012.3-.7.334-.857.334-.857s-.539.46-.87.57c.077-.161.121-.275.16-.358-.044-.039-.23-.083-.249-.103.104-.104.16-.358.37-.526.27-.205.762-.557 1.144-.87.382-.314 1.134-1.044 1.23-1.256.057.083.07.134.07.134s-.378.492-.575.805c-.174.27-.16.423-.16.423l.357-.154s.103.383-.365.966c.205-.078.287-.031.404-.096-.192.122-.456.287-.705.743-.243.456-.574.986-1.133 1.318-.544.35-.858.61-.858.61l.002.002z" fill="#A67A2E"></path>
                        <path fill-rule="evenodd" clip-rule="evenodd" d="M20.249 6.817s-.212.442-.243.787c-.006.083-.026.147-.026.243-.006.308.018.653-.052.813-.026-.065-.038-.109-.065-.134-.038.108-.108.447-.165.574a2.699 2.699 0 0 1-.078-.71c.006-.338.013-.403.013-.473-.013.104-.083.244-.109.326-.038-.07-.082-.16-.134-.235-.031.051-.07.127-.104.166a2.351 2.351 0 0 1-.026-.23c-.005-.136-.013-.309-.005-.345.013-.07.122-.345.352-.596.275-.3.557-.877.64-1.056.083-.179.435-.922.435-.922h.269l-.391.89s-.235.488-.357.667c-.122.178-.378.69-.492.89.083-.108.152-.165.236-.27.08-.072.302-.385.302-.385z" fill="#8C6228"></path>
                        <path fill-rule="evenodd" clip-rule="evenodd" d="M21.753 3.692a1.115 1.115 0 0 1-.205.37c-.16.192-.505.448-.673.653-.153.199-.46.743-.321 1.387.051-.14.148-.417.404-.73s.53-.673.666-.953c.134-.282.152-.504.152-.504l.051-.065-.03-.148-.045-.01h.001z" fill="#CBA94C"></path>
                        <path fill-rule="evenodd" clip-rule="evenodd" d="M26.996 20.865s-.104-.282-.135-.539c-.03-.256.052-.307-.044-.6-.057-.18-.16-.154-.186-.18-.026-.024-.044-.294-.039-.442a1.66 1.66 0 0 0-.031-.422c-.039-.03-.065-.057-.122-.248-.064-.192-.096-.288-.127-.345-.03-.056-.121-.108-.121-.165 0-.114.103-.174.103-.205-.005-.065-.083-.013-.103-.031-.026-.031.065-.218.03-.243-.012-.013-.103.095-.126.064-.026-.03-.057-.339-.104-.543-.044-.2-.09-.345-.096-.404-.005-.057-.357-1.062-.442-1.305a6.181 6.181 0 0 1-.174-.627c-.026-.121-.044-.37-.057-.344-.013.026-.005.153-.026.148-.018-.006-.082-.448-.103-.518-.018-.07-.127-.307-.154-.48-.026-.173-.082-.626-.121-.934-.04-.308-.057-.435-.057-.512a3.2 3.2 0 0 0-.031-.564 5.256 5.256 0 0 0-.244-.953c-.173-.435-.634-1.548-.716-1.825 0-.07.09-.031.09-.031s.225.564.391.999c.16.435.313.818.352.857.031.039.275.466.383 1.165.11.7.148 1.344.213 1.774.03.204.057.421.121.639.07.236.179.479.321.852.122.313.213.574.262.8.057.287.057.505.09.647.032.122.078.365.187.717s.27.805.378 1.087a6.02 6.02 0 0 1 .34 1.287c.027.259.123 1.155.098 1.424z" fill="#A88F33"></path>
                        <path fill-rule="evenodd" clip-rule="evenodd" d="m21.766 3.66-.013.032s.039.013.03.065c.001.07-.003.142-.012.212-.013.09-.039.16-.044.218 0 .121.018.261-.154.608-.05.096-.082.178-.108.235a.698.698 0 0 1-.135.226c.09-.051.417-.256.583-.226a1.215 1.215 0 0 0-.397.358.89.89 0 0 0 .308 0c.287-.044.608-.148.89-.127.308.018.187-.37.187-.37l-.356-.782-.673-.474-.106.026z" fill="#BE9C44"></path>
                        <path fill-rule="evenodd" clip-rule="evenodd" d="M23.521 9.517s-.3-.3-.422-1.331c-.121-1.036-.096-2.56-.096-2.56l-.243-.596s-.051-.396-.179-.543c-.127-.148-.377-.396-.491-.518-.114-.122-.244-.287-.321-.313.038-.065.212-.43.877-.435.665-.005.87.365.94.5.07.134.383.716.5 1.826.108 1.108.114 1.19.095 1.574a8.893 8.893 0 0 1-.204 1.23c-.112.445-.233.942-.456 1.167v-.001z" fill="#A17C34"></path>
                        <path fill-rule="evenodd" clip-rule="evenodd" d="M22.58 10.4c.1.007.2-.015.287-.065.095-.005.442.04.709-.3.018.078.065.288-.057.474.065-.065.16-.09.174-.109.005.096.095.391-.288 1.108.104-.114.225-.108.334-.121.005.134.078.587-.114.83-.127.166-.334.114-.334.114a.658.658 0 0 0 0-.108c-.005-.07-.031-.14-.013-.187a.929.929 0 0 1-.269-.186c-.225-.213-.518-.575-.538-.844-.026-.3.243-.365.243-.365a.287.287 0 0 1-.057-.07c-.013-.044-.026-.114-.078-.17z" fill="#8C6228"></path>
                        <path fill-rule="evenodd" clip-rule="evenodd" d="M20.583 7.143s-.013-.018-.083.065c.013-.083.026-.16.031-.236a.813.813 0 0 1 .127-.191 1.632 1.632 0 0 0-.065.147s.096-.179.236-.287c.096-.078.217-.114.269-.187.057-.077.044-.09.057-.103 0 0 .127-.083.321-.327.026-.03.065-.064.09-.095.045-.018.148-.065.27-.127.127-.07.27-.166.357-.205.174-.078.358-.07.443-.192.065-.018.134-.212.122-.378.096.04.587.345.756 1.013.122.473-.096 1.203-.187 1.556-.09.352-.103.613-.23.774-.16.212-.678.512-.805.66-.11.122-.435.43-.422.652.013.166.217.256.261.288.044.031.044.07.127.05.083-.018.114-.056.148-.056.038.005.038.013.056.013a.187.187 0 0 0 .04-.005s-.014.235-.565.307c-.039.005-.078.018-.127.026.065-.031.104-.031.174-.127-.078-.013-.3-.026-.358-.044a.69.69 0 0 1 .127-.153c.044-.039-.005-.051-.044-.031-.067.045-.13.095-.192.148-.064.056-.121.134-.225.204a.505.505 0 0 1 .096-.442c-.031.005-.09.095-.148.077a.825.825 0 0 1 .019-.282c.03-.117.199-.321.199-.321l.813-1.453.173-1.1-1.861.362z" fill="#92723A"></path>
                        <path fill-rule="evenodd" clip-rule="evenodd" d="M20.538 7.205s-.044.031.044.09c-.013.019-.044.084-.083.128-.044.05-.09.082-.108.127-.04.09-.07.152-.07.191 0 .04-.013.288-.122.448-.039.057-.083.153-.114.217-.065.114-.122.205-.135.256-.025.091-.043.34-.043.34l.077-.096c-.031.064-.065.134-.114.186.031-.026.122-.09.274-.225.213-.179.544-.479.948-.717-.122.044-.225.044-.308.057.065-.065.647-.748.953-.813a.122.122 0 0 0 .026-.083l-.262-.025-.53.113-.078-.41-.355.216z" fill="#B18E3E"></path>
                        <path fill-rule="evenodd" clip-rule="evenodd" d="M21.383 9.536s-.07.07-.135.243a.817.817 0 0 1-.127-.174c-.096-.16-.243-.365-.587-.248-.006-.109-.014-.166 0-.243.056-.013.23-.153.403-.358.122-.14.236-.3.314-.505.05-.038.14-.103.256-.178.165-.114.365-.27.396-.443-.078.031-.244.109-.492.096.096-.044.243-.09.225-.282.039-.026.07-.044.07-.044a.256.256 0 0 0-.09-.013c-.006-.018-.014-.044-.058-.031-.044.012-.05.013-.057.03-.018.006-.077 0-.121.032-.044.031-.166.134-.213.152l.044-.077s-.127.013-.217.051c-.166.057-.357.16-.552.262.018-.031.026-.052.04-.057.012-.006.043-.013.043-.018 0-.006-.013-.052-.005-.07a2.38 2.38 0 0 1 .205-.352c.09-.122.108-.296.108-.296l.397-.199 1.113-.256.722.044-.09.5-.427.872-.365.795-.417.487-.383.28z" fill="#543E26"></path>
                        <path fill-rule="evenodd" clip-rule="evenodd" d="M23.187 7.373s-.435.538-.556.621c.077-.165.556-1.152.73-1.426-.039-.031-.09-.031.03-.512-.102.243-.139.37-.224.435-.086.064-.096.044-.154.044a.109.109 0 0 0 .013-.065s-.365-.044-.614-.044c-.25 0-.743.135-1.018.243-.217.09-.34.09-.417.148-.077.064-.121.134-.16.152-.031.018-.179.065-.213.114-.03.051-.082.109-.082.122 0 .013-.013.031.026.018.012-.005.108-.057.217-.122.147-.082.326-.178.456-.235.37-.148.486-.122.652-.153.173-.031.422-.104.588-.104.165-.005.479 0 .551.013-.03.026-.057.057-.044.166 0 .031-.026.065-.051.14-.078.212-.225.564-.307.743-.114.243-.244.448-.308.575-.064.126-.204.46-.344.64-.14.178-.212.287-.256.325-.043.04-.357.27-.334.353.057-.019.417-.154.679-.448.26-.295.313-.474.517-.635.205-.16.365-.43.461-.652.08-.207.062-.272.163-.456z" fill="#806031"></path>
                        <path fill-rule="evenodd" clip-rule="evenodd" d="M13.812 11.392s-.057.235-.186.352c-.127.114-.352.212-.378.404-.031.191.225.287.225.287s-.14.23-.14.404c0 .178-.005.212.013.383a.171.171 0 0 0-.051.051s.013.166.14.27c.127.103.235.165.3.139.01.021.018.043.026.065 0 0 .096-.243.16-.456.065-.217.122-.186.148-.479.026-.292.307-.795.307-.795l.192-.429-.313-.243-.443.046z" fill="#B6903C"></path>
                        <path fill-rule="evenodd" clip-rule="evenodd" d="M14.395 11.813a1.884 1.884 0 0 0-.179.213c-.083.114-.147.217-.269.261-.122.045-.2.044-.192.166.008.122.122.174.187.236.07.064.127.173.096.295.038-.018.108-.039.173-.179.065-.14.517-.991.517-.991h-.333z" fill="#685026"></path>
                        <path fill-rule="evenodd" clip-rule="evenodd" d="M16.18 9.849s.038-.104 0-.179c-.04-.078-.275-.104-.391-.192-.122-.09-.27-.153-.391-.113.018-.045.09-.14.03-.161-.056-.018-.268.078-.325.122-.057.044-.187.095-.213.127-.026.03-.07.09-.096.064-.026-.018-.038-.064-.082-.039-.044.026-.256.2-.296.3-.039.102-.127.327-.39.583-.264.256-.378.422-.3.518.077.096.113.026.126.109a.697.697 0 0 1-.013.243c-.03.135-.083.261-.013.287.179.057.352-.05.391-.018.078.07-.044.321.14.37.187.052.37-.043.37-.043l.678-.366.653-.344.334-.66-.18-.551-.033-.057z" fill="#D4B968"></path>
                        <path fill-rule="evenodd" clip-rule="evenodd" d="M15.539 11.425s-.114-.173.026-.326c.14-.153.339-.218.417-.313a.12.12 0 0 0-.057-.04.516.516 0 0 1 .225-.212.216.216 0 0 0-.148-.07c-.127 0-.204.078-.32.078-.115 0-.128-.057-.128-.057s.192-.018.174-.103c-.018-.091-.051-.091-.051-.091s.37-.154.434-.236c.065-.081.058-.178.07-.217.044 0 .3-.135.404-.078.104.057.031.213.031.213s.314-.236.474-.467c.14.013.204-.096.307-.096.127 0 .326.174.365.544.026.212.064.334.026.71-.018.212-.013.665.051.89.044.178.147.16.147.16a.29.29 0 0 1-.09.14c-.07.065-.078.236-.07.3.01.048.023.094.039.14 0 0-.083.096-.104.16-.018.066-.103.11-.166.11-.062 0-.03-.006-.113 0-.083.005-.11.018-.161 0-.052-.018-.09-.04-.07-.205.018-.166-.64-.552-.64-.552l-1.075-.383.003.001z" fill="#CCA849"></path>
                        <path fill-rule="evenodd" clip-rule="evenodd" d="M14.305 13.062s.235.313 1.203.313c.461 0 .622-.044.717-.07.104-.026.492-.178.883-.64.352-.416.274-.587.274-.587l-.204-.031-.666.09-1.97.84-.238.085z" fill="#585136"></path>
                        <path fill-rule="evenodd" clip-rule="evenodd" d="M15.026 13.139s-.838.187-.838-.344c0-.518.517-1.062.647-1.158.134-.096.455-.204.455-.204h.775l.147.39-.065.845-1.12.47z" fill="#252211"></path>
                        <path fill-rule="evenodd" clip-rule="evenodd" d="M15.8 11.59s-.16-.147-.525.052c-.365.199-.66.614-.678.992-.019.334.274.582.73.595.339.013.543-.026.647-.051l-.16-.2-.013-1.387z" fill="#C3B378"></path>
                        <path fill-rule="evenodd" clip-rule="evenodd" d="M15.643 11.674s-.04-.031-.154.03c-.096.052-.236.187-.344.283-.07.057-.114.083-.154.127-.16.192-.295.505-.217.66.078.156.334.334.986.213l-.12-1.313h.002z" fill="#E6D89C"></path>
                        <path fill-rule="evenodd" clip-rule="evenodd" d="M15.43 11.995s-.103.16-.103.417c0 .261.148.678.691.709.417.026.697-.6 1-.844.23-.186.37-.192.37-.192s-.236-.256-.865-.587c-.621-.334-1.318-.378-1.696.134.179-.013.756-.16.756-.16l.283.09-.435.433z" fill="#252211"></path>
                        <path fill-rule="evenodd" clip-rule="evenodd" d="M16.244 12.334c-.018-.039-.031-.09.044-.103.075-.013.108-.006.134.05.026.057.052.104.013.128-.038.02-.14 0-.191-.075zm-.122-.365s-.026.018-.013-.018c.005-.044.039-.122.122-.104.083.019.065.11.051.135-.014.026-.083.07-.135.051a.043.043 0 0 1-.026-.064h.001z" fill="#6F674D"></path>
                        <path fill-rule="evenodd" clip-rule="evenodd" d="M9.113 12.135a.8.8 0 0 0 .443.147c.236-.005.538-.248.678-.404.083-.09.154-.186.23-.261.066-.065.11-.096.14-.14.044-.051.091-.147.114-.179-.057.044-.14.122-.225.174a2.658 2.658 0 0 1-.334.173c-.07.026-.795.41-.795.41l-.25.08z" fill="#AC924C"></path>
                        <path fill-rule="evenodd" clip-rule="evenodd" d="M9.427 10.222s.114-.078.334-.127c.212-.052.64-.091.64-.091l.351.154.14.53-.256.552-.326.205-.37-.596-.512-.627h-.001z" fill="#9F8E57"></path>
                        <path fill-rule="evenodd" clip-rule="evenodd" d="m8.966 10.695-.122.091s.031-.057.057-.23c.026-.174.16-.596.357-.84.197-.243.192-.23.192-.23a.13.13 0 0 0-.104.026 1.24 1.24 0 0 1 .358-.364c.165-.103.23-.135.403-.052.174.084.218.127.345.122.127-.005.235-.14.235-.14s.026.083-.07.275c-.095.191-.473.582-.473.582l-.787.539-.391.221z" fill="#EAC970"></path>
                        <path fill-rule="evenodd" clip-rule="evenodd" d="M9.549 10.156s.57.078.743-.082c.005.018.026.018.026.03a.045.045 0 0 1-.013.027.418.418 0 0 1 .057-.006.332.332 0 0 0 .07.013c.019 0 .038-.002.057-.005a.097.097 0 0 1-.04.065c.027 0 .052.005.052.026 0 .02.005.083-.026.096a.117.117 0 0 1-.078-.006.318.318 0 0 0 .04.14c.05.096.16.205.306.174 0 0 .078.186-.248.6-.044.057-.09.135-.148.2a.75.75 0 0 0-.05.152s.55-.212.708-.696c.161-.487.192-.966.161-1.414a.727.727 0 0 0-.057-.282c-.078-.16-.295-.135-.383-.044-.127.127-.34.443-.634.66-.3.218-.314.256-.544.352z" fill="#D7BC6B"></path>
                        <path fill-rule="evenodd" clip-rule="evenodd" d="M8.864 10.856s-.108.064-.165.307c-.057.248.05.551.114.647.062.096.204.357.5.37a.55.55 0 0 0 .212-.044c.102-.047.2-.107.287-.178.127-.096.23-.179.217-.187a35.572 35.572 0 0 1-.781-.634l-.283-.315-.1.034z" fill="#585136"></path>
                        <path fill-rule="evenodd" clip-rule="evenodd" d="M9.575 11.886s.152-.013.243-.07c.09-.057-.53-.673-.53-.673l.043.666.244.077z" fill="#453A25"></path>
                        <path fill-rule="evenodd" clip-rule="evenodd" d="M8.914 10.81s-.077.147-.077.186c-.013.126.025.525.057.652.03.135.199.339.416.339.135 0 .322-.083.322-.103 0-.026-.192-.052-.244-.148-.03-.051-.044-.179-.051-.307-.005-.083-.005-.174.026-.205.07-.078.083-.3.083-.3l.248-.462h-.327l-.39.243-.063.104z" fill="#84754B"></path>
                        <path fill-rule="evenodd" clip-rule="evenodd" d="M8.818 10.952s.256-.34.487-.417c.23-.078.334-.031.334-.031l-.135.344-.191.212.013.11s-.031.287.16.486c.192.2.334.191.417.191.083 0 .321-.07.443-.357.108-.269.2-.614-.018-.96-.213-.345-.588-.358-.66-.358-.073 0-.643.028-.85.78z" fill="#252211"></path>
                        <path fill-rule="evenodd" clip-rule="evenodd" d="M15.391 12.103c-.095-.044-.005-.313.091-.396a.674.674 0 0 1 .43-.192c.077-.005.152.044.14.096-.018.096-.153.23-.275.327-.168.132-.277.214-.386.165z" fill="#F7F7E7"></path>
                        <path fill-rule="evenodd" clip-rule="evenodd" d="M10.214 10.636c.07-.005.16.05.178.127.018.082-.044.248-.178.248-.11 0-.166-.135-.166-.173a.198.198 0 0 1 .026-.091c.005-.008.018-.098.14-.111z" fill="#F8F6DE"></path>
                        <path fill-rule="evenodd" clip-rule="evenodd" d="M9.204 10.695s-.179.083-.261.256a.68.68 0 0 0-.052.41c.013.065.078.225.122.282.044.057.104.096.148.09.044-.005.134-.121.134-.19 0-.07.005-.366.09-.526.076-.16-.18-.322-.18-.322z" fill="#D4C38B"></path>
                        <path fill-rule="evenodd" clip-rule="evenodd" d="M9.23 10.682c-.03.018-.083.044-.07.078.013.03.122.05.16.127.045.077.045.16.032.2a.317.317 0 0 0 .09-.066c.057-.065.127-.152.187-.152.039 0 .078.018.114.018.057 0 .114-.018.122-.078.012-.078-.11-.148-.18-.135.014-.05.032-.126-.025-.178-.057-.052-.236.039-.275.065-.038.025-.155.121-.155.121z" fill="#E2D59D"></path>
                        <path fill-rule="evenodd" clip-rule="evenodd" d="m13.344 16.122.383-.114.108.078s.078.166.2.186c-.04.083-.14.154-.135.213.005.058.057.103.057.103s-.344.57.334 1.144c-.16.064-.365.153-.474.204.078.019.243.052.313.114.07.063.07.083.135.122.065.04.104.09.09.114-.043-.026-.19-.103-.217-.031-.025.072-.64.044-.64.044l-1.035.2s.039-.104-.07-.2c-.127-.114-.282.005-.448-.122-.217-.165-.225-.357-.295-.43.07-.044.213-.108.552-.153-.013-.026-.057-.104-.031-.173.03-.091.16-.148.121-.256.057-.013.083-.013.226-.192.134-.179.217-.217.32-.23.104-.013.167 0 .358-.18.135-.126.09-.235.09-.235s.089-.028.058-.207z" fill="#CBAC5A"></path>
                        <path fill-rule="evenodd" clip-rule="evenodd" d="M12.213 16.18c.005-.027.026-.04.165-.027.14.013 1.025-.083 1.266-.096.244-.018 1.1-.005 1.518.083.416.088.838.192 1.043.244.205.056.27.077.261.103-.005.026-.051.051-.077.044-.026-.005-.705-.212-.914-.256-.21-.044-.935-.16-1.331-.154-.37.006-.518-.005-.831.031-.314.04-.832.091-.987.07-.153-.018-.122-.018-.114-.044v.001z" fill="#D6BC6F"></path>
                        <path fill-rule="evenodd" clip-rule="evenodd" d="M14.297 18.208s.53.288.722.64c.14.261-.083.39-.083.39s.3 0 .262.167c-.018.103-.518.383-.852.53-.339.148-.326.14-.492.166-.16.026-.6-.051-.691.078-.09.128-.051.261-.026.282.026.018.236.044.236.044s-.044.122-.48.135c-.434.012-.543.043-.569.09-.026.044.083.018.282.051.2.031.48.052.48.052s-.091.077-.327.14c-.27.07-.691.134-.818.212.065.044.16.108.205.114a1.291 1.291 0 0 0-.288.103c.039.026.09.057.09.057s-.217.262-.344.326c-.126.065-.856.404-1.108.34-.626-.166-.704-.852-.857-.904-.23-.078-.339.078-.543-.031.09-.065.14-.104.235-.148-.103-.05-.64-.39-.64-.39a3.988 3.988 0 0 0-.185-.358c-.104-.179-.256-.417-.37-.627-.25-.46-.262-.673-.488-.934.04-.051.174-.044.174-.044l1.887.621 3.347.097.87-1.242.37.044z" fill="#DFC677"></path>
                        <path fill-rule="evenodd" clip-rule="evenodd" d="M9.339 20.104c.02.022.044.041.07.056.065.044.16.096.225.174.026-.039.09-.109.205 0 .114.109.256.031.344.057.09.031.096.044.096.044s.05-.044.165-.09c.07-.027.153-.045.244-.07.083-.019.173-.045.236-.045.056.04.261.256 1.082-.064.774-.3.952-.334 1.082-.288.013-.03.026-.09.225-.083 0-.082-.165-.365-.165-.365l-.915-.313h-.5l-1.498.275-.83.474-.066.239v-.002z" fill="#C4A859"></path>
                        <path fill-rule="evenodd" clip-rule="evenodd" d="M8.839 19.578s.018.14.225.288c.205.147.27.235.27.235s.038-.051.07-.103c.03-.057.056-.122.108-.14.104-.044.34.039.391.026.044-.013.031-.104.078-.104.108-.005.178.07.217.07.039 0 .134-.005.147-.026.013-.02.019-.236.166-.34a.443.443 0 0 1 .41-.038c0 .039.005.135.109.14.103.005.113-.013.204.018.091.031.2-.005.249.148.044-.013.147-.026.121-.174.052-.039.096-.065.205-.217.026-.04.07-.083.104-.14.09 0 .2-.018.344.109-.044.03-.07.05-.083.082a.924.924 0 0 1 .104.122c.039.051.065.114.114.127.109.031.287-.013.487 0a.98.98 0 0 1 .422.127c.025-.013.025-.018.09-.005.065.013.114.018.044-.065.039.018.083.057.122.018.039-.039.07-.096.178-.109.11-.013.148.006.192-.108.057-.14-.14-.14-.14-.14s.091-.083.192-.192c.122-.114.262-.261.295-.442.057-.334-.27-.378-.27-.378l-1.581.486-1.934-.096-1.65.821z" fill="#927D49"></path>
                        <path fill-rule="evenodd" clip-rule="evenodd" d="M7.418 15.008s-.052.065-.083.218c-.032.153-.018.135-.044.243-.026.11-.345 1.191-.225 1.556.12.365.326.5.455.795.026.065.052.104.065.16.044.192.005.34.057.532.018.064.065.14.135.217.153.16.404.313.512.422.152.16.37.487.647.518.148.018.357-.044.53-.148.154-.096.25-.23.41-.307.114-.057.236-.078.345-.104.225-.044.43-.05.551-.026.187.04.627.174.87.174.191-.003.38-.03.565-.078.37-.108.818-.295 1.113-.378.174-.05.313-.064.456-.096.243-.056.448-.134.564-.282-.077-.09-.173-.23-.691-.225-.588.013-1.266.34-1.6.391-.334.052-.479.096-.852-.039-.366-.136-.378-.226-.378-.226s-.383-.268-.544-.953c-.16-.684 0-1.183.417-1.657.109-.121.083-.23.083-.23s.274-.37.2-.717c-.084-.344-.615-.274-.615-.274l-2.943.514z" fill="#6E6342"></path>
                        <path fill-rule="evenodd" clip-rule="evenodd" d="M7.86 16.16a.269.269 0 0 0-.03.14c.005.07.025.16.235.366.179.178.14.377.14.377s.09.018.334-.096c.191-.09.256.07.256.07a.543.543 0 0 1 .178-.057.391.391 0 0 0 .16-.051s.226.23.423.34c.179.095.282.16.37.095.083-.057.083-.174.078-.225a.675.675 0 0 0-.078-.135c-.057-.083-.147-.179-.153-.256-.013-.178.134-.39.103-.443-.031-.051-.147-.064-.435.04-.297.098-1.582-.164-1.582-.164h.002z" fill="#39331F"></path>
                        <path fill-rule="evenodd" clip-rule="evenodd" d="M8.538 17.318s-.147-.14-.095-.818c.062-.001.125.005.186.018 0 0 .08.525-.09.8z" fill="#292311"></path>
                        <path fill-rule="evenodd" clip-rule="evenodd" d="M7.488 14.49a.406.406 0 0 0 .057-.05c-.051.095-.288.478-.096 1.082.191.6.673 1.048 1.266 1.069.593.02.904-.27 1.26-.704.14-.174.301-.391.443-.539.213-.23.378-.295.378-.518 0-.455-.466-.66-1.152-.864-.686-.205-1.305-.18-1.626-.04-.313.153-.448.314-.53.565z" fill="#252211"></path>
                        <path fill-rule="evenodd" clip-rule="evenodd" d="m9.69 17.522.052-.026s.013-.204.096-.199c.083.013.122.122.114.16-.005.04-.026.104-.109.096-.109.003-.153-.03-.153-.03z" fill="#3F3824"></path>
                        <path fill-rule="evenodd" clip-rule="evenodd" d="M9.46 16.652s.051-.018.114.044c.051 0 .274-.026.344.018.07.045.09.083.09.083s-.26.057-.403 0c-.145-.049-.145-.145-.145-.145z" fill="#2D2815"></path>
                        <path fill-rule="evenodd" clip-rule="evenodd" d="M10.612 16.691c0-.013-.14-.109-.287-.14-.026-.005-.031.013-.051.013-.013-.005-.018-.044-.018-.044l-.084.044s-.013.018.03.051c.04.032.104.057.123.11.018.05.018.069.025.077.005.005.096 0 .14-.026.044-.026.127-.068.122-.085z" fill="#82764F"></path>
                        <path fill-rule="evenodd" clip-rule="evenodd" d="M9.305 17.217s.025-.179.199-.186c.179-.014.212.16.212.16l-.103.104c0-.003-.078-.112-.307-.078h-.001z" fill="#2D2816"></path>
                        <path fill-rule="evenodd" clip-rule="evenodd" d="M10.43 16.448s-.095.104-.307.134c-.018-.025-.057-.077 0-.16s.121-.109.186-.083a.153.153 0 0 1 .122.109z" fill="#574F35"></path>
                        <path fill-rule="evenodd" clip-rule="evenodd" d="M10.822 16.575c.006-.026-.013-.031 0-.044.013-.013.083-.039.096-.026.005.005 0 .026 0 .051 0 .025 0 .051-.013.07-.018.026-.07.039-.096.031-.026-.008-.03-.044-.03-.051.012-.005.043-.018.043-.031zm.442-.28c0-.013.044-.039.07-.039.039 0 .039.031.044.04.013.004.013-.006.026.017.013.024.031.065.018.091-.013.026-.065.044-.077.039a.692.692 0 0 1-.08-.148z" fill="#82764F"></path>
                        <path fill-rule="evenodd" clip-rule="evenodd" d="M10.374 16.634s.057.013.135.078c-.026.018-.065.039-.065.039s-.005-.06-.07-.117z" fill="#6E6342"></path>
                        <path fill-rule="evenodd" clip-rule="evenodd" d="M10.247 16.065c-.013-.013.039-.044.07-.04.031.006.044.027.078.032.033.005.039-.013.05-.026.013-.013.058-.005.066 0l.013.018a.071.071 0 0 1 .025-.051.082.082 0 0 1 .07-.013c.005.018.031.083.026.096-.005.013-.083.031-.096.018.013.031.07.096.078.108.008.013-.057.045-.083.04a1.055 1.055 0 0 1-.298-.182h.001zm.34-.43a.06.06 0 0 0-.027-.031c-.018-.005-.077 0-.077.03 0 .032.05.206.108.296.065.09.11.166.153.187a.06.06 0 0 0 .078-.026c.005-.013.018-.11.013-.334-.005-.226-.013-.443-.026-.456-.013-.013-.065-.013-.083.013a2.423 2.423 0 0 0-.14.32z" fill="#585136"></path>
                        <path fill-rule="evenodd" clip-rule="evenodd" d="M10.356 16.96s-.09-.057-.179-.018c-.082.04-.077.192-.077.192a.122.122 0 0 0 .114-.013c.057-.039.129-.103.142-.16z" fill="#574F35"></path>
                        <path fill-rule="evenodd" clip-rule="evenodd" d="M10.527 17.165c-.005-.051-.051-.051-.051-.078a.058.058 0 0 1 .056-.044c.026 0 .052.032.083.052.031.018.078.05.083.09.005.04-.051.148-.114.148-.062 0-.044-.117-.057-.169v.001zm.5-.07s-.104.031-.096 0c.007-.03.03-.039.064-.039a.102.102 0 0 1 .065-.03c.014-.002.028.003.039.012 0 0 .07-.03.09-.013.021.018.006.018.019.04.016.022.027.049.03.077 0 .02-.077.064-.14.057-.072-.016-.059-.09-.072-.104zm.603-.116s.03.018.005.038a.422.422 0 0 1-.187.058c-.077 0-.147.012-.147-.014 0-.025.065-.077.103-.09a.083.083 0 0 1 .065-.031c.031 0 .153-.013.187-.018.03-.006.057.012.038.038-.007.019-.064.019-.064.019zm.178-.8s-.039.083-.082.083c-.045-.005-.045-.018-.045-.031 0-.018.045-.065.04-.078-.014 0-.045 0-.04-.03 0-.027.045-.058.083-.052a.17.17 0 0 1 .104-.039c.044 0 .083.013.083.039 0 .026-.052.083-.07.096-.021.02-.047.034-.073.013zm-.59 1.53s-.051.006-.051.031c0 .013.013.013.03.006.011-.001.022-.003.032-.006.005.006.005.031.044.031a.246.246 0 0 0 .09-.03c.032-.014.058-.027.058-.052-.013-.044-.04-.065-.078-.065a.103.103 0 0 0-.057.013s-.013-.026-.057 0c-.044.026-.039.026-.026.04.023.02.016.033.016.033h-.001zm-.293.27c0-.014.065-.04.083-.032.018.006.07.104.07.114 0 .013-.065.044-.09.044-.027 0-.07-.044-.07-.05 0-.006.03-.014.03-.019.008-.013-.023-.044-.023-.057zm-.204-.378c.013-.006.013-.019.03-.032a.045.045 0 0 1 .039-.005.064.064 0 0 1 .045-.03c.03-.006.057 0 .05.012 0 .039.027.065.027.096 0 .03-.018.07-.083.096a.458.458 0 0 1-.166.013c-.013-.006-.026-.057-.013-.083a.216.216 0 0 1 .07-.067z" fill="#82764F"></path>
                        <path fill-rule="evenodd" clip-rule="evenodd" d="M10.803 17.618s-.044.026-.044.04a.115.115 0 0 0-.005.038c0 .007.057-.005.065-.013.002-.005-.016-.051-.016-.065z" fill="#6E6342"></path>
                        <path fill-rule="evenodd" clip-rule="evenodd" d="M10.418 17.496c.026.006.07 0 .103.013.026.013.044.04.018.07-.025.031-.05.078-.108.07-.065-.005-.127-.039-.127-.065a.124.124 0 0 1 .031-.09c.026-.02.039-.008.083.002z" fill="#585136"></path>
                        <path fill-rule="evenodd" clip-rule="evenodd" d="M10.387 17.523s-.082.064-.103.095c-.026.031-.153.192-.192.226a.497.497 0 0 1 .044-.065.265.265 0 0 0-.108.14c-.031.096.173.147.308.186.134.039.186.051.186.051a1.44 1.44 0 0 1-.127-.235c-.051-.122-.077-.135-.044-.192.026-.057.065-.096.065-.14-.016-.04-.029-.066-.029-.066z" fill="#574F35"></path>
                        <path fill-rule="evenodd" clip-rule="evenodd" d="M7.436 17.727a.16.16 0 0 0 .057 0c.039-.005.443-.154.865-.127.316.019.629.07.934.153.531.14 1.191.417 1.618.575.114.044.226.122.307.153.327.127.34.127.531.16.226.032.456-.044.697-.095.295-.065.8-.096 1.242-.16a2.54 2.54 0 0 0 .423-.097s-.353.352-1.197.48a3.743 3.743 0 0 1-1.03.012 3.133 3.133 0 0 1-.582-.103c-.153-.044-.467-.161-.852-.256-.27-.07-.57-.122-.914-.187-.85-.155-1.771-.334-2.1-.507v-.001z" fill="#252211"></path>
                        <path fill-rule="evenodd" clip-rule="evenodd" d="M6.483 16.127c-.205.173-.422.34-.634.5l-.64.49c-.217.161-.43.327-.647.488-.218.16-.435.313-.666.46.205-.173.423-.334.64-.492.217-.157.443-.312.653-.472l.64-.492c.22-.16.431-.326.654-.482zm-1.131 1.812s.23-.191.518-.46c.357-.334.794-.762.934-.84l-1.452 1.3z" fill="#CFB66C"></path>
                        <path fill-rule="evenodd" clip-rule="evenodd" d="M5.352 17.94a9.04 9.04 0 0 1 .357-.335l.186-.16c.057-.051.122-.109.179-.166.114-.114.225-.236.34-.352.056-.059.115-.114.178-.166a.481.481 0 0 1 .103-.07c.031-.018.065-.05.109-.057-.026.04-.057.057-.083.09-.03.027-.057.058-.083.084-.057.057-.121.108-.178.16-.122.104-.249.205-.37.313-.122.109-.236.226-.358.334-.132.112-.253.22-.38.325zM6.9 16.903s-.844.826-1.018.96l1.018-.96z" fill="#CFB66C"></path>
                        <path fill-rule="evenodd" clip-rule="evenodd" d="M6.9 16.903c-.077.088-.158.171-.244.249l-.256.243c-.083.083-.161.166-.249.249-.09.077-.173.153-.27.225l.25-.243c.082-.083.173-.153.261-.236l.248-.243c.086-.086.169-.169.26-.244zm.038.448c-.078.217-.17.43-.274.634-.218.436-.544.98-.686 1.256l.96-1.89z" fill="#CFB66C"></path>
                        <path fill-rule="evenodd" clip-rule="evenodd" d="M6.938 17.352a.726.726 0 0 1-.057.261c-.03.083-.064.164-.103.243-.039.078-.083.161-.127.236-.044.075-.096.153-.135.23l-.261.461c-.09.154-.179.308-.275.456.065-.166.153-.321.236-.474a9.84 9.84 0 0 0 .256-.466c.04-.08.077-.16.109-.243.039-.083.077-.16.109-.236.038-.083.07-.16.108-.235.044-.08.08-.158.14-.233z" fill="#CFB66C"></path>
                        <path fill-rule="evenodd" clip-rule="evenodd" d="M7.86 19.475s-.256.339-.23.768c.07-.225.158-.57.23-.768zm.244.34s-.091.921-.166 1.374c.106-.523.127-.48.166-1.374zm1.695 1.429s-.383 1.126-.39 1.44c.082-.323.243-.98.39-1.441z" fill="#DEC270"></path>
                        <path fill-rule="evenodd" clip-rule="evenodd" d="M10.695 19.405s.622 1.025 1.088 1.9c-.126-.44-.416-1.248-1.088-1.9z" fill="#CBAF59"></path>
                        <path fill-rule="evenodd" clip-rule="evenodd" d="M12.365 20.914c.341.603.65 1.225.922 1.861-.052-.44-.192-1.193-.922-1.86z" fill="#E3C677"></path>
                        <path fill-rule="evenodd" clip-rule="evenodd" d="M17.274 22.425c.103-.064.308-.416.486-.504.179-.091.314-.11.474-.288.16-.186.205-.3.557-.448.492-.212.153-.487.153-.487.055-.053.113-.102.174-.147.127-.096.274-.212.261-.417-.018-.344-.082-.844-.365-1.134.275-.057.8-.096 1.127-.178.378-.096.551-.231.551-.231s-.217-.37.135-.743.64-.595.852-1.012c-.244-.031-.615-.16-1.562.2.051.023.1.05.148.082 0 0-.583.16-.795.34-.37.312-.417.569-.818.76-.401.192-.805.14-1.14.295-.333.156-.382.288-.504.345.026.03-.005.083.044.127-.031.044-.212.339-.396.339.018.07.173.121.173.121s-.114.083-.404.104c.148.154.288.321.674.564-.032.065-.161.161-.11.283.058.121.206.287.796.422-.3.012-.653.082-1.127.018-.474-.057-.551-.09-.844-.018.031.03.114.03.187.114-.078.005-.565-.057-.73.16-.174.225-.249.596-.236.844-.09.044-.179.122-.135.282.044.161.275.213.422.314.148.108.16.147.3.121.148-.03.366-.178.493-.178a.33.33 0 0 1 .217.095s.345-.165.378-.134c.031.03.005.23.039.261.034.024.422-.207.526-.272h-.001z" fill="#ECD592"></path>
                        <path fill-rule="evenodd" clip-rule="evenodd" d="M24.8 12.065c-1.618-4.179-5.618-4.953-5.618-4.953H7.77l.044 4.256h2.272v9.504H7.77v4.249h11.096c2.675 0 4.818-2.688 4.818-2.688 3.433-4.872 1.116-10.368 1.116-10.368zm-5.874 7.505s-.87 1.256-1.818 1.256h-1.894l-.045-9.447H17.6s1.127.235 1.913 2.464c0 0 1.044 3.192-.587 5.727z" fill="#fff" fill-opacity=".8"></path>
                        <path fill-rule="evenodd" clip-rule="evenodd" d="M16 30.667c8.1 0 14.667-6.567 14.667-14.667S24.1 1.333 16 1.333 1.333 7.9 1.333 16 7.9 30.667 16 30.667zM16 32c8.837 0 16-7.163 16-16S24.837 0 16 0 0 7.163 0 16s7.163 16 16 16z" fill="#000" fill-opacity=".1"></path>
                    </svg>