<svg width="32" height="32" fill="none" xmlns="http://www.w3.org/2000/svg">
                        <g clip-path="url(#a)">
                            <path d="M16 32c8.837 0 16-7.163 16-16S24.837 0 16 0 0 7.163 0 16s7.163 16 16 16z" fill="#FAFAFA"></path>
                            <path fill-rule="evenodd" clip-rule="evenodd" d="M19.068 9.678c0 .927-1.373 1.678-3.068 1.678-1.694 0-3.068-.751-3.068-1.678C12.932 8.751 14.306 8 16 8c1.695 0 3.068.751 3.068 1.678zm0 12.644C19.068 23.249 17.695 24 16 24c-1.694 0-3.068-.751-3.068-1.678 0-.927 1.374-1.678 3.068-1.678 1.695 0 3.068.751 3.068 1.678zm-7.344-8.643c.848-1.38.842-2.875-.012-3.338-.854-.464-2.233.279-3.08 1.659s-.842 2.874.012 3.338c.854.464 2.233-.28 3.08-1.66zm11.632 2.984c.853.463.858 1.957.011 3.337-.847 1.38-2.226 2.123-3.08 1.66-.853-.464-.858-1.958-.01-3.338.847-1.38 2.226-2.123 3.079-1.66zm-11.643 4.996c.854-.463.86-1.958.012-3.338-.847-1.38-2.226-2.123-3.08-1.659-.854.464-.86 1.958-.013 3.338.848 1.38 2.227 2.123 3.08 1.66zm11.655-9.658c.847 1.38.842 2.874-.011 3.337-.854.464-2.232-.28-3.08-1.66-.847-1.38-.842-2.873.011-3.337.854-.463 2.233.28 3.08 1.66z" fill="#E6007A"></path>
                            <path fill-rule="evenodd" clip-rule="evenodd" d="M16 30.667c8.1 0 14.667-6.567 14.667-14.667S24.1 1.333 16 1.333 1.333 7.9 1.333 16 7.9 30.667 16 30.667zM16 32c8.837 0 16-7.163 16-16S24.837 0 16 0 0 7.163 0 16s7.163 16 16 16z" fill="#000" fill-opacity=".1"></path>
                        </g>
                        <defs>
                            <clipPath id="a">
                                <path fill="#fff" d="M0 0h32v32H0z"></path>
                            </clipPath>
                        </defs>
                    </svg>