<svg width="32" height="32" fill="none" xmlns="http://www.w3.org/2000/svg">
                        <path d="M16 32c8.837 0 16-7.163 16-16S24.837 0 16 0 0 7.163 0 16s7.163 16 16 16z" fill="#00EF8B"></path>
                        <path fill-rule="evenodd" clip-rule="evenodd" d="M24 11.76h-4.24c-.773 0-1.413.64-1.413 1.413v.48h-3.76v-.48A5.178 5.178 0 0 1 19.76 8H24v3.76zm-9.413 7.067c0 .773-.64 1.413-1.414 1.413-.773 0-1.413-.64-1.413-1.413 0-.774.64-1.414 1.413-1.414h1.414v1.414zm3.76-1.414h-3.76v-3.76h-1.414A5.178 5.178 0 0 0 8 18.827 5.178 5.178 0 0 0 13.173 24a5.178 5.178 0 0 0 5.174-5.173v-1.414zm3.76-3.76h-3.76v3.76h3.76v-3.76z" fill="#fff"></path>
                        <path d="M18.347 13.653h-3.76v3.76h3.76v-3.76z" fill="#16FF99"></path>
                        <path fill-rule="evenodd" clip-rule="evenodd" d="M16 30.667c8.1 0 14.667-6.567 14.667-14.667S24.1 1.333 16 1.333 1.333 7.9 1.333 16 7.9 30.667 16 30.667zM16 32c8.837 0 16-7.163 16-16S24.837 0 16 0 0 7.163 0 16s7.163 16 16 16z" fill="#000" fill-opacity=".2"></path>
                    </svg>