<svg width="32" height="32" fill="none" xmlns="http://www.w3.org/2000/svg">
                        <path d="M32 16c0 8.837-7.163 16-16 16S0 24.837 0 16 7.163 0 16 0s16 7.163 16 16z" fill="#17B5CB"></path>
                        <path fill-rule="evenodd" clip-rule="evenodd" d="M16 30.667c8.1 0 14.667-6.567 14.667-14.667S24.1 1.333 16 1.333 1.333 7.9 1.333 16 7.9 30.667 16 30.667zM16 32c8.837 0 16-7.163 16-16S24.837 0 16 0 0 7.163 0 16s7.163 16 16 16z" fill="#000" fill-opacity=".2"></path>
                        <path d="M20.714 11h1.26l-5.11 5.961a.42.42 0 0 0-.01.538L19.8 21h-1.313l-2.72-3.245-.137-.177a.421.421 0 0 1 .008-.537L20.714 11z" fill="#fff"></path>
                        <path d="M17.873 17.5c-.086-.098-.112-.239-.086-.362a.561.561 0 0 1 .12-.194l.338-.38L22 21h-1.191s-2.202-2.628-2.936-3.5zM11.312 21H10l4.023-4.753c.13-.15.13-.38 0-.53L10.034 11h1.261l4.014 4.753c.104.141.121.344.009.476C14.265 17.473 11.312 21 11.312 21zM13.505 11h-1.209l3.721 4.4s.009-.008.423-.511c.112-.132.138-.3.009-.432-.777-.812-2.944-3.457-2.944-3.457zM17.13 14.069 19.713 11h-1.226l-1.346 1.605-.389.467a.421.421 0 0 0-.009.538c.095.115.389.459.389.459zM14.886 17.931 12.305 21h1.217l1.347-1.605.389-.467a.42.42 0 0 0 .008-.538l-.38-.459z" fill="#fff"></path>
                    </svg>