<svg width="32" height="32" fill="none" xmlns="http://www.w3.org/2000/svg">
                        <g clip-path="url(#a)">
                            <path d="M16 32c8.837 0 16-7.163 16-16S24.837 0 16 0 0 7.163 0 16s7.163 16 16 16z" fill="#ED338C"></path>
                            <path d="M21.322 12.442c-.225-.217-.475-.38-.775-.435-.375-.054-.75.218-1 .408-.25.19-.75.68-.95.87-.2.19-.7.299-1.524.843-.825.543-4.024 2.773-4.024 2.773h.825l-3.724 2.093h.375L10 19.43c.3.082.6.027.875-.136v.136s4.424-1.903 5.273-1.414l-.524.163c.05 0 .874.055.874.055.05.38.25.734.55.924.5.354.525.571.525.571s-.25.109-.25.272a2.135 2.135 0 0 1 1.425 0s-.025-.163-.375-.272a2.029 2.029 0 0 1-.875-.761c-.2-.3-.275-.68-.15-1.033.125-.354.55-.544 1.425-1.033 1.024-.571 1.274-1.006 1.4-1.36.124-.353.374-1.005.474-1.332.1-.299.275-.543.5-.761.275-.163.575-.3.85-.408.05.027-.5-.462-.675-.598z" fill="#fff"></path>
                            <path fill-rule="evenodd" clip-rule="evenodd" d="M16 30.667c8.1 0 14.667-6.567 14.667-14.667S24.1 1.333 16 1.333 1.333 7.9 1.333 16 7.9 30.667 16 30.667zM16 32c8.837 0 16-7.163 16-16S24.837 0 16 0 0 7.163 0 16s7.163 16 16 16z" fill="#000" fill-opacity=".1"></path>
                        </g>
                        <defs>
                            <clipPath id="a">
                                <path fill="#fff" d="M0 0h32v32H0z"></path>
                            </clipPath>
                        </defs>
                    </svg>