<svg width="32" height="32" fill="none" xmlns="http://www.w3.org/2000/svg">
                        <g clip-path="url(#a)">
                            <path d="M16 32c8.837 0 16-7.163 16-16S24.837 0 16 0 0 7.163 0 16s7.163 16 16 16z" fill="#345D9D"></path>
                            <path d="m15.96 16.667-.874 3.222h4.67c.142 0 .244.111.244.267v.066l-.406 1.534a.31.31 0 0 1-.305.244h-7.147l1.198-4.467-1.34.445.305-1.022 1.34-.445 1.685-6.267a.31.31 0 0 1 .304-.244h1.808c.142 0 .243.111.243.267v.066l-1.421 5.29 1.34-.445-.284 1.066-1.36.423z" fill="#fff"></path>
                            <path fill-rule="evenodd" clip-rule="evenodd" d="M16 30.667c8.1 0 14.667-6.567 14.667-14.667S24.1 1.333 16 1.333 1.333 7.9 1.333 16 7.9 30.667 16 30.667zM16 32c8.837 0 16-7.163 16-16S24.837 0 16 0 0 7.163 0 16s7.163 16 16 16z" fill="#fff" fill-opacity=".1"></path>
                        </g>
                        <defs>
                            <clipPath id="a">
                                <path fill="#fff" d="M0 0h32v32H0z"></path>
                            </clipPath>
                        </defs>
                    </svg>