<svg width="32" height="32" fill="none" xmlns="http://www.w3.org/2000/svg">
                        
                        <path fill-rule="evenodd" clip-rule="evenodd" d="M16 30.667c8.1 0 14.667-6.567 14.667-14.667S24.1 1.333 16 1.333 1.333 7.9 1.333 16 7.9 30.667 16 30.667zM16 32c8.837 0 16-7.163 16-16S24.837 0 16 0 0 7.163 0 16s7.163 16 16 16z" fill="#000" fill-opacity=".2"></path>
                        <path fill-rule="evenodd" clip-rule="evenodd" d="M16 4c6.605 0 12 5.405 12 12 0 6.605-5.405 12-12 12-6.605 0-12-5.405-12-12C4 9.395 9.405 4 16 4z" fill="#DC2626"></path>
                        <path d="m23.152 15.77-2.16-.73a2.324 2.324 0 0 1-1.546-1.747l-.912-4.474a.246.246 0 0 0-.48 0l-.912 4.474a2.341 2.341 0 0 1-1.545 1.747l-2.16.73a.24.24 0 0 0-.163.23.24.24 0 0 0 .163.23l2.16.73a2.324 2.324 0 0 1 1.545 1.747l.912 4.474a.246.246 0 0 0 .48 0l.912-4.474a2.341 2.341 0 0 1 1.546-1.747l2.16-.73a.24.24 0 0 0 .163-.23.24.24 0 0 0-.163-.23zM11.565 11.67l.758.26c.279.096.49.326.547.614l.317 1.574c.01.039.039.068.087.068a.092.092 0 0 0 .086-.068l.317-1.574a.826.826 0 0 1 .547-.614l.758-.26c.03-.01.058-.048.058-.086 0-.038-.029-.067-.058-.086l-.758-.26a.826.826 0 0 1-.547-.614L13.36 9.05a.084.084 0 0 0-.086-.068.092.092 0 0 0-.087.068l-.317 1.574a.826.826 0 0 1-.547.614l-.758.26c-.029.01-.058.048-.058.086 0 .038.029.067.058.086zM13.34 19.427l-1.017-.345a1.1 1.1 0 0 1-.73-.826l-.431-2.112a.114.114 0 0 0-.116-.096.114.114 0 0 0-.115.096l-.432 2.112a1.1 1.1 0 0 1-.73.826l-1.017.345c-.048.02-.077.058-.077.106 0 .048.029.096.077.105l1.018.346a1.1 1.1 0 0 1 .73.826l.431 2.112c.01.057.058.086.115.086.058 0 .106-.038.116-.086l.432-2.112a1.1 1.1 0 0 1 .73-.826l1.017-.346c.048-.019.077-.057.077-.105 0-.048-.03-.096-.077-.106z" fill="#fff"></path>
                    </svg>