<svg width="32" height="32" fill="none" xmlns="http://www.w3.org/2000/svg">
                        <g clip-path="url(#a)">
                            <path d="M16 32c8.837 0 16-7.163 16-16S24.837 0 16 0 0 7.163 0 16s7.163 16 16 16z" fill="#7950DD"></path>
                            <path d="M20.074 13.712a.991.991 0 0 0-1.004 0l-2.303 1.393-1.564.91-2.303 1.393a.99.99 0 0 1-1.003 0l-1.83-1.09a1.05 1.05 0 0 1-.502-.88v-2.15c0-.364.177-.697.501-.88l1.801-1.06a.991.991 0 0 1 1.004 0l1.8 1.06c.296.183.503.516.503.88v1.393l1.564-.939v-1.394a.987.987 0 0 0-.502-.878l-3.336-2a.991.991 0 0 0-1.003 0l-3.395 2a.987.987 0 0 0-.502.878v4.03c0 .364.177.697.502.879l3.395 2a.991.991 0 0 0 1.003 0l2.303-1.364 1.564-.94 2.303-1.363a.992.992 0 0 1 1.004 0l1.8 1.06c.296.183.502.516.502.88v2.15a.987.987 0 0 1-.502.88l-1.8 1.09a.992.992 0 0 1-1.004 0l-1.8-1.06a1.05 1.05 0 0 1-.503-.879v-1.394l-1.564.94v1.393c0 .364.177.697.502.88l3.395 1.999a.99.99 0 0 0 1.003 0l3.395-2A1.05 1.05 0 0 0 24 20.65v-4.03a.987.987 0 0 0-.502-.878l-3.424-2.03z" fill="#fff"></path>
                            <path fill-rule="evenodd" clip-rule="evenodd" d="M16 30.667c8.1 0 14.667-6.567 14.667-14.667S24.1 1.333 16 1.333 1.333 7.9 1.333 16 7.9 30.667 16 30.667zM16 32c8.837 0 16-7.163 16-16S24.837 0 16 0 0 7.163 0 16s7.163 16 16 16z" fill="#000" fill-opacity=".1"></path>
                        </g>
                        <defs>
                            <clipPath id="a">
                                <path fill="#fff" d="M0 0h32v32H0z"></path>
                            </clipPath>
                        </defs>
                    </svg>