<svg width="32" height="32" fill="none" xmlns="http://www.w3.org/2000/svg">
                        <g clip-path="url(#a)">
                            <path d="M16 32c8.837 0 16-7.163 16-16S24.837 0 16 0 0 7.163 0 16s7.163 16 16 16z" fill="#121212"></path>
                            <path fill-rule="evenodd" clip-rule="evenodd" d="M10.749 19.5a.587.587 0 0 1 .407-.167l12.568.01c.054 0 .106.015.15.042a.26.26 0 0 1 .103.11.238.238 0 0 1-.05.276L21.253 22.5a.589.589 0 0 1-.408.167l-12.568-.01a.294.294 0 0 1-.15-.041.263.263 0 0 1-.103-.111.239.239 0 0 1 .05-.276l2.676-2.729zm13.179-2.27a.238.238 0 0 1 .049.276.261.261 0 0 1-.102.11.293.293 0 0 1-.15.041l-12.569.01a.588.588 0 0 1-.407-.167l-2.677-2.73a.239.239 0 0 1-.049-.275.262.262 0 0 1 .102-.112.292.292 0 0 1 .15-.041l12.57-.01a.589.589 0 0 1 .407.167l2.676 2.73zM10.748 9.5a.552.552 0 0 1 .185-.123.589.589 0 0 1 .223-.043l12.568.009c.054 0 .106.015.15.042a.26.26 0 0 1 .103.11.238.238 0 0 1 .02.145.25.25 0 0 1-.07.131L21.253 12.5a.555.555 0 0 1-.185.123.589.589 0 0 1-.223.044l-12.568-.01a.293.293 0 0 1-.15-.041.262.262 0 0 1-.103-.111.238.238 0 0 1 .05-.276L10.748 9.5z" fill="url(#b)"></path>
                            <path fill-rule="evenodd" clip-rule="evenodd" d="M16 30.667c8.1 0 14.667-6.567 14.667-14.667S24.1 1.333 16 1.333 1.333 7.9 1.333 16 7.9 30.667 16 30.667zM16 32c8.837 0 16-7.163 16-16S24.837 0 16 0 0 7.163 0 16s7.163 16 16 16z" fill="#fff" fill-opacity=".1"></path>
                        </g>
                        <defs>
                            <linearGradient id="b" x1="8.486" y1="22.958" x2="22.359" y2="7.973" gradientUnits="userSpaceOnUse">
                                <stop stop-color="#9945FF"></stop>
                                <stop offset=".2" stop-color="#7962E7"></stop>
                                <stop offset="1" stop-color="#00D18C"></stop>
                            </linearGradient>
                            <clipPath id="a">
                                <path fill="#fff" d="M0 0h32v32H0z"></path>
                            </clipPath>
                        </defs>
                    </svg>