<svg width="32" height="32" fill="none" xmlns="http://www.w3.org/2000/svg">
                        <path d="M32 16c0 8.837-7.163 16-16 16S0 24.837 0 16 7.163 0 16 0s16 7.163 16 16z" fill="#08C"></path>
                        <path fill-rule="evenodd" clip-rule="evenodd" d="M16 30.667c8.1 0 14.667-6.567 14.667-14.667S24.1 1.333 16 1.333 1.333 7.9 1.333 16 7.9 30.667 16 30.667zM16 32c8.837 0 16-7.163 16-16S24.837 0 16 0 0 7.163 0 16s7.163 16 16 16z" fill="#000" fill-opacity=".2"></path>
                        <path fill-rule="evenodd" clip-rule="evenodd" d="M11.455 9.334h9.09c.303 0 .607 0 1.01.204.404.205.607.514.809.719v.102c.201.307.302.616.302 1.025 0 .308-.1.719-.302 1.026l-5.758 9.95c-.1.204-.405.307-.606.307-.202 0-.506-.103-.607-.307l-5.657-9.95c-.1-.205-.302-.514-.403-1.026 0-.41.1-.82.202-1.127.201-.308.505-.616.808-.821.507-.102.91-.102 1.112-.102zm3.839 1.436H11.05c-.1 0-.201.102-.201.205-.101.102-.101.205-.101.307 0 .102 0 .102.201.41l4.344 7.692V10.77zm1.414 0v8.616l4.444-7.693c0-.102.101-.205.101-.41 0-.102 0-.205-.1-.307l-.102-.102h-.1c-.101 0-.202-.103-.404-.103l-3.839-.001z" fill="#fff"></path>
                    </svg>