<svg xmlns="http://www.w3.org/2000/svg" width="32" height="32" viewBox="0 0 32 32" fill="none">
                        <path d="M16 32C24.8366 32 32 24.8366 32 16C32 7.16344 24.8366 0 16 0C7.16344 0 0 7.16344 0 16C0 24.8366 7.16344 32 16 32Z" fill="url(#paint0_linear_1646_246)"></path>
                        <path fill-rule="evenodd" clip-rule="evenodd" d="M10.3625 9.99994C10.3735 10.0183 10.8447 10.5582 11.4097 11.1997C13.0978 13.1166 14.4735 14.6925 14.589 14.8413C14.6307 14.8951 14.6648 14.9636 14.6648 14.9935C14.6648 15.0835 14.529 15.1882 14.3419 15.2425C14.0529 15.3263 13.9076 15.2752 13.6992 15.0163C13.6336 14.9349 13.243 14.3826 12.8313 13.789C12.4194 13.1955 12.0782 12.7139 12.073 12.7187C12.0677 12.7236 12.3495 13.2062 12.6992 13.7911C13.6223 15.3352 13.5853 15.2535 13.4375 15.425C13.2212 15.676 13.1616 15.8168 13.0902 16.2463C12.9892 16.8543 12.8591 17.0984 12.2566 17.8096C11.919 18.2082 11.8112 18.4033 11.7779 18.6761C11.7266 19.0966 11.827 19.4459 12.1353 19.9201C12.2467 20.0913 12.3621 20.2864 12.3917 20.3536C12.4432 20.4703 12.4491 20.4754 12.524 20.4681C12.665 20.4543 13.0401 20.3551 13.2511 20.2759C13.669 20.1188 14.0092 19.8794 14.1268 19.6594C14.1768 19.5659 14.188 19.5133 14.188 19.3709C14.188 19.0835 14.1054 18.9734 13.6634 18.6713C13.2707 18.4029 13.1419 18.2326 13.1205 17.9527C13.1062 17.7677 13.1459 17.6371 13.3285 17.2686C13.4975 16.9275 13.5579 16.7499 13.5921 16.4939C13.6065 16.3866 13.6276 16.2309 13.639 16.1479C13.6806 15.8466 13.7813 15.7631 14.1782 15.7008C14.4663 15.6556 14.6337 15.5929 14.8003 15.4679C14.9721 15.3389 15.0632 15.1815 15.0844 14.9768L15.0994 14.8324L14.6271 14.3436C13.6486 13.3308 10.5291 10.1399 10.4024 10.0222C10.3695 9.99161 10.3516 9.98161 10.3625 9.99994ZM14.6306 12.6638C14.6233 12.6748 14.6868 12.6951 14.7717 12.7088C15.3465 12.8021 15.8191 13.0673 16.2594 13.5437C16.361 13.6537 16.5722 13.8981 16.7288 14.087C17.0624 14.4892 17.3824 14.8091 17.5876 14.9455C17.9817 15.2076 18.4595 15.3244 19.3502 15.3764C19.999 15.4143 20.2592 15.4666 20.4742 15.6022C20.5825 15.6704 20.7603 15.8478 20.7994 15.9266C20.8412 16.0107 20.8582 15.9826 20.8379 15.863C20.7835 15.5423 20.5722 15.1455 20.2619 14.781C20.1962 14.7039 20.1349 14.6489 20.1256 14.6588C20.1164 14.6688 20.0956 14.7345 20.0794 14.805C20.0632 14.8755 20.0121 15.0038 19.9657 15.0901C19.8407 15.3228 19.6875 15.3931 19.5613 15.2756C19.4902 15.2093 19.4929 15.1327 19.5736 14.9324C19.6301 14.7921 19.6395 14.4656 19.5923 14.2795C19.5656 14.1741 19.5586 14.1674 19.3559 14.0548C18.9746 13.8428 18.4904 13.6955 18.0013 13.6424C17.7253 13.6125 17.1775 13.6253 16.9346 13.6673L16.7842 13.6933L16.5292 13.4511C16.1292 13.071 15.8235 12.8764 15.4398 12.7574C15.1514 12.6679 14.6651 12.6117 14.6306 12.6638ZM19.8085 12.9208C19.7452 13.0442 19.6993 13.2404 19.6815 13.4624C19.6713 13.5897 19.6539 13.6738 19.6365 13.6801C19.6208 13.6857 19.5178 13.6594 19.4076 13.6218C19.1631 13.5382 18.8089 13.4408 18.7954 13.4533C18.79 13.4584 18.8979 13.5135 19.0352 13.5758C19.5168 13.7945 19.6913 13.9311 19.7535 14.1382C19.8247 14.3756 19.8254 14.7658 19.755 15.0435C19.7439 15.0875 19.751 15.0829 19.7894 15.0213C19.874 14.8853 19.9128 14.7289 19.9312 14.449C19.9414 14.2926 19.961 14.1655 19.977 14.1506C20.012 14.118 20.1668 14.2143 20.4667 14.4555C20.7857 14.712 20.6695 14.562 20.1726 14.076C20.0471 13.9532 19.925 13.8146 19.9012 13.768C19.7987 13.5666 19.7673 13.1339 19.8409 12.937C19.8782 12.8374 19.8566 12.8266 19.8085 12.9208ZM14.5775 12.9674C14.5698 12.9861 14.5687 13.1134 14.575 13.2503C14.59 13.5743 14.6571 13.8122 14.8235 14.1311C14.9407 14.3558 14.9799 14.4075 15.1621 14.5771C15.4158 14.8131 15.6247 14.9204 15.8319 14.9209C15.9493 14.9212 15.9652 14.9159 15.9716 14.8736C15.9756 14.8475 15.9422 14.7725 15.8974 14.707C15.7424 14.4808 15.6888 14.3529 15.5934 13.9824C15.4741 13.5194 15.3909 13.3444 15.2219 13.2004C15.0351 13.0413 14.6103 12.8877 14.5775 12.9674ZM17.5504 15.4379C17.5513 15.8322 17.6674 16.0927 17.9642 16.3665C18.273 16.6513 18.5994 16.8216 19.5171 17.1768C20.1601 17.4257 20.5881 17.629 20.7927 17.7829C21.042 17.9702 21.1929 18.2135 21.2334 18.4928C21.2418 18.5509 21.2573 18.5984 21.2678 18.5984C21.303 18.5984 21.464 18.2379 21.4999 18.0786C21.5507 17.8533 21.5489 17.4261 21.4964 17.232C21.3138 16.5568 20.7494 16.0818 19.8738 15.8664C19.7694 15.8407 19.4211 15.7798 19.0998 15.7312C18.2133 15.5969 17.9567 15.526 17.7028 15.3454C17.6412 15.3015 17.5816 15.2657 17.5704 15.2657C17.5591 15.2657 17.5502 15.3432 17.5504 15.4379ZM15.2761 15.786C15.1631 15.8248 15.0619 15.912 14.9802 16.0412C14.9002 16.1676 14.8942 16.3913 14.9682 16.4842C15.0487 16.5852 15.1091 16.6023 15.3444 16.5909C15.6889 16.5741 15.9648 16.4441 16.0097 16.2774C16.0476 16.1364 15.8891 15.8937 15.7071 15.8141C15.5894 15.7626 15.3835 15.7492 15.2761 15.786ZM15.6014 15.8637C15.6898 15.895 15.7378 15.9511 15.7378 16.023C15.7378 16.2076 15.2707 16.2312 15.2216 16.0491C15.2023 15.9775 15.2245 15.9387 15.3138 15.888C15.3978 15.8402 15.5088 15.8309 15.6014 15.8637ZM18.3637 17.1254C18.4274 17.3395 18.4424 17.5258 18.4098 17.7001C18.3461 18.0411 18.134 18.2943 17.7787 18.4536C17.5584 18.5523 17.4405 18.5798 16.775 18.6871C16.4345 18.7421 16.1939 18.8022 16.0065 18.8791C15.8433 18.9462 15.5873 19.0877 15.603 19.1022C15.609 19.1079 15.687 19.0915 15.7761 19.0658C16.027 18.9937 16.2839 18.9588 16.8433 18.921C17.3852 18.8844 17.5341 18.8651 17.7288 18.8061C18.09 18.6966 18.3962 18.4619 18.5457 18.18L18.6349 18.0119V17.7219C18.6349 17.4424 18.6321 17.4265 18.5593 17.2828C18.483 17.1323 18.37 16.9765 18.3372 16.9765C18.3274 16.9765 18.3393 17.0435 18.3637 17.1254ZM18.882 17.3375C18.8397 17.4754 18.8455 17.8281 18.8927 17.9985C18.9554 18.2245 19.1404 18.5469 19.5034 19.0629C20.0329 19.8155 20.1589 20.0814 20.1575 20.4425C20.1566 20.6486 20.1297 20.7635 20.0362 20.9595C20.0026 21.03 19.9815 21.0937 19.9892 21.1009C19.997 21.1082 20.0764 21.0765 20.1656 21.0306C20.4158 20.9017 20.7509 20.5741 20.892 20.3203C21.0833 19.9763 21.1147 19.848 21.1145 19.4093C21.1143 19.0561 21.1101 19.0199 21.0488 18.851C20.8717 18.3631 20.5062 18.0467 19.5648 17.5661C19.3549 17.459 19.1341 17.3425 19.0739 17.3072C19.0137 17.2719 18.9524 17.2431 18.9377 17.2431C18.923 17.2431 18.8979 17.2856 18.882 17.3375ZM12.5381 18.7382C12.6291 18.8284 12.6488 18.9187 12.5986 19.0142C12.5415 19.1227 12.4505 19.1712 12.3596 19.1416C12.3106 19.1256 12.2903 19.1026 12.2846 19.0563C12.2803 19.0214 12.2883 18.9821 12.3025 18.9689C12.3395 18.9344 12.3341 18.8435 12.2942 18.8292C12.2756 18.8226 12.2539 18.8016 12.2461 18.7827C12.2048 18.6823 12.4449 18.6457 12.5381 18.7382ZM15.6172 19.4745C15.2453 19.547 14.8131 19.7159 14.4622 19.9258C14.2701 20.0408 13.8933 20.318 13.9198 20.325C13.9296 20.3275 14.0771 20.3552 14.2476 20.3863C14.7221 20.4731 14.8693 20.549 15.2864 20.9216C15.6349 21.2329 15.7547 21.3078 15.9736 21.3511C16.406 21.4366 16.7824 21.12 16.7236 20.7201C16.6975 20.5423 16.5574 20.4037 16.3515 20.352C16.2082 20.3161 16.0787 20.3459 15.9709 20.4395C15.845 20.549 15.8241 20.6692 15.9139 20.7686C15.9479 20.8063 16 20.843 16.0296 20.8502C16.0739 20.861 16.0698 20.8533 16.0061 20.8068C15.9416 20.7598 15.9286 20.7353 15.9286 20.6613C15.9286 20.5918 15.9445 20.5576 16.0011 20.5048C16.0689 20.4416 16.0827 20.4379 16.216 20.4469C16.3828 20.4581 16.4685 20.5071 16.5332 20.6283C16.6537 20.8543 16.4489 21.1316 16.162 21.131C16.0416 21.1308 15.8483 21.052 15.7569 20.9659C15.5335 20.7554 15.6035 20.3822 15.8924 20.2437C15.9936 20.1952 16.042 20.187 16.226 20.187C16.509 20.187 16.6546 20.2475 16.8799 20.4588C17.0459 20.6145 17.0405 20.6057 17.3906 21.2868C17.5947 21.6838 17.8224 21.8889 18.1447 21.9658C18.3312 22.0103 18.5292 21.9952 18.7236 21.9216C18.8729 21.865 19.0998 21.7368 19.0998 21.7089C19.0998 21.6993 19.0166 21.7166 18.915 21.7474C18.7041 21.8113 18.4138 21.8252 18.2471 21.7794C18.0655 21.7295 17.9113 21.5642 17.829 21.3312C17.8095 21.2762 17.7647 21.0712 17.7294 20.8757C17.6254 20.2999 17.5091 20.0433 17.2536 19.8257C17.105 19.6991 16.8139 19.5516 16.6081 19.4986C16.4112 19.4479 15.8265 19.4336 15.6172 19.4745Z" fill="#FF007A"></path>
                        <path fill-rule="evenodd" clip-rule="evenodd" d="M16 30.6667C24.1001 30.6667 30.6667 24.1001 30.6667 16C30.6667 7.89983 24.1001 1.33333 16 1.33333C7.89983 1.33333 1.33333 7.89983 1.33333 16C1.33333 24.1001 7.89983 30.6667 16 30.6667ZM16 32C24.8365 32 32 24.8365 32 16C32 7.16344 24.8365 0 16 0C7.16344 0 0 7.16344 0 16C0 24.8365 7.16344 32 16 32Z" fill="black" fill-opacity="0.1"></path>
                        <defs>
                            <linearGradient id="paint0_linear_1646_246" x1="25.28" y1="4.16" x2="7.04" y2="28.8" gradientUnits="userSpaceOnUse">
                                <stop stop-color="#F3F4F8"></stop>
                                <stop offset="1" stop-color="#F4E5EF"></stop>
                            </linearGradient>
                        </defs>
                    </svg>