<svg width="32" height="32" fill="none" xmlns="http://www.w3.org/2000/svg">
                        <g clip-path="url(#a)">
                            <path d="M16 32c8.867 0 16-7.133 16-16S24.867 0 16 0 0 7.133 0 16s7.133 16 16 16z" fill="#2775CA"></path>
                            <path fill-rule="evenodd" clip-rule="evenodd" d="M9.795 13.363c-1.286 3.413.487 7.27 3.944 8.51.133.09.266.266.266.4v.62c0 .089 0 .133-.044.177-.044.177-.222.266-.399.177a7.974 7.974 0 0 1-5.186-5.185c-1.33-4.211.975-8.688 5.186-10.018C13.607 8 13.695 8 13.74 8c.177.044.265.177.265.355v.62c0 .222-.088.355-.266.443-1.817.665-3.28 2.084-3.944 3.945zm8.244-5.141c.044-.178.221-.266.399-.178a8.04 8.04 0 0 1 5.186 5.23c1.33 4.211-.975 8.688-5.186 10.018-.044.044-.133.044-.177.044-.178-.044-.267-.177-.267-.354v-.62c0-.223.09-.356.267-.444 1.817-.665 3.28-2.084 3.944-3.945 1.286-3.413-.487-7.27-3.944-8.51-.133-.089-.267-.266-.267-.444V8.4c0-.089 0-.133.045-.177zm-1.906 6.693c1.861.221 2.792.753 2.792 2.304 0 1.197-.886 2.128-2.216 2.35v1.063c-.044.222-.177.355-.354.355h-.665c-.222-.044-.355-.177-.355-.355V19.57c-1.463-.222-2.172-1.02-2.349-2.128v-.044c0-.178.133-.31.31-.31h.754c.133 0 .266.088.31.265.133.665.532 1.153 1.684 1.153.842 0 1.463-.488 1.463-1.197 0-.71-.399-.975-1.64-1.197-1.862-.221-2.748-.798-2.748-2.26 0-1.108.842-1.995 2.172-2.172v-1.02c.044-.221.177-.354.354-.354h.665c.222.044.355.177.355.354v1.064a2.215 2.215 0 0 1 1.995 1.817v.045c0 .177-.134.31-.31.31h-.71a.334.334 0 0 1-.31-.221c-.222-.665-.665-.931-1.463-.931-.887 0-1.33.399-1.33 1.02 0 .62.266.974 1.596 1.152z" fill="#fff"></path>
                            <path fill-rule="evenodd" clip-rule="evenodd" d="M16 30.667c8.1 0 14.667-6.567 14.667-14.667S24.1 1.333 16 1.333 1.333 7.9 1.333 16 7.9 30.667 16 30.667zM16 32c8.837 0 16-7.163 16-16S24.837 0 16 0 0 7.163 0 16s7.163 16 16 16z" fill="#000" fill-opacity=".1"></path>
                        </g>
                        <defs>
                            <clipPath id="a">
                                <path fill="#fff" d="M0 0h32v32H0z"></path>
                            </clipPath>
                        </defs>
                    </svg>