<svg width="32" height="32" fill="none" xmlns="http://www.w3.org/2000/svg">
                        <g clip-path="url(#a)">
                            <path d="M16 32c8.837 0 16-7.163 16-16S24.837 0 16 0 0 7.163 0 16s7.163 16 16 16z" fill="#26A17B"></path>
                            <path d="M17.556 14.169v-1.892h4.455V9.334H9.84v2.943h4.455v1.9C10.696 14.36 8 15.113 8 16.016c0 .902 2.696 1.656 6.294 1.84v5.897a8.505 8.505 0 0 0 3.262.029v-5.919c3.673-.17 6.444-.933 6.444-1.847 0-.915-2.77-1.678-6.444-1.848zM16 17.179c-4.014 0-7.268-.604-7.268-1.35 0-.637 2.371-1.171 5.562-1.314v2.164a11.459 11.459 0 0 0 3.262 0v-2.17c3.266.133 5.712.673 5.712 1.32 0 .746-3.254 1.35-7.268 1.35z" fill="#FAFAFA"></path>
                            <path fill-rule="evenodd" clip-rule="evenodd" d="M16 30.667c8.1 0 14.667-6.567 14.667-14.667S24.1 1.333 16 1.333 1.333 7.9 1.333 16 7.9 30.667 16 30.667zM16 32c8.837 0 16-7.163 16-16S24.837 0 16 0 0 7.163 0 16s7.163 16 16 16z" fill="#000" fill-opacity=".1"></path>
                        </g>
                        <defs>
                            <clipPath id="a">
                                <path fill="#fff" d="M0 0h32v32H0z"></path>
                            </clipPath>
                        </defs>
                    </svg>