<svg width="32" height="32" fill="none" xmlns="http://www.w3.org/2000/svg">
                        <g clip-path="url(#a)">
                            <path d="M16 32c8.837 0 16-7.163 16-16S24.837 0 16 0 0 7.163 0 16s7.163 16 16 16z" fill="#F9F9F9"></path>
                            <path d="M20.242 11h1.735l-3.61 3.596a3.357 3.357 0 0 1-4.734 0L10.023 11h1.735l2.743 2.732c.827.825 2.17.825 2.998 0L20.242 11zm-8.507 10H10l3.633-3.618a3.357 3.357 0 0 1 4.734 0L22 21h-1.735l-2.766-2.754a2.126 2.126 0 0 0-2.998 0L11.736 21z" fill="#23292F"></path>
                            <path fill-rule="evenodd" clip-rule="evenodd" d="M16 30.667c8.1 0 14.667-6.567 14.667-14.667S24.1 1.333 16 1.333 1.333 7.9 1.333 16 7.9 30.667 16 30.667zM16 32c8.837 0 16-7.163 16-16S24.837 0 16 0 0 7.163 0 16s7.163 16 16 16z" fill="#000" fill-opacity=".1"></path>
                        </g>
                        <defs>
                            <clipPath id="a">
                                <path fill="#fff" d="M0 0h32v32H0z"></path>
                            </clipPath>
                        </defs>
                    </svg>