<svg width="24" height="24" viewBox="0 0 24 24" fill="none" xmlns="http://www.w3.org/2000/svg">
<path d="M19 15.9C19 15.6 19 15.3 19 15C19 9.5 14.5 5 9 5C8.7 5 8.4 5 8.1 5C9.5 2.6 12.1 1 15 1C19.4 1 23 4.6 23 9C23 12 21.4 14.6 19 15.9ZM17 15C17 19.4 13.4 23 9 23C4.6 23 1 19.4 1 15C1 10.6 4.6 7 9 7C13.4 7 17 10.6 17 15ZM11.5 17.5C11.5 16.9 11.1 16.5 10.5 16.5H10V12C10 11.6 9.8 11.3 9.5 11.1C9.2 10.9 8.8 10.9 8.5 11.1L7 12.1C6.5 12.4 6.4 13 6.7 13.5C7 14 7.5 14.1 8 13.9V16.5H7.5C6.9 16.5 6.5 16.9 6.5 17.5C6.5 18.1 6.9 18.5 7.5 18.5H10.5C11.1 18.5 11.5 18.1 11.5 17.5Z" fill="white"/>
</svg>
