<svg width="40" height="40" viewBox="0 0 40 40" fill="none" xmlns="http://www.w3.org/2000/svg">
<path d="M39.9999 20C39.9999 31.0458 31.0455 40 20 40C8.95433 40 0 31.0459 0 20C0 8.95438 8.95433 0 20 0C31.0457 0 39.9999 8.95438 39.9999 20Z" fill="white"/>
<path d="M19.8334 7.11035C20.5374 7.5141 21.2843 8.0337 21.8528 8.58433L21.6294 8.80761C20.5076 8.68895 19.326 8.83704 18.2625 8.85336C18.1439 8.7343 17.905 8.5553 18.1275 8.40574L19.8334 7.11035ZM39.6699 20.9748C39.6848 21.4786 39.7324 21.9113 39.5349 22.4269C37.4853 23.0068 36.1391 20.8479 34.1505 21.1735L34.3753 22.2926C36.215 22.3528 37.3642 24.1079 39.2648 24.0325C38.9948 24.5691 39.3853 25.9827 38.189 25.4176C36.9472 25.1208 36.0494 24.0325 34.6886 24.0325C34.5244 24.3324 34.6283 24.7477 34.5996 25.1025C36.0351 25.3265 37.0675 26.5336 38.5027 26.7565C38.3677 27.2472 38.2339 27.7966 37.8297 28.0959C36.6621 27.8132 35.7502 26.77 34.5072 26.7998L34.2859 27.8274C35.4671 27.8576 36.2304 28.8974 37.292 29.2095C37.3211 29.6429 36.9317 30.0302 36.7074 30.4171C35.765 30.1355 35.0463 29.33 33.9695 29.3894C33.9545 28.9858 34.1954 28.5275 34.1045 28.0959C32.8951 28.4538 32.0841 27.3358 31.1878 26.6651C31.162 24.4705 28.8397 23.0308 28.7171 20.9748C28.6936 20.5649 28.7564 20.1273 28.9441 19.6571C29.7073 17.9014 29.4676 15.6219 28.6306 13.985C28.3764 13.5542 27.9258 13.2142 27.5058 12.9609C28.1202 14.2563 28.8689 15.7869 28.4952 17.3791C28.4519 18.6087 27.7227 19.7895 27.7144 20.9748C27.7116 21.3974 27.8022 21.82 28.0465 22.2468C29.0195 23.9902 30.77 25.6405 30.1118 27.827C29.9308 28.4986 29.3918 29.0179 29.2574 29.7014C30.3956 30.6393 31.4719 31.6962 32.9822 31.7557C33.5203 31.4138 33.2214 29.8974 34.3285 30.5968L35.9449 31.4012C35.8271 31.8317 35.4648 32.2175 35.1368 32.514C34.5235 32.217 33.9252 31.861 33.1605 31.89C32.935 32.128 32.741 32.3952 32.7582 32.7367C33.2963 32.8249 33.7899 33.0508 34.2395 33.3639C34.0308 33.8111 33.624 34.0914 33.2501 34.4338L31.9962 33.9878C31.7868 34.2859 31.352 34.599 31.5046 34.9261C31.7875 35.0467 32.1013 35.2096 32.3096 35.4184C31.7562 36.0136 31.0546 36.3965 30.3796 36.8005C29.7982 34.9098 27.8825 33.5842 28.0469 31.3977L27.9579 31.3093C27.5076 31.813 27.6581 32.6184 27.6871 33.2721C28.226 34.6416 29.5115 35.6994 29.7065 37.2012C29.4814 37.5877 28.9739 37.6647 28.5847 37.8283C28.6298 35.1207 24.5016 33.067 27.149 30.3281C28.0319 28.987 29.5111 27.7071 28.987 25.8607C28.4488 24.078 26.5455 22.9734 26.5623 20.9748L26.5653 20.819C26.9988 18.7348 28.3157 16.5172 27.2384 14.3C26.9381 13.4083 26.2673 12.3949 25.3548 12.0222C26.7152 13.5714 27.2545 16.099 26.4762 18.1835C26.084 19.0127 25.544 20.0005 25.4898 20.9752H25.4866C25.4577 21.4843 25.5621 21.9905 25.8923 22.4705C26.9252 24.1379 28.7193 25.9695 27.6872 28.1425C26.5206 29.8829 24.4863 31.6534 25.6224 33.9458C26.445 35.3149 27.7176 36.6811 27.3743 38.3641L26.0281 38.8101C26.9256 35.6709 22.5273 33.8263 24.3685 30.686C25.5053 29.0044 27.5384 27.4266 26.3875 25.1948C25.6994 23.8119 24.2777 22.9934 24.3226 21.2653L24.3716 20.9751C24.8348 18.5241 26.7075 16.2041 25.3981 13.585C25.054 12.8116 24.3663 12.0231 23.6031 11.5763L23.557 11.6222C25.0836 13.0955 25.548 15.5196 24.725 17.4682C24.3409 18.6115 23.4981 19.7504 23.3268 20.9755C23.2453 21.5532 23.314 22.1518 23.6495 22.7825C24.6217 24.3141 26.3266 25.9388 25.2627 27.919C24.1423 29.5546 22.2719 31.1461 23.019 33.273C23.8419 35.1339 25.5603 36.9066 24.6324 39.214L23.2433 39.5261C24.3498 37.2774 22.6906 35.0461 21.7187 33.0959C20.5364 30.2979 24.259 28.9581 24.3187 26.4C24.3046 24.7489 22.5403 23.8114 22.1674 22.2935C21.4038 21.6526 20.6123 22.5483 19.6994 22.3821C19.0255 22.5168 17.9904 21.4591 17.5881 22.6056C17.109 24.2864 14.9263 25.5221 15.8856 27.5157C16.7983 29.2873 18.995 30.5829 18.2612 32.8756C17.6042 35.0171 15.4339 37.0562 16.7799 39.5261C16.227 39.3479 15.1944 39.6891 15.2094 38.8103C14.3571 35.8191 17.9915 34.0765 16.8689 31.0869C16.3465 29.2558 13.9664 28.2441 14.4904 26.0417C14.8778 24.2287 16.9226 22.9613 16.6358 20.9754C16.6125 20.8091 16.5714 20.6389 16.5126 20.4615C15.7494 18.3185 14.1923 16.175 15.1204 13.6738C15.3752 12.9594 15.8841 12.3494 16.3313 11.7109C14.8503 12.4994 14.1033 14.1667 14.1339 15.8629C14.0694 17.7074 15.4389 19.2875 15.6337 20.9754C15.7104 21.6566 15.5982 22.3541 15.1204 23.094C14.1488 24.4056 12.8783 25.7885 13.4608 27.5154C14.0146 29.2574 16.1984 30.3126 16.0638 32.3374C16.049 34.7324 13.2517 36.2237 14.0445 38.9022L12.6522 38.4528C12.0994 36.0726 14.6419 34.8548 14.6711 32.6526C15.0309 30.12 11.7843 29.1803 11.9791 26.7116C11.9651 24.8358 13.6247 23.6479 14.3577 22.0701C14.4834 21.6861 14.5252 21.3233 14.5084 20.9755C14.4186 19.231 12.8386 17.8671 13.1008 15.9058C13.189 14.4623 13.6826 13.197 14.6254 12.1114C13.3247 12.6313 12.7874 14.1209 12.4281 15.3712C11.8046 17.376 13.293 19.1794 13.4422 20.9756C13.5084 21.7688 13.3135 22.5574 12.5634 23.3637C11.4857 24.6271 10.3929 26.2213 11.171 27.9193C11.9948 29.7929 14.5832 31.2512 13.4605 33.5881C12.848 35.0617 11.3814 36.1771 11.4416 37.9177C11.053 37.754 10.6499 37.5908 10.3197 37.2939C10.3197 35.0769 13.4896 33.6922 11.9792 31.3557C11.8454 31.8167 11.8167 32.4432 11.7119 32.964C11.1878 34.3189 10.0663 35.4035 9.64666 36.8041C8.94489 36.5347 8.21111 35.9685 7.62739 35.3734L8.43594 34.8811C8.34611 34.5829 8.10717 34.3302 7.89821 34.0772C7.37312 34.0037 7.02835 34.3465 6.59551 34.4808C6.22156 34.1528 5.86065 33.855 5.56254 33.4532C5.83093 32.6927 7.92806 33.3216 6.86565 32.0712C6.14841 31.625 5.42848 32.2623 4.80039 32.5598L3.94895 31.4899C4.68193 31.0439 5.41302 30.4174 6.32469 30.597C6.54938 30.9996 6.56498 31.5916 6.99783 31.8017C8.5388 31.7719 9.63066 30.6123 10.8119 29.7042C9.98861 28.4853 9.31843 26.8027 10.0498 25.3287C10.6358 23.8516 12.1626 22.6076 12.2319 20.9747C12.2475 20.6031 12.1893 20.212 12.0259 19.7912C11.2186 17.7223 10.9336 14.9261 12.4746 13.095C11.6368 13.3189 11.1427 14.3578 10.8581 15.1467C9.93173 17.1669 11.1033 19.0385 11.1438 20.9746C11.1493 21.3228 11.1209 21.6718 11.0361 22.0234C10.243 23.6156 8.95807 25.0127 8.74937 26.8449C7.83662 27.4242 7.08725 28.4372 5.78669 28.0954C5.74098 28.4373 5.84573 28.9585 5.965 29.3458C4.93365 29.3027 4.23039 30.059 3.36201 30.4162C2.89945 30.2685 2.7791 29.6736 2.6 29.2572C3.61642 28.9157 4.34966 27.9019 5.51669 27.918C5.65196 27.5441 5.44085 27.2015 5.38128 26.8447C3.92959 26.2036 1.62848 30.0136 1.43499 26.7104C2.8856 26.621 3.81261 25.2813 5.24924 25.1478L5.29213 24.0778C3.66174 23.914 2.61291 25.5815 0.983183 25.4171L0.623757 23.9893C2.50896 24.1065 3.63215 22.4257 5.42754 22.3352C5.66608 22.0231 5.69485 21.5617 5.74084 21.1306C3.78114 20.8765 2.43635 23.0372 0.356439 22.381C0.356439 22.381 0.284769 21.4817 0.245908 20.9747H0.248732C0.234613 20.7764 0.221167 20.6382 0.221167 20.6382C2.07585 21.3542 3.70544 20.0289 5.29213 19.3447C5.69566 19.2246 6.32496 19.4329 6.50595 18.9869C6.49022 18.6445 7.11777 18.2443 6.59537 18.0053C4.27571 17.6922 2.73473 20.4757 0.35617 19.21L0.177734 18.8522C0.672568 12.1264 4.4852 5.62393 10.8119 2.42406C13.3743 0.967208 16.5577 0.224599 19.768 0.198245C23.6424 0.166272 27.5572 1.17738 30.4695 3.22834C33.2975 4.95423 36.0027 7.79851 37.4708 10.6859C38.8749 13.2156 39.5211 16.0543 39.7141 19.0764C37.2604 20.9209 35.6142 17.3386 33.1156 18.1403C33.2502 18.528 33.3247 18.9291 33.6103 19.2564C35.8248 19.2409 37.3498 21.5478 39.6678 20.6386L39.6699 20.9748ZM11.4843 12.6915C9.92837 11.6792 7.95576 12.6324 6.50568 13.1837C6.37108 11.8287 5.81803 10.5944 4.66485 9.70152C4.55297 9.64614 4.39834 9.52961 4.25903 9.52105C4.17566 9.51584 4.09633 9.54928 4.03474 9.65537C4.55741 12.8544 2.46714 15.0867 0.985872 17.5134C1.47909 17.9145 2.2715 17.8546 2.86973 17.7367C4.44002 17.112 5.93582 16.0246 7.80556 16.3973C8.35848 15.4598 9.28751 14.5517 10.0493 13.8076C10.5146 13.4069 11.154 13.1525 11.4843 12.6915ZM16.2419 14.7006C16.2121 14.8932 16.2569 15.2366 16.5554 15.1039C17.0198 14.4641 17.8421 14.9703 18.3503 15.0154V14.8353C18.0715 14.3996 17.4977 14.1807 16.9151 14.2025C16.7806 14.2072 16.644 14.2267 16.5125 14.2571C16.3175 14.3002 16.1818 14.4777 16.2419 14.7006ZM23.5563 12.7834C23.1387 11.8605 22.1813 11.4869 21.3125 11.2638C20.8866 11.2116 20.4446 11.1763 20.0063 11.1722C19.9241 11.1714 19.8421 11.1703 19.7604 11.1722C18.5342 11.1968 17.3626 11.5099 16.6468 12.5141C16.5441 12.7976 16.0924 13.1957 16.5118 13.4497C17.4543 13.3898 18.5297 13.2722 19.1579 14.0769C19.1579 14.792 19.622 15.7433 18.8445 16.0856C18.2003 15.4922 17.4373 16.3382 16.7364 15.8619C16.4068 15.6682 16.1982 15.8943 16.0632 16.177C15.8684 18.0219 16.8394 20.058 18.5742 21.0845C19.2774 21.3368 20.2225 21.5768 20.9563 21.2188C22.7213 20.4012 23.4524 18.5272 23.781 16.8007C23.7369 16.4721 23.7526 15.8318 23.2893 15.8163C22.7661 16.1455 22.003 15.951 21.4484 15.8163C21.1206 15.9216 21.1055 16.3988 20.7324 16.4892L20.505 16.3087C20.3103 15.4915 20.1902 14.3303 20.9539 13.7648C21.8072 13.4225 22.8094 13.2729 23.6919 13.5415C23.8566 13.259 23.6023 13.0365 23.5563 12.7834ZM22.6558 14.2508C22.5965 14.2523 22.5388 14.2552 22.4805 14.2571C22.167 14.4651 21.2536 14.3156 21.5833 15.0154C22.1521 14.5677 22.9449 14.8815 23.5133 15.1039C23.7235 15.0001 23.6779 14.7917 23.6917 14.612C23.5093 14.2742 23.0732 14.2425 22.6558 14.2508ZM29.1685 7.95865C28.0613 7.90018 27.1342 8.52547 26.1168 8.80841C26.0282 7.94714 26.6859 7.03758 26.8359 6.17296C25.191 6.27824 23.8882 7.26326 22.5274 8.05015C22.2125 7.29309 21.8966 6.53216 21.5838 5.77229L23.3788 4.0753L23.4248 3.85176L21.0003 3.71744C20.5826 2.98942 20.418 2.11249 19.9244 1.44279C19.5205 2.20172 19.2491 3.00493 18.8456 3.76319L16.4239 3.89791V4.0753L18.2619 5.72641C18.0372 6.5751 17.8284 7.49724 17.2754 8.13871C16.1985 7.49697 15.1369 6.79851 13.9561 6.35289C13.672 6.26166 13.267 6.11329 13.0127 6.30714C13.3861 7.12587 13.9091 8.00654 13.8211 8.90018C13.3273 8.80975 12.9391 8.4947 12.475 8.36226C11.9201 8.21162 11.2616 7.91731 10.7232 8.0963C11.6209 9.34567 12.3536 10.6532 12.6071 12.1568C15.5851 10.7268 19.058 9.94032 22.6631 10.5514C24.3529 10.819 25.9068 11.5038 27.4178 12.0679C27.4768 10.4914 28.479 9.22447 29.1685 7.95865ZM34.2825 16.5318C35.8071 16.9332 37.3365 18.5858 38.9509 17.5136C37.5449 15.1924 35.4522 13.0488 36.0342 10.0134C36.0951 9.80614 35.9605 9.59637 35.7669 9.56694C34.8548 9.93778 34.1484 10.8318 33.7875 11.7106C33.6391 12.2304 33.5511 12.7829 33.342 13.2728C32.2494 12.707 31.0834 12.1589 29.7522 12.2914C29.2722 12.3509 28.584 12.3822 28.4954 12.8725C30.0061 13.6757 31.2484 15.0162 32.1742 16.4436C32.8188 16.339 33.6094 16.4283 34.2825 16.5318ZM18.3072 18.6295L18.3502 18.8986C18.9347 19.286 19.1145 19.9426 19.9237 19.8829C20.6414 19.9253 21.1798 19.2564 21.5373 18.7211C20.5662 18.5877 19.3845 18.7941 18.3072 18.6295ZM19.1153 17.4249C19.1445 17.5441 19.0412 17.7227 19.2043 17.7829C19.683 17.6794 20.5502 18.0362 20.8175 17.4708C20.6309 17.2627 20.3262 17.1683 20.0064 17.1683C19.6868 17.1683 19.3551 17.261 19.1153 17.4249Z" fill="#A6A6A6"/>
<path opacity="0.99" d="M18.3086 16.9086H21.5885V18.2492H18.3086V16.9086Z" fill="white"/>
<path d="M18.9146 17.6254C19.3385 17.7252 19.4433 17.8748 19.7783 17.9165C20.1344 17.9102 20.083 17.8382 20.7041 17.625C20.7448 17.6107 20.8009 17.5212 20.7314 17.4526C20.3457 17.0717 20.0792 17.3438 19.8375 17.351C19.5168 17.3545 19.216 17.0778 18.9027 17.4374C18.8493 17.5105 18.8214 17.5822 18.9146 17.6254Z" fill="white"/>
<path d="M34.4082 39.6219V37.7125H33.7227V37.3237H35.5584V37.7125H34.8745V39.6219H34.4082Z" fill="white"/>
<path d="M35.8555 39.6218V37.3235H36.5535L36.9726 38.8912L37.387 37.3235H38.0867V39.6218H37.6533V37.8127L37.1947 39.6218H36.7456L36.2887 37.8127V39.6218H35.8555Z" fill="white"/>
</svg>
