<svg width="24" height="24" viewBox="0 0 24 24" fill="none" xmlns="http://www.w3.org/2000/svg">
<path d="M23 12C23 12.2 23 12.4 23 12.5C23 13 22.5 13.4 22 13.5C21.9 13.5 19.1 13.4 17.1 12.4C16.2 11.9 14.8 10.4 14.8 8.5C14.8 7.4 15.3 6 17.3 4.7C15.8 3.6 14 3 12 3C11.2 3 10.4 3.1 9.6 3.3L12 6.8C12.3 7.3 12.4 7.9 12.1 8.4L10.3 11.5V14.7C10.3 15.2 10.1 15.6 9.8 15.9C9.5 16.2 9 16.3 8.6 16.2L5 15.5L4 16.1C5.5 19 8.5 21 12 21C12.2 21 12.3 21 12.5 21C13.1 21 13.5 21.4 13.5 21.9C13.5 22.5 13.1 22.9 12.5 23C12.3 23 12.1 23 12 23C7.4 23 3.5 20.2 1.8 16.2C1.8 16.1 1.7 16 1.7 15.9C1.3 14.7 1 13.4 1 12C1 7.5 3.7 3.6 7.6 1.9C8.9 1.3 10.4 1 12 1C15 1 17.6 2.2 19.6 4.1C19.7 4.1 19.7 4.2 19.8 4.2C21.8 6.2 23 9 23 12ZM22.3 15.8L14 12.6C13.6 12.5 13.2 12.5 12.9 12.8C12.6 13.1 12.5 13.5 12.7 13.9L15.9 22.2C16 22.6 16.4 22.8 16.8 22.8C17.2 22.8 17.6 22.6 17.7 22.2L19 19L22.3 17.7C22.7 17.5 22.9 17.2 22.9 16.8C22.9 16.4 22.7 16 22.3 15.8Z" fill="white"/>
</svg>
