<svg width="124" height="30" viewBox="0 0 124 30" fill="none" xmlns="http://www.w3.org/2000/svg">
<path d="M71.7724 15.9646C71.7724 13.0019 70.5181 10.3843 66.2758 10.3843C64.0994 10.3843 62.3704 11.0115 61.433 11.5605L62.1201 13.9373C62.9831 13.3899 64.3602 12.939 65.66 12.939C67.8077 12.936 68.1596 14.1643 68.1596 14.954V15.1442C63.4714 15.1365 60.5078 16.7743 60.5078 20.1096C60.5078 22.1475 62.0124 24.0582 64.6424 24.0582C66.247 24.0582 67.603 23.4035 68.4129 22.3699H68.4918C68.4918 22.3699 69.0257 24.6287 71.9787 23.7654C71.8285 22.8192 71.7724 21.8224 71.7724 20.611V15.9646ZM68.2749 19.0929C68.2749 19.3321 68.2552 19.5805 68.1854 19.7937C67.9154 20.7061 66.9842 21.4697 65.8254 21.4697C64.8472 21.4697 64.0796 20.91 64.0796 19.7369C64.0796 17.9428 66.0392 17.449 68.2749 17.4613" fill="white"/>
<path d="M0 6.35339C0 6.35339 3.06221 19.0199 3.5491 21.0717C4.1224 23.47 5.14922 24.3564 8.11289 23.766L10.027 15.9115C10.5108 13.9656 10.8399 12.5701 11.1524 10.5873H11.2054C11.4223 12.59 11.7348 13.9656 12.1306 15.9177C12.1306 15.9177 12.9117 19.4861 13.3167 21.3554C13.711 23.2247 14.8213 24.4039 17.7288 23.766L22.285 6.35339H18.607L17.0433 13.8858C16.6292 16.0679 16.253 17.787 15.9603 19.7866H15.9072C15.6434 17.8084 15.3082 16.1599 14.8774 14.0223L13.2576 6.35339H9.4203L7.69122 13.826C7.19827 16.1078 6.73721 17.9372 6.44751 19.874H6.39747C6.09869 18.0569 5.69373 15.7428 5.26447 13.5469C5.26447 13.5469 4.23766 8.19663 3.87519 6.35339" fill="white"/>
<path d="M32.5352 15.9646C32.5352 13.0019 31.2778 10.3843 27.0356 10.3843C24.8652 10.3843 23.1331 11.0115 22.1958 11.5605L22.8828 13.9373C23.7428 13.3899 25.1185 12.939 26.4229 12.939C28.5705 12.936 28.9224 14.1643 28.9224 14.954V15.1442C24.2343 15.1365 21.2676 16.7743 21.2676 20.1096C21.2676 22.1475 22.7782 24.0582 25.396 24.0582C27.0158 24.0582 28.3597 23.4035 29.1696 22.3699H29.2515C29.2515 22.3699 29.7884 24.6287 32.7384 23.7654C32.5868 22.8192 32.5352 21.8224 32.5352 20.611V15.9646ZM29.0347 19.0929C29.0347 19.3321 29.0149 19.5805 28.9482 19.7937C28.6751 20.7061 27.7439 21.4697 26.5821 21.4697C25.6099 21.4697 24.8394 20.91 24.8394 19.7369C24.8394 17.9428 26.7989 17.449 29.0347 17.4613" fill="white"/>
<path d="M34.4434 6.35339V23.7598H37.9439V20.0688V6.35339H34.4434Z" fill="white"/>
<path d="M82.5195 6.35339V19.1962C82.5195 20.9689 82.8486 22.2049 83.5569 22.9624C84.1788 23.6264 85.1965 24.0589 86.4083 24.0589C87.4488 24.0589 88.4665 23.8564 88.9473 23.6801L88.9048 20.9152C88.5454 20.9996 88.1343 21.0717 87.5701 21.0717C86.375 21.0717 85.9806 20.3065 85.9806 18.7147V13.7984H89.0292V10.4723H85.9806V6.35339" fill="white"/>
<path d="M73.4707 10.6865V23.7655H77.0896V17.0673C77.0896 16.7069 77.1122 16.3956 77.1684 16.1073C77.4384 14.695 78.4985 13.801 80.0259 13.801C80.4521 13.801 80.7417 13.8485 81.0633 13.8991V10.4703C80.7933 10.4212 80.6098 10.3951 80.2777 10.3951C78.9232 10.3951 77.3883 11.2646 76.7407 13.1585H76.6512V10.6865" fill="white"/>
<path d="M39.9785 10.6865V23.7655H43.5048V16.0889C43.5048 15.7286 43.5442 15.3605 43.6701 15.0278C43.9568 14.2503 44.6682 13.3501 45.8102 13.3501C47.2298 13.3501 47.9002 14.5616 47.9002 16.3097V23.7655H51.4175V15.9969C51.4175 15.658 51.4646 15.2424 51.5631 14.9419C51.8452 14.0601 52.6157 13.3501 53.6805 13.3501C55.1153 13.3501 55.8099 14.5355 55.8099 16.5965V23.7655H59.3241V16.0537C59.3241 12.0022 57.2856 10.3951 54.9711 10.3951C53.9535 10.3951 53.1436 10.6482 52.4155 11.1021C51.7997 11.4839 51.2598 12.0222 50.7759 12.726H50.7229C50.1662 11.3183 48.8588 10.3951 47.151 10.3951C44.9609 10.3951 43.9659 11.513 43.3805 12.4577H43.3273V10.6865" fill="white"/>
<path d="M107.967 10.0994C108.659 10.0994 109.241 9.73448 109.317 9.26524L110.003 1.41386C110.003 0.636392 109.097 0 107.967 0C106.831 0 105.932 0.636392 105.932 1.41386L106.623 9.26524C106.696 9.73448 107.275 10.0994 107.967 10.0994Z" fill="white"/>
<path d="M103.761 12.5564C104.104 11.943 104.084 11.2621 103.714 10.9585L97.3135 6.43321C96.6477 6.04065 95.6511 6.50836 95.0809 7.49898C94.5121 8.48806 94.6274 9.5983 95.2796 9.9832L102.366 13.3047C102.819 13.4764 103.412 13.1575 103.761 12.5502" fill="white"/>
<path d="M112.173 12.5499C112.536 13.1571 113.129 13.4761 113.57 13.3135L120.656 9.98285C121.314 9.59028 121.413 8.49078 120.856 7.50169C120.288 6.51107 119.285 6.04643 118.621 6.43133L112.219 10.952C111.864 11.2602 111.838 11.9442 112.181 12.556" fill="white"/>
<path d="M107.967 19.9067C108.659 19.9067 109.241 20.2717 109.317 20.7409L110.003 28.5923C110.003 29.3698 109.097 30.0001 107.967 30.0001C106.831 30.0001 105.932 29.3698 105.932 28.5923L106.623 20.7409C106.696 20.2717 107.275 19.9067 107.967 19.9067Z" fill="white"/>
<path d="M112.173 17.4569C112.536 16.8481 113.129 16.523 113.57 16.6994L120.656 20.024C121.314 20.4089 121.413 21.5176 120.856 22.5082C120.288 23.4911 119.285 23.9588 118.621 23.5739L112.219 19.0471C111.864 18.742 111.838 18.0611 112.181 17.4569" fill="white"/>
<path d="M103.761 17.45C104.104 18.0619 104.084 18.7412 103.714 19.0479L97.3135 23.567C96.6477 23.9596 95.6511 23.4904 95.0809 22.5074C94.5121 21.5183 94.6274 20.4081 95.2796 20.0232L102.366 16.6986C102.819 16.5238 103.412 16.8458 103.761 17.45Z" fill="white"/>
<path d="M122.729 22.8849H122.817C122.937 22.8849 122.986 22.9232 122.999 23.0198C123.025 23.1272 123.039 23.1992 123.065 23.2299H123.292C123.272 23.2069 123.247 23.1486 123.233 23.0137C123.207 22.8971 123.148 22.8312 123.065 22.8082V22.7867C123.18 22.7607 123.247 22.6825 123.247 22.5859C123.247 22.4984 123.207 22.4356 123.168 22.3957C123.092 22.3589 123.019 22.3298 122.858 22.3298C122.716 22.3298 122.611 22.342 122.528 22.362V23.2299H122.729V22.8849ZM122.736 22.4892L122.839 22.4754C122.96 22.4754 123.025 22.5322 123.025 22.6119C123.025 22.7009 122.937 22.7423 122.825 22.7423H122.736V22.4892ZM122.865 21.9004C122.367 21.9004 121.973 22.293 121.973 22.7745C121.973 23.2682 122.367 23.6608 122.865 23.6608C123.368 23.6608 123.75 23.2682 123.75 22.7745C123.75 22.293 123.368 21.9004 122.865 21.9004ZM122.865 22.0767C123.247 22.0767 123.53 22.3896 123.53 22.7745C123.53 23.1624 123.247 23.4845 122.865 23.4783C122.482 23.4783 122.193 23.1624 122.193 22.7745C122.193 22.3896 122.482 22.0767 122.858 22.0767" fill="white"/>
</svg>
