<svg width="111" height="34" viewBox="0 0 111 34" fill="none" xmlns="http://www.w3.org/2000/svg">
<path d="M16.9575 22.7841C20.1377 22.7841 22.8453 20.1882 22.8453 16.8816C22.8453 13.6934 20.2559 10.979 16.9575 10.979C13.7773 10.979 11.0697 13.5749 11.0697 16.8816C11.0697 20.0697 13.7773 22.7841 16.9575 22.7841ZM16.9575 28.2149C18.4267 28.2153 19.8817 27.9255 21.2391 27.362C22.5966 26.7986 23.8301 25.9725 24.869 24.9311C25.908 23.8896 26.7321 22.6531 27.2942 21.2923C27.8564 19.9315 28.1456 18.4729 28.1453 17C28.1453 10.8605 23.0806 5.78511 16.9585 5.78511C10.8363 5.78511 5.77065 10.8605 5.77065 17C5.77065 23.1395 10.8235 28.2149 16.9575 28.2149ZM0 17C0 7.55391 7.65416 0 16.9575 0C26.2608 0 33.915 7.67236 33.915 17C33.915 26.3276 26.2618 34 16.9575 34C7.65318 34 0 26.4461 0 17Z" fill="white"/>
<path d="M43.8981 12.4594V24.6939H40.2236V12.4594H36.0332V9.36397H48.1633V12.4594H43.8981ZM66.322 12.4594H62.9399V15.5548H65.9528C67.0555 15.5548 67.791 15.1126 67.791 14.0071C67.8648 12.9016 67.1284 12.4594 66.32 12.4594H66.322ZM59.3373 9.36397H66.4687C70.5124 9.36397 71.1002 12.1642 71.1002 13.786C71.1002 16.1549 69.1152 17.3236 68.8947 17.3986C68.8947 17.3986 70.7329 18.0619 70.7329 20.0518V22.9261C70.7329 24.0316 71.3946 24.3997 71.5403 24.6949H68.5993C67.2012 24.5468 67.276 23.4413 67.276 22.852V20.3558C67.2022 19.7655 67.0555 19.1022 65.8061 19.1022H62.8651V24.7038H59.4191V9.37483L59.3373 9.36397ZM96.6108 15.1935H90.3616V12.4594H97.7135V9.36397H86.76V24.6929H97.7145V21.5975H90.3626V18.1428H96.6117L96.6108 15.1935ZM106.169 24.7028V12.4594H110.654V9.36397H98.2284V12.4594H102.567V24.6939L106.169 24.7028ZM51.9106 14.8263L50.6602 18.8061H53.3068L51.9106 14.8263ZM49.843 9.37286H53.8128L59.1788 24.6297H55.3665L54.2638 21.4712H49.779L48.6763 24.6297H44.927L49.843 9.37286ZM85.5007 16.1539H78.9572V19.1022H82.1078C82.1078 19.6925 82.1817 20.2818 81.4462 21.175C81.1508 21.4712 80.3435 22.1325 79.1669 22.1325C78.138 22.1325 77.4025 21.8364 76.8039 21.3231C75.4058 20.1436 75.0395 18.0066 75.0395 16.753C75.0395 15.2794 75.6283 11.7408 79.0832 11.5937C79.0832 11.5937 81.5092 11.4457 82.096 14.3209H85.4042C85.3304 12.8473 83.6398 8.79346 79.1551 8.79346C77.6112 8.79346 75.6263 9.23566 73.9348 10.9304C72.7582 12.11 71.6555 14.1739 71.6555 16.9741C71.6555 20.0695 72.7582 22.0594 73.7871 23.1659C75.6253 25.0828 77.4626 25.2387 78.4186 25.2387C79.1541 25.2387 80.6241 25.0907 82.4623 23.8371L82.9034 24.7215H85.4042L85.5007 16.1539Z" fill="white"/>
</svg>
