<svg width="131" height="26" viewBox="0 0 131 26" fill="none" xmlns="http://www.w3.org/2000/svg">
<path d="M21.2777 17.4058C21.2777 20.615 19.4322 22.5732 16.5011 23.1715C15.6869 23.3347 14.3299 23.3347 13.4071 23.3347L6.29647 23.2803V26L0 20.8326L6.29647 15.6653V18.3849L14.2756 18.4393C15.0355 18.4393 15.3612 18.0042 15.3612 17.569C15.3612 16.7531 14.6013 16.4812 12.3215 15.3933C8.68479 13.6527 5.86223 12.4017 5.86223 8.43096C5.86223 5.33055 8.08771 3.20922 11.3445 2.77407C11.9959 2.66528 13.2443 2.66528 14.0042 2.66528C15.6326 2.66528 20.1921 2.77407 20.1921 2.77407V7.72385L12.7015 7.61507C12.0501 7.61507 11.7245 8.05021 11.7245 8.48536C11.7245 9.13808 12.2673 9.41004 14.3842 10.3891C18.8351 12.4561 21.2777 13.5983 21.2777 17.4058ZM33.0565 17.0251C33.0565 17.9498 32.2423 18.7113 30.7767 18.7113C29.2026 18.7113 28.497 17.9498 28.497 17.0251V2.71968H22.3633V17.5146C22.3633 20.7782 25.0773 23.8786 30.7224 23.8786C36.0961 23.8786 39.0815 20.8326 39.0815 17.5146V2.71968H33.0565V17.0251ZM57.9167 17.1339C57.9167 21.2134 55.1484 23.4435 51.1317 23.4435H40.9813V2.71968H50.7517C55.1484 2.71968 57.3739 5.16737 57.3739 8.37657C57.3739 10.0084 56.614 11.4226 55.0941 12.4561C56.8854 13.4351 57.9167 14.9582 57.9167 17.1339ZM47.0064 10.9331H49.829C50.9146 10.9331 51.4031 10.1715 51.4031 9.08368C51.4031 7.94143 50.9146 7.23431 49.829 7.23431H47.0064V10.9331ZM51.783 16.8619C51.783 15.6109 51.186 14.9038 50.1004 14.9038H47.0064V18.8201H50.1004C51.2402 18.8201 51.783 18.0586 51.783 16.8619Z" fill="white"/>
<path d="M78.2175 2.71966H84.2426V17.297C84.2426 20.6694 81.8543 23.7154 76.8063 23.7154C74.6351 23.7154 72.9524 23.0627 71.7582 22.0836C70.5641 23.0627 68.9357 23.7154 66.9273 23.7154C61.5536 23.7154 59.3281 20.6694 59.3281 17.297V2.71966H65.3532V17.1883C65.3532 17.7866 65.6789 18.5481 67.0359 18.5481C68.3929 18.5481 68.7728 17.841 68.7728 17.1883V2.71966H74.7979V17.1883C74.7979 17.7866 75.1236 18.5481 76.4806 18.5481C77.8376 18.5481 78.2175 17.841 78.2175 17.1883V2.71966ZM110.188 10.8786V2.71966H104.218V11.4226C104.218 14.3054 106.172 16.4811 109.483 17.4058V23.3891H115.616V17.4058C118.982 16.4811 120.827 14.3054 120.827 11.4226V8.21338C120.827 7.88702 120.99 7.72384 121.316 7.72384H123.976V10.3347L130.272 5.16736L123.976 0V2.61087H119.796C116.268 2.61087 114.802 4.67782 114.802 7.61505V10.8786C114.802 11.6401 114.259 12.5648 112.468 12.5648C110.731 12.5648 110.188 11.6401 110.188 10.8786ZM102.698 8.64852V23.4435H96.6727V17.4058H92.1132V23.3891H86.0881V8.64852C86.0881 4.94978 89.1278 2.12134 94.3929 2.12134C99.6038 2.12134 102.698 4.89539 102.698 8.64852ZM96.6727 12.6736V8.97488C96.6727 7.9958 95.9671 7.28869 94.3929 7.28869C92.7645 7.28869 92.1132 7.9958 92.1132 8.97488V12.6736H96.6727Z" fill="white"/>
</svg>
