<svg width="72" height="24" viewBox="0 0 72 24" fill="none" xmlns="http://www.w3.org/2000/svg">
<path d="M4.10788 17.1405C4.40961 17.9158 4.82734 18.5787 5.36117 19.1292C5.89499 19.6798 6.52741 20.1012 7.25843 20.3933C7.98952 20.6855 8.7844 20.8315 9.64314 20.8315C10.4787 20.8315 11.2619 20.6798 11.993 20.3764C12.7241 20.073 13.3623 19.6461 13.9077 19.0955C14.4531 18.5449 14.8767 17.8877 15.1784 17.1236C15.4801 16.3596 15.6309 15.5057 15.6309 14.5618V0H19.2863V23.5955H15.6658V21.4045C14.8535 22.2359 13.8961 22.8764 12.7937 23.3259C11.6912 23.7753 10.5019 24 9.2254 24C7.92566 24 6.71305 23.7809 5.5874 23.3427C4.46184 22.9045 3.48701 22.2809 2.66317 21.4719C1.83933 20.6629 1.18943 19.6911 0.713687 18.5562C0.23787 17.4214 0 16.1574 0 14.764V0H3.65533V14.5618C3.65533 15.5057 3.80615 16.3652 4.10788 17.1405Z" fill="white"/>
<path d="M25.5864 0V8.59549C26.3987 7.80898 27.3387 7.18545 28.4062 6.72473C29.4738 6.26401 30.6342 6.03369 31.8875 6.03369C33.1872 6.03369 34.4055 6.26961 35.5428 6.74151C36.68 7.21342 37.6663 7.85389 38.5018 8.66292C39.3374 9.47195 39.9988 10.4269 40.4862 11.5281C40.9736 12.6292 41.2172 13.7978 41.2172 15.0337C41.2172 16.2696 40.9736 17.4326 40.4862 18.5224C39.9988 19.6123 39.3374 20.5618 38.5018 21.3707C37.6663 22.1797 36.68 22.8202 35.5428 23.2921C34.4055 23.764 33.1871 23.9999 31.8875 23.9999C30.6342 23.9999 29.468 23.7696 28.3888 23.3089C27.3096 22.8482 26.3638 22.2246 25.5515 21.4381V23.5954H22.0703V0H25.5864ZM25.9867 17.3595C26.3 18.0787 26.7352 18.7079 27.2922 19.2472C27.8492 19.7866 28.499 20.2136 29.2417 20.5282C29.9844 20.8428 30.7851 21.0001 31.6438 21.0001C32.4794 21.0001 33.2684 20.8428 34.011 20.5282C34.7537 20.2136 35.3977 19.7866 35.9432 19.2472C36.4886 18.708 36.9237 18.0787 37.2486 17.3595C37.5735 16.6405 37.736 15.8652 37.736 15.0337C37.736 14.2023 37.5735 13.4213 37.2486 12.691C36.9237 11.9607 36.4886 11.3259 35.9432 10.7865C35.3977 10.2473 34.7538 9.82586 34.011 9.52252C33.2683 9.21918 32.4793 9.0674 31.6438 9.0674C30.8083 9.0674 30.0192 9.2191 29.2766 9.52252C28.5339 9.82593 27.8841 10.2473 27.327 10.7865C26.7701 11.3259 26.3291 11.9607 26.0042 12.691C25.6793 13.4213 25.5168 14.2023 25.5168 15.0337C25.5167 15.8652 25.6734 16.6405 25.9867 17.3595Z" fill="white"/>
<path d="M43.202 11.5619C43.6661 10.4833 44.3044 9.53385 45.1167 8.71363C45.9289 7.89341 46.8921 7.24735 48.0061 6.77545C49.1202 6.30354 50.327 6.06763 51.6267 6.06763C52.9031 6.06763 54.0868 6.29235 55.1776 6.74173C56.2684 7.19119 57.2083 7.8148 57.9974 8.61257C58.7865 9.41026 59.4016 10.3541 59.8424 11.444C60.2834 12.5339 60.5039 13.7193 60.5039 15.0002V16.1126H46.0567C46.1727 16.8093 46.4048 17.4553 46.7529 18.0507C47.1011 18.6462 47.5362 19.1631 48.0584 19.6013C48.5806 20.0396 49.1724 20.3823 49.8338 20.6294C50.4953 20.8766 51.1973 21.0002 51.94 21.0002C54.052 21.0002 55.7579 20.1575 57.0575 18.4721L59.5988 20.2923C58.7169 21.4383 57.6262 22.3373 56.3265 22.9889C55.0268 23.6406 53.5647 23.9664 51.9401 23.9664C50.6172 23.9664 49.3814 23.7416 48.2325 23.2922C47.0837 22.8429 46.0858 22.2136 45.2387 21.4046C44.3916 20.5955 43.7243 19.6461 43.237 18.5563C42.7496 17.4664 42.5059 16.281 42.5059 15.0001C42.5057 13.7867 42.7379 12.6406 43.202 11.5619ZM48.0932 10.2304C47.1068 11.0282 46.4512 12.09 46.1263 13.4158H56.9531C56.6513 12.09 56.0073 11.0282 55.0209 10.2304C54.0345 9.43272 52.8799 9.03383 51.5571 9.03383C50.2342 9.03383 49.0796 9.43272 48.0932 10.2304Z" fill="white"/>
<path d="M67.0813 10.6181C66.3387 11.4046 65.9673 12.472 65.9673 13.8204V23.5958H62.4512V6.4047H65.9324V8.52831C66.3734 7.83168 66.9478 7.28108 67.6557 6.87661C68.3635 6.47205 69.2048 6.26978 70.1796 6.26978H71.398V9.43833H69.9359C68.7755 9.4384 67.824 9.83162 67.0813 10.6181Z" fill="white"/>
</svg>
