<svg width="102" height="34" viewBox="0 0 102 34" fill="none" xmlns="http://www.w3.org/2000/svg">
<path d="M43.6001 17.6501C43.6136 18.7568 43.4051 19.8551 42.9868 20.8798C42.5686 21.9046 41.9492 22.8351 41.1651 23.6164C40.381 24.3976 39.4483 25.0138 38.4221 25.4283C37.3958 25.8429 36.2968 26.0475 35.1901 26.0301C34.0842 26.0462 32.9864 25.8406 31.9613 25.4254C30.9362 25.0102 30.0046 24.3939 29.2216 23.6128C28.4387 22.8316 27.8201 21.9016 27.4025 20.8775C26.9849 19.8534 26.7766 18.756 26.7901 17.6501C26.7725 16.543 26.9779 15.4438 27.394 14.4178C27.8102 13.3918 28.4286 12.4601 29.2124 11.6781C29.9962 10.8961 30.9294 10.28 31.9564 9.86625C32.9834 9.45254 34.0831 9.24979 35.1901 9.27006C39.8201 9.27006 43.5901 12.7901 43.5901 17.6501H43.6001ZM39.9101 17.6501C39.9101 14.6301 37.7201 12.5701 35.1901 12.5701C32.6501 12.5701 30.4601 14.6301 30.4601 17.6501C30.4601 20.6301 32.6501 22.7201 35.1901 22.7201C37.7201 22.7201 39.9101 20.6201 39.9101 17.6501Z" fill="white"/>
<path d="M61.7308 17.65C61.7443 18.7568 61.5358 19.855 61.1175 20.8798C60.6993 21.9045 60.0799 22.8351 59.2958 23.6163C58.5118 24.3976 57.579 25.0137 56.5528 25.4283C55.5265 25.8429 54.4275 26.0475 53.3208 26.03C52.2149 26.0461 51.1171 25.8405 50.092 25.4253C49.0669 25.0102 48.1353 24.3938 47.3523 23.6127C46.5694 22.8316 45.9508 21.9015 45.5332 20.8774C45.1156 19.8533 44.9073 18.7559 44.9208 17.65C44.9046 16.5433 45.1109 15.4447 45.5275 14.4193C45.9442 13.394 46.5626 12.4628 47.3462 11.6811C48.1297 10.8995 49.0624 10.2832 50.0887 9.86903C51.1151 9.45483 52.2142 9.25112 53.3208 9.27C57.9508 9.27 61.7208 12.79 61.7208 17.65H61.7308ZM58.0508 17.65C58.0508 14.63 55.8508 12.57 53.3208 12.57C50.7808 12.57 48.5908 14.63 48.5908 17.65C48.5908 20.63 50.7908 22.72 53.3208 22.72C55.8608 22.72 58.0508 20.62 58.0508 17.65Z" fill="white"/>
<path d="M79.0991 9.77002V24.82C79.0991 31 75.4491 33.53 71.1391 33.53C69.5494 33.5403 67.9929 33.0756 66.6692 32.1954C65.3454 31.3153 64.3146 30.0598 63.7091 28.59L66.9091 27.26C67.239 28.1195 67.8176 28.8612 68.5711 29.3902C69.3245 29.9192 70.2186 30.2116 71.1391 30.23C73.8991 30.23 75.6091 28.53 75.6091 25.33V24.12H75.4791C74.9265 24.7385 74.2456 25.2289 73.4839 25.5571C72.7222 25.8852 71.8981 26.0432 71.0691 26.02C66.8691 26.02 63.0391 22.37 63.0391 17.68C63.0391 12.95 66.8791 9.27002 71.0691 9.27002C73.0691 9.27002 74.6491 10.15 75.4791 11.14H75.6091V9.78002H79.1091L79.0991 9.77002ZM75.8691 17.67C75.8691 14.73 73.8991 12.57 71.3991 12.57C68.8591 12.57 66.7291 14.73 66.7291 17.67C66.7291 20.6 68.8591 22.72 71.3991 22.72C73.8991 22.72 75.8691 20.6 75.8691 17.68V17.67Z" fill="white"/>
<path d="M84.8595 0.959961V25.5H81.2695V0.959961H84.8595Z" fill="white"/>
<path d="M98.8502 20.4L101.71 22.3C100.945 23.4507 99.9049 24.3931 98.6848 25.0425C97.4647 25.6918 96.1023 26.0277 94.7202 26.02C93.6188 26.0351 92.5257 25.828 91.5061 25.4114C90.4865 24.9947 89.5612 24.3768 88.7857 23.5947C88.0101 22.8126 87.4 21.8822 86.9919 20.8591C86.5837 19.836 86.3859 18.7412 86.4102 17.64C86.4102 12.66 89.9902 9.26001 94.3102 9.26001C98.6602 9.26001 100.79 12.72 101.48 14.59L101.86 15.55L90.6602 20.18C91.0044 20.9616 91.5755 21.6216 92.2995 22.0745C93.0234 22.5275 93.8668 22.7523 94.7202 22.72C96.6002 22.72 97.9002 21.8 98.8502 20.4ZM90.0502 17.39L97.5502 14.28C97.1302 13.23 95.9002 12.5 94.4402 12.5C93.8297 12.528 93.2308 12.6773 92.6786 12.9394C92.1265 13.2014 91.632 13.5708 91.2243 14.0261C90.8165 14.4813 90.5035 15.0133 90.3037 15.5909C90.1038 16.1685 90.021 16.7801 90.0602 17.39H90.0502Z" fill="white"/>
<path d="M13.2 15.47V11.9H25.18C25.29 12.52 25.35 13.25 25.35 14.05C25.35 16.71 24.62 20.01 22.27 22.36C19.99 24.74 17.07 26.01 13.2 26.01C6.03 26.01 0 20.17 0 13.01C0 5.83 6.03 0 13.2 0C17.17 0 20 1.56 22.12 3.59L19.61 6.09C17.8916 4.43162 15.5879 3.51877 13.2 3.55C11.9629 3.54855 10.7379 3.79314 9.5962 4.26954C8.45451 4.74593 7.41897 5.44461 6.54981 6.32493C5.68066 7.20525 4.99525 8.24963 4.53347 9.39731C4.07169 10.545 3.84276 11.773 3.86 13.01C3.86 18.25 7.96 22.47 13.2 22.47C14.4161 22.5203 15.6291 22.3149 16.7608 21.867C17.8925 21.4192 18.9177 20.7388 19.77 19.87C20.77 18.86 21.43 17.42 21.69 15.47H13.19H13.2Z" fill="white"/>
</svg>
