<svg width="94" height="28" viewBox="0 0 94 28" fill="none" xmlns="http://www.w3.org/2000/svg">
<path fill-rule="evenodd" clip-rule="evenodd" d="M58.5795 21.9101C53.1795 25.9001 45.3695 28.0001 38.6395 28.0001C29.6442 28.0484 20.9544 24.7393 14.2695 18.7201C13.7695 18.2701 14.2195 17.6401 14.8295 18.0001C22.2518 22.2387 30.6523 24.4655 39.1995 24.4601C45.1795 24.4601 51.7495 23.2201 57.7995 20.6601C58.6995 20.2701 59.4695 21.2601 58.5795 21.9101Z" fill="white"/>
<path fill-rule="evenodd" clip-rule="evenodd" d="M60.8185 19.3601C60.1285 18.4801 56.2585 18.9401 54.5185 19.1501C53.9985 19.2101 53.9185 18.7501 54.3885 18.4201C57.4785 16.2501 62.5385 16.8801 63.1185 17.6001C63.7185 18.3401 62.9685 23.4001 60.0785 25.8101C59.6285 26.1901 59.2085 25.9901 59.4085 25.5001C60.0585 23.8701 61.5085 20.2401 60.8185 19.3601Z" fill="white"/>
<path fill-rule="evenodd" clip-rule="evenodd" d="M54.6492 3.13006V1.03006C54.6492 0.700058 54.8892 0.490058 55.1792 0.490058H64.6292C64.9292 0.490058 65.1692 0.710059 65.1692 1.02006V2.82006C65.1692 3.12006 64.9092 3.52006 64.4592 4.15006L59.5592 11.1201C61.3792 11.0801 63.2992 11.3501 64.9592 12.2801C65.3192 12.4801 65.4292 12.7901 65.4592 13.1001V15.3401C65.4592 15.6501 65.1192 16.0101 64.7592 15.8201C63.2146 15.0277 61.5028 14.616 59.7668 14.6195C58.0307 14.623 56.3207 15.0415 54.7792 15.8401C54.4492 16.0101 54.1092 15.6601 54.1092 15.3501V13.2201C54.1092 12.8801 54.1092 12.2901 54.4592 11.7701L60.1292 3.66006H55.1892C55.1188 3.66139 55.0488 3.64866 54.9833 3.62262C54.9179 3.59658 54.8582 3.55775 54.808 3.5084C54.7577 3.45906 54.7178 3.40018 54.6905 3.33522C54.6632 3.27025 54.6492 3.20051 54.6492 3.13006ZM20.1992 16.2601H17.3192C17.1928 16.2514 17.0734 16.1986 16.982 16.1109C16.8906 16.0231 16.833 15.906 16.8192 15.7801V1.06006C16.8192 0.760059 17.0592 0.530058 17.3692 0.530058H20.0392C20.3192 0.540058 20.5392 0.760058 20.5592 1.03006V2.95006H20.6192C21.3192 1.09006 22.6192 0.220058 24.3992 0.220058C26.1992 0.220058 27.3192 1.09006 28.1292 2.95006C28.4149 2.13418 28.9524 1.43013 29.6642 0.939475C30.3759 0.448815 31.2251 0.196899 32.0892 0.220058C33.2892 0.220058 34.6092 0.720058 35.4192 1.83006C36.3192 3.07006 36.1392 4.87006 36.1392 6.45006V15.7301C36.1392 16.0301 35.8892 16.2601 35.5892 16.2601H32.7192C32.5829 16.2551 32.4535 16.1987 32.357 16.1023C32.2606 16.0058 32.2042 15.8764 32.1992 15.7401V7.94006C32.1992 7.31006 32.2592 5.76006 32.1192 5.18006C31.8992 4.18006 31.2592 3.91006 30.4292 3.91006C29.7292 3.91006 29.0092 4.37006 28.7092 5.11006C28.4192 5.86006 28.4492 7.10006 28.4492 7.93006V15.7301C28.4492 16.0301 28.1992 16.2601 27.8892 16.2601H25.0192C24.8846 16.2527 24.7577 16.1952 24.6633 16.099C24.569 16.0028 24.514 15.8747 24.5092 15.7401V7.94006C24.5092 6.29006 24.7692 3.88006 22.7392 3.88006C20.6692 3.88006 20.7492 6.23006 20.7492 7.93006V15.7301C20.7492 16.0301 20.4992 16.2601 20.1992 16.2601ZM73.3092 3.23006C71.1992 3.23006 71.0592 6.11006 71.0592 7.90006C71.0592 9.70006 71.0392 13.5401 73.2892 13.5401C75.5092 13.5401 75.6192 10.4401 75.6192 8.55006C75.6192 7.31006 75.5692 5.83006 75.1892 4.65006C74.8692 3.63006 74.2292 3.23006 73.3092 3.23006ZM73.2892 0.220058C77.5492 0.220058 79.8592 3.88006 79.8592 8.52006C79.8592 13.0201 77.3092 16.5701 73.2892 16.5701C69.0992 16.5701 66.8292 12.9201 66.8292 8.37006C66.8292 3.78006 69.1292 0.220058 73.2892 0.220058ZM85.3892 16.2601H82.5192C82.3847 16.2527 82.2577 16.1952 82.1634 16.099C82.069 16.0028 82.014 15.8747 82.0092 15.7401V1.00006C82.0263 0.866633 82.0917 0.744107 82.1931 0.655657C82.2944 0.567206 82.4247 0.518965 82.5592 0.520059H85.2192C85.4692 0.530059 85.6792 0.700058 85.7292 0.930058V3.18006H85.7792C86.5892 1.17006 87.7192 0.210058 89.6992 0.210058C90.9892 0.210058 92.2492 0.680058 93.0492 1.95006C93.7992 3.12006 93.7992 5.11006 93.7992 6.53006V15.7901C93.7777 15.9198 93.7104 16.0376 93.6095 16.122C93.5086 16.2064 93.3808 16.2518 93.2492 16.2501H90.3692C90.2458 16.2422 90.1288 16.1923 90.0378 16.1085C89.9468 16.0248 89.8873 15.9124 89.8692 15.7901V7.79006C89.8692 6.19006 90.0492 3.84006 88.0692 3.84006C87.3692 3.84006 86.7192 4.30006 86.3992 5.01006C85.9992 5.91006 85.9392 6.81006 85.9392 7.80006V15.7201C85.9392 16.0201 85.6892 16.2501 85.3892 16.2501M50.0092 16.2201C49.9154 16.298 49.8001 16.3455 49.6786 16.3562C49.5571 16.3669 49.4352 16.3404 49.3292 16.2801C48.3692 15.4901 48.1992 15.1301 47.6792 14.3801C46.1092 15.9801 44.9792 16.4601 42.9492 16.4601C40.5292 16.4601 38.6492 14.9601 38.6492 11.9901C38.6147 10.9885 38.89 10.0006 39.4377 9.16124C39.9853 8.3219 40.7786 7.67194 41.7092 7.30006C43.2692 6.62006 45.4492 6.50006 47.1092 6.30006V5.94006C47.1092 5.25006 47.1692 4.44006 46.7592 3.86006C46.4092 3.33006 45.7392 3.11006 45.1492 3.11006C44.0492 3.11006 43.0792 3.67006 42.8392 4.83006C42.7892 5.09006 42.5992 5.35006 42.3392 5.36006L39.5592 5.06006C39.3192 5.01006 39.0592 4.82006 39.1292 4.46006C39.7692 1.09006 42.8192 0.0600586 45.5492 0.0600586C46.9492 0.0600586 48.7792 0.440058 49.8792 1.50006C51.2792 2.80006 51.1392 4.54006 51.1392 6.43006V10.9001C51.1392 12.2401 51.6992 12.8301 52.2292 13.5601C52.4092 13.8201 52.4492 14.1301 52.2192 14.3201C51.6292 14.8101 50.5892 15.7201 50.0192 16.2201H50.0092ZM47.1092 9.22006C47.1092 10.3401 47.1392 11.2701 46.5692 12.2701C46.1192 13.0701 45.3892 13.5701 44.5892 13.5701C43.4892 13.5701 42.8392 12.7301 42.8392 11.4901C42.8392 9.05006 45.0392 8.61006 47.1092 8.61006V9.22006ZM12.3492 16.2201C12.2554 16.298 12.1401 16.3455 12.0186 16.3562C11.8971 16.3669 11.7752 16.3404 11.6692 16.2801C10.7192 15.4901 10.5492 15.1301 10.0192 14.3801C8.44922 15.9801 7.32922 16.4601 5.28922 16.4601C2.86922 16.4601 0.989217 14.9601 0.989217 11.9901C0.954707 10.9885 1.23005 10.0006 1.77768 9.16124C2.32532 8.3219 3.11857 7.67194 4.04921 7.30006C5.60921 6.62006 7.78922 6.50006 9.44922 6.30006V5.94006C9.44922 5.25006 9.50921 4.44006 9.09921 3.86006C8.75921 3.33006 8.07922 3.11006 7.49922 3.11006C6.39922 3.11006 5.41922 3.67006 5.17922 4.83006C5.12922 5.09006 4.93922 5.35006 4.67922 5.36006L1.89922 5.06006C1.66922 5.01006 1.39922 4.82006 1.46922 4.46006C2.10922 1.09006 5.16922 0.0600586 7.89922 0.0600586C9.29922 0.0600586 11.1192 0.440058 12.2192 1.50006C13.6192 2.80006 13.4892 4.54006 13.4892 6.43006V10.9001C13.4892 12.2401 14.0392 12.8301 14.5692 13.5601C14.7492 13.8201 14.7892 14.1301 14.5592 14.3201C13.9692 14.8101 12.9292 15.7201 12.3592 16.2201H12.3492ZM9.44922 9.22006C9.44922 10.3401 9.47921 11.2701 8.91921 12.2701C8.45921 13.0701 7.73921 13.5701 6.91921 13.5701C5.81921 13.5701 5.17922 12.7301 5.17922 11.4901C5.17922 9.05006 7.37922 8.61006 9.45922 8.61006V9.22006H9.44922Z" fill="white"/>
</svg>
