<svg width="140" height="28" viewBox="0 0 140 28" fill="none" xmlns="http://www.w3.org/2000/svg">
<path d="M25.3171 14.6626C25.2706 14.2674 25.0842 13.9186 24.7582 13.6861C24.4555 13.4536 24.0596 13.3374 23.6869 13.3839C23.291 13.4304 22.9417 13.6164 22.7088 13.9419L16.8867 21.4051C16.3045 22.1491 15.4661 22.6141 14.5345 22.7071C13.603 22.8234 12.6947 22.5444 11.9495 21.9631C10.4823 20.7774 10.2494 18.5919 11.4372 17.1039L17.2593 9.66386C17.4922 9.36161 17.6086 8.96636 17.562 8.59436C17.5155 8.19911 17.3292 7.85036 17.0031 7.61786C16.7004 7.38536 16.3045 7.26911 15.9318 7.31561C15.5359 7.36211 15.1866 7.54811 14.9537 7.87361L9.1083 15.3369C8.52608 16.0809 7.6877 16.5459 6.75615 16.6389C5.82461 16.7551 4.91636 16.4761 4.17112 15.8949C2.70395 14.7091 2.47106 12.5236 3.65878 11.0356L4.28757 10.2451C4.31086 10.2219 4.33414 10.1986 4.33414 10.1754L9.66722 3.33984C10.4125 2.38659 11.4372 1.61934 12.4386 1.29384L11.4837 0.549837C10.4357 -0.263916 8.92199 -0.170915 7.99045 0.805588C7.78085 1.03809 7.57125 1.27059 7.36166 1.52634L7.17535 1.75884L1.3765 9.19886C0.305224 10.5474 -0.160547 12.2679 0.0490497 13.9884C0.258647 15.6856 1.09703 17.1969 2.42448 18.2199C3.70535 19.2196 5.31226 19.6846 6.91917 19.5451L7.6877 19.4754L7.80414 20.2426C8.06031 21.8469 8.8987 23.2884 10.1796 24.2882C11.0412 24.9624 12.0892 25.4042 13.1605 25.5669C13.7194 25.6367 14.3016 25.6599 14.8606 25.5902C16.6072 25.3809 18.1443 24.5207 19.2155 23.1489L25.0144 15.7554C25.2706 15.4299 25.3637 15.0579 25.3171 14.6626Z" fill="white"/>
<path d="M4.91442 13.3607C4.96099 13.7559 5.1473 14.1047 5.47334 14.3372C5.77609 14.5697 6.172 14.6859 6.54462 14.6394C6.94052 14.5929 7.28985 14.4069 7.52274 14.0814L13.3682 6.61818C13.9504 5.87417 14.7888 5.40917 15.7203 5.31617C16.6519 5.19992 17.5601 5.47892 18.3053 6.06017C19.7725 7.24593 20.0054 9.43143 18.8177 10.9194L12.9955 18.3595C12.7627 18.6617 12.6462 19.057 12.6928 19.429C12.7394 19.8242 12.9257 20.173 13.2517 20.4055C13.5545 20.638 13.9504 20.7542 14.323 20.7077C14.7189 20.6612 15.0682 20.4752 15.3011 20.1497L21.1465 12.6864C21.7288 11.9424 22.5671 11.4774 23.4987 11.3844C24.4302 11.2682 25.3385 11.5472 26.0837 12.1284C27.5509 13.3142 27.7838 15.4997 26.5961 16.9877L25.9673 17.7782C25.944 17.8015 25.9207 17.8247 25.9207 17.848L20.5643 24.6602C19.8191 25.6135 18.7944 26.3807 17.793 26.7062L18.7478 27.4502C19.7958 28.264 21.3096 28.171 22.2411 27.1945C22.4507 26.962 22.6603 26.7295 22.8699 26.4737L23.0562 26.2412L28.8783 18.8012C29.9496 17.4527 30.4154 15.7322 30.2058 14.0117C29.9962 12.3144 29.1578 10.8032 27.8304 9.78018C26.5495 8.78043 24.9426 8.31543 23.3357 8.45493L22.5671 8.52468L22.4507 7.75743C22.1945 6.15317 21.3561 4.71167 20.0753 3.71192C19.2136 3.03766 18.1656 2.59591 17.0943 2.43316C16.5354 2.36341 15.9532 2.34016 15.3943 2.40991C13.6476 2.61916 12.1106 3.47942 11.0393 4.85117L5.21717 12.2679C4.98428 12.5934 4.86784 12.9654 4.91442 13.3607Z" fill="white"/>
<path d="M35.9395 8.82654H39.293L41.1561 16.1271L41.3657 16.9873L41.6451 16.1271L43.7178 8.82654H46.4892L48.5619 16.1271L48.818 16.9873L49.0509 16.1271L50.914 8.82654H54.2675L50.5414 20.9863H47.2577L45.0453 13.8486L42.6931 20.9863H39.5958L35.9395 8.82654Z" fill="white"/>
<path d="M66.0267 14.8948C66.0267 11.7096 63.7677 9.08229 60.81 8.59404C60.7868 8.59404 60.7867 8.59404 60.7635 8.59404C60.6703 8.57079 60.5772 8.57079 60.5073 8.54754C60.4607 8.54754 60.4374 8.54754 60.3908 8.54754C60.321 8.54754 60.2511 8.52429 60.2045 8.52429C60.0881 8.52429 59.9717 8.52429 59.8785 8.52429C56.4784 8.52429 53.707 11.3841 53.707 14.8948C53.707 18.1963 56.129 20.8933 59.2264 21.2188C59.3196 21.2188 59.3894 21.2421 59.4826 21.2421C59.5059 21.2421 59.5059 21.2421 59.5292 21.2421C59.6456 21.2421 59.7388 21.2421 59.8552 21.2421C59.9484 21.2421 60.0648 21.2421 60.158 21.2421C60.2511 21.2421 60.3676 21.2188 60.4607 21.2188H60.484C62.8361 20.9631 64.7924 19.3588 65.6075 17.1501H62.6033H62.1142C61.5786 17.8243 60.7635 18.2428 59.8552 18.2428C58.4346 18.2428 57.2469 17.1966 57.014 15.8481H65.9335C66.0034 15.5458 66.0267 15.2203 66.0267 14.8948ZM57.0373 13.6858C57.2702 12.3141 58.4579 11.2911 59.8785 11.2911C61.2991 11.2911 62.4868 12.3373 62.7197 13.6858H57.0373Z" fill="white"/>
<path d="M73.5725 8.57083C72.7807 8.57083 72.0121 8.75683 71.3601 9.19859C70.9874 9.45434 70.6614 9.73334 70.3354 10.0356V9.40784V7.08283V4.15332H67.1914V14.8949V20.9864H70.3354V20.3819V19.6611C70.3819 19.7076 70.4285 19.7541 70.4518 19.8006C70.8244 20.1959 71.2436 20.4749 71.6628 20.6841C72.8738 21.2654 74.2478 21.2886 75.5287 20.8934C78.0904 20.0796 79.9535 17.7546 79.9535 14.9181C79.9535 11.3841 77.089 8.57083 73.5725 8.57083ZM73.5725 18.0801C71.8258 18.0801 70.4052 16.6619 70.4052 14.9181C70.4052 13.1743 71.8258 11.7561 73.5725 11.7561C75.3191 11.7561 76.7397 13.1743 76.7397 14.9181C76.7397 16.6619 75.3191 18.0801 73.5725 18.0801Z" fill="white"/>
<path d="M86.8264 8.52429C83.3098 8.52429 80.4453 11.3841 80.4453 14.8948C80.4453 18.4056 83.3098 21.2653 86.8264 21.2653C90.3429 21.2653 93.2074 18.4056 93.2074 14.8948C93.2074 11.3841 90.3429 8.52429 86.8264 8.52429ZM86.8264 18.0801C85.0797 18.0801 83.6591 16.6618 83.6591 14.9181C83.6591 13.1743 85.0797 11.7561 86.8264 11.7561C88.573 11.7561 89.9936 13.1743 89.9936 14.9181C89.9936 16.6618 88.573 18.0801 86.8264 18.0801Z" fill="white"/>
<path d="M100.729 11.7329V9.03585H98.0972V5.89709H94.8601V9.0126H92.834V11.7096H94.8601V17.0106C94.8601 18.5916 95.2094 19.6611 95.9546 20.3121C96.63 20.9166 97.6314 21.1956 99.052 21.1956C99.5178 21.1956 100.053 21.1724 100.636 21.1026H100.729V18.1034H100.612C99.5411 18.1731 98.726 18.1731 98.3767 17.8244C98.1903 17.6616 98.1205 17.3826 98.1205 17.0106V11.7329H100.729Z" fill="white"/>
<path d="M108.46 8.54758C106.946 8.54758 105.805 9.05909 105.06 10.1053V4.15332H101.613V20.9864H105.06V14.5926C105.06 13.6393 105.27 12.8953 105.712 12.3838C106.155 11.8723 106.713 11.6166 107.412 11.6166C108.041 11.6166 108.507 11.8026 108.833 12.1746C109.159 12.5466 109.322 13.0813 109.322 13.8021V20.9631H112.769V13.0581C112.769 11.6631 112.396 10.5471 111.651 9.73334C110.929 8.96608 109.857 8.54758 108.46 8.54758Z" fill="white"/>
<path d="M114.375 20.661C113.979 20.2657 113.793 19.7775 113.793 19.1962C113.793 18.615 113.979 18.1267 114.375 17.7547C114.771 17.3827 115.26 17.1735 115.819 17.1735C116.378 17.1735 116.867 17.3595 117.263 17.7547C117.659 18.15 117.868 18.615 117.868 19.1962C117.868 19.7775 117.659 20.2425 117.263 20.6377C116.867 21.033 116.378 21.219 115.819 21.219C115.237 21.2422 114.771 21.0562 114.375 20.661Z" fill="white"/>
<path d="M125.67 8.82654V16.2898C125.67 17.3361 124.832 18.1731 123.784 18.1731C122.736 18.1731 121.898 17.3361 121.898 16.2898V8.82654H118.73V16.2201C118.73 19.0101 120.989 21.2421 123.761 21.2421C126.555 21.2421 128.791 18.9868 128.791 16.2201V8.82654H125.67Z" fill="white"/>
<path d="M129.816 17.2896H132.89C132.89 17.7778 133.054 18.1498 133.356 18.4056C133.659 18.6613 134.078 18.7776 134.637 18.7776C135.103 18.7776 135.476 18.6846 135.755 18.4753C136.011 18.2661 136.151 17.9871 136.151 17.6151C136.151 17.2198 136.011 16.9176 135.708 16.6851C135.406 16.4526 134.823 16.2666 133.962 16.1038C132.634 15.8713 131.656 15.4761 131.004 14.8948C130.375 14.3136 130.049 13.5231 130.049 12.5233C130.049 11.4073 130.445 10.4541 131.214 9.71005C132.006 8.9428 133.1 8.5708 134.544 8.5708C135.825 8.5708 136.896 8.91955 137.711 9.6403C138.526 10.3378 138.969 11.2678 139.015 12.4303H135.918C135.895 11.5003 135.429 11.0353 134.521 11.0353C134.101 11.0353 133.752 11.1516 133.519 11.3608C133.286 11.5701 133.17 11.8723 133.17 12.2211C133.17 12.5931 133.31 12.8953 133.612 13.1046C133.915 13.3138 134.474 13.4766 135.312 13.6161C136.756 13.8486 137.758 14.2671 138.363 14.8716C138.969 15.4761 139.272 16.2898 139.272 17.3128C139.272 17.9871 139.155 18.5683 138.899 19.1031C138.643 19.6146 138.293 20.0331 137.874 20.3353C137.432 20.6376 136.943 20.8933 136.384 21.0328C135.825 21.1956 135.219 21.2653 134.567 21.2653C133.1 21.2653 131.936 20.9166 131.121 20.1958C130.282 19.4751 129.863 18.5218 129.816 17.2896Z" fill="white"/>
</svg>
