<svg width="24" height="24" viewBox="0 0 24 24" fill="none" xmlns="http://www.w3.org/2000/svg">
<path d="M10 21C10 21.6 9.6 22 9 22H6C5.4 22 5 21.6 5 21C5 20.4 5.4 20 6 20H9C9.6 20 10 20.4 10 21ZM18 20H15C14.4 20 14 20.4 14 21C14 21.6 14.4 22 15 22H18C18.6 22 19 21.6 19 21C19 20.4 18.6 20 18 20ZM22 6.2V14.8C22 16 22 16.7 21.7 17.4C21.4 18 21 18.4 20.4 18.7C19.7 19 19 19 17.8 19H6.2C5 19 4.3 19 3.6 18.7C3 18.4 2.6 18 2.3 17.4C2 16.7 2 16 2 14.8V6.2C2 5 2 4.3 2.3 3.6C2.6 3 3 2.6 3.6 2.3C4.3 2 5 2 6.2 2H17.8C19 2 19.7 2 20.4 2.3C21 2.6 21.4 3 21.7 3.6C22 4.3 22 5 22 6.2ZM11.5 10.5C11.5 9.1 10.4 8 9 8C7.6 8 6.5 9.1 6.5 10.5C6.5 11.9 7.6 13 9 13C10.4 13 11.5 11.9 11.5 10.5ZM18.5 6.5C18.5 5.9 18.1 5.5 17.5 5.5C16.9 5.5 16.5 5.9 16.5 6.5V14.5C16.5 15.1 16.9 15.5 17.5 15.5C18.1 15.5 18.5 15.1 18.5 14.5V6.5Z" fill="white"/>
</svg>
