<svg width="50" height="50" viewBox="0 0 50 50" fill="none" xmlns="http://www.w3.org/2000/svg">
<path d="M25.0008 48.7C38.0899 48.7 48.7008 38.0892 48.7008 25C48.7008 11.9109 38.0899 1.30005 25.0008 1.30005C11.9116 1.30005 1.30078 11.9109 1.30078 25C1.30078 38.0892 11.9116 48.7 25.0008 48.7Z" fill="url(#paint0_linear_6885_3365)"/>
<path d="M49 24.8799V24.9999C49 38.2599 38.26 48.9999 25 48.9999C14.68 48.9999 5.86 42.4599 2.5 33.2799C7.9 36.9999 14.44 39.1599 21.52 39.1599C32.86 39.1599 42.94 33.5199 49 24.8799Z" fill="#0A0D14"/>
<path d="M25.0008 48.7C38.0899 48.7 48.7008 38.0892 48.7008 25C48.7008 11.9109 38.0899 1.30005 25.0008 1.30005C11.9116 1.30005 1.30078 11.9109 1.30078 25C1.30078 38.0892 11.9116 48.7 25.0008 48.7Z" stroke="#3C414C" stroke-miterlimit="10"/>
<path d="M23.4986 22.0022C23.6748 21.5014 24.0226 21.079 24.4804 20.81C24.9381 20.5409 25.4763 20.4426 25.9997 20.5324C26.523 20.6221 26.9977 20.8942 27.3396 21.3004C27.6815 21.7066 27.8687 22.2207 27.8679 22.7517C27.8679 24.2506 25.6196 25 25.6196 25M25.6486 28H25.6586M25.4986 33C30.1931 33 33.9986 29.1944 33.9986 24.5C33.9986 19.8056 30.1931 16 25.4986 16C20.8042 16 16.9986 19.8056 16.9986 24.5C16.9986 25.45 17.1545 26.3636 17.442 27.2166C17.5502 27.5376 17.6043 27.6981 17.6141 27.8214C17.6237 27.9432 17.6164 28.0286 17.5863 28.1469C17.5558 28.2668 17.4884 28.3915 17.3537 28.6408L15.7181 31.6684C15.4848 32.1002 15.3681 32.3161 15.3942 32.4828C15.417 32.6279 15.5024 32.7557 15.6278 32.8322C15.7718 32.9201 16.0159 32.8948 16.5042 32.8444L21.6252 32.315C21.7803 32.299 21.8578 32.291 21.9285 32.2937C21.998 32.2963 22.0471 32.3029 22.1149 32.3185C22.1838 32.3344 22.2705 32.3678 22.4438 32.4345C23.3919 32.7998 24.4219 33 25.4986 33Z" stroke="white" stroke-width="1.5" stroke-linecap="round" stroke-linejoin="round"/>
<defs>
<linearGradient id="paint0_linear_6885_3365" x1="1.30078" y1="30.1097" x2="48.7008" y2="30.1097" gradientUnits="userSpaceOnUse">
<stop stop-color="#1D1F2D"/>
<stop offset="1" stop-color="#1D1F2E"/>
</linearGradient>
</defs>
</svg>
